G04 #@! TF.GenerationSoftware,KiCad,Pcbnew,7.0.5*
G04 #@! TF.CreationDate,2023-07-10T18:36:48-07:00*
G04 #@! TF.ProjectId,Breakout,42726561-6b6f-4757-942e-6b696361645f,rev?*
G04 #@! TF.SameCoordinates,Original*
G04 #@! TF.FileFunction,Copper,L1,Top*
G04 #@! TF.FilePolarity,Positive*
%FSLAX46Y46*%
G04 Gerber Fmt 4.6, Leading zero omitted, Abs format (unit mm)*
G04 Created by KiCad (PCBNEW 7.0.5) date 2023-07-10 18:36:48*
%MOMM*%
%LPD*%
G01*
G04 APERTURE LIST*
G04 Aperture macros list*
%AMRoundRect*
0 Rectangle with rounded corners*
0 $1 Rounding radius*
0 $2 $3 $4 $5 $6 $7 $8 $9 X,Y pos of 4 corners*
0 Add a 4 corners polygon primitive as box body*
4,1,4,$2,$3,$4,$5,$6,$7,$8,$9,$2,$3,0*
0 Add four circle primitives for the rounded corners*
1,1,$1+$1,$2,$3*
1,1,$1+$1,$4,$5*
1,1,$1+$1,$6,$7*
1,1,$1+$1,$8,$9*
0 Add four rect primitives between the rounded corners*
20,1,$1+$1,$2,$3,$4,$5,0*
20,1,$1+$1,$4,$5,$6,$7,0*
20,1,$1+$1,$6,$7,$8,$9,0*
20,1,$1+$1,$8,$9,$2,$3,0*%
G04 Aperture macros list end*
G04 #@! TA.AperFunction,ComponentPad*
%ADD10R,1.700000X1.700000*%
G04 #@! TD*
G04 #@! TA.AperFunction,ComponentPad*
%ADD11C,1.700000*%
G04 #@! TD*
G04 #@! TA.AperFunction,SMDPad,CuDef*
%ADD12RoundRect,0.048800X0.256200X-0.871200X0.256200X0.871200X-0.256200X0.871200X-0.256200X-0.871200X0*%
G04 #@! TD*
G04 #@! TA.AperFunction,SMDPad,CuDef*
%ADD13R,0.758800X0.350799*%
G04 #@! TD*
G04 #@! TA.AperFunction,SMDPad,CuDef*
%ADD14R,0.920000X0.980000*%
G04 #@! TD*
G04 #@! TA.AperFunction,SMDPad,CuDef*
%ADD15R,2.667000X1.955800*%
G04 #@! TD*
G04 #@! TA.AperFunction,SMDPad,CuDef*
%ADD16R,1.106399X0.466400*%
G04 #@! TD*
G04 #@! TA.AperFunction,SMDPad,CuDef*
%ADD17R,1.400000X2.100000*%
G04 #@! TD*
G04 #@! TA.AperFunction,SMDPad,CuDef*
%ADD18R,0.980000X0.920000*%
G04 #@! TD*
G04 #@! TA.AperFunction,SMDPad,CuDef*
%ADD19R,0.972299X0.558000*%
G04 #@! TD*
G04 #@! TA.AperFunction,SMDPad,CuDef*
%ADD20RoundRect,0.020500X-0.184500X0.764500X-0.184500X-0.764500X0.184500X-0.764500X0.184500X0.764500X0*%
G04 #@! TD*
G04 #@! TA.AperFunction,ComponentPad*
%ADD21O,1.700000X1.700000*%
G04 #@! TD*
G04 #@! TA.AperFunction,SMDPad,CuDef*
%ADD22R,1.092200X2.108200*%
G04 #@! TD*
G04 #@! TA.AperFunction,ComponentPad*
%ADD23C,3.100000*%
G04 #@! TD*
G04 #@! TA.AperFunction,ComponentPad*
%ADD24R,1.725000X1.725000*%
G04 #@! TD*
G04 #@! TA.AperFunction,ComponentPad*
%ADD25C,1.725000*%
G04 #@! TD*
G04 #@! TA.AperFunction,ViaPad*
%ADD26C,1.000000*%
G04 #@! TD*
G04 #@! TA.AperFunction,ViaPad*
%ADD27C,2.000000*%
G04 #@! TD*
G04 #@! TA.AperFunction,ViaPad*
%ADD28C,0.800000*%
G04 #@! TD*
G04 #@! TA.AperFunction,ViaPad*
%ADD29C,0.600000*%
G04 #@! TD*
G04 #@! TA.AperFunction,Conductor*
%ADD30C,0.400000*%
G04 #@! TD*
G04 #@! TA.AperFunction,Conductor*
%ADD31C,0.200000*%
G04 #@! TD*
G04 #@! TA.AperFunction,Conductor*
%ADD32C,0.600000*%
G04 #@! TD*
G04 #@! TA.AperFunction,Conductor*
%ADD33C,0.300000*%
G04 #@! TD*
G04 #@! TA.AperFunction,Conductor*
%ADD34C,1.000000*%
G04 #@! TD*
G04 #@! TA.AperFunction,Conductor*
%ADD35C,0.500000*%
G04 #@! TD*
G04 #@! TA.AperFunction,Conductor*
%ADD36C,0.250000*%
G04 #@! TD*
G04 APERTURE END LIST*
D10*
X126532000Y-121700000D03*
D11*
X123992000Y-121700000D03*
X121452000Y-121700000D03*
X118912000Y-121700000D03*
D12*
X122620000Y-100060000D03*
X123890000Y-100060000D03*
X125160000Y-100060000D03*
X126430000Y-100060000D03*
X126430000Y-94990000D03*
X125160000Y-94990000D03*
X123890000Y-94990000D03*
X122620000Y-94990000D03*
D13*
X107020600Y-87884000D03*
X107979400Y-87884000D03*
D14*
X119875000Y-106300000D03*
X118325000Y-106300000D03*
D15*
X123300000Y-91781300D03*
X123300000Y-86218700D03*
D16*
X119890600Y-104449999D03*
X119890600Y-103150001D03*
X117909400Y-103800000D03*
D17*
X111500000Y-84550000D03*
X111500000Y-75450000D03*
X107000000Y-75450000D03*
X107000000Y-84550000D03*
D10*
X111506000Y-101854000D03*
X133100000Y-107300000D03*
D18*
X122225000Y-107600000D03*
X122225000Y-106050000D03*
D19*
X120712451Y-96475001D03*
X120712451Y-95525000D03*
X120712451Y-94574999D03*
X117987549Y-94574999D03*
X117987549Y-95525000D03*
X117987549Y-96475001D03*
D14*
X119575000Y-98425000D03*
X118025000Y-98425000D03*
D17*
X134050000Y-75450000D03*
X134050000Y-84550000D03*
X138550000Y-84550000D03*
X138550000Y-75450000D03*
D20*
X127850000Y-105030000D03*
X127200000Y-105030000D03*
X126550000Y-105030000D03*
X125900000Y-105030000D03*
X125250000Y-105030000D03*
X124600000Y-105030000D03*
X123950000Y-105030000D03*
X123950000Y-110770000D03*
X124600000Y-110770000D03*
X125250000Y-110770000D03*
X125900000Y-110770000D03*
X126550000Y-110770000D03*
X127200000Y-110770000D03*
X127850000Y-110770000D03*
D10*
X108712000Y-71374000D03*
D21*
X111252000Y-71374000D03*
D22*
X126300000Y-115047400D03*
X126300000Y-118552600D03*
D23*
X127254000Y-71882000D03*
X117094000Y-71882000D03*
D11*
X122174000Y-76962000D03*
X119634000Y-76962000D03*
D13*
X138581000Y-87630000D03*
X137622200Y-87630000D03*
D24*
X129942000Y-80619500D03*
D25*
X129942000Y-83159500D03*
X129942000Y-85699500D03*
X129942000Y-88239500D03*
X129942000Y-90779500D03*
X129942000Y-93319500D03*
X129942000Y-95859500D03*
X129942000Y-98399500D03*
X129942000Y-100939500D03*
X129942000Y-103479500D03*
X129942000Y-106019500D03*
X129942000Y-108559500D03*
X129942000Y-111099500D03*
X129942000Y-113639500D03*
X129942000Y-116179500D03*
X114702000Y-116179500D03*
X114702000Y-113639500D03*
X114702000Y-111099500D03*
X114702000Y-108559500D03*
X114702000Y-106019500D03*
X114702000Y-103479500D03*
X114702000Y-100939500D03*
X114702000Y-98399500D03*
X114702000Y-95859500D03*
X114702000Y-93319500D03*
X114702000Y-90779500D03*
X114702000Y-88239500D03*
X114702000Y-85699500D03*
X114702000Y-83159500D03*
D24*
X114702000Y-80619500D03*
D26*
X122620000Y-101850000D03*
X109871000Y-86871000D03*
X120700000Y-107925000D03*
X122587500Y-104512500D03*
X119200000Y-99825000D03*
D27*
X118600000Y-92400000D03*
X126425000Y-92350000D03*
D28*
X119126000Y-101600000D03*
D29*
X123975000Y-112750000D03*
D30*
X126430000Y-92355000D02*
X126430000Y-94990000D01*
X126425000Y-92350000D02*
X126430000Y-92355000D01*
D31*
X126430000Y-96831500D02*
X129942000Y-93319500D01*
X126430000Y-100060000D02*
X126430000Y-96831500D01*
X126500000Y-100130000D02*
X126430000Y-100060000D01*
X126500000Y-104980000D02*
X126500000Y-100130000D01*
X126550000Y-105030000D02*
X126500000Y-104980000D01*
D30*
X122620000Y-101850000D02*
X122620000Y-100060000D01*
D32*
X122620000Y-94990000D02*
X122620000Y-92461300D01*
D33*
X125250000Y-109248000D02*
X125250000Y-110700000D01*
X123852816Y-109150000D02*
X125152000Y-109150000D01*
X121468227Y-111534589D02*
X123852816Y-109150000D01*
X121122080Y-111894579D02*
X121468227Y-111534589D01*
X118207837Y-123400000D02*
X116529918Y-121722081D01*
X121107960Y-111894856D02*
X121122080Y-111894579D01*
X127939106Y-123400000D02*
X118207837Y-123400000D01*
X125152000Y-109150000D02*
X125250000Y-109248000D01*
X116529918Y-116472898D02*
X121107960Y-111894856D01*
X131154500Y-120184606D02*
X127939106Y-123400000D01*
X116529918Y-121722081D02*
X116529918Y-116472898D01*
X131154500Y-114852000D02*
X131154500Y-120184606D01*
X129942000Y-113639500D02*
X131154500Y-114852000D01*
X130654500Y-116892000D02*
X129942000Y-116179500D01*
X130654500Y-119977500D02*
X130654500Y-116892000D01*
X127732000Y-122900000D02*
X130654500Y-119977500D01*
X118414943Y-122900000D02*
X127732000Y-122900000D01*
X117029918Y-121514975D02*
X118414943Y-122900000D01*
X117029918Y-119730004D02*
X117029918Y-121514975D01*
X117624792Y-119430004D02*
X117329918Y-119430004D01*
X117329918Y-118830004D02*
X117624792Y-118830004D01*
X117029918Y-116680004D02*
X117029918Y-117330004D01*
X117555625Y-116154298D02*
X117029918Y-116680004D01*
X118612677Y-116362821D02*
X118612676Y-116362823D01*
X118612676Y-116362821D02*
X118612677Y-116362821D01*
X118404153Y-115730034D02*
X118612676Y-115938557D01*
X118404154Y-115730034D02*
X118404153Y-115730034D01*
X118404157Y-115305769D02*
X118404154Y-115305768D01*
X119036934Y-115514282D02*
X118828421Y-115305769D01*
X119461197Y-115514282D02*
X119461198Y-115514282D01*
X119252683Y-114881504D02*
X119461197Y-115090018D01*
X119252684Y-114881504D02*
X119252683Y-114881504D01*
X120212000Y-113538000D02*
X120171922Y-113538000D01*
X117624814Y-118230004D02*
X117329918Y-118230004D01*
X121112000Y-113838000D02*
X121112000Y-114132874D01*
X117624792Y-119429992D02*
G75*
G03*
X117924792Y-119130004I8J299992D01*
G01*
X120512000Y-114132874D02*
X120512000Y-113838000D01*
X117924796Y-119130004D02*
G75*
G03*
X117624792Y-118830004I-299996J4D01*
G01*
X124206000Y-113538000D02*
X121412000Y-113538000D01*
X117029896Y-118530004D02*
G75*
G03*
X117329918Y-118830004I300004J4D01*
G01*
X117624814Y-118230014D02*
G75*
G03*
X117924814Y-117930004I-14J300014D01*
G01*
X117924796Y-117930004D02*
G75*
G03*
X117624814Y-117630004I-299996J4D01*
G01*
X117329918Y-118230018D02*
G75*
G03*
X117029918Y-118530004I-18J-299982D01*
G01*
X117555626Y-116154301D02*
X117555625Y-116154298D01*
X117029896Y-117330004D02*
G75*
G03*
X117329918Y-117630004I300004J4D01*
G01*
X120171922Y-113538000D02*
X119252684Y-114457238D01*
X117979889Y-116154302D02*
G75*
G03*
X117555627Y-116154302I-212131J-212131D01*
G01*
X118188413Y-116362822D02*
G75*
G03*
X118612675Y-116362822I212131J212131D01*
G01*
X118612686Y-116362831D02*
G75*
G03*
X118612675Y-115938558I-212186J212131D01*
G01*
X118404153Y-115305767D02*
G75*
G03*
X118404154Y-115730034I212147J-212133D01*
G01*
X117329918Y-117630004D02*
X117624814Y-117630004D01*
X119036935Y-115514281D02*
G75*
G03*
X119461197Y-115514281I212131J212131D01*
G01*
X119461146Y-115514231D02*
G75*
G03*
X119461196Y-115090019I-212046J212131D01*
G01*
X117329918Y-119430018D02*
G75*
G03*
X117029918Y-119730004I-18J-299982D01*
G01*
X124600000Y-110700000D02*
X124600000Y-113144000D01*
X119252714Y-114457268D02*
G75*
G03*
X119252685Y-114881503I212086J-212132D01*
G01*
X118188412Y-116362823D02*
X117979890Y-116154301D01*
X120512000Y-113838000D02*
G75*
G03*
X120212000Y-113538000I-300000J0D01*
G01*
X120512026Y-114132874D02*
G75*
G03*
X120812000Y-114432874I299974J-26D01*
G01*
X118828420Y-115305770D02*
G75*
G03*
X118404158Y-115305770I-212131J-212131D01*
G01*
X120812000Y-114432900D02*
G75*
G03*
X121112000Y-114132874I0J300000D01*
G01*
X121412000Y-113538000D02*
G75*
G03*
X121112000Y-113838000I0J-300000D01*
G01*
X124600000Y-113144000D02*
X124206000Y-113538000D01*
D30*
X121900000Y-107925000D02*
X122225000Y-107600000D01*
X120700000Y-107925000D02*
X121900000Y-107925000D01*
D34*
X124781300Y-86218700D02*
X123300000Y-86218700D01*
X127000000Y-77000000D02*
X128000000Y-78000000D01*
X125500000Y-77000000D02*
X127000000Y-77000000D01*
X128000000Y-78000000D02*
X128000000Y-80300000D01*
X126000000Y-81500000D02*
X124500000Y-80000000D01*
X124500000Y-78000000D02*
X125500000Y-77000000D01*
X126000000Y-85000000D02*
X126000000Y-81500000D01*
X124500000Y-80000000D02*
X124500000Y-78000000D01*
X124781300Y-86218700D02*
X126000000Y-85000000D01*
D33*
X125900000Y-109074000D02*
X125900000Y-110700000D01*
X123645964Y-108650000D02*
X125476000Y-108650000D01*
X115914500Y-121813769D02*
X115914500Y-116381210D01*
X121104843Y-111191121D02*
X123645964Y-108650000D01*
X131654500Y-120391712D02*
X128146212Y-123900000D01*
X128146212Y-123900000D02*
X118000731Y-123900000D01*
X131654500Y-112812000D02*
X131654500Y-120391712D01*
X118000731Y-123900000D02*
X115914500Y-121813769D01*
X120905213Y-111398734D02*
X121104843Y-111191121D01*
X125476000Y-108650000D02*
X125900000Y-109074000D01*
X120896811Y-111398899D02*
X120905213Y-111398734D01*
X129942000Y-111099500D02*
X131654500Y-112812000D01*
X115914500Y-116381210D02*
X120896811Y-111398899D01*
X119386620Y-111474116D02*
X117843630Y-109931126D01*
X121083680Y-110201321D02*
X123110000Y-108175000D01*
X119386620Y-111898381D02*
X119386620Y-111898380D01*
X117419392Y-110355417D02*
X118962357Y-111898382D01*
X115545549Y-112299961D02*
X115545551Y-112299960D01*
X125672752Y-108175000D02*
X126550000Y-109052248D01*
X117843630Y-109506862D02*
X117843632Y-109506861D01*
X118538090Y-112322646D02*
X116995126Y-110779682D01*
X114702000Y-116179500D02*
X115105500Y-116179500D01*
X117689560Y-113171176D02*
X116181946Y-111663562D01*
X123110000Y-108175000D02*
X125672752Y-108175000D01*
X116358724Y-114385929D02*
X116416767Y-114443972D01*
X120235150Y-110625586D02*
X118762873Y-109153309D01*
X116606212Y-111239297D02*
X118113827Y-112746912D01*
X117689560Y-113595441D02*
X117689560Y-113595440D01*
X116181946Y-111239298D02*
X116181948Y-111239297D01*
X116841030Y-114443971D02*
X116841030Y-114443970D01*
X115934458Y-114385930D02*
X115934460Y-114385929D01*
X121083681Y-110201322D02*
X121083680Y-110201321D01*
X116841030Y-114019706D02*
X115545549Y-112724225D01*
X116841031Y-114443972D02*
X116841030Y-114443971D01*
X120235150Y-111049851D02*
X120235150Y-111049850D01*
X120235151Y-111049852D02*
X120235150Y-111049851D01*
X119187139Y-108729044D02*
X120659417Y-110201322D01*
X118267896Y-109506861D02*
X119810887Y-111049852D01*
X115969815Y-112299960D02*
X117265297Y-113595442D01*
X126550000Y-109052248D02*
X126550000Y-110700000D01*
X118762873Y-108729045D02*
X118762875Y-108729044D01*
X116995126Y-110355418D02*
X116995128Y-110355417D01*
X118538091Y-112746912D02*
X118538090Y-112746911D01*
X115105500Y-116179500D02*
X115992500Y-115292500D01*
X118538090Y-112746911D02*
X118538090Y-112746910D01*
X117689561Y-113595442D02*
X117689560Y-113595441D01*
X115992500Y-114868236D02*
X115934458Y-114810194D01*
X119386621Y-111898382D02*
X119386620Y-111898381D01*
X120235131Y-111049831D02*
G75*
G03*
X120235149Y-110625587I-212131J212131D01*
G01*
X115934496Y-114385968D02*
G75*
G03*
X115934458Y-114810194I212104J-212132D01*
G01*
X119810888Y-111049851D02*
G75*
G03*
X120235150Y-111049851I212131J212131D01*
G01*
X118538111Y-112746931D02*
G75*
G03*
X118538089Y-112322647I-212111J212131D01*
G01*
X117265298Y-113595441D02*
G75*
G03*
X117689560Y-113595441I212131J212131D01*
G01*
X117689552Y-113595432D02*
G75*
G03*
X117689560Y-113171176I-212152J212132D01*
G01*
X118762896Y-108729068D02*
G75*
G03*
X118762873Y-109153309I212104J-212132D01*
G01*
X119187138Y-108729045D02*
G75*
G03*
X118762876Y-108729045I-212131J-212131D01*
G01*
X118267895Y-109506862D02*
G75*
G03*
X117843633Y-109506862I-212131J-212131D01*
G01*
X120659418Y-110201321D02*
G75*
G03*
X121083680Y-110201321I212131J212131D01*
G01*
X117419391Y-110355418D02*
G75*
G03*
X116995129Y-110355418I-212131J-212131D01*
G01*
X116416768Y-114443971D02*
G75*
G03*
X116841030Y-114443971I212131J212131D01*
G01*
X115992531Y-115292531D02*
G75*
G03*
X115992499Y-114868237I-212131J212131D01*
G01*
X115545556Y-112299968D02*
G75*
G03*
X115545549Y-112724225I212144J-212132D01*
G01*
X116995176Y-110355468D02*
G75*
G03*
X116995126Y-110779682I212124J-212132D01*
G01*
X116181917Y-111239269D02*
G75*
G03*
X116181947Y-111663561I212183J-212131D01*
G01*
X116358723Y-114385930D02*
G75*
G03*
X115934461Y-114385930I-212131J-212131D01*
G01*
X116840992Y-114443932D02*
G75*
G03*
X116841030Y-114019706I-212092J212132D01*
G01*
X115969814Y-112299961D02*
G75*
G03*
X115545552Y-112299961I-212131J-212131D01*
G01*
X119386572Y-111898332D02*
G75*
G03*
X119386620Y-111474116I-212072J212132D01*
G01*
X117843636Y-109506868D02*
G75*
G03*
X117843630Y-109931126I212164J-212132D01*
G01*
X118962358Y-111898381D02*
G75*
G03*
X119386620Y-111898381I212131J212131D01*
G01*
X116606211Y-111239298D02*
G75*
G03*
X116181949Y-111239298I-212131J-212131D01*
G01*
X118113828Y-112746911D02*
G75*
G03*
X118538090Y-112746911I212131J212131D01*
G01*
D35*
X111500000Y-81196500D02*
X111500000Y-75450000D01*
D30*
X126650000Y-107600000D02*
X127850000Y-108800000D01*
D35*
X116416000Y-75184000D02*
X129334000Y-75184000D01*
D30*
X119875000Y-104465599D02*
X119890600Y-104449999D01*
X117987549Y-98387549D02*
X118025000Y-98425000D01*
X116600000Y-107200000D02*
X116600000Y-99850000D01*
X116600000Y-99850000D02*
X118025000Y-98425000D01*
D35*
X109871000Y-86871000D02*
X109871000Y-86179000D01*
D30*
X120700000Y-107925000D02*
X117325000Y-107925000D01*
X122225000Y-107600000D02*
X126650000Y-107600000D01*
D35*
X134050000Y-84550000D02*
X134050000Y-79900000D01*
D30*
X117325000Y-107925000D02*
X116600000Y-107200000D01*
D35*
X134050000Y-79900000D02*
X134050000Y-75450000D01*
X111500000Y-81196500D02*
X111500000Y-84550000D01*
X111500000Y-81196500D02*
X111500000Y-80100000D01*
D30*
X119875000Y-107100000D02*
X119875000Y-104465599D01*
X127850000Y-108800000D02*
X127850000Y-110770000D01*
X120700000Y-107925000D02*
X119875000Y-107100000D01*
D35*
X129334000Y-75184000D02*
X134050000Y-79900000D01*
X109871000Y-86179000D02*
X111500000Y-84550000D01*
X111500000Y-80100000D02*
X116416000Y-75184000D01*
D30*
X117987549Y-96475001D02*
X117987549Y-98387549D01*
D36*
X116625001Y-94574999D02*
X117987549Y-94574999D01*
X114702000Y-100939500D02*
X116200000Y-99441500D01*
X116200000Y-99441500D02*
X116200000Y-95000000D01*
X116200000Y-95000000D02*
X116625001Y-94574999D01*
D30*
X119200000Y-93000000D02*
X119200000Y-95525000D01*
D33*
X137622200Y-87630000D02*
X130551500Y-87630000D01*
D30*
X119409400Y-100034400D02*
X119200000Y-99825000D01*
D35*
X119200000Y-95525000D02*
X117987549Y-95525000D01*
D30*
X122225000Y-104875000D02*
X122587500Y-104512500D01*
D33*
X130551500Y-87630000D02*
X129942000Y-88239500D01*
X110616000Y-87884000D02*
X107979400Y-87884000D01*
D30*
X118600000Y-92400000D02*
X119200000Y-93000000D01*
D33*
X114702000Y-83798000D02*
X110616000Y-87884000D01*
D35*
X126300000Y-118552600D02*
X126300000Y-121468000D01*
D30*
X122225000Y-106050000D02*
X122225000Y-104875000D01*
X117909400Y-101115600D02*
X117909400Y-105884400D01*
X117909400Y-105884400D02*
X118325000Y-106300000D01*
X122587500Y-104512500D02*
X123757500Y-104512500D01*
D35*
X120712451Y-95525000D02*
X119200000Y-95525000D01*
D30*
X119200000Y-99825000D02*
X117909400Y-101115600D01*
D35*
X126300000Y-121468000D02*
X126532000Y-121700000D01*
D30*
X123757500Y-104512500D02*
X123800000Y-104555000D01*
D31*
X129942000Y-103479500D02*
X128391500Y-105030000D01*
X128391500Y-105030000D02*
X127850000Y-105030000D01*
X127200000Y-103681500D02*
X127200000Y-105030000D01*
X129942000Y-100939500D02*
X127200000Y-103681500D01*
X120712451Y-101837451D02*
X121525000Y-102650000D01*
X120712451Y-96299001D02*
X120712451Y-101661451D01*
X120712451Y-101837451D02*
X120475000Y-101600000D01*
X124615686Y-102650000D02*
X125900000Y-103934314D01*
X120475000Y-101600000D02*
X119126000Y-101600000D01*
X121525000Y-102650000D02*
X124615686Y-102650000D01*
X125900000Y-103934314D02*
X125900000Y-105030000D01*
X120015600Y-103275001D02*
X124675001Y-103275001D01*
X124675001Y-103275001D02*
X125250000Y-103850000D01*
X125250000Y-103850000D02*
X125250000Y-105030000D01*
X127508000Y-106680000D02*
X128028000Y-107200000D01*
X119890600Y-103150001D02*
X120015600Y-103275001D01*
X125250000Y-105100000D02*
X125250000Y-106112000D01*
X128028000Y-107200000D02*
X133000000Y-107200000D01*
X125818000Y-106680000D02*
X127508000Y-106680000D01*
X133000000Y-107200000D02*
X133100000Y-107300000D01*
X125250000Y-106112000D02*
X125818000Y-106680000D01*
X123975000Y-112750000D02*
X123975000Y-110795000D01*
D30*
X126300000Y-112593300D02*
X127200000Y-111693300D01*
X127200000Y-111693300D02*
X127200000Y-110770000D01*
X126300000Y-115047400D02*
X126300000Y-112593300D01*
D35*
X122620000Y-92461300D02*
X123300000Y-91781300D01*
D34*
X122174000Y-80854000D02*
X122174000Y-76962000D01*
X120712451Y-82315549D02*
X120712451Y-94300000D01*
X123300000Y-86218700D02*
X123300000Y-81980000D01*
X123300000Y-81980000D02*
X122500000Y-81180000D01*
X122174000Y-80854000D02*
X120712451Y-82315549D01*
X122500000Y-81180000D02*
X122174000Y-80854000D01*
D33*
X114702000Y-93319500D02*
X113319500Y-93319500D01*
X109500000Y-89500000D02*
X107534000Y-89500000D01*
X107000000Y-88966000D02*
X107000000Y-84550000D01*
X107534000Y-89500000D02*
X107000000Y-88966000D01*
X107000000Y-75450000D02*
X107000000Y-84550000D01*
X113319500Y-93319500D02*
X109500000Y-89500000D01*
X138550000Y-75450000D02*
X138550000Y-84550000D01*
X138550000Y-87950000D02*
X138550000Y-84550000D01*
X135720500Y-90779500D02*
X138550000Y-87950000D01*
X129942000Y-90779500D02*
X135720500Y-90779500D01*
G04 #@! TA.AperFunction,Conductor*
G36*
X121686281Y-75753407D02*
G01*
X121722245Y-75802907D01*
X121722245Y-75864093D01*
X121686281Y-75913593D01*
X121663854Y-75925814D01*
X121658986Y-75927699D01*
X121658975Y-75927705D01*
X121477699Y-76039946D01*
X121477692Y-76039952D01*
X121320135Y-76183586D01*
X121320131Y-76183589D01*
X121320128Y-76183593D01*
X121320124Y-76183597D01*
X121320125Y-76183597D01*
X121191635Y-76353743D01*
X121191630Y-76353752D01*
X121098206Y-76541375D01*
X121055343Y-76585037D01*
X120995002Y-76595167D01*
X120940231Y-76567895D01*
X120913958Y-76522869D01*
X120907430Y-76498506D01*
X120907429Y-76498505D01*
X120807605Y-76284432D01*
X120807602Y-76284426D01*
X120748926Y-76200626D01*
X120117076Y-76832475D01*
X120093493Y-76752156D01*
X120015761Y-76631202D01*
X119907100Y-76537048D01*
X119776315Y-76477320D01*
X119766530Y-76475913D01*
X120395373Y-75847071D01*
X120394941Y-75842128D01*
X120408704Y-75782511D01*
X120454882Y-75742370D01*
X120493564Y-75734500D01*
X121628090Y-75734500D01*
X121686281Y-75753407D01*
G37*
G04 #@! TD.AperFunction*
G04 #@! TA.AperFunction,Conductor*
G36*
X140358691Y-69095407D02*
G01*
X140394655Y-69144907D01*
X140399500Y-69175500D01*
X140399500Y-128140500D01*
X140380593Y-128198691D01*
X140331093Y-128234655D01*
X140300500Y-128239500D01*
X105149500Y-128239500D01*
X105091309Y-128220593D01*
X105055345Y-128171093D01*
X105050500Y-128140500D01*
X105050500Y-121822429D01*
X106766500Y-121822429D01*
X106788754Y-121955795D01*
X106806802Y-122063948D01*
X106825149Y-122117391D01*
X106886308Y-122295542D01*
X107002846Y-122510885D01*
X107002847Y-122510886D01*
X107153242Y-122704113D01*
X107333390Y-122869951D01*
X107538378Y-123003876D01*
X107762612Y-123102235D01*
X107999978Y-123162344D01*
X108182886Y-123177500D01*
X108182894Y-123177500D01*
X108305106Y-123177500D01*
X108305114Y-123177500D01*
X108488022Y-123162344D01*
X108725388Y-123102235D01*
X108949622Y-123003876D01*
X109154610Y-122869951D01*
X109334758Y-122704113D01*
X109485153Y-122510886D01*
X109601693Y-122295539D01*
X109681198Y-122063948D01*
X109721500Y-121822429D01*
X109721500Y-121577571D01*
X109681198Y-121336052D01*
X109601693Y-121104461D01*
X109594811Y-121091745D01*
X109502732Y-120921597D01*
X109485153Y-120889114D01*
X109334758Y-120695887D01*
X109154610Y-120530049D01*
X108949622Y-120396124D01*
X108725388Y-120297765D01*
X108644894Y-120277381D01*
X108488020Y-120237655D01*
X108305123Y-120222500D01*
X108305114Y-120222500D01*
X108182886Y-120222500D01*
X108182876Y-120222500D01*
X107999979Y-120237655D01*
X107762612Y-120297765D01*
X107628937Y-120356401D01*
X107538378Y-120396124D01*
X107442161Y-120458984D01*
X107333391Y-120530048D01*
X107333389Y-120530049D01*
X107333390Y-120530049D01*
X107186029Y-120665705D01*
X107153239Y-120695890D01*
X107002849Y-120889110D01*
X107002847Y-120889113D01*
X106886308Y-121104457D01*
X106806801Y-121336055D01*
X106766500Y-121577570D01*
X106766500Y-121822429D01*
X105050500Y-121822429D01*
X105050500Y-108559499D01*
X113534018Y-108559499D01*
X113553905Y-108774117D01*
X113612889Y-108981424D01*
X113708959Y-109174358D01*
X113708960Y-109174359D01*
X113708962Y-109174363D01*
X113838851Y-109346364D01*
X113998134Y-109491570D01*
X114181386Y-109605035D01*
X114382367Y-109682895D01*
X114594232Y-109722500D01*
X114809768Y-109722500D01*
X115021633Y-109682895D01*
X115222614Y-109605035D01*
X115405866Y-109491570D01*
X115565149Y-109346364D01*
X115695038Y-109174363D01*
X115791111Y-108981424D01*
X115850095Y-108774116D01*
X115869982Y-108559500D01*
X115850095Y-108344884D01*
X115791111Y-108137576D01*
X115695038Y-107944637D01*
X115565149Y-107772636D01*
X115405866Y-107627430D01*
X115276153Y-107547115D01*
X115222619Y-107513968D01*
X115222614Y-107513965D01*
X115037704Y-107442331D01*
X115021633Y-107436105D01*
X115021632Y-107436104D01*
X115021630Y-107436104D01*
X114809768Y-107396500D01*
X114594232Y-107396500D01*
X114382369Y-107436104D01*
X114181385Y-107513965D01*
X114181380Y-107513968D01*
X113998138Y-107627427D01*
X113998136Y-107627428D01*
X113998134Y-107627430D01*
X113952636Y-107668907D01*
X113838852Y-107772635D01*
X113708959Y-107944641D01*
X113612889Y-108137575D01*
X113553905Y-108344882D01*
X113534018Y-108559499D01*
X105050500Y-108559499D01*
X105050500Y-106019500D01*
X113534018Y-106019500D01*
X113553905Y-106234117D01*
X113612889Y-106441424D01*
X113708959Y-106634358D01*
X113708960Y-106634359D01*
X113708962Y-106634363D01*
X113838851Y-106806364D01*
X113998134Y-106951570D01*
X114181386Y-107065035D01*
X114382367Y-107142895D01*
X114594232Y-107182500D01*
X114809768Y-107182500D01*
X115021633Y-107142895D01*
X115222614Y-107065035D01*
X115405866Y-106951570D01*
X115565149Y-106806364D01*
X115695038Y-106634363D01*
X115791111Y-106441424D01*
X115850095Y-106234116D01*
X115869982Y-106019500D01*
X115850095Y-105804884D01*
X115791111Y-105597576D01*
X115695038Y-105404637D01*
X115565149Y-105232636D01*
X115405866Y-105087430D01*
X115233627Y-104980784D01*
X115222619Y-104973968D01*
X115222614Y-104973965D01*
X115021633Y-104896105D01*
X115021632Y-104896104D01*
X115021630Y-104896104D01*
X114809768Y-104856500D01*
X114594232Y-104856500D01*
X114382369Y-104896104D01*
X114181385Y-104973965D01*
X114181380Y-104973968D01*
X113998138Y-105087427D01*
X113998136Y-105087428D01*
X113998134Y-105087430D01*
X113838851Y-105232636D01*
X113737651Y-105366647D01*
X113708959Y-105404641D01*
X113612889Y-105597575D01*
X113553905Y-105804882D01*
X113534018Y-106019500D01*
X105050500Y-106019500D01*
X105050500Y-103479500D01*
X113534018Y-103479500D01*
X113553905Y-103694117D01*
X113612889Y-103901424D01*
X113708959Y-104094358D01*
X113708960Y-104094359D01*
X113708962Y-104094363D01*
X113838851Y-104266364D01*
X113998134Y-104411570D01*
X114181386Y-104525035D01*
X114382367Y-104602895D01*
X114594232Y-104642500D01*
X114809768Y-104642500D01*
X115021633Y-104602895D01*
X115222614Y-104525035D01*
X115405866Y-104411570D01*
X115565149Y-104266364D01*
X115695038Y-104094363D01*
X115791111Y-103901424D01*
X115850095Y-103694116D01*
X115869982Y-103479500D01*
X115850095Y-103264884D01*
X115791111Y-103057576D01*
X115695038Y-102864637D01*
X115565149Y-102692636D01*
X115405866Y-102547430D01*
X115222614Y-102433965D01*
X115021633Y-102356105D01*
X115021632Y-102356104D01*
X115021630Y-102356104D01*
X114809768Y-102316500D01*
X114594232Y-102316500D01*
X114382369Y-102356104D01*
X114181385Y-102433965D01*
X114181380Y-102433968D01*
X113998138Y-102547427D01*
X113998136Y-102547428D01*
X113998134Y-102547430D01*
X113838851Y-102692636D01*
X113722424Y-102846810D01*
X113708959Y-102864641D01*
X113612889Y-103057575D01*
X113553905Y-103264882D01*
X113534018Y-103479500D01*
X105050500Y-103479500D01*
X105050500Y-102748860D01*
X110355500Y-102748860D01*
X110355501Y-102748863D01*
X110358414Y-102773990D01*
X110376738Y-102815489D01*
X110403794Y-102876765D01*
X110483235Y-102956206D01*
X110586009Y-103001585D01*
X110611135Y-103004500D01*
X112400864Y-103004499D01*
X112425991Y-103001585D01*
X112528765Y-102956206D01*
X112608206Y-102876765D01*
X112653585Y-102773991D01*
X112656500Y-102748865D01*
X112656499Y-100959136D01*
X112653585Y-100934009D01*
X112608206Y-100831235D01*
X112528765Y-100751794D01*
X112425991Y-100706415D01*
X112425990Y-100706414D01*
X112425988Y-100706414D01*
X112400868Y-100703500D01*
X110611139Y-100703500D01*
X110611136Y-100703501D01*
X110586009Y-100706414D01*
X110483235Y-100751794D01*
X110403794Y-100831235D01*
X110358414Y-100934011D01*
X110355500Y-100959130D01*
X110355500Y-102748860D01*
X105050500Y-102748860D01*
X105050500Y-92358429D01*
X106766500Y-92358429D01*
X106806801Y-92599944D01*
X106886308Y-92831542D01*
X107002847Y-93046886D01*
X107002849Y-93046889D01*
X107016591Y-93064544D01*
X107153242Y-93240113D01*
X107333390Y-93405951D01*
X107538378Y-93539876D01*
X107762612Y-93638235D01*
X107999978Y-93698344D01*
X108182886Y-93713500D01*
X108182894Y-93713500D01*
X108305106Y-93713500D01*
X108305114Y-93713500D01*
X108488022Y-93698344D01*
X108725388Y-93638235D01*
X108949622Y-93539876D01*
X109154610Y-93405951D01*
X109334758Y-93240113D01*
X109485153Y-93046886D01*
X109601693Y-92831539D01*
X109681198Y-92599948D01*
X109721500Y-92358429D01*
X109721500Y-92113571D01*
X109681198Y-91872052D01*
X109601693Y-91640461D01*
X109485153Y-91425114D01*
X109461218Y-91394363D01*
X109361214Y-91265878D01*
X109334758Y-91231887D01*
X109154610Y-91066049D01*
X108949622Y-90932124D01*
X108725388Y-90833765D01*
X108602087Y-90802541D01*
X108488020Y-90773655D01*
X108305123Y-90758500D01*
X108305114Y-90758500D01*
X108182886Y-90758500D01*
X108182876Y-90758500D01*
X107999979Y-90773655D01*
X107762612Y-90833765D01*
X107538378Y-90932124D01*
X107511548Y-90949653D01*
X107333391Y-91066048D01*
X107333389Y-91066049D01*
X107333390Y-91066049D01*
X107162124Y-91223711D01*
X107153239Y-91231890D01*
X107002849Y-91425110D01*
X107002847Y-91425113D01*
X106886308Y-91640457D01*
X106806801Y-91872055D01*
X106766500Y-92113570D01*
X106766500Y-92358429D01*
X105050500Y-92358429D01*
X105050500Y-85644860D01*
X105999500Y-85644860D01*
X105999501Y-85644863D01*
X106002414Y-85669990D01*
X106015444Y-85699499D01*
X106047794Y-85772765D01*
X106127235Y-85852206D01*
X106230009Y-85897585D01*
X106255135Y-85900500D01*
X106450501Y-85900499D01*
X106508690Y-85919406D01*
X106544654Y-85968906D01*
X106549500Y-85999499D01*
X106549500Y-87356092D01*
X106530593Y-87414283D01*
X106490489Y-87446656D01*
X106468436Y-87456393D01*
X106388994Y-87535835D01*
X106343614Y-87638611D01*
X106340700Y-87663730D01*
X106340700Y-88104260D01*
X106340701Y-88104263D01*
X106343614Y-88129390D01*
X106360119Y-88166770D01*
X106388994Y-88232165D01*
X106468435Y-88311606D01*
X106490486Y-88321342D01*
X106536083Y-88362141D01*
X106549500Y-88411907D01*
X106549500Y-88937913D01*
X106549189Y-88943459D01*
X106544730Y-88983034D01*
X106544730Y-88983038D01*
X106555616Y-89040573D01*
X106555926Y-89042397D01*
X106564652Y-89100287D01*
X106566840Y-89107381D01*
X106566417Y-89107511D01*
X106567109Y-89109613D01*
X106567526Y-89109468D01*
X106569975Y-89116468D01*
X106597338Y-89168242D01*
X106598172Y-89169894D01*
X106623574Y-89222641D01*
X106627753Y-89228770D01*
X106627389Y-89229017D01*
X106628677Y-89230831D01*
X106629030Y-89230571D01*
X106633434Y-89236538D01*
X106674854Y-89277959D01*
X106676138Y-89279292D01*
X106715944Y-89322194D01*
X106721743Y-89326818D01*
X106721467Y-89327163D01*
X106732601Y-89335705D01*
X107195588Y-89798691D01*
X107199290Y-89802833D01*
X107224121Y-89833970D01*
X107272509Y-89866961D01*
X107274018Y-89868032D01*
X107290993Y-89880560D01*
X107321118Y-89902793D01*
X107321121Y-89902794D01*
X107327677Y-89906259D01*
X107327469Y-89906651D01*
X107329450Y-89907651D01*
X107329643Y-89907253D01*
X107336327Y-89910472D01*
X107392292Y-89927734D01*
X107394043Y-89928310D01*
X107449301Y-89947646D01*
X107456593Y-89949026D01*
X107456510Y-89949460D01*
X107458693Y-89949830D01*
X107458759Y-89949394D01*
X107466098Y-89950500D01*
X107524642Y-89950500D01*
X107526492Y-89950535D01*
X107549542Y-89951396D01*
X107585010Y-89952724D01*
X107585016Y-89952722D01*
X107592385Y-89951893D01*
X107592434Y-89952331D01*
X107606344Y-89950500D01*
X109272388Y-89950500D01*
X109330579Y-89969407D01*
X109342392Y-89979496D01*
X112981092Y-93618196D01*
X112984794Y-93622338D01*
X113009621Y-93653470D01*
X113058009Y-93686461D01*
X113059518Y-93687532D01*
X113076493Y-93700060D01*
X113106618Y-93722293D01*
X113106621Y-93722294D01*
X113113177Y-93725759D01*
X113112969Y-93726151D01*
X113114950Y-93727151D01*
X113115143Y-93726753D01*
X113121827Y-93729972D01*
X113177792Y-93747234D01*
X113179543Y-93747810D01*
X113234801Y-93767146D01*
X113234802Y-93767146D01*
X113242093Y-93768526D01*
X113242010Y-93768960D01*
X113244197Y-93769331D01*
X113244263Y-93768894D01*
X113251596Y-93769999D01*
X113251598Y-93770000D01*
X113310126Y-93770000D01*
X113311977Y-93770035D01*
X113335420Y-93770911D01*
X113370510Y-93772225D01*
X113370517Y-93772223D01*
X113377884Y-93771394D01*
X113377933Y-93771832D01*
X113391847Y-93770000D01*
X113565820Y-93770000D01*
X113624011Y-93788907D01*
X113654441Y-93824872D01*
X113708959Y-93934358D01*
X113708960Y-93934359D01*
X113708962Y-93934363D01*
X113838851Y-94106364D01*
X113998134Y-94251570D01*
X114181386Y-94365035D01*
X114382367Y-94442895D01*
X114594232Y-94482500D01*
X114809768Y-94482500D01*
X115021633Y-94442895D01*
X115222614Y-94365035D01*
X115405866Y-94251570D01*
X115565149Y-94106364D01*
X115695038Y-93934363D01*
X115791111Y-93741424D01*
X115850095Y-93534116D01*
X115869982Y-93319500D01*
X115850095Y-93104884D01*
X115791111Y-92897576D01*
X115695038Y-92704637D01*
X115565149Y-92532636D01*
X115405866Y-92387430D01*
X115222614Y-92273965D01*
X115021633Y-92196105D01*
X115021632Y-92196104D01*
X115021630Y-92196104D01*
X114809768Y-92156500D01*
X114594232Y-92156500D01*
X114382369Y-92196104D01*
X114181385Y-92273965D01*
X114181380Y-92273968D01*
X113998138Y-92387427D01*
X113998136Y-92387428D01*
X113998134Y-92387430D01*
X113838851Y-92532636D01*
X113708962Y-92704637D01*
X113708959Y-92704641D01*
X113654441Y-92814128D01*
X113611578Y-92857791D01*
X113565820Y-92869000D01*
X113547111Y-92869000D01*
X113488920Y-92850093D01*
X113477107Y-92840004D01*
X111416604Y-90779500D01*
X113534018Y-90779500D01*
X113553905Y-90994117D01*
X113612889Y-91201424D01*
X113708959Y-91394358D01*
X113708960Y-91394359D01*
X113708962Y-91394363D01*
X113838851Y-91566364D01*
X113998134Y-91711570D01*
X114181386Y-91825035D01*
X114382367Y-91902895D01*
X114594232Y-91942500D01*
X114809768Y-91942500D01*
X115021633Y-91902895D01*
X115222614Y-91825035D01*
X115405866Y-91711570D01*
X115565149Y-91566364D01*
X115695038Y-91394363D01*
X115791111Y-91201424D01*
X115850095Y-90994116D01*
X115869982Y-90779500D01*
X115850095Y-90564884D01*
X115791111Y-90357576D01*
X115695038Y-90164637D01*
X115565149Y-89992636D01*
X115405866Y-89847430D01*
X115222614Y-89733965D01*
X115021633Y-89656105D01*
X115021632Y-89656104D01*
X115021630Y-89656104D01*
X114809768Y-89616500D01*
X114594232Y-89616500D01*
X114382369Y-89656104D01*
X114181385Y-89733965D01*
X114181380Y-89733968D01*
X113998138Y-89847427D01*
X113998136Y-89847428D01*
X113998134Y-89847430D01*
X113883544Y-89951893D01*
X113838852Y-89992635D01*
X113708959Y-90164641D01*
X113612889Y-90357575D01*
X113553905Y-90564882D01*
X113534018Y-90779500D01*
X111416604Y-90779500D01*
X109838402Y-89201298D01*
X109834700Y-89197155D01*
X109809879Y-89166030D01*
X109761494Y-89133041D01*
X109759985Y-89131970D01*
X109712881Y-89097206D01*
X109706322Y-89093740D01*
X109706526Y-89093352D01*
X109704544Y-89092352D01*
X109704355Y-89092746D01*
X109697670Y-89089526D01*
X109641713Y-89072266D01*
X109639955Y-89071688D01*
X109584702Y-89052355D01*
X109584701Y-89052354D01*
X109584699Y-89052354D01*
X109584696Y-89052353D01*
X109577414Y-89050976D01*
X109577495Y-89050544D01*
X109575302Y-89050171D01*
X109575237Y-89050605D01*
X109567903Y-89049500D01*
X109567902Y-89049500D01*
X109509358Y-89049500D01*
X109507508Y-89049465D01*
X109452174Y-89047395D01*
X109448990Y-89047276D01*
X109448989Y-89047276D01*
X109441615Y-89048107D01*
X109441565Y-89047668D01*
X109427656Y-89049500D01*
X107761612Y-89049500D01*
X107703421Y-89030593D01*
X107691608Y-89020504D01*
X107479496Y-88808392D01*
X107451719Y-88753875D01*
X107450500Y-88738388D01*
X107450500Y-88658398D01*
X107469407Y-88600207D01*
X107518907Y-88564243D01*
X107549521Y-88560874D01*
X107549521Y-88559400D01*
X107804000Y-88559400D01*
X107804001Y-88559399D01*
X107804001Y-88059399D01*
X108154799Y-88059399D01*
X108154799Y-88559399D01*
X108154800Y-88559400D01*
X108406624Y-88559400D01*
X108466170Y-88552998D01*
X108466181Y-88552996D01*
X108600888Y-88502753D01*
X108600890Y-88502752D01*
X108715984Y-88416592D01*
X108715992Y-88416584D01*
X108802152Y-88301490D01*
X108802153Y-88301488D01*
X108825273Y-88239500D01*
X113534018Y-88239500D01*
X113543961Y-88346808D01*
X113553905Y-88454117D01*
X113612889Y-88661424D01*
X113708959Y-88854358D01*
X113708960Y-88854359D01*
X113708962Y-88854363D01*
X113838851Y-89026364D01*
X113998134Y-89171570D01*
X114181386Y-89285035D01*
X114382367Y-89362895D01*
X114594232Y-89402500D01*
X114809768Y-89402500D01*
X115021633Y-89362895D01*
X115222614Y-89285035D01*
X115405866Y-89171570D01*
X115565149Y-89026364D01*
X115695038Y-88854363D01*
X115791111Y-88661424D01*
X115850095Y-88454116D01*
X115869982Y-88239500D01*
X115850095Y-88024884D01*
X115791111Y-87817576D01*
X115695038Y-87624637D01*
X115565149Y-87452636D01*
X115405866Y-87307430D01*
X115314240Y-87250697D01*
X115222619Y-87193968D01*
X115222614Y-87193965D01*
X115119710Y-87154100D01*
X115021633Y-87116105D01*
X115021632Y-87116104D01*
X115021630Y-87116104D01*
X114809768Y-87076500D01*
X114594232Y-87076500D01*
X114382369Y-87116104D01*
X114181385Y-87193965D01*
X114181380Y-87193968D01*
X113998138Y-87307427D01*
X113998136Y-87307428D01*
X113998134Y-87307430D01*
X113838851Y-87452636D01*
X113790998Y-87516004D01*
X113708959Y-87624641D01*
X113612889Y-87817575D01*
X113553905Y-88024882D01*
X113541118Y-88162880D01*
X113534018Y-88239500D01*
X108825273Y-88239500D01*
X108852396Y-88166781D01*
X108852398Y-88166770D01*
X108858800Y-88107224D01*
X108858800Y-88059400D01*
X108858799Y-88059399D01*
X108154799Y-88059399D01*
X107804001Y-88059399D01*
X107804001Y-87708600D01*
X108154799Y-87708600D01*
X108154800Y-87708601D01*
X108858799Y-87708601D01*
X108858800Y-87708600D01*
X108858800Y-87660775D01*
X108852398Y-87601229D01*
X108852396Y-87601218D01*
X108802153Y-87466511D01*
X108802152Y-87466509D01*
X108715992Y-87351415D01*
X108715984Y-87351407D01*
X108600890Y-87265247D01*
X108600888Y-87265246D01*
X108466181Y-87215003D01*
X108466170Y-87215001D01*
X108406624Y-87208600D01*
X108154800Y-87208600D01*
X108154799Y-87208601D01*
X108154799Y-87708600D01*
X107804001Y-87708600D01*
X107804001Y-87208601D01*
X107804000Y-87208600D01*
X107549521Y-87208600D01*
X107549521Y-87207208D01*
X107495185Y-87192371D01*
X107456907Y-87144638D01*
X107450500Y-87109601D01*
X107450500Y-86871000D01*
X109065435Y-86871000D01*
X109085632Y-87050257D01*
X109085633Y-87050261D01*
X109145211Y-87220522D01*
X109145211Y-87220523D01*
X109238735Y-87369365D01*
X109241184Y-87373262D01*
X109368738Y-87500816D01*
X109368740Y-87500817D01*
X109368741Y-87500818D01*
X109520379Y-87596099D01*
X109521478Y-87596789D01*
X109534167Y-87601229D01*
X109691738Y-87656366D01*
X109691742Y-87656367D01*
X109691745Y-87656368D01*
X109871000Y-87676565D01*
X110050255Y-87656368D01*
X110220522Y-87596789D01*
X110373262Y-87500816D01*
X110500816Y-87373262D01*
X110596789Y-87220522D01*
X110656368Y-87050255D01*
X110676565Y-86871000D01*
X110656368Y-86691745D01*
X110596789Y-86521478D01*
X110574725Y-86486364D01*
X110526987Y-86410389D01*
X110512037Y-86351059D01*
X110534816Y-86294272D01*
X110540810Y-86287714D01*
X110899030Y-85929495D01*
X110953546Y-85901718D01*
X110969033Y-85900499D01*
X112244861Y-85900499D01*
X112244864Y-85900499D01*
X112269991Y-85897585D01*
X112372765Y-85852206D01*
X112452206Y-85772765D01*
X112497585Y-85669991D01*
X112500500Y-85644865D01*
X112500499Y-83455136D01*
X112497585Y-83430009D01*
X112452206Y-83327235D01*
X112372765Y-83247794D01*
X112269991Y-83202415D01*
X112269990Y-83202414D01*
X112269988Y-83202414D01*
X112244869Y-83199500D01*
X112244865Y-83199500D01*
X112149500Y-83199500D01*
X112091309Y-83180593D01*
X112075983Y-83159499D01*
X113334830Y-83159499D01*
X113353475Y-83384527D01*
X113408907Y-83603417D01*
X113499609Y-83810198D01*
X113577905Y-83930039D01*
X114158360Y-83349584D01*
X114199738Y-83449481D01*
X114291905Y-83569595D01*
X114412019Y-83661762D01*
X114511912Y-83703139D01*
X113929922Y-84285130D01*
X113954225Y-84304046D01*
X113954228Y-84304048D01*
X114152812Y-84411517D01*
X114243362Y-84442602D01*
X114292261Y-84479379D01*
X114310204Y-84537874D01*
X114290338Y-84595744D01*
X114246982Y-84628552D01*
X114181391Y-84653962D01*
X114181380Y-84653968D01*
X113998138Y-84767427D01*
X113998136Y-84767428D01*
X113998134Y-84767430D01*
X113838851Y-84912636D01*
X113753903Y-85025125D01*
X113708959Y-85084641D01*
X113612889Y-85277575D01*
X113553905Y-85484882D01*
X113534018Y-85699500D01*
X113553905Y-85914117D01*
X113612889Y-86121424D01*
X113708959Y-86314358D01*
X113708960Y-86314359D01*
X113708962Y-86314363D01*
X113838851Y-86486364D01*
X113998134Y-86631570D01*
X114181386Y-86745035D01*
X114382367Y-86822895D01*
X114594232Y-86862500D01*
X114809768Y-86862500D01*
X115021633Y-86822895D01*
X115222614Y-86745035D01*
X115405866Y-86631570D01*
X115565149Y-86486364D01*
X115695038Y-86314363D01*
X115791111Y-86121424D01*
X115850095Y-85914116D01*
X115869982Y-85699500D01*
X115850095Y-85484884D01*
X115791111Y-85277576D01*
X115695038Y-85084637D01*
X115565149Y-84912636D01*
X115405866Y-84767430D01*
X115222614Y-84653965D01*
X115157016Y-84628552D01*
X115109587Y-84589901D01*
X115093933Y-84530752D01*
X115116036Y-84473698D01*
X115160637Y-84442602D01*
X115251187Y-84411517D01*
X115251188Y-84411517D01*
X115449770Y-84304049D01*
X115449774Y-84304046D01*
X115474076Y-84285130D01*
X114892085Y-83703139D01*
X114991981Y-83661762D01*
X115112095Y-83569595D01*
X115204262Y-83449481D01*
X115245639Y-83349585D01*
X115826094Y-83930040D01*
X115904387Y-83810205D01*
X115904390Y-83810200D01*
X115995092Y-83603417D01*
X116050524Y-83384527D01*
X116069169Y-83159500D01*
X116050524Y-82934472D01*
X115995092Y-82715582D01*
X115904390Y-82508799D01*
X115904387Y-82508794D01*
X115826094Y-82388958D01*
X115245639Y-82969412D01*
X115204262Y-82869519D01*
X115112095Y-82749405D01*
X114991981Y-82657238D01*
X114892084Y-82615859D01*
X115474076Y-82033868D01*
X115449774Y-82014953D01*
X115449771Y-82014951D01*
X115364061Y-81968567D01*
X115321883Y-81924242D01*
X115313813Y-81863592D01*
X115342934Y-81809781D01*
X115398123Y-81783364D01*
X115411178Y-81782499D01*
X115609364Y-81782499D01*
X115634491Y-81779585D01*
X115737265Y-81734206D01*
X115816706Y-81654765D01*
X115862085Y-81551991D01*
X115865000Y-81526865D01*
X115864999Y-79712136D01*
X115862085Y-79687009D01*
X115816706Y-79584235D01*
X115737265Y-79504794D01*
X115634491Y-79459415D01*
X115634490Y-79459414D01*
X115634488Y-79459414D01*
X115609368Y-79456500D01*
X113794639Y-79456500D01*
X113794636Y-79456501D01*
X113769509Y-79459414D01*
X113666735Y-79504794D01*
X113587294Y-79584235D01*
X113541914Y-79687011D01*
X113539000Y-79712130D01*
X113539000Y-81526860D01*
X113539001Y-81526863D01*
X113541914Y-81551990D01*
X113567256Y-81609385D01*
X113587294Y-81654765D01*
X113666735Y-81734206D01*
X113769509Y-81779585D01*
X113794635Y-81782500D01*
X113992820Y-81782499D01*
X114051008Y-81801406D01*
X114086972Y-81850906D01*
X114086973Y-81912091D01*
X114051009Y-81961591D01*
X114039938Y-81968566D01*
X113954233Y-82014948D01*
X113954228Y-82014952D01*
X113929922Y-82033868D01*
X114511914Y-82615860D01*
X114412019Y-82657238D01*
X114291905Y-82749405D01*
X114199738Y-82869519D01*
X114158360Y-82969413D01*
X113577905Y-82388957D01*
X113577904Y-82388958D01*
X113499611Y-82508796D01*
X113499609Y-82508799D01*
X113408907Y-82715582D01*
X113353475Y-82934472D01*
X113334830Y-83159499D01*
X112075983Y-83159499D01*
X112055345Y-83131093D01*
X112050500Y-83100500D01*
X112050500Y-80369032D01*
X112069407Y-80310841D01*
X112079490Y-80299034D01*
X116615029Y-75763495D01*
X116669546Y-75735719D01*
X116685033Y-75734500D01*
X118774436Y-75734500D01*
X118832627Y-75753407D01*
X118868591Y-75802907D01*
X118873059Y-75842130D01*
X118872626Y-75847072D01*
X119501467Y-76475913D01*
X119491685Y-76477320D01*
X119360900Y-76537048D01*
X119252239Y-76631202D01*
X119174507Y-76752156D01*
X119150922Y-76832476D01*
X118519072Y-76200626D01*
X118460406Y-76284411D01*
X118460394Y-76284430D01*
X118360570Y-76498505D01*
X118299429Y-76726686D01*
X118278843Y-76961996D01*
X118278843Y-76962003D01*
X118299429Y-77197313D01*
X118360569Y-77425489D01*
X118460399Y-77639577D01*
X118519072Y-77723372D01*
X119150922Y-77091521D01*
X119174507Y-77171844D01*
X119252239Y-77292798D01*
X119360900Y-77386952D01*
X119491685Y-77446680D01*
X119501466Y-77448086D01*
X118872626Y-78076926D01*
X118956422Y-78135600D01*
X119170510Y-78235430D01*
X119398686Y-78296570D01*
X119633997Y-78317157D01*
X119634003Y-78317157D01*
X119869313Y-78296570D01*
X120097489Y-78235430D01*
X120311577Y-78135600D01*
X120395372Y-78076925D01*
X119766533Y-77448086D01*
X119776315Y-77446680D01*
X119907100Y-77386952D01*
X120015761Y-77292798D01*
X120093493Y-77171844D01*
X120117076Y-77091523D01*
X120748925Y-77723372D01*
X120807600Y-77639577D01*
X120907431Y-77425488D01*
X120913958Y-77401130D01*
X120947281Y-77349815D01*
X121004402Y-77327888D01*
X121063503Y-77343723D01*
X121098206Y-77382624D01*
X121191630Y-77570248D01*
X121191632Y-77570252D01*
X121191634Y-77570255D01*
X121320128Y-77740407D01*
X121341197Y-77759614D01*
X121371462Y-77812787D01*
X121373500Y-77832774D01*
X121373500Y-80481413D01*
X121354593Y-80539604D01*
X121344504Y-80551417D01*
X121073840Y-80822081D01*
X120210188Y-81685732D01*
X120181191Y-81714730D01*
X120181190Y-81714729D01*
X120082635Y-81813286D01*
X120060043Y-81849240D01*
X120056830Y-81853769D01*
X120030361Y-81886960D01*
X120030357Y-81886965D01*
X120011939Y-81925209D01*
X120009254Y-81930068D01*
X119986664Y-81966021D01*
X119986659Y-81966033D01*
X119972637Y-82006101D01*
X119970513Y-82011230D01*
X119952091Y-82049487D01*
X119942642Y-82090880D01*
X119941105Y-82096215D01*
X119927083Y-82136293D01*
X119927081Y-82136299D01*
X119922328Y-82178485D01*
X119921398Y-82183960D01*
X119911951Y-82225355D01*
X119911951Y-82225357D01*
X119911951Y-82225358D01*
X119911951Y-94344957D01*
X119925489Y-94465118D01*
X119925800Y-94470664D01*
X119925801Y-94796817D01*
X119906894Y-94855007D01*
X119886133Y-94876068D01*
X119869115Y-94888808D01*
X119869108Y-94888815D01*
X119782948Y-95003909D01*
X119782947Y-95003911D01*
X119732704Y-95138618D01*
X119732702Y-95138629D01*
X119726301Y-95198175D01*
X119726300Y-95274998D01*
X119726302Y-95275000D01*
X121698600Y-95275000D01*
X121698601Y-95274999D01*
X121698601Y-95198175D01*
X121692199Y-95138629D01*
X121692197Y-95138618D01*
X121641954Y-95003911D01*
X121641953Y-95003909D01*
X121555793Y-94888815D01*
X121555784Y-94888806D01*
X121538770Y-94876069D01*
X121503518Y-94826060D01*
X121499100Y-94796822D01*
X121499100Y-94470658D01*
X121499412Y-94465113D01*
X121504244Y-94422229D01*
X121512951Y-94344954D01*
X121512951Y-92945276D01*
X121531858Y-92887086D01*
X121581358Y-92851122D01*
X121642544Y-92851122D01*
X121692044Y-92887086D01*
X121702513Y-92905284D01*
X121714294Y-92931965D01*
X121793735Y-93011406D01*
X121896509Y-93056785D01*
X121921635Y-93059700D01*
X121921647Y-93059699D01*
X121924489Y-93059865D01*
X121924423Y-93060990D01*
X121978643Y-93078573D01*
X122014636Y-93128052D01*
X122019499Y-93158699D01*
X122019500Y-94044154D01*
X122018466Y-94058425D01*
X122014500Y-94085647D01*
X122014500Y-95894345D01*
X122014501Y-95894350D01*
X122024392Y-95962246D01*
X122075592Y-96066977D01*
X122158023Y-96149408D01*
X122262754Y-96200608D01*
X122330649Y-96210500D01*
X122909350Y-96210499D01*
X122977246Y-96200608D01*
X123081977Y-96149408D01*
X123164408Y-96066977D01*
X123166056Y-96063605D01*
X123168953Y-96060610D01*
X123169175Y-96060300D01*
X123169221Y-96060333D01*
X123208593Y-96019629D01*
X123268857Y-96009054D01*
X123323828Y-96035920D01*
X123343938Y-96063594D01*
X123345592Y-96066977D01*
X123428023Y-96149408D01*
X123532754Y-96200608D01*
X123600649Y-96210500D01*
X124179350Y-96210499D01*
X124247246Y-96200608D01*
X124351977Y-96149408D01*
X124434408Y-96066977D01*
X124436056Y-96063605D01*
X124438953Y-96060610D01*
X124439175Y-96060300D01*
X124439221Y-96060333D01*
X124478593Y-96019629D01*
X124538857Y-96009054D01*
X124593828Y-96035920D01*
X124613938Y-96063594D01*
X124615592Y-96066977D01*
X124698023Y-96149408D01*
X124802754Y-96200608D01*
X124870649Y-96210500D01*
X125449350Y-96210499D01*
X125517246Y-96200608D01*
X125517249Y-96200606D01*
X125517251Y-96200606D01*
X125608368Y-96156061D01*
X125668950Y-96147489D01*
X125723000Y-96176164D01*
X125730733Y-96185182D01*
X125782088Y-96252905D01*
X125782094Y-96252911D01*
X125902296Y-96344062D01*
X126042643Y-96399409D01*
X126066352Y-96402256D01*
X126121874Y-96427966D01*
X126151679Y-96481401D01*
X126144385Y-96542150D01*
X126132543Y-96559110D01*
X126133712Y-96559987D01*
X126133709Y-96559991D01*
X126124573Y-96570524D01*
X126124553Y-96570554D01*
X126124515Y-96570592D01*
X126101950Y-96593158D01*
X126101948Y-96593160D01*
X126090997Y-96614651D01*
X126082887Y-96627885D01*
X126068706Y-96647406D01*
X126068701Y-96647415D01*
X126061249Y-96670352D01*
X126055305Y-96684702D01*
X126044355Y-96706191D01*
X126044352Y-96706201D01*
X126040577Y-96730030D01*
X126036953Y-96745124D01*
X126029499Y-96768067D01*
X126029498Y-96840974D01*
X126029499Y-96840987D01*
X126029499Y-98808739D01*
X126010592Y-98866930D01*
X125973984Y-98897677D01*
X125968025Y-98900591D01*
X125968023Y-98900592D01*
X125885590Y-98983025D01*
X125885589Y-98983027D01*
X125883940Y-98986401D01*
X125881040Y-98989397D01*
X125880825Y-98989700D01*
X125880779Y-98989667D01*
X125841397Y-99030375D01*
X125781131Y-99040944D01*
X125726163Y-99014071D01*
X125706060Y-98986401D01*
X125704410Y-98983027D01*
X125704409Y-98983025D01*
X125704408Y-98983024D01*
X125704408Y-98983023D01*
X125621977Y-98900592D01*
X125517246Y-98849392D01*
X125449351Y-98839500D01*
X125449347Y-98839500D01*
X124870654Y-98839500D01*
X124870648Y-98839501D01*
X124802757Y-98849391D01*
X124802753Y-98849392D01*
X124698024Y-98900591D01*
X124615590Y-98983025D01*
X124615589Y-98983027D01*
X124613940Y-98986401D01*
X124611040Y-98989397D01*
X124610825Y-98989700D01*
X124610779Y-98989667D01*
X124571397Y-99030375D01*
X124511131Y-99040944D01*
X124456163Y-99014071D01*
X124436060Y-98986401D01*
X124434410Y-98983027D01*
X124434409Y-98983025D01*
X124434408Y-98983024D01*
X124434408Y-98983023D01*
X124351977Y-98900592D01*
X124247246Y-98849392D01*
X124179351Y-98839500D01*
X124179347Y-98839500D01*
X123600654Y-98839500D01*
X123600648Y-98839501D01*
X123532757Y-98849391D01*
X123532753Y-98849392D01*
X123428024Y-98900591D01*
X123345590Y-98983025D01*
X123345589Y-98983027D01*
X123343940Y-98986401D01*
X123341040Y-98989397D01*
X123340825Y-98989700D01*
X123340779Y-98989667D01*
X123301397Y-99030375D01*
X123241131Y-99040944D01*
X123186163Y-99014071D01*
X123166060Y-98986401D01*
X123164410Y-98983027D01*
X123164409Y-98983025D01*
X123164408Y-98983024D01*
X123164408Y-98983023D01*
X123081977Y-98900592D01*
X122977246Y-98849392D01*
X122909351Y-98839500D01*
X122909347Y-98839500D01*
X122330654Y-98839500D01*
X122330648Y-98839501D01*
X122262757Y-98849391D01*
X122262753Y-98849392D01*
X122158024Y-98900591D01*
X122075591Y-98983024D01*
X122052443Y-99030375D01*
X122024392Y-99087754D01*
X122014501Y-99155648D01*
X122014500Y-99155652D01*
X122014500Y-100964345D01*
X122014501Y-100964351D01*
X122024391Y-101032242D01*
X122024392Y-101032246D01*
X122075593Y-101136979D01*
X122079085Y-101141869D01*
X122097513Y-101200214D01*
X122078126Y-101258247D01*
X122068520Y-101269401D01*
X121990185Y-101347736D01*
X121990181Y-101347741D01*
X121894211Y-101500476D01*
X121894211Y-101500477D01*
X121834633Y-101670738D01*
X121834632Y-101670742D01*
X121814435Y-101850000D01*
X121834632Y-102029257D01*
X121834633Y-102029261D01*
X121865616Y-102117802D01*
X121866990Y-102178972D01*
X121832146Y-102229266D01*
X121774394Y-102249475D01*
X121772172Y-102249500D01*
X121731901Y-102249500D01*
X121673710Y-102230593D01*
X121661897Y-102220504D01*
X121141947Y-101700554D01*
X121114170Y-101646037D01*
X121112951Y-101630550D01*
X121112951Y-97153500D01*
X121131858Y-97095309D01*
X121181358Y-97059345D01*
X121211951Y-97054500D01*
X121243462Y-97054500D01*
X121243465Y-97054500D01*
X121268592Y-97051586D01*
X121371366Y-97006207D01*
X121450807Y-96926766D01*
X121496186Y-96823992D01*
X121499101Y-96798866D01*
X121499100Y-96253181D01*
X121518007Y-96194991D01*
X121538772Y-96173928D01*
X121555787Y-96161190D01*
X121555793Y-96161184D01*
X121641953Y-96046090D01*
X121641954Y-96046088D01*
X121692197Y-95911381D01*
X121692199Y-95911370D01*
X121698601Y-95851824D01*
X121698601Y-95775001D01*
X121698600Y-95775000D01*
X119726302Y-95775000D01*
X119726300Y-95775001D01*
X119726301Y-95851824D01*
X119726300Y-95851824D01*
X119732702Y-95911370D01*
X119732704Y-95911381D01*
X119782947Y-96046088D01*
X119782948Y-96046090D01*
X119869108Y-96161184D01*
X119869117Y-96161193D01*
X119886128Y-96173927D01*
X119921382Y-96223935D01*
X119925801Y-96253181D01*
X119925801Y-96798861D01*
X119925802Y-96798864D01*
X119928715Y-96823991D01*
X119936214Y-96840974D01*
X119974095Y-96926766D01*
X120053536Y-97006207D01*
X120156310Y-97051586D01*
X120181436Y-97054501D01*
X120212950Y-97054500D01*
X120271139Y-97073406D01*
X120307105Y-97122905D01*
X120311951Y-97153500D01*
X120311951Y-97362063D01*
X120293044Y-97420254D01*
X120243544Y-97456218D01*
X120182358Y-97456218D01*
X120178355Y-97454821D01*
X120142381Y-97441403D01*
X120142370Y-97441401D01*
X120082824Y-97435000D01*
X119825001Y-97435000D01*
X119825000Y-97435001D01*
X119825000Y-99414998D01*
X119825001Y-99415000D01*
X120082824Y-99415000D01*
X120142370Y-99408598D01*
X120142374Y-99408597D01*
X120178353Y-99395178D01*
X120239482Y-99392557D01*
X120290477Y-99426368D01*
X120311860Y-99483695D01*
X120311951Y-99487936D01*
X120311951Y-101100500D01*
X120293044Y-101158691D01*
X120243544Y-101194655D01*
X120212951Y-101199500D01*
X119752685Y-101199500D01*
X119694494Y-101180593D01*
X119671209Y-101156737D01*
X119654185Y-101132073D01*
X119654180Y-101132069D01*
X119526852Y-101019266D01*
X119376225Y-100940210D01*
X119376224Y-100940209D01*
X119376223Y-100940209D01*
X119211058Y-100899500D01*
X119211056Y-100899500D01*
X119040944Y-100899500D01*
X119040941Y-100899500D01*
X118875776Y-100940209D01*
X118725146Y-101019267D01*
X118597818Y-101132069D01*
X118597816Y-101132072D01*
X118515110Y-101251892D01*
X118501182Y-101272070D01*
X118440860Y-101431128D01*
X118420355Y-101600000D01*
X118440860Y-101768872D01*
X118501182Y-101927930D01*
X118597817Y-102067929D01*
X118725148Y-102180734D01*
X118875775Y-102259790D01*
X119040944Y-102300500D01*
X119040947Y-102300500D01*
X119211053Y-102300500D01*
X119211056Y-102300500D01*
X119376225Y-102259790D01*
X119526852Y-102180734D01*
X119654183Y-102067929D01*
X119671208Y-102043263D01*
X119719825Y-102006113D01*
X119752685Y-102000500D01*
X120268100Y-102000500D01*
X120326291Y-102019407D01*
X120338103Y-102029496D01*
X120406964Y-102098356D01*
X120406967Y-102098360D01*
X120742572Y-102433965D01*
X121014104Y-102705497D01*
X121041881Y-102760014D01*
X121032310Y-102820446D01*
X120989045Y-102863711D01*
X120944100Y-102874501D01*
X120818120Y-102874501D01*
X120759929Y-102855594D01*
X120727555Y-102815489D01*
X120709232Y-102773991D01*
X120696006Y-102744036D01*
X120616565Y-102664595D01*
X120513791Y-102619216D01*
X120513790Y-102619215D01*
X120513788Y-102619215D01*
X120488668Y-102616301D01*
X119292539Y-102616301D01*
X119292536Y-102616302D01*
X119267409Y-102619215D01*
X119164635Y-102664595D01*
X119085194Y-102744036D01*
X119039814Y-102846812D01*
X119036900Y-102871931D01*
X119036900Y-103202189D01*
X119017993Y-103260380D01*
X118968493Y-103296344D01*
X118907307Y-103296344D01*
X118858647Y-103261518D01*
X118819792Y-103209615D01*
X118819784Y-103209607D01*
X118704690Y-103123447D01*
X118704688Y-103123446D01*
X118569981Y-103073203D01*
X118569970Y-103073201D01*
X118510424Y-103066800D01*
X118142601Y-103066800D01*
X118142600Y-103066801D01*
X118142600Y-103566799D01*
X118142601Y-103566800D01*
X118965765Y-103566800D01*
X119013822Y-103542311D01*
X119074255Y-103551881D01*
X119099313Y-103570085D01*
X119164635Y-103635407D01*
X119267409Y-103680786D01*
X119292535Y-103683701D01*
X120488664Y-103683700D01*
X120513791Y-103680786D01*
X120513792Y-103680785D01*
X120513795Y-103680785D01*
X120520458Y-103678973D01*
X120546445Y-103675501D01*
X123387717Y-103675501D01*
X123445908Y-103694408D01*
X123481872Y-103743908D01*
X123481872Y-103805094D01*
X123447536Y-103853385D01*
X123393993Y-103893987D01*
X123393987Y-103893993D01*
X123307535Y-104007998D01*
X123255044Y-104141103D01*
X123245000Y-104224741D01*
X123245000Y-104824999D01*
X123245001Y-104825000D01*
X123995500Y-104825000D01*
X124053691Y-104843907D01*
X124089655Y-104893407D01*
X124094500Y-104924000D01*
X124094500Y-105832109D01*
X124094501Y-105832117D01*
X124100654Y-105878862D01*
X124145724Y-105975513D01*
X124155000Y-106017353D01*
X124155000Y-106314998D01*
X124155001Y-106315000D01*
X124175252Y-106315000D01*
X124175258Y-106314999D01*
X124258896Y-106304955D01*
X124392001Y-106252464D01*
X124506006Y-106166012D01*
X124506010Y-106166008D01*
X124514599Y-106154682D01*
X124564824Y-106119738D01*
X124593481Y-106115499D01*
X124758098Y-106115499D01*
X124816289Y-106134406D01*
X124852253Y-106183906D01*
X124852253Y-106183908D01*
X124856953Y-106198374D01*
X124860579Y-106213474D01*
X124864354Y-106237306D01*
X124875301Y-106258788D01*
X124881247Y-106273142D01*
X124888703Y-106296088D01*
X124888702Y-106296088D01*
X124902884Y-106315608D01*
X124910997Y-106328847D01*
X124921950Y-106350342D01*
X124921951Y-106350343D01*
X124942030Y-106370423D01*
X124942031Y-106370423D01*
X124944513Y-106372905D01*
X124944516Y-106372909D01*
X125241515Y-106669907D01*
X125502104Y-106930496D01*
X125529881Y-106985013D01*
X125520310Y-107045445D01*
X125477045Y-107088710D01*
X125432100Y-107099500D01*
X123090115Y-107099500D01*
X123031924Y-107080593D01*
X122999551Y-107040489D01*
X122991897Y-107023155D01*
X122985688Y-106962286D01*
X123016443Y-106909392D01*
X123023132Y-106903913D01*
X123072184Y-106867192D01*
X123072192Y-106867184D01*
X123158352Y-106752090D01*
X123158353Y-106752088D01*
X123208596Y-106617381D01*
X123208598Y-106617370D01*
X123215000Y-106557824D01*
X123215000Y-106224370D01*
X123233907Y-106166179D01*
X123283407Y-106130215D01*
X123344593Y-106130215D01*
X123388785Y-106161637D01*
X123389202Y-106161221D01*
X123391670Y-106163689D01*
X123392885Y-106164553D01*
X123393986Y-106166005D01*
X123393993Y-106166012D01*
X123507998Y-106252464D01*
X123641103Y-106304955D01*
X123724741Y-106314999D01*
X123724748Y-106315000D01*
X123744999Y-106315000D01*
X123745000Y-106314999D01*
X123745000Y-105235000D01*
X123244999Y-105235000D01*
X123227896Y-105252103D01*
X123173379Y-105279880D01*
X123112947Y-105270308D01*
X123078640Y-105241429D01*
X123072189Y-105232812D01*
X123072184Y-105232807D01*
X122957090Y-105146647D01*
X122957088Y-105146646D01*
X122822381Y-105096403D01*
X122822370Y-105096401D01*
X122762824Y-105090000D01*
X122475001Y-105090000D01*
X122475000Y-105090001D01*
X122475000Y-106201000D01*
X122456093Y-106259191D01*
X122406593Y-106295155D01*
X122376000Y-106300000D01*
X121235001Y-106300000D01*
X121235000Y-106300001D01*
X121235000Y-106557824D01*
X121234999Y-106557824D01*
X121241401Y-106617370D01*
X121241403Y-106617381D01*
X121291646Y-106752088D01*
X121291647Y-106752090D01*
X121377807Y-106867184D01*
X121377812Y-106867189D01*
X121426868Y-106903913D01*
X121462120Y-106953922D01*
X121461246Y-107015101D01*
X121458103Y-107023152D01*
X121437416Y-107070005D01*
X121437414Y-107070011D01*
X121434500Y-107095130D01*
X121434499Y-107095133D01*
X121434499Y-107288415D01*
X121415591Y-107346605D01*
X121366091Y-107382569D01*
X121304906Y-107382568D01*
X121265497Y-107358419D01*
X121202262Y-107295184D01*
X121202259Y-107295182D01*
X121202258Y-107295181D01*
X121049523Y-107199211D01*
X120879261Y-107139633D01*
X120879257Y-107139632D01*
X120787848Y-107129333D01*
X120700000Y-107119435D01*
X120699998Y-107119435D01*
X120676547Y-107122077D01*
X120616605Y-107109802D01*
X120575327Y-107064639D01*
X120568478Y-107003838D01*
X120583791Y-106967749D01*
X120587200Y-106962770D01*
X120587206Y-106962765D01*
X120632585Y-106859991D01*
X120635500Y-106834865D01*
X120635499Y-105799999D01*
X121235000Y-105799999D01*
X121235001Y-105800000D01*
X121974999Y-105800000D01*
X121975000Y-105799998D01*
X121975000Y-105090001D01*
X121974999Y-105090000D01*
X121687176Y-105090000D01*
X121627629Y-105096401D01*
X121627618Y-105096403D01*
X121492911Y-105146646D01*
X121492909Y-105146647D01*
X121377815Y-105232807D01*
X121377807Y-105232815D01*
X121291647Y-105347909D01*
X121291646Y-105347911D01*
X121241403Y-105482618D01*
X121241401Y-105482629D01*
X121235000Y-105542175D01*
X121235000Y-105799999D01*
X120635499Y-105799999D01*
X120635499Y-105765136D01*
X120632585Y-105740009D01*
X120587206Y-105637235D01*
X120507765Y-105557794D01*
X120434511Y-105525449D01*
X120388916Y-105484649D01*
X120375500Y-105434885D01*
X120375500Y-105082698D01*
X120394407Y-105024507D01*
X120443907Y-104988543D01*
X120474500Y-104983698D01*
X120488661Y-104983698D01*
X120488664Y-104983698D01*
X120513791Y-104980784D01*
X120616565Y-104935405D01*
X120696006Y-104855964D01*
X120741385Y-104753190D01*
X120744300Y-104728064D01*
X120744299Y-104171935D01*
X120741385Y-104146808D01*
X120696006Y-104044034D01*
X120616565Y-103964593D01*
X120513791Y-103919214D01*
X120513790Y-103919213D01*
X120513788Y-103919213D01*
X120488668Y-103916299D01*
X119292539Y-103916299D01*
X119292536Y-103916300D01*
X119267409Y-103919213D01*
X119164635Y-103964593D01*
X119099316Y-104029911D01*
X119044799Y-104057687D01*
X118984367Y-104048115D01*
X118963837Y-104033200D01*
X118142601Y-104033200D01*
X118142600Y-104033201D01*
X118142600Y-104533199D01*
X118142601Y-104533200D01*
X118510424Y-104533200D01*
X118569970Y-104526798D01*
X118569981Y-104526796D01*
X118704688Y-104476553D01*
X118704690Y-104476552D01*
X118819784Y-104390392D01*
X118819792Y-104390384D01*
X118858647Y-104338481D01*
X118908655Y-104303228D01*
X118969834Y-104304102D01*
X119018816Y-104340769D01*
X119036900Y-104397810D01*
X119036900Y-104728059D01*
X119036901Y-104728062D01*
X119039814Y-104753189D01*
X119065156Y-104810583D01*
X119085194Y-104855964D01*
X119164635Y-104935405D01*
X119267409Y-104980784D01*
X119286910Y-104983046D01*
X119342532Y-105008532D01*
X119372553Y-105061846D01*
X119374500Y-105081386D01*
X119374500Y-105434884D01*
X119355593Y-105493075D01*
X119315488Y-105525449D01*
X119298153Y-105533103D01*
X119237283Y-105539311D01*
X119184389Y-105508554D01*
X119178912Y-105501867D01*
X119142192Y-105452815D01*
X119142184Y-105452807D01*
X119027090Y-105366647D01*
X119027088Y-105366646D01*
X118892381Y-105316403D01*
X118892370Y-105316401D01*
X118832824Y-105310000D01*
X118575001Y-105310000D01*
X118575000Y-105310001D01*
X118575000Y-106451000D01*
X118556093Y-106509191D01*
X118506593Y-106545155D01*
X118476000Y-106550000D01*
X117365001Y-106550000D01*
X117365000Y-106550001D01*
X117365000Y-106837824D01*
X117364999Y-106837824D01*
X117371401Y-106897370D01*
X117371403Y-106897381D01*
X117421646Y-107032088D01*
X117421647Y-107032091D01*
X117431039Y-107044636D01*
X117450777Y-107102550D01*
X117432704Y-107161005D01*
X117383723Y-107197673D01*
X117322544Y-107198549D01*
X117281783Y-107173970D01*
X117129495Y-107021682D01*
X117101718Y-106967165D01*
X117100499Y-106951678D01*
X117100499Y-106049998D01*
X117365000Y-106049998D01*
X117365001Y-106050000D01*
X118074999Y-106050000D01*
X118075000Y-106049999D01*
X118075000Y-105310001D01*
X118074999Y-105310000D01*
X117817176Y-105310000D01*
X117757629Y-105316401D01*
X117757618Y-105316403D01*
X117622911Y-105366646D01*
X117622909Y-105366647D01*
X117507815Y-105452807D01*
X117507807Y-105452815D01*
X117421647Y-105567909D01*
X117421646Y-105567911D01*
X117371403Y-105702618D01*
X117371401Y-105702629D01*
X117365000Y-105762175D01*
X117365000Y-106049998D01*
X117100499Y-106049998D01*
X117100499Y-104614062D01*
X117119406Y-104555871D01*
X117168906Y-104519907D01*
X117230092Y-104519907D01*
X117234097Y-104521304D01*
X117248825Y-104526797D01*
X117248829Y-104526798D01*
X117308376Y-104533200D01*
X117676199Y-104533200D01*
X117676200Y-104533199D01*
X117676200Y-103066800D01*
X117308376Y-103066800D01*
X117248829Y-103073201D01*
X117248819Y-103073203D01*
X117234093Y-103078696D01*
X117172964Y-103081315D01*
X117121970Y-103047502D01*
X117100590Y-102990174D01*
X117100499Y-102985963D01*
X117100499Y-100098316D01*
X117119406Y-100040129D01*
X117129483Y-100028329D01*
X117913317Y-99244494D01*
X117967834Y-99216718D01*
X117983321Y-99215499D01*
X118529861Y-99215499D01*
X118529864Y-99215499D01*
X118554991Y-99212585D01*
X118601845Y-99191896D01*
X118662715Y-99185688D01*
X118715609Y-99216444D01*
X118721087Y-99223132D01*
X118757807Y-99272184D01*
X118757815Y-99272192D01*
X118872909Y-99358352D01*
X118872911Y-99358353D01*
X119007618Y-99408596D01*
X119007629Y-99408598D01*
X119067176Y-99415000D01*
X119324999Y-99415000D01*
X119325000Y-99414998D01*
X119325000Y-97435001D01*
X119324999Y-97435000D01*
X119067176Y-97435000D01*
X119007629Y-97441401D01*
X119007618Y-97441403D01*
X118872911Y-97491646D01*
X118872909Y-97491647D01*
X118757815Y-97577807D01*
X118757810Y-97577812D01*
X118721086Y-97626869D01*
X118671077Y-97662121D01*
X118609897Y-97661247D01*
X118601864Y-97658111D01*
X118554991Y-97637415D01*
X118554988Y-97637414D01*
X118548179Y-97634408D01*
X118549469Y-97631485D01*
X118509843Y-97605509D01*
X118488162Y-97548294D01*
X118488049Y-97543579D01*
X118488049Y-97140661D01*
X118506956Y-97082471D01*
X118547059Y-97050098D01*
X118646464Y-97006207D01*
X118725905Y-96926766D01*
X118771284Y-96823992D01*
X118774199Y-96798866D01*
X118774198Y-96253181D01*
X118793105Y-96194991D01*
X118813870Y-96173928D01*
X118830885Y-96161190D01*
X118830891Y-96161184D01*
X118917051Y-96046090D01*
X118917052Y-96046088D01*
X118967295Y-95911381D01*
X118967297Y-95911370D01*
X118973699Y-95851824D01*
X118973699Y-95775001D01*
X118973698Y-95775000D01*
X117001400Y-95775000D01*
X117001399Y-95775001D01*
X117001399Y-95851824D01*
X117001398Y-95851824D01*
X117007800Y-95911370D01*
X117007802Y-95911381D01*
X117058045Y-96046088D01*
X117058046Y-96046090D01*
X117144206Y-96161184D01*
X117144215Y-96161193D01*
X117161226Y-96173927D01*
X117196480Y-96223935D01*
X117200899Y-96253181D01*
X117200899Y-96798861D01*
X117200900Y-96798864D01*
X117203813Y-96823991D01*
X117211312Y-96840974D01*
X117249193Y-96926766D01*
X117328634Y-97006207D01*
X117428038Y-97050098D01*
X117473632Y-97090896D01*
X117487049Y-97140661D01*
X117487048Y-97576420D01*
X117468141Y-97634611D01*
X117428039Y-97666984D01*
X117392236Y-97682793D01*
X117312794Y-97762235D01*
X117267414Y-97865011D01*
X117264500Y-97890130D01*
X117264500Y-98436677D01*
X117245593Y-98494868D01*
X117235504Y-98506681D01*
X116794503Y-98947682D01*
X116739986Y-98975459D01*
X116679554Y-98965888D01*
X116636289Y-98922623D01*
X116625499Y-98877678D01*
X116625499Y-97153500D01*
X116625499Y-95217251D01*
X116644406Y-95159064D01*
X116654496Y-95147251D01*
X116772253Y-95029495D01*
X116826769Y-95001718D01*
X116842256Y-95000499D01*
X116916732Y-95000499D01*
X116974923Y-95019406D01*
X117010887Y-95068906D01*
X117010887Y-95130092D01*
X117009491Y-95134094D01*
X117007801Y-95138622D01*
X117007800Y-95138629D01*
X117001399Y-95198175D01*
X117001399Y-95274999D01*
X117001400Y-95275000D01*
X118973698Y-95275000D01*
X118973699Y-95274999D01*
X118973699Y-95198175D01*
X118967297Y-95138629D01*
X118967295Y-95138618D01*
X118917052Y-95003911D01*
X118917051Y-95003909D01*
X118830891Y-94888815D01*
X118830882Y-94888806D01*
X118813868Y-94876069D01*
X118778616Y-94826060D01*
X118774198Y-94796822D01*
X118774198Y-94251135D01*
X118771284Y-94226008D01*
X118725905Y-94123234D01*
X118646464Y-94043793D01*
X118543690Y-93998414D01*
X118543689Y-93998413D01*
X118543687Y-93998413D01*
X118518567Y-93995499D01*
X117456538Y-93995499D01*
X117456535Y-93995500D01*
X117431408Y-93998413D01*
X117328634Y-94043793D01*
X117251922Y-94120504D01*
X117197408Y-94148280D01*
X117181921Y-94149499D01*
X116557607Y-94149499D01*
X116532766Y-94157570D01*
X116517666Y-94161195D01*
X116491873Y-94165280D01*
X116468602Y-94177137D01*
X116454254Y-94183080D01*
X116429419Y-94191149D01*
X116408292Y-94206499D01*
X116395050Y-94214614D01*
X116371781Y-94226470D01*
X116155357Y-94442895D01*
X115946780Y-94651471D01*
X115946780Y-94651472D01*
X115946779Y-94651471D01*
X115851472Y-94746778D01*
X115851470Y-94746782D01*
X115839614Y-94770050D01*
X115831500Y-94783291D01*
X115816150Y-94804418D01*
X115808081Y-94829253D01*
X115802138Y-94843601D01*
X115790281Y-94866872D01*
X115786196Y-94892665D01*
X115782571Y-94907765D01*
X115774500Y-94932606D01*
X115774500Y-95054486D01*
X115755593Y-95112677D01*
X115706093Y-95148641D01*
X115644907Y-95148641D01*
X115596497Y-95114147D01*
X115583152Y-95096475D01*
X115565149Y-95072636D01*
X115405866Y-94927430D01*
X115270478Y-94843601D01*
X115222619Y-94813968D01*
X115222614Y-94813965D01*
X115127170Y-94776990D01*
X115021633Y-94736105D01*
X115021632Y-94736104D01*
X115021630Y-94736104D01*
X114809768Y-94696500D01*
X114594232Y-94696500D01*
X114382369Y-94736104D01*
X114181385Y-94813965D01*
X114181380Y-94813968D01*
X113998138Y-94927427D01*
X113998136Y-94927428D01*
X113998134Y-94927430D01*
X113838851Y-95072636D01*
X113729640Y-95217255D01*
X113708959Y-95244641D01*
X113612889Y-95437575D01*
X113553905Y-95644882D01*
X113553904Y-95644884D01*
X113553905Y-95644884D01*
X113534018Y-95859500D01*
X113541829Y-95943795D01*
X113553905Y-96074117D01*
X113612889Y-96281424D01*
X113708959Y-96474358D01*
X113708960Y-96474359D01*
X113708962Y-96474363D01*
X113838851Y-96646364D01*
X113998134Y-96791570D01*
X114181386Y-96905035D01*
X114382367Y-96982895D01*
X114594232Y-97022500D01*
X114809768Y-97022500D01*
X115021633Y-96982895D01*
X115222614Y-96905035D01*
X115405866Y-96791570D01*
X115565149Y-96646364D01*
X115596497Y-96604851D01*
X115646650Y-96569810D01*
X115707825Y-96570939D01*
X115756652Y-96607811D01*
X115774499Y-96664513D01*
X115774499Y-97594486D01*
X115755592Y-97652677D01*
X115706092Y-97688641D01*
X115644906Y-97688641D01*
X115596496Y-97654147D01*
X115565149Y-97612636D01*
X115405866Y-97467430D01*
X115222614Y-97353965D01*
X115021633Y-97276105D01*
X115021632Y-97276104D01*
X115021630Y-97276104D01*
X114809768Y-97236500D01*
X114594232Y-97236500D01*
X114382369Y-97276104D01*
X114181385Y-97353965D01*
X114181380Y-97353968D01*
X113998138Y-97467427D01*
X113998136Y-97467428D01*
X113998134Y-97467430D01*
X113838851Y-97612636D01*
X113785871Y-97682793D01*
X113708959Y-97784641D01*
X113612889Y-97977575D01*
X113553905Y-98184882D01*
X113534018Y-98399499D01*
X113553905Y-98614117D01*
X113612889Y-98821424D01*
X113708959Y-99014358D01*
X113708960Y-99014359D01*
X113708962Y-99014363D01*
X113838851Y-99186364D01*
X113998134Y-99331570D01*
X114181386Y-99445035D01*
X114382367Y-99522895D01*
X114594232Y-99562500D01*
X114809768Y-99562500D01*
X115021633Y-99522895D01*
X115222614Y-99445035D01*
X115405866Y-99331570D01*
X115565149Y-99186364D01*
X115596498Y-99144849D01*
X115646652Y-99109809D01*
X115707827Y-99110940D01*
X115756654Y-99147812D01*
X115774500Y-99204513D01*
X115774500Y-99224243D01*
X115755593Y-99282434D01*
X115745504Y-99294247D01*
X115212852Y-99826898D01*
X115158335Y-99854675D01*
X115107086Y-99849209D01*
X115021632Y-99816104D01*
X114809768Y-99776500D01*
X114594232Y-99776500D01*
X114382369Y-99816104D01*
X114181385Y-99893965D01*
X114181380Y-99893968D01*
X113998138Y-100007427D01*
X113998136Y-100007428D01*
X113998134Y-100007430D01*
X113898433Y-100098320D01*
X113838852Y-100152635D01*
X113708959Y-100324641D01*
X113612889Y-100517575D01*
X113553905Y-100724882D01*
X113534018Y-100939500D01*
X113553905Y-101154117D01*
X113612889Y-101361424D01*
X113708959Y-101554358D01*
X113708960Y-101554359D01*
X113708962Y-101554363D01*
X113838851Y-101726364D01*
X113998134Y-101871570D01*
X114181386Y-101985035D01*
X114382367Y-102062895D01*
X114594232Y-102102500D01*
X114809768Y-102102500D01*
X115021633Y-102062895D01*
X115222614Y-101985035D01*
X115405866Y-101871570D01*
X115565149Y-101726364D01*
X115695038Y-101554363D01*
X115791111Y-101361424D01*
X115850095Y-101154116D01*
X115869982Y-100939500D01*
X115850095Y-100724884D01*
X115792537Y-100522587D01*
X115794798Y-100461445D01*
X115817755Y-100425492D01*
X115930497Y-100312751D01*
X115985013Y-100284974D01*
X116045445Y-100294546D01*
X116088710Y-100337810D01*
X116099500Y-100382755D01*
X116099500Y-107135542D01*
X116097238Y-107156585D01*
X116095641Y-107163926D01*
X116099374Y-107216118D01*
X116099500Y-107219651D01*
X116099500Y-107235799D01*
X116101798Y-107251788D01*
X116102176Y-107255301D01*
X116105908Y-107307483D01*
X116108533Y-107314520D01*
X116113764Y-107335014D01*
X116114834Y-107342454D01*
X116114835Y-107342458D01*
X116136569Y-107390049D01*
X116137921Y-107393314D01*
X116156202Y-107442327D01*
X116156203Y-107442328D01*
X116156204Y-107442331D01*
X116159918Y-107447293D01*
X116160708Y-107448348D01*
X116171501Y-107466538D01*
X116174623Y-107473373D01*
X116208888Y-107512917D01*
X116211080Y-107515636D01*
X116220779Y-107528593D01*
X116220781Y-107528595D01*
X116232211Y-107540026D01*
X116234610Y-107542603D01*
X116268872Y-107582143D01*
X116268873Y-107582144D01*
X116275183Y-107586199D01*
X116291666Y-107599480D01*
X116925518Y-108233332D01*
X116938796Y-108249810D01*
X116942856Y-108256127D01*
X116942857Y-108256129D01*
X116982394Y-108290387D01*
X116984982Y-108292796D01*
X116996407Y-108304221D01*
X117009345Y-108313906D01*
X117012097Y-108316124D01*
X117051624Y-108350375D01*
X117051625Y-108350375D01*
X117051627Y-108350377D01*
X117058454Y-108353495D01*
X117076651Y-108364291D01*
X117082669Y-108368796D01*
X117131697Y-108387081D01*
X117134941Y-108388425D01*
X117182543Y-108410165D01*
X117189978Y-108411233D01*
X117210484Y-108416468D01*
X117217517Y-108419091D01*
X117269729Y-108422825D01*
X117273196Y-108423198D01*
X117289201Y-108425500D01*
X117305348Y-108425500D01*
X117308881Y-108425626D01*
X117313871Y-108425982D01*
X117361073Y-108429359D01*
X117367470Y-108427967D01*
X117368410Y-108427763D01*
X117389456Y-108425500D01*
X118231764Y-108425500D01*
X118289955Y-108444407D01*
X118325919Y-108493907D01*
X118325919Y-108555093D01*
X118314075Y-108579508D01*
X118309960Y-108585665D01*
X118309956Y-108585672D01*
X118309955Y-108585674D01*
X118299897Y-108609952D01*
X118253374Y-108722250D01*
X118253373Y-108722254D01*
X118224524Y-108867235D01*
X118224524Y-108869494D01*
X118224205Y-108870474D01*
X118224047Y-108872082D01*
X118223694Y-108872047D01*
X118205617Y-108927685D01*
X118156117Y-108963649D01*
X118125524Y-108968494D01*
X117981845Y-108968494D01*
X117836850Y-108997336D01*
X117700272Y-109053908D01*
X117577350Y-109136042D01*
X117577347Y-109136045D01*
X117569054Y-109144336D01*
X117568973Y-109144408D01*
X117558586Y-109154796D01*
X117545567Y-109165747D01*
X117528827Y-109177529D01*
X117506740Y-109206084D01*
X117502586Y-109210802D01*
X117480864Y-109232526D01*
X117480744Y-109232662D01*
X117472804Y-109240604D01*
X117390680Y-109363525D01*
X117334117Y-109500091D01*
X117334116Y-109500096D01*
X117305279Y-109645073D01*
X117305278Y-109645081D01*
X117305278Y-109718051D01*
X117286370Y-109776242D01*
X117236869Y-109812205D01*
X117206278Y-109817050D01*
X117133341Y-109817050D01*
X116988346Y-109845892D01*
X116851768Y-109902464D01*
X116728846Y-109984598D01*
X116728844Y-109984600D01*
X116712882Y-110000558D01*
X116712883Y-110000559D01*
X116710106Y-110003336D01*
X116697082Y-110014290D01*
X116680327Y-110026082D01*
X116680322Y-110026086D01*
X116658235Y-110054641D01*
X116654081Y-110059358D01*
X116632694Y-110080748D01*
X116632016Y-110081520D01*
X116624369Y-110089168D01*
X116624365Y-110089172D01*
X116542240Y-110212070D01*
X116542240Y-110212072D01*
X116485665Y-110348627D01*
X116485665Y-110348630D01*
X116456815Y-110493598D01*
X116456814Y-110493606D01*
X116456801Y-110601942D01*
X116437886Y-110660131D01*
X116388382Y-110696088D01*
X116357801Y-110700930D01*
X116320161Y-110700930D01*
X116175166Y-110729772D01*
X116038588Y-110786344D01*
X115969669Y-110832394D01*
X115910780Y-110849002D01*
X115853377Y-110827824D01*
X115819448Y-110777172D01*
X115791111Y-110677576D01*
X115695038Y-110484637D01*
X115565149Y-110312636D01*
X115405866Y-110167430D01*
X115222614Y-110053965D01*
X115021633Y-109976105D01*
X115021632Y-109976104D01*
X115021630Y-109976104D01*
X114809768Y-109936500D01*
X114594232Y-109936500D01*
X114382369Y-109976104D01*
X114181385Y-110053965D01*
X114181380Y-110053968D01*
X113998138Y-110167427D01*
X113998136Y-110167428D01*
X113998134Y-110167430D01*
X113838851Y-110312636D01*
X113746880Y-110434426D01*
X113708959Y-110484641D01*
X113612889Y-110677575D01*
X113553905Y-110884882D01*
X113534018Y-111099500D01*
X113553905Y-111314117D01*
X113612889Y-111521424D01*
X113708959Y-111714358D01*
X113708960Y-111714359D01*
X113708962Y-111714363D01*
X113838851Y-111886364D01*
X113998134Y-112031570D01*
X114181386Y-112145035D01*
X114382367Y-112222895D01*
X114594232Y-112262500D01*
X114809767Y-112262500D01*
X114809768Y-112262500D01*
X114907276Y-112244272D01*
X114967948Y-112252164D01*
X115012396Y-112294213D01*
X115023639Y-112354356D01*
X115022564Y-112360901D01*
X115011857Y-112414726D01*
X114981960Y-112468110D01*
X114926394Y-112493725D01*
X114896569Y-112492725D01*
X114809769Y-112476500D01*
X114809768Y-112476500D01*
X114594232Y-112476500D01*
X114382369Y-112516104D01*
X114181385Y-112593965D01*
X114181380Y-112593968D01*
X113998138Y-112707427D01*
X113998136Y-112707428D01*
X113998134Y-112707430D01*
X113914766Y-112783430D01*
X113838852Y-112852635D01*
X113708959Y-113024641D01*
X113612889Y-113217575D01*
X113553905Y-113424882D01*
X113534018Y-113639500D01*
X113553905Y-113854117D01*
X113612889Y-114061424D01*
X113708959Y-114254358D01*
X113708960Y-114254359D01*
X113708962Y-114254363D01*
X113838851Y-114426364D01*
X113998134Y-114571570D01*
X114181386Y-114685035D01*
X114382367Y-114762895D01*
X114594232Y-114802500D01*
X114809768Y-114802500D01*
X115021633Y-114762895D01*
X115222614Y-114685035D01*
X115222621Y-114685031D01*
X115226043Y-114682911D01*
X115258034Y-114663103D01*
X115317459Y-114648544D01*
X115374096Y-114671696D01*
X115406307Y-114723715D01*
X115407250Y-114727968D01*
X115424938Y-114816935D01*
X115452461Y-114883399D01*
X115478664Y-114946678D01*
X115481497Y-114953518D01*
X115481498Y-114953520D01*
X115521626Y-115013589D01*
X115538228Y-115072479D01*
X115517045Y-115129880D01*
X115509309Y-115138586D01*
X115457979Y-115189916D01*
X115403462Y-115217693D01*
X115343030Y-115208122D01*
X115335858Y-115204083D01*
X115222619Y-115133968D01*
X115222614Y-115133965D01*
X115063899Y-115072479D01*
X115021633Y-115056105D01*
X115021632Y-115056104D01*
X115021630Y-115056104D01*
X114809768Y-115016500D01*
X114594232Y-115016500D01*
X114382369Y-115056104D01*
X114181385Y-115133965D01*
X114181380Y-115133968D01*
X113998138Y-115247427D01*
X113998136Y-115247428D01*
X113998134Y-115247430D01*
X113858008Y-115375171D01*
X113838852Y-115392635D01*
X113708959Y-115564641D01*
X113612889Y-115757575D01*
X113553905Y-115964882D01*
X113534018Y-116179499D01*
X113553905Y-116394117D01*
X113612889Y-116601424D01*
X113708959Y-116794358D01*
X113708960Y-116794359D01*
X113708962Y-116794363D01*
X113838851Y-116966364D01*
X113998134Y-117111570D01*
X114181386Y-117225035D01*
X114382367Y-117302895D01*
X114594232Y-117342500D01*
X114809768Y-117342500D01*
X115021633Y-117302895D01*
X115222614Y-117225035D01*
X115312886Y-117169140D01*
X115372309Y-117154583D01*
X115428945Y-117177736D01*
X115461156Y-117229756D01*
X115463999Y-117253313D01*
X115463999Y-121785682D01*
X115463688Y-121791226D01*
X115459230Y-121830800D01*
X115459230Y-121830807D01*
X115470116Y-121888342D01*
X115470426Y-121890166D01*
X115479152Y-121948056D01*
X115481340Y-121955150D01*
X115480917Y-121955280D01*
X115481609Y-121957382D01*
X115482026Y-121957237D01*
X115484475Y-121964237D01*
X115511838Y-122016011D01*
X115512672Y-122017663D01*
X115538074Y-122070410D01*
X115542253Y-122076539D01*
X115541889Y-122076786D01*
X115543177Y-122078600D01*
X115543530Y-122078340D01*
X115547934Y-122084307D01*
X115589354Y-122125728D01*
X115590638Y-122127061D01*
X115630444Y-122169963D01*
X115636243Y-122174587D01*
X115635967Y-122174932D01*
X115647100Y-122183473D01*
X117662323Y-124198696D01*
X117666025Y-124202838D01*
X117690852Y-124233970D01*
X117739240Y-124266961D01*
X117740749Y-124268032D01*
X117752122Y-124276425D01*
X117787849Y-124302793D01*
X117787852Y-124302794D01*
X117794408Y-124306259D01*
X117794200Y-124306651D01*
X117796181Y-124307651D01*
X117796374Y-124307253D01*
X117803058Y-124310472D01*
X117859023Y-124327734D01*
X117860774Y-124328310D01*
X117916032Y-124347645D01*
X117916032Y-124347646D01*
X117923324Y-124349026D01*
X117923241Y-124349460D01*
X117925424Y-124349830D01*
X117925490Y-124349394D01*
X117932829Y-124350500D01*
X117991373Y-124350500D01*
X117993223Y-124350535D01*
X118016273Y-124351396D01*
X118051741Y-124352724D01*
X118051747Y-124352722D01*
X118059116Y-124351893D01*
X118059165Y-124352331D01*
X118073075Y-124350500D01*
X128118125Y-124350500D01*
X128123671Y-124350811D01*
X128163247Y-124355270D01*
X128220796Y-124344380D01*
X128222612Y-124344072D01*
X128280499Y-124335348D01*
X128280502Y-124335346D01*
X128287593Y-124333159D01*
X128287724Y-124333584D01*
X128289825Y-124332892D01*
X128289679Y-124332473D01*
X128296675Y-124330024D01*
X128296684Y-124330023D01*
X128333675Y-124310472D01*
X128348464Y-124302656D01*
X128350118Y-124301821D01*
X128370268Y-124292116D01*
X128402854Y-124276425D01*
X128402858Y-124276421D01*
X128408990Y-124272242D01*
X128409240Y-124272609D01*
X128411044Y-124271329D01*
X128410780Y-124270971D01*
X128416742Y-124266569D01*
X128416750Y-124266566D01*
X128458209Y-124225105D01*
X128459461Y-124223900D01*
X128502406Y-124184055D01*
X128502408Y-124184051D01*
X128507035Y-124178251D01*
X128507380Y-124178526D01*
X128515916Y-124167398D01*
X130860886Y-121822429D01*
X135722500Y-121822429D01*
X135744754Y-121955795D01*
X135762802Y-122063948D01*
X135781149Y-122117391D01*
X135842308Y-122295542D01*
X135958847Y-122510886D01*
X136109242Y-122704113D01*
X136289390Y-122869951D01*
X136494378Y-123003876D01*
X136718612Y-123102235D01*
X136955978Y-123162344D01*
X137138886Y-123177500D01*
X137138894Y-123177500D01*
X137261106Y-123177500D01*
X137261114Y-123177500D01*
X137444022Y-123162344D01*
X137681388Y-123102235D01*
X137905622Y-123003876D01*
X138110610Y-122869951D01*
X138290758Y-122704113D01*
X138441153Y-122510886D01*
X138557693Y-122295539D01*
X138637198Y-122063948D01*
X138677500Y-121822429D01*
X138677500Y-121577571D01*
X138637198Y-121336052D01*
X138557693Y-121104461D01*
X138550811Y-121091745D01*
X138458732Y-120921597D01*
X138441153Y-120889114D01*
X138290758Y-120695887D01*
X138110610Y-120530049D01*
X137905622Y-120396124D01*
X137681388Y-120297765D01*
X137600894Y-120277381D01*
X137444020Y-120237655D01*
X137261123Y-120222500D01*
X137261114Y-120222500D01*
X137138886Y-120222500D01*
X137138876Y-120222500D01*
X136955979Y-120237655D01*
X136718612Y-120297765D01*
X136584937Y-120356401D01*
X136494378Y-120396124D01*
X136398161Y-120458985D01*
X136289391Y-120530048D01*
X136289389Y-120530049D01*
X136289390Y-120530049D01*
X136142029Y-120665705D01*
X136109239Y-120695890D01*
X135958849Y-120889110D01*
X135958847Y-120889113D01*
X135842308Y-121104457D01*
X135762801Y-121336055D01*
X135722500Y-121577570D01*
X135722500Y-121822429D01*
X130860886Y-121822429D01*
X131953204Y-120730111D01*
X131957335Y-120726418D01*
X131988470Y-120701591D01*
X132021479Y-120653173D01*
X132022519Y-120651710D01*
X132057292Y-120604595D01*
X132057293Y-120604591D01*
X132060758Y-120598036D01*
X132061150Y-120598243D01*
X132062151Y-120596260D01*
X132061753Y-120596068D01*
X132064968Y-120589389D01*
X132064972Y-120589385D01*
X132082235Y-120533415D01*
X132082805Y-120531681D01*
X132102146Y-120476412D01*
X132102146Y-120476409D01*
X132103526Y-120469120D01*
X132103960Y-120469202D01*
X132104331Y-120467019D01*
X132103894Y-120466954D01*
X132104999Y-120459616D01*
X132105000Y-120459614D01*
X132104999Y-120401070D01*
X132105034Y-120399219D01*
X132106636Y-120356401D01*
X132107224Y-120340702D01*
X132107222Y-120340697D01*
X132106393Y-120333326D01*
X132106830Y-120333276D01*
X132105000Y-120319367D01*
X132105000Y-112840085D01*
X132105311Y-112834538D01*
X132106014Y-112828301D01*
X132109770Y-112794965D01*
X132098877Y-112737394D01*
X132098581Y-112735659D01*
X132089848Y-112677713D01*
X132089847Y-112677710D01*
X132087662Y-112670626D01*
X132088083Y-112670495D01*
X132087389Y-112668386D01*
X132086974Y-112668532D01*
X132084524Y-112661533D01*
X132084524Y-112661529D01*
X132057145Y-112609727D01*
X132056326Y-112608103D01*
X132043813Y-112582120D01*
X132030925Y-112555358D01*
X132030921Y-112555353D01*
X132026746Y-112549229D01*
X132027110Y-112548980D01*
X132025824Y-112547169D01*
X132025470Y-112547431D01*
X132021067Y-112541466D01*
X132021066Y-112541463D01*
X132017603Y-112538000D01*
X131979656Y-112500052D01*
X131978372Y-112498719D01*
X131938556Y-112455806D01*
X131932758Y-112451183D01*
X131933032Y-112450839D01*
X131921897Y-112442294D01*
X131065585Y-111585982D01*
X131037808Y-111531465D01*
X131040367Y-111488889D01*
X131090095Y-111314116D01*
X131109982Y-111099500D01*
X131090095Y-110884884D01*
X131031111Y-110677576D01*
X130935038Y-110484637D01*
X130805149Y-110312636D01*
X130645866Y-110167430D01*
X130462614Y-110053965D01*
X130261633Y-109976105D01*
X130261632Y-109976104D01*
X130261630Y-109976104D01*
X130049768Y-109936500D01*
X129834232Y-109936500D01*
X129622369Y-109976104D01*
X129421385Y-110053965D01*
X129421380Y-110053968D01*
X129238138Y-110167427D01*
X129238136Y-110167428D01*
X129238134Y-110167430D01*
X129078851Y-110312636D01*
X128986880Y-110434426D01*
X128948959Y-110484641D01*
X128852889Y-110677575D01*
X128793905Y-110884882D01*
X128774018Y-111099500D01*
X128793905Y-111314117D01*
X128852889Y-111521424D01*
X128948959Y-111714358D01*
X128948960Y-111714359D01*
X128948962Y-111714363D01*
X129078851Y-111886364D01*
X129238134Y-112031570D01*
X129421386Y-112145035D01*
X129622367Y-112222895D01*
X129834232Y-112262500D01*
X130049768Y-112262500D01*
X130261633Y-112222895D01*
X130321603Y-112199661D01*
X130382693Y-112196272D01*
X130427369Y-112221973D01*
X130743472Y-112538076D01*
X130771249Y-112592593D01*
X130761678Y-112653025D01*
X130718413Y-112696290D01*
X130657981Y-112705861D01*
X130621351Y-112692251D01*
X130462619Y-112593968D01*
X130462614Y-112593965D01*
X130419287Y-112577180D01*
X130261633Y-112516105D01*
X130261632Y-112516104D01*
X130261630Y-112516104D01*
X130049768Y-112476500D01*
X129834232Y-112476500D01*
X129622369Y-112516104D01*
X129421385Y-112593965D01*
X129421380Y-112593968D01*
X129238138Y-112707427D01*
X129238136Y-112707428D01*
X129238134Y-112707430D01*
X129154766Y-112783430D01*
X129078852Y-112852635D01*
X128948959Y-113024641D01*
X128852889Y-113217575D01*
X128793905Y-113424882D01*
X128791218Y-113453879D01*
X128774018Y-113639500D01*
X128778773Y-113690812D01*
X128793905Y-113854117D01*
X128852889Y-114061424D01*
X128948959Y-114254358D01*
X128948960Y-114254359D01*
X128948962Y-114254363D01*
X129078851Y-114426364D01*
X129238134Y-114571570D01*
X129421386Y-114685035D01*
X129622367Y-114762895D01*
X129834232Y-114802500D01*
X130049768Y-114802500D01*
X130261633Y-114762895D01*
X130321604Y-114739661D01*
X130382694Y-114736272D01*
X130427370Y-114761974D01*
X130675003Y-115009608D01*
X130702780Y-115064124D01*
X130703999Y-115079607D01*
X130704000Y-115105682D01*
X130685095Y-115163874D01*
X130635596Y-115199839D01*
X130574411Y-115199842D01*
X130552887Y-115189860D01*
X130462614Y-115133965D01*
X130261633Y-115056105D01*
X130261632Y-115056104D01*
X130261630Y-115056104D01*
X130049768Y-115016500D01*
X129834232Y-115016500D01*
X129622369Y-115056104D01*
X129421385Y-115133965D01*
X129421380Y-115133968D01*
X129238138Y-115247427D01*
X129238136Y-115247428D01*
X129238134Y-115247430D01*
X129098008Y-115375171D01*
X129078852Y-115392635D01*
X128948959Y-115564641D01*
X128852889Y-115757575D01*
X128793905Y-115964882D01*
X128774018Y-116179500D01*
X128793905Y-116394117D01*
X128852889Y-116601424D01*
X128948959Y-116794358D01*
X128948960Y-116794359D01*
X128948962Y-116794363D01*
X129078851Y-116966364D01*
X129238134Y-117111570D01*
X129421386Y-117225035D01*
X129622367Y-117302895D01*
X129834232Y-117342500D01*
X130049765Y-117342500D01*
X130049768Y-117342500D01*
X130086809Y-117335575D01*
X130147481Y-117343467D01*
X130191929Y-117385514D01*
X130204000Y-117432889D01*
X130204000Y-119749887D01*
X130185093Y-119808078D01*
X130175004Y-119819891D01*
X128033451Y-121961444D01*
X127978934Y-121989221D01*
X127918502Y-121979650D01*
X127893443Y-121961444D01*
X127881999Y-121950000D01*
X126965686Y-121950000D01*
X126991493Y-121909844D01*
X127032000Y-121771889D01*
X127032000Y-121628111D01*
X126991493Y-121490156D01*
X126965686Y-121450000D01*
X127881999Y-121450000D01*
X127882000Y-121449999D01*
X127882000Y-120802175D01*
X127875598Y-120742629D01*
X127875596Y-120742618D01*
X127825353Y-120607911D01*
X127825352Y-120607909D01*
X127739192Y-120492815D01*
X127739184Y-120492807D01*
X127624090Y-120406647D01*
X127624088Y-120406646D01*
X127489381Y-120356403D01*
X127489370Y-120356401D01*
X127429824Y-120350000D01*
X126782001Y-120350000D01*
X126782000Y-120350001D01*
X126782000Y-121264498D01*
X126674315Y-121215320D01*
X126567763Y-121200000D01*
X126496237Y-121200000D01*
X126389685Y-121215320D01*
X126282000Y-121264498D01*
X126282000Y-120350001D01*
X126281999Y-120350000D01*
X125634176Y-120350000D01*
X125574629Y-120356401D01*
X125574618Y-120356403D01*
X125439911Y-120406646D01*
X125439909Y-120406647D01*
X125324815Y-120492807D01*
X125324807Y-120492815D01*
X125238647Y-120607909D01*
X125238646Y-120607911D01*
X125188403Y-120742618D01*
X125188401Y-120742629D01*
X125181999Y-120802175D01*
X125181999Y-121087808D01*
X125163091Y-121145999D01*
X125113591Y-121181963D01*
X125052406Y-121181962D01*
X125002906Y-121145998D01*
X124994382Y-121131944D01*
X124974366Y-121091745D01*
X124845872Y-120921593D01*
X124714878Y-120802175D01*
X124688307Y-120777952D01*
X124688300Y-120777946D01*
X124507024Y-120665705D01*
X124507019Y-120665702D01*
X124357842Y-120607911D01*
X124308198Y-120588679D01*
X124308197Y-120588678D01*
X124308195Y-120588678D01*
X124098610Y-120549500D01*
X123885390Y-120549500D01*
X123675804Y-120588678D01*
X123476980Y-120665702D01*
X123476975Y-120665705D01*
X123295699Y-120777946D01*
X123295692Y-120777952D01*
X123138135Y-120921586D01*
X123138131Y-120921589D01*
X123138128Y-120921593D01*
X123138124Y-120921597D01*
X123138125Y-120921597D01*
X123009635Y-121091743D01*
X123009630Y-121091752D01*
X122914596Y-121282608D01*
X122856244Y-121487688D01*
X122836571Y-121700000D01*
X122848691Y-121830804D01*
X122856244Y-121912310D01*
X122905182Y-122084307D01*
X122914596Y-122117391D01*
X123008696Y-122306372D01*
X123017709Y-122366890D01*
X122989428Y-122421148D01*
X122934657Y-122448420D01*
X122920075Y-122449500D01*
X122523925Y-122449500D01*
X122465734Y-122430593D01*
X122429770Y-122381093D01*
X122429770Y-122319907D01*
X122435304Y-122306372D01*
X122500752Y-122174932D01*
X122529405Y-122117389D01*
X122587756Y-121912310D01*
X122607429Y-121700000D01*
X122587756Y-121487690D01*
X122529405Y-121282611D01*
X122434366Y-121091745D01*
X122305872Y-120921593D01*
X122174878Y-120802175D01*
X122148307Y-120777952D01*
X122148300Y-120777946D01*
X121967024Y-120665705D01*
X121967019Y-120665702D01*
X121817842Y-120607911D01*
X121768198Y-120588679D01*
X121768197Y-120588678D01*
X121768195Y-120588678D01*
X121558610Y-120549500D01*
X121345390Y-120549500D01*
X121135804Y-120588678D01*
X120936980Y-120665702D01*
X120936975Y-120665705D01*
X120755699Y-120777946D01*
X120755692Y-120777952D01*
X120598135Y-120921586D01*
X120598131Y-120921589D01*
X120598128Y-120921593D01*
X120598124Y-120921597D01*
X120598125Y-120921597D01*
X120469635Y-121091743D01*
X120469630Y-121091752D01*
X120374596Y-121282608D01*
X120316244Y-121487688D01*
X120296571Y-121700000D01*
X120308691Y-121830804D01*
X120316244Y-121912310D01*
X120365182Y-122084307D01*
X120374596Y-122117391D01*
X120468696Y-122306372D01*
X120477709Y-122366890D01*
X120449428Y-122421148D01*
X120394657Y-122448420D01*
X120380075Y-122449500D01*
X119983925Y-122449500D01*
X119925734Y-122430593D01*
X119889770Y-122381093D01*
X119889770Y-122319907D01*
X119895304Y-122306372D01*
X119960752Y-122174932D01*
X119989405Y-122117389D01*
X120047756Y-121912310D01*
X120067429Y-121700000D01*
X120047756Y-121487690D01*
X119989405Y-121282611D01*
X119894366Y-121091745D01*
X119765872Y-120921593D01*
X119634878Y-120802175D01*
X119608307Y-120777952D01*
X119608300Y-120777946D01*
X119427024Y-120665705D01*
X119427019Y-120665702D01*
X119277842Y-120607911D01*
X119228198Y-120588679D01*
X119228197Y-120588678D01*
X119228195Y-120588678D01*
X119018610Y-120549500D01*
X118805390Y-120549500D01*
X118595804Y-120588678D01*
X118396980Y-120665702D01*
X118396975Y-120665705D01*
X118215699Y-120777946D01*
X118215692Y-120777952D01*
X118058135Y-120921586D01*
X118058131Y-120921589D01*
X118058128Y-120921593D01*
X118058124Y-120921597D01*
X118058125Y-120921597D01*
X117929635Y-121091743D01*
X117929630Y-121091752D01*
X117834596Y-121282608D01*
X117834595Y-121282611D01*
X117819389Y-121336055D01*
X117792110Y-121431928D01*
X117757999Y-121482723D01*
X117700546Y-121503767D01*
X117641697Y-121487023D01*
X117626885Y-121474839D01*
X117509413Y-121357367D01*
X117481636Y-121302850D01*
X117480418Y-121287375D01*
X117480418Y-119979503D01*
X117499325Y-119921313D01*
X117548825Y-119885349D01*
X117579418Y-119880504D01*
X117660390Y-119880504D01*
X117660676Y-119880492D01*
X117698698Y-119880494D01*
X117843693Y-119851656D01*
X117980276Y-119795085D01*
X118103198Y-119712955D01*
X118207736Y-119608422D01*
X118289871Y-119485503D01*
X118346447Y-119348922D01*
X118375291Y-119203928D01*
X118375291Y-119171019D01*
X118375296Y-119171005D01*
X118375296Y-119056093D01*
X118375295Y-119056086D01*
X118346456Y-118911093D01*
X118289881Y-118774508D01*
X118207746Y-118651584D01*
X118156177Y-118600016D01*
X118128400Y-118545501D01*
X118137971Y-118485069D01*
X118156177Y-118460010D01*
X118207760Y-118408425D01*
X118207759Y-118408425D01*
X118207768Y-118408417D01*
X118289898Y-118285498D01*
X118346471Y-118148918D01*
X118375313Y-118003926D01*
X118375314Y-117930010D01*
X118375314Y-117870701D01*
X118375314Y-117867537D01*
X118375296Y-117867276D01*
X118375297Y-117856094D01*
X118346459Y-117711103D01*
X118289889Y-117574523D01*
X118207761Y-117451603D01*
X118103232Y-117347067D01*
X117980317Y-117264932D01*
X117980318Y-117264932D01*
X117980316Y-117264931D01*
X117843743Y-117208354D01*
X117843739Y-117208353D01*
X117698751Y-117179508D01*
X117698745Y-117179507D01*
X117696152Y-117179507D01*
X117696105Y-117179504D01*
X117692716Y-117179504D01*
X117624836Y-117179504D01*
X117579414Y-117179502D01*
X117521224Y-117160592D01*
X117485262Y-117111091D01*
X117480418Y-117080502D01*
X117480418Y-116907614D01*
X117499325Y-116849423D01*
X117509408Y-116837616D01*
X117697753Y-116649271D01*
X117752268Y-116621496D01*
X117812700Y-116631067D01*
X117837753Y-116649267D01*
X117843569Y-116655083D01*
X117916617Y-116728134D01*
X117916635Y-116728147D01*
X117922129Y-116733641D01*
X118045050Y-116815774D01*
X118181632Y-116872348D01*
X118326626Y-116901190D01*
X118326627Y-116901190D01*
X118474461Y-116901190D01*
X118474462Y-116901190D01*
X118619456Y-116872348D01*
X118756038Y-116815774D01*
X118878959Y-116733641D01*
X118880322Y-116732276D01*
X118885049Y-116728116D01*
X118891407Y-116723197D01*
X118891411Y-116723196D01*
X118927988Y-116684928D01*
X118930095Y-116682853D01*
X118960023Y-116655085D01*
X118968871Y-116646876D01*
X118968874Y-116646870D01*
X118973497Y-116641074D01*
X118973845Y-116641351D01*
X118982364Y-116630244D01*
X118983537Y-116629072D01*
X119065651Y-116506153D01*
X119122210Y-116369577D01*
X119151041Y-116224592D01*
X119151040Y-116151650D01*
X119169947Y-116093459D01*
X119219446Y-116057495D01*
X119250040Y-116052649D01*
X119322983Y-116052649D01*
X119322984Y-116052649D01*
X119467978Y-116023807D01*
X119604560Y-115967233D01*
X119727481Y-115885100D01*
X119773152Y-115839428D01*
X119774431Y-115838196D01*
X119817392Y-115798337D01*
X119817393Y-115798336D01*
X119822017Y-115792537D01*
X119822341Y-115792795D01*
X119831038Y-115781461D01*
X119831913Y-115780588D01*
X119914070Y-115657679D01*
X119970667Y-115521102D01*
X119999529Y-115376108D01*
X119999547Y-115228269D01*
X119970719Y-115083268D01*
X119943069Y-115016500D01*
X119914157Y-114946684D01*
X119914154Y-114946679D01*
X119914154Y-114946678D01*
X119832026Y-114823750D01*
X119832024Y-114823748D01*
X119831999Y-114823717D01*
X119779763Y-114771480D01*
X119779757Y-114771475D01*
X119747655Y-114739371D01*
X119719879Y-114684854D01*
X119729453Y-114624422D01*
X119747653Y-114599370D01*
X119957734Y-114389290D01*
X120012248Y-114361515D01*
X120072680Y-114371086D01*
X120115945Y-114414351D01*
X120119190Y-114421391D01*
X120146918Y-114488343D01*
X120157312Y-114503900D01*
X120229045Y-114611270D01*
X120229049Y-114611274D01*
X120333571Y-114715806D01*
X120333575Y-114715809D01*
X120333579Y-114715813D01*
X120416881Y-114771478D01*
X120456499Y-114797952D01*
X120593077Y-114854528D01*
X120593078Y-114854528D01*
X120593083Y-114854530D01*
X120738081Y-114883373D01*
X120744704Y-114883373D01*
X120744716Y-114883374D01*
X120752691Y-114883374D01*
X120770967Y-114883374D01*
X120771050Y-114883400D01*
X120812000Y-114883399D01*
X120812000Y-114883400D01*
X120885922Y-114883399D01*
X121030924Y-114854555D01*
X121030985Y-114854530D01*
X121167513Y-114797975D01*
X121167516Y-114797973D01*
X121220010Y-114762895D01*
X121290438Y-114715833D01*
X121394974Y-114611287D01*
X121477105Y-114488355D01*
X121533674Y-114351762D01*
X121562506Y-114206757D01*
X121562500Y-114132835D01*
X121562500Y-114132834D01*
X121562500Y-114087499D01*
X121581407Y-114029309D01*
X121630907Y-113993345D01*
X121661500Y-113988500D01*
X124177913Y-113988500D01*
X124183459Y-113988811D01*
X124223035Y-113993270D01*
X124280584Y-113982380D01*
X124282400Y-113982072D01*
X124340287Y-113973348D01*
X124340290Y-113973346D01*
X124347381Y-113971159D01*
X124347512Y-113971584D01*
X124349613Y-113970892D01*
X124349467Y-113970473D01*
X124356463Y-113968024D01*
X124356472Y-113968023D01*
X124388109Y-113951301D01*
X124408252Y-113940656D01*
X124409906Y-113939821D01*
X124430056Y-113930116D01*
X124462642Y-113914425D01*
X124462646Y-113914421D01*
X124468778Y-113910242D01*
X124469028Y-113910609D01*
X124470832Y-113909329D01*
X124470568Y-113908971D01*
X124476530Y-113904569D01*
X124476538Y-113904566D01*
X124517995Y-113863107D01*
X124519247Y-113861902D01*
X124562194Y-113822055D01*
X124562197Y-113822048D01*
X124566820Y-113816253D01*
X124567166Y-113816529D01*
X124575704Y-113805398D01*
X124898703Y-113482398D01*
X124902825Y-113478714D01*
X124933970Y-113453879D01*
X124966985Y-113405453D01*
X124968036Y-113403974D01*
X125002793Y-113356882D01*
X125002795Y-113356876D01*
X125006263Y-113350316D01*
X125006655Y-113350523D01*
X125007651Y-113348550D01*
X125007252Y-113348358D01*
X125010472Y-113341672D01*
X125015665Y-113324835D01*
X125027754Y-113285639D01*
X125028292Y-113284005D01*
X125047646Y-113228699D01*
X125047646Y-113228694D01*
X125049026Y-113221407D01*
X125049460Y-113221489D01*
X125049832Y-113219303D01*
X125049394Y-113219237D01*
X125050500Y-113211900D01*
X125050500Y-113153357D01*
X125050535Y-113151507D01*
X125051850Y-113116342D01*
X125052724Y-113092990D01*
X125052722Y-113092982D01*
X125051893Y-113085618D01*
X125052331Y-113085568D01*
X125050500Y-113071657D01*
X125050500Y-111954499D01*
X125069407Y-111896308D01*
X125118907Y-111860344D01*
X125149500Y-111855499D01*
X125472110Y-111855499D01*
X125472112Y-111855499D01*
X125518863Y-111849345D01*
X125533158Y-111842678D01*
X125593884Y-111835219D01*
X125616835Y-111842675D01*
X125631137Y-111849345D01*
X125677887Y-111855500D01*
X126090977Y-111855499D01*
X126149168Y-111874406D01*
X126185132Y-111923906D01*
X126185132Y-111985091D01*
X126160981Y-112024503D01*
X125991665Y-112193819D01*
X125975194Y-112207093D01*
X125968872Y-112211156D01*
X125968868Y-112211159D01*
X125934606Y-112250701D01*
X125932199Y-112253286D01*
X125920778Y-112264707D01*
X125911089Y-112277648D01*
X125908874Y-112280397D01*
X125874622Y-112319926D01*
X125871500Y-112326763D01*
X125860712Y-112344946D01*
X125856203Y-112350969D01*
X125856202Y-112350971D01*
X125837917Y-112399995D01*
X125836565Y-112403259D01*
X125814836Y-112450840D01*
X125814834Y-112450847D01*
X125813764Y-112458285D01*
X125808536Y-112478771D01*
X125805908Y-112485817D01*
X125802176Y-112538000D01*
X125801798Y-112541512D01*
X125799500Y-112557500D01*
X125799500Y-112573647D01*
X125799374Y-112577180D01*
X125795641Y-112629373D01*
X125797237Y-112636708D01*
X125799500Y-112657756D01*
X125799500Y-113594129D01*
X125780593Y-113652320D01*
X125731093Y-113688284D01*
X125711819Y-113691997D01*
X125711874Y-113692472D01*
X125683909Y-113695714D01*
X125581135Y-113741094D01*
X125501694Y-113820535D01*
X125456314Y-113923311D01*
X125453400Y-113948430D01*
X125453400Y-114503900D01*
X125434493Y-114562091D01*
X125384993Y-114598055D01*
X125354400Y-114602900D01*
X124102900Y-114602900D01*
X124102900Y-118997100D01*
X124102901Y-118997100D01*
X125154900Y-118997100D01*
X125213091Y-119016007D01*
X125249055Y-119065507D01*
X125253900Y-119096100D01*
X125253900Y-119654524D01*
X125253899Y-119654524D01*
X125260301Y-119714070D01*
X125260303Y-119714081D01*
X125310546Y-119848788D01*
X125310547Y-119848790D01*
X125396707Y-119963884D01*
X125396715Y-119963892D01*
X125511809Y-120050052D01*
X125511811Y-120050053D01*
X125646518Y-120100296D01*
X125646529Y-120100298D01*
X125706076Y-120106700D01*
X126049999Y-120106700D01*
X126050000Y-120106699D01*
X126050000Y-118401600D01*
X126068907Y-118343409D01*
X126118407Y-118307445D01*
X126149000Y-118302600D01*
X126451000Y-118302600D01*
X126509191Y-118321507D01*
X126545155Y-118371007D01*
X126550000Y-118401600D01*
X126550000Y-120106699D01*
X126550001Y-120106700D01*
X126893924Y-120106700D01*
X126953470Y-120100298D01*
X126953481Y-120100296D01*
X127088188Y-120050053D01*
X127088190Y-120050052D01*
X127203284Y-119963892D01*
X127203292Y-119963884D01*
X127289452Y-119848790D01*
X127289453Y-119848788D01*
X127339696Y-119714081D01*
X127339698Y-119714070D01*
X127346100Y-119654524D01*
X127346100Y-119096100D01*
X127365007Y-119037909D01*
X127414507Y-119001945D01*
X127445100Y-118997100D01*
X128497099Y-118997100D01*
X128497100Y-118997100D01*
X128497100Y-114602900D01*
X128497099Y-114602900D01*
X127245599Y-114602900D01*
X127187408Y-114583993D01*
X127151444Y-114534493D01*
X127146599Y-114503900D01*
X127146599Y-113948439D01*
X127146599Y-113948436D01*
X127143685Y-113923309D01*
X127098306Y-113820535D01*
X127018865Y-113741094D01*
X126916091Y-113695715D01*
X126916090Y-113695714D01*
X126916088Y-113695714D01*
X126888124Y-113692470D01*
X126888316Y-113690812D01*
X126836834Y-113670770D01*
X126803752Y-113619299D01*
X126800499Y-113594134D01*
X126800499Y-112841620D01*
X126819406Y-112783430D01*
X126829489Y-112771623D01*
X127508335Y-112092777D01*
X127524811Y-112079502D01*
X127531128Y-112075443D01*
X127565408Y-112035879D01*
X127567770Y-112033342D01*
X127579221Y-112021893D01*
X127588914Y-112008942D01*
X127591110Y-112006217D01*
X127625377Y-111966673D01*
X127628492Y-111959849D01*
X127639296Y-111941642D01*
X127639921Y-111940806D01*
X127643796Y-111935631D01*
X127648169Y-111923906D01*
X127649663Y-111919902D01*
X127687714Y-111871988D01*
X127742421Y-111855499D01*
X128072110Y-111855499D01*
X128072112Y-111855499D01*
X128118863Y-111849345D01*
X128118864Y-111849345D01*
X128175396Y-111822983D01*
X128221458Y-111801504D01*
X128301504Y-111721458D01*
X128349345Y-111618863D01*
X128355500Y-111572113D01*
X128355499Y-109967888D01*
X128350924Y-109933132D01*
X128350500Y-109926665D01*
X128350500Y-108864456D01*
X128352763Y-108843408D01*
X128354359Y-108836073D01*
X128350626Y-108783880D01*
X128350500Y-108780347D01*
X128350500Y-108764201D01*
X128348198Y-108748196D01*
X128347825Y-108744729D01*
X128344091Y-108692517D01*
X128341468Y-108685484D01*
X128336233Y-108664975D01*
X128335165Y-108657543D01*
X128313425Y-108609941D01*
X128312077Y-108606685D01*
X128304237Y-108585665D01*
X128293796Y-108557669D01*
X128289291Y-108551651D01*
X128278495Y-108533454D01*
X128275377Y-108526627D01*
X128275375Y-108526625D01*
X128275375Y-108526624D01*
X128263379Y-108512780D01*
X128241102Y-108487071D01*
X128238898Y-108484336D01*
X128237519Y-108482494D01*
X128229220Y-108471407D01*
X128217794Y-108459980D01*
X128215386Y-108457393D01*
X128181128Y-108417857D01*
X128181127Y-108417856D01*
X128174811Y-108413797D01*
X128158330Y-108400517D01*
X127049480Y-107291666D01*
X127036199Y-107275183D01*
X127032143Y-107268872D01*
X127032142Y-107268871D01*
X127015349Y-107254320D01*
X126983752Y-107201925D01*
X126988987Y-107140964D01*
X127029054Y-107094722D01*
X127080179Y-107080500D01*
X127301099Y-107080500D01*
X127359290Y-107099407D01*
X127371103Y-107109496D01*
X127767092Y-107505485D01*
X127789656Y-107528048D01*
X127789658Y-107528050D01*
X127811147Y-107538999D01*
X127824392Y-107547115D01*
X127843910Y-107561296D01*
X127866851Y-107568749D01*
X127881201Y-107574694D01*
X127902691Y-107585644D01*
X127902693Y-107585644D01*
X127902696Y-107585646D01*
X127926517Y-107589418D01*
X127941613Y-107593042D01*
X127964567Y-107600500D01*
X127996481Y-107600500D01*
X129012127Y-107600500D01*
X129070318Y-107619407D01*
X129106282Y-107668907D01*
X129106282Y-107730093D01*
X129081361Y-107768729D01*
X129081935Y-107769253D01*
X129078857Y-107772629D01*
X129078853Y-107772633D01*
X129078851Y-107772636D01*
X128948962Y-107944637D01*
X128948959Y-107944641D01*
X128852889Y-108137575D01*
X128793905Y-108344882D01*
X128774018Y-108559500D01*
X128793905Y-108774117D01*
X128852889Y-108981424D01*
X128948959Y-109174358D01*
X128948960Y-109174359D01*
X128948962Y-109174363D01*
X129078851Y-109346364D01*
X129238134Y-109491570D01*
X129421386Y-109605035D01*
X129622367Y-109682895D01*
X129834232Y-109722500D01*
X130049768Y-109722500D01*
X130261633Y-109682895D01*
X130462614Y-109605035D01*
X130645866Y-109491570D01*
X130805149Y-109346364D01*
X130935038Y-109174363D01*
X131031111Y-108981424D01*
X131090095Y-108774116D01*
X131109982Y-108559500D01*
X131090095Y-108344884D01*
X131031111Y-108137576D01*
X130935038Y-107944637D01*
X130805149Y-107772636D01*
X130805143Y-107772630D01*
X130805142Y-107772629D01*
X130802065Y-107769253D01*
X130802835Y-107768550D01*
X130774910Y-107719480D01*
X130781685Y-107658670D01*
X130822908Y-107613457D01*
X130871873Y-107600500D01*
X131850501Y-107600500D01*
X131908692Y-107619407D01*
X131944656Y-107668907D01*
X131949501Y-107699500D01*
X131949501Y-108194863D01*
X131952414Y-108219990D01*
X131968371Y-108256128D01*
X131997794Y-108322765D01*
X132077235Y-108402206D01*
X132180009Y-108447585D01*
X132205135Y-108450500D01*
X133994864Y-108450499D01*
X134019991Y-108447585D01*
X134122765Y-108402206D01*
X134202206Y-108322765D01*
X134247585Y-108219991D01*
X134250500Y-108194865D01*
X134250499Y-106405136D01*
X134247585Y-106380009D01*
X134202206Y-106277235D01*
X134122765Y-106197794D01*
X134019991Y-106152415D01*
X134019990Y-106152414D01*
X134019988Y-106152414D01*
X133994868Y-106149500D01*
X132205139Y-106149500D01*
X132205136Y-106149501D01*
X132180009Y-106152414D01*
X132077235Y-106197794D01*
X131997794Y-106277235D01*
X131952414Y-106380011D01*
X131949500Y-106405130D01*
X131949500Y-106700500D01*
X131930593Y-106758691D01*
X131881093Y-106794655D01*
X131850500Y-106799500D01*
X131009151Y-106799500D01*
X130950960Y-106780593D01*
X130914996Y-106731093D01*
X130914996Y-106669907D01*
X130930145Y-106640841D01*
X130935038Y-106634363D01*
X131031111Y-106441424D01*
X131090095Y-106234116D01*
X131109982Y-106019500D01*
X131090095Y-105804884D01*
X131031111Y-105597576D01*
X130935038Y-105404637D01*
X130805149Y-105232636D01*
X130645866Y-105087430D01*
X130473627Y-104980784D01*
X130462619Y-104973968D01*
X130462614Y-104973965D01*
X130261633Y-104896105D01*
X130261632Y-104896104D01*
X130261630Y-104896104D01*
X130049768Y-104856500D01*
X129834232Y-104856500D01*
X129622369Y-104896104D01*
X129421385Y-104973965D01*
X129421380Y-104973968D01*
X129238138Y-105087427D01*
X129238136Y-105087428D01*
X129238134Y-105087430D01*
X129078851Y-105232636D01*
X128977651Y-105366647D01*
X128948959Y-105404641D01*
X128852889Y-105597575D01*
X128793905Y-105804882D01*
X128774018Y-106019499D01*
X128793905Y-106234117D01*
X128852889Y-106441424D01*
X128948959Y-106634358D01*
X128948960Y-106634359D01*
X128948962Y-106634363D01*
X128953853Y-106640840D01*
X128973832Y-106698671D01*
X128956003Y-106757201D01*
X128907176Y-106794073D01*
X128874849Y-106799500D01*
X128234901Y-106799500D01*
X128176710Y-106780593D01*
X128164898Y-106770504D01*
X127903584Y-106509191D01*
X127768909Y-106374516D01*
X127768905Y-106374513D01*
X127766423Y-106372031D01*
X127766423Y-106372030D01*
X127746343Y-106351951D01*
X127746342Y-106351950D01*
X127724847Y-106340997D01*
X127711608Y-106332884D01*
X127696501Y-106321909D01*
X127692090Y-106318704D01*
X127692088Y-106318703D01*
X127669142Y-106311247D01*
X127654777Y-106305295D01*
X127649688Y-106302701D01*
X127606430Y-106259430D01*
X127596868Y-106198996D01*
X127624655Y-106144484D01*
X127679176Y-106116715D01*
X127694636Y-106115499D01*
X128072112Y-106115499D01*
X128118863Y-106109345D01*
X128118864Y-106109345D01*
X128175002Y-106083167D01*
X128221458Y-106061504D01*
X128301504Y-105981458D01*
X128349345Y-105878863D01*
X128355500Y-105832113D01*
X128355500Y-105529499D01*
X128374407Y-105471309D01*
X128423907Y-105435345D01*
X128454500Y-105430500D01*
X128454932Y-105430500D01*
X128454933Y-105430500D01*
X128477882Y-105423043D01*
X128492965Y-105419421D01*
X128516804Y-105415646D01*
X128538302Y-105404690D01*
X128552651Y-105398748D01*
X128575590Y-105391296D01*
X128595112Y-105377111D01*
X128608349Y-105369000D01*
X128629842Y-105358050D01*
X128646760Y-105341130D01*
X128646772Y-105341121D01*
X128755258Y-105232635D01*
X129405662Y-104582228D01*
X129460179Y-104554451D01*
X129511428Y-104559916D01*
X129622367Y-104602895D01*
X129834232Y-104642500D01*
X130049768Y-104642500D01*
X130261633Y-104602895D01*
X130462614Y-104525035D01*
X130645866Y-104411570D01*
X130805149Y-104266364D01*
X130935038Y-104094363D01*
X131031111Y-103901424D01*
X131090095Y-103694116D01*
X131109982Y-103479500D01*
X131090095Y-103264884D01*
X131031111Y-103057576D01*
X130935038Y-102864637D01*
X130805149Y-102692636D01*
X130645866Y-102547430D01*
X130462614Y-102433965D01*
X130261633Y-102356105D01*
X130261632Y-102356104D01*
X130261630Y-102356104D01*
X130049768Y-102316500D01*
X129834232Y-102316500D01*
X129622369Y-102356104D01*
X129421385Y-102433965D01*
X129421380Y-102433968D01*
X129238138Y-102547427D01*
X129238136Y-102547428D01*
X129238134Y-102547430D01*
X129078851Y-102692636D01*
X128962424Y-102846810D01*
X128948959Y-102864641D01*
X128852889Y-103057575D01*
X128793905Y-103264882D01*
X128774018Y-103479500D01*
X128793905Y-103694117D01*
X128852889Y-103901423D01*
X128854645Y-103904950D01*
X128863655Y-103965468D01*
X128836026Y-104019078D01*
X128524503Y-104330602D01*
X128469986Y-104358380D01*
X128409554Y-104348809D01*
X128366289Y-104305544D01*
X128355499Y-104260599D01*
X128355499Y-104227890D01*
X128355498Y-104227882D01*
X128349345Y-104181137D01*
X128349345Y-104181135D01*
X128301505Y-104078544D01*
X128301504Y-104078543D01*
X128301504Y-104078542D01*
X128221458Y-103998496D01*
X128221456Y-103998495D01*
X128221455Y-103998494D01*
X128118868Y-103950657D01*
X128118866Y-103950656D01*
X128118863Y-103950655D01*
X128072113Y-103944500D01*
X128072112Y-103944500D01*
X127742399Y-103944500D01*
X127684208Y-103925593D01*
X127648244Y-103876093D01*
X127648244Y-103814907D01*
X127672393Y-103775498D01*
X129405664Y-102042227D01*
X129460179Y-102014452D01*
X129511428Y-102019918D01*
X129569021Y-102042229D01*
X129622367Y-102062895D01*
X129834232Y-102102500D01*
X130049768Y-102102500D01*
X130261633Y-102062895D01*
X130462614Y-101985035D01*
X130645866Y-101871570D01*
X130805149Y-101726364D01*
X130935038Y-101554363D01*
X131031111Y-101361424D01*
X131090095Y-101154116D01*
X131109982Y-100939500D01*
X131090095Y-100724884D01*
X131031111Y-100517576D01*
X130935038Y-100324637D01*
X130805149Y-100152636D01*
X130645866Y-100007430D01*
X130462614Y-99893965D01*
X130261633Y-99816105D01*
X130261632Y-99816104D01*
X130261630Y-99816104D01*
X130049768Y-99776500D01*
X129834232Y-99776500D01*
X129622369Y-99816104D01*
X129421385Y-99893965D01*
X129421380Y-99893968D01*
X129238138Y-100007427D01*
X129238136Y-100007428D01*
X129238134Y-100007430D01*
X129138433Y-100098320D01*
X129078852Y-100152635D01*
X128948959Y-100324641D01*
X128852889Y-100517575D01*
X128793905Y-100724882D01*
X128774018Y-100939500D01*
X128793905Y-101154117D01*
X128801438Y-101180593D01*
X128848994Y-101347736D01*
X128852889Y-101361423D01*
X128854645Y-101364950D01*
X128863655Y-101425468D01*
X128836026Y-101479079D01*
X127069504Y-103245602D01*
X127014987Y-103273379D01*
X126954555Y-103263808D01*
X126911290Y-103220543D01*
X126900500Y-103175598D01*
X126900500Y-101251892D01*
X126919407Y-101193701D01*
X126929490Y-101181894D01*
X126974408Y-101136977D01*
X127025608Y-101032246D01*
X127035500Y-100964351D01*
X127035499Y-99155650D01*
X127025608Y-99087754D01*
X126974408Y-98983023D01*
X126891977Y-98900592D01*
X126886017Y-98897678D01*
X126842045Y-98855137D01*
X126830499Y-98808742D01*
X126830499Y-98399499D01*
X128774018Y-98399499D01*
X128793905Y-98614117D01*
X128852889Y-98821424D01*
X128948959Y-99014358D01*
X128948960Y-99014359D01*
X128948962Y-99014363D01*
X129078851Y-99186364D01*
X129238134Y-99331570D01*
X129421386Y-99445035D01*
X129622367Y-99522895D01*
X129834232Y-99562500D01*
X130049768Y-99562500D01*
X130261633Y-99522895D01*
X130462614Y-99445035D01*
X130645866Y-99331570D01*
X130805149Y-99186364D01*
X130935038Y-99014363D01*
X131031111Y-98821424D01*
X131090095Y-98614116D01*
X131109982Y-98399500D01*
X131090095Y-98184884D01*
X131031111Y-97977576D01*
X130935038Y-97784637D01*
X130805149Y-97612636D01*
X130645866Y-97467430D01*
X130462614Y-97353965D01*
X130261633Y-97276105D01*
X130261632Y-97276104D01*
X130261630Y-97276104D01*
X130049768Y-97236500D01*
X129834232Y-97236500D01*
X129622369Y-97276104D01*
X129421385Y-97353965D01*
X129421380Y-97353968D01*
X129238138Y-97467427D01*
X129238136Y-97467428D01*
X129238134Y-97467430D01*
X129078851Y-97612636D01*
X129025871Y-97682793D01*
X128948959Y-97784641D01*
X128852889Y-97977575D01*
X128793905Y-98184882D01*
X128774018Y-98399499D01*
X126830499Y-98399499D01*
X126830499Y-97038399D01*
X126849406Y-96980209D01*
X126859489Y-96968402D01*
X127968391Y-95859500D01*
X128774018Y-95859500D01*
X128793905Y-96074117D01*
X128852889Y-96281424D01*
X128948959Y-96474358D01*
X128948960Y-96474359D01*
X128948962Y-96474363D01*
X129078851Y-96646364D01*
X129238134Y-96791570D01*
X129421386Y-96905035D01*
X129622367Y-96982895D01*
X129834232Y-97022500D01*
X130049768Y-97022500D01*
X130261633Y-96982895D01*
X130462614Y-96905035D01*
X130645866Y-96791570D01*
X130805149Y-96646364D01*
X130935038Y-96474363D01*
X131031111Y-96281424D01*
X131090095Y-96074116D01*
X131109982Y-95859500D01*
X131090095Y-95644884D01*
X131031111Y-95437576D01*
X130935038Y-95244637D01*
X130805149Y-95072636D01*
X130645866Y-94927430D01*
X130510478Y-94843601D01*
X130462619Y-94813968D01*
X130462614Y-94813965D01*
X130367170Y-94776990D01*
X130261633Y-94736105D01*
X130261632Y-94736104D01*
X130261630Y-94736104D01*
X130049768Y-94696500D01*
X129834232Y-94696500D01*
X129622369Y-94736104D01*
X129421385Y-94813965D01*
X129421380Y-94813968D01*
X129238138Y-94927427D01*
X129238136Y-94927428D01*
X129238134Y-94927430D01*
X129078851Y-95072636D01*
X128969640Y-95217255D01*
X128948959Y-95244641D01*
X128852889Y-95437575D01*
X128793905Y-95644882D01*
X128774018Y-95859500D01*
X127968391Y-95859500D01*
X129405664Y-94422227D01*
X129460179Y-94394452D01*
X129511428Y-94399918D01*
X129569021Y-94422229D01*
X129622367Y-94442895D01*
X129834232Y-94482500D01*
X130049768Y-94482500D01*
X130261633Y-94442895D01*
X130462614Y-94365035D01*
X130645866Y-94251570D01*
X130805149Y-94106364D01*
X130935038Y-93934363D01*
X131031111Y-93741424D01*
X131090095Y-93534116D01*
X131109982Y-93319500D01*
X131090095Y-93104884D01*
X131031111Y-92897576D01*
X130935038Y-92704637D01*
X130805149Y-92532636D01*
X130645866Y-92387430D01*
X130462614Y-92273965D01*
X130261633Y-92196105D01*
X130261632Y-92196104D01*
X130261630Y-92196104D01*
X130049768Y-92156500D01*
X129834232Y-92156500D01*
X129622369Y-92196104D01*
X129421385Y-92273965D01*
X129421380Y-92273968D01*
X129238138Y-92387427D01*
X129238136Y-92387428D01*
X129238134Y-92387430D01*
X129078851Y-92532636D01*
X128948962Y-92704637D01*
X128948959Y-92704641D01*
X128852889Y-92897575D01*
X128793905Y-93104882D01*
X128774018Y-93319499D01*
X128793905Y-93534117D01*
X128819006Y-93622338D01*
X128848812Y-93727096D01*
X128852889Y-93741423D01*
X128854645Y-93744950D01*
X128863655Y-93805468D01*
X128836026Y-93859079D01*
X127404003Y-95291101D01*
X127349486Y-95318878D01*
X127289054Y-95309307D01*
X127245789Y-95266042D01*
X127240971Y-95245972D01*
X127234999Y-95240000D01*
X126279000Y-95240000D01*
X126220809Y-95221093D01*
X126184845Y-95171593D01*
X126180000Y-95141000D01*
X126180000Y-94739999D01*
X126680000Y-94739999D01*
X126680001Y-94740000D01*
X127234998Y-94740000D01*
X127234999Y-94739999D01*
X127234999Y-94075837D01*
X127234998Y-94075827D01*
X127224409Y-93987644D01*
X127169062Y-93847295D01*
X127077911Y-93727094D01*
X127077905Y-93727088D01*
X126957703Y-93635937D01*
X126817356Y-93580591D01*
X126729169Y-93570000D01*
X126680001Y-93570000D01*
X126680000Y-93570001D01*
X126680000Y-94739999D01*
X126180000Y-94739999D01*
X126180000Y-93569999D01*
X126130837Y-93570000D01*
X126130828Y-93570001D01*
X126042644Y-93580591D01*
X125902295Y-93635937D01*
X125782094Y-93727088D01*
X125782086Y-93727096D01*
X125730731Y-93794818D01*
X125680505Y-93829760D01*
X125619332Y-93828506D01*
X125608368Y-93823939D01*
X125517246Y-93779392D01*
X125449351Y-93769500D01*
X125449347Y-93769500D01*
X124870654Y-93769500D01*
X124870648Y-93769501D01*
X124802757Y-93779391D01*
X124802753Y-93779392D01*
X124698024Y-93830591D01*
X124615590Y-93913025D01*
X124615589Y-93913027D01*
X124613940Y-93916401D01*
X124611040Y-93919397D01*
X124610825Y-93919700D01*
X124610779Y-93919667D01*
X124571397Y-93960375D01*
X124511131Y-93970944D01*
X124456163Y-93944071D01*
X124436060Y-93916401D01*
X124434410Y-93913027D01*
X124434409Y-93913025D01*
X124434408Y-93913024D01*
X124434408Y-93913023D01*
X124351977Y-93830592D01*
X124247246Y-93779392D01*
X124179351Y-93769500D01*
X124179347Y-93769500D01*
X123600654Y-93769500D01*
X123600648Y-93769501D01*
X123532757Y-93779391D01*
X123532753Y-93779392D01*
X123428022Y-93830592D01*
X123389503Y-93869111D01*
X123334986Y-93896888D01*
X123274554Y-93887316D01*
X123231290Y-93844051D01*
X123220500Y-93799107D01*
X123220500Y-93158699D01*
X123239407Y-93100508D01*
X123288907Y-93064544D01*
X123319500Y-93059699D01*
X124678361Y-93059699D01*
X124678364Y-93059699D01*
X124703491Y-93056785D01*
X124806265Y-93011406D01*
X124885706Y-92931965D01*
X124931085Y-92829191D01*
X124934000Y-92804065D01*
X124933999Y-90758536D01*
X124931085Y-90733409D01*
X124885706Y-90630635D01*
X124806265Y-90551194D01*
X124703491Y-90505815D01*
X124703490Y-90505814D01*
X124703488Y-90505814D01*
X124678369Y-90502900D01*
X124678365Y-90502900D01*
X124656300Y-90502900D01*
X124598109Y-90483993D01*
X124562145Y-90434493D01*
X124557300Y-90403900D01*
X124557300Y-88239499D01*
X128574830Y-88239499D01*
X128593475Y-88464527D01*
X128648907Y-88683417D01*
X128739609Y-88890198D01*
X128817905Y-89010039D01*
X129398359Y-88429584D01*
X129439738Y-88529481D01*
X129531905Y-88649595D01*
X129652019Y-88741762D01*
X129751912Y-88783139D01*
X129169922Y-89365130D01*
X129194225Y-89384046D01*
X129194228Y-89384048D01*
X129392812Y-89491517D01*
X129483362Y-89522602D01*
X129532261Y-89559379D01*
X129550204Y-89617874D01*
X129530338Y-89675744D01*
X129486982Y-89708552D01*
X129421391Y-89733962D01*
X129421380Y-89733968D01*
X129238138Y-89847427D01*
X129238136Y-89847428D01*
X129238134Y-89847430D01*
X129123544Y-89951893D01*
X129078852Y-89992635D01*
X128948959Y-90164641D01*
X128852889Y-90357575D01*
X128793905Y-90564882D01*
X128774018Y-90779500D01*
X128793905Y-90994117D01*
X128852889Y-91201424D01*
X128948959Y-91394358D01*
X128948960Y-91394359D01*
X128948962Y-91394363D01*
X129078851Y-91566364D01*
X129238134Y-91711570D01*
X129421386Y-91825035D01*
X129622367Y-91902895D01*
X129834232Y-91942500D01*
X130049768Y-91942500D01*
X130261633Y-91902895D01*
X130462614Y-91825035D01*
X130645866Y-91711570D01*
X130805149Y-91566364D01*
X130935038Y-91394363D01*
X130989558Y-91284872D01*
X131032422Y-91241209D01*
X131078180Y-91230000D01*
X135692413Y-91230000D01*
X135697959Y-91230311D01*
X135737535Y-91234770D01*
X135795084Y-91223880D01*
X135796900Y-91223572D01*
X135854787Y-91214848D01*
X135854790Y-91214846D01*
X135861881Y-91212659D01*
X135862012Y-91213084D01*
X135864113Y-91212392D01*
X135863967Y-91211973D01*
X135870962Y-91209524D01*
X135870972Y-91209523D01*
X135897876Y-91195302D01*
X135958158Y-91184827D01*
X136013085Y-91211784D01*
X136041676Y-91265878D01*
X136033011Y-91326447D01*
X136022263Y-91343636D01*
X135958849Y-91425110D01*
X135958847Y-91425113D01*
X135842308Y-91640457D01*
X135762801Y-91872055D01*
X135722500Y-92113570D01*
X135722500Y-92358429D01*
X135762801Y-92599944D01*
X135842308Y-92831542D01*
X135958847Y-93046886D01*
X135958849Y-93046889D01*
X135972591Y-93064544D01*
X136109242Y-93240113D01*
X136289390Y-93405951D01*
X136494378Y-93539876D01*
X136718612Y-93638235D01*
X136955978Y-93698344D01*
X137138886Y-93713500D01*
X137138894Y-93713500D01*
X137261106Y-93713500D01*
X137261114Y-93713500D01*
X137444022Y-93698344D01*
X137681388Y-93638235D01*
X137905622Y-93539876D01*
X138110610Y-93405951D01*
X138290758Y-93240113D01*
X138441153Y-93046886D01*
X138557693Y-92831539D01*
X138637198Y-92599948D01*
X138677500Y-92358429D01*
X138677500Y-92113571D01*
X138637198Y-91872052D01*
X138557693Y-91640461D01*
X138441153Y-91425114D01*
X138417218Y-91394363D01*
X138317214Y-91265878D01*
X138290758Y-91231887D01*
X138110610Y-91066049D01*
X137905622Y-90932124D01*
X137681388Y-90833765D01*
X137558087Y-90802541D01*
X137444020Y-90773655D01*
X137261123Y-90758500D01*
X137261114Y-90758500D01*
X137138886Y-90758500D01*
X137138876Y-90758500D01*
X136955979Y-90773655D01*
X136718612Y-90833765D01*
X136494378Y-90932123D01*
X136494375Y-90932125D01*
X136458712Y-90955425D01*
X136399655Y-90971423D01*
X136342474Y-90949653D01*
X136309009Y-90898430D01*
X136312044Y-90837320D01*
X136334559Y-90802543D01*
X138848699Y-88288402D01*
X138852830Y-88284710D01*
X138883970Y-88259879D01*
X138916985Y-88211453D01*
X138918036Y-88209974D01*
X138952793Y-88162882D01*
X138952795Y-88162876D01*
X138956263Y-88156316D01*
X138958961Y-88157742D01*
X138987906Y-88119684D01*
X139023556Y-88106231D01*
X139023205Y-88104940D01*
X139030387Y-88102985D01*
X139030391Y-88102985D01*
X139133165Y-88057606D01*
X139212606Y-87978165D01*
X139257985Y-87875391D01*
X139260900Y-87850265D01*
X139260899Y-87409736D01*
X139257985Y-87384609D01*
X139212606Y-87281835D01*
X139133165Y-87202394D01*
X139114082Y-87193968D01*
X139059511Y-87169872D01*
X139013916Y-87129071D01*
X139000500Y-87079308D01*
X139000500Y-85999499D01*
X139019407Y-85941308D01*
X139068907Y-85905344D01*
X139099500Y-85900499D01*
X139294861Y-85900499D01*
X139294864Y-85900499D01*
X139319991Y-85897585D01*
X139422765Y-85852206D01*
X139502206Y-85772765D01*
X139547585Y-85669991D01*
X139550500Y-85644865D01*
X139550499Y-83455136D01*
X139547585Y-83430009D01*
X139502206Y-83327235D01*
X139422765Y-83247794D01*
X139319991Y-83202415D01*
X139319990Y-83202414D01*
X139319988Y-83202414D01*
X139294869Y-83199500D01*
X139294865Y-83199500D01*
X139099500Y-83199500D01*
X139041309Y-83180593D01*
X139005345Y-83131093D01*
X139000500Y-83100500D01*
X139000500Y-76899499D01*
X139019407Y-76841308D01*
X139068907Y-76805344D01*
X139099500Y-76800499D01*
X139294861Y-76800499D01*
X139294864Y-76800499D01*
X139319991Y-76797585D01*
X139422765Y-76752206D01*
X139502206Y-76672765D01*
X139547585Y-76569991D01*
X139550500Y-76544865D01*
X139550499Y-74355136D01*
X139547585Y-74330009D01*
X139502206Y-74227235D01*
X139422765Y-74147794D01*
X139319991Y-74102415D01*
X139319990Y-74102414D01*
X139319988Y-74102414D01*
X139294868Y-74099500D01*
X137805139Y-74099500D01*
X137805136Y-74099501D01*
X137780009Y-74102414D01*
X137677235Y-74147794D01*
X137597794Y-74227235D01*
X137552414Y-74330011D01*
X137549500Y-74355130D01*
X137549500Y-76544860D01*
X137549501Y-76544863D01*
X137552414Y-76569990D01*
X137559058Y-76585037D01*
X137597794Y-76672765D01*
X137677235Y-76752206D01*
X137780009Y-76797585D01*
X137805135Y-76800500D01*
X138000501Y-76800499D01*
X138058690Y-76819406D01*
X138094654Y-76868906D01*
X138099500Y-76899499D01*
X138099500Y-83100500D01*
X138080593Y-83158691D01*
X138031093Y-83194655D01*
X138000500Y-83199500D01*
X137805140Y-83199500D01*
X137805135Y-83199501D01*
X137780009Y-83202414D01*
X137677235Y-83247794D01*
X137597794Y-83327235D01*
X137552414Y-83430011D01*
X137549500Y-83455130D01*
X137549500Y-85644860D01*
X137549501Y-85644863D01*
X137552414Y-85669990D01*
X137565444Y-85699499D01*
X137597794Y-85772765D01*
X137677235Y-85852206D01*
X137780009Y-85897585D01*
X137805135Y-85900500D01*
X138000501Y-85900499D01*
X138058690Y-85919406D01*
X138094654Y-85968906D01*
X138099500Y-85999499D01*
X138099500Y-86855600D01*
X138080593Y-86913791D01*
X138031093Y-86949755D01*
X138000500Y-86954600D01*
X137797599Y-86954600D01*
X137797599Y-87706399D01*
X137778692Y-87764590D01*
X137729192Y-87800554D01*
X137698599Y-87805399D01*
X136742800Y-87805399D01*
X136742800Y-87853224D01*
X136742799Y-87853224D01*
X136749201Y-87912770D01*
X136749203Y-87912781D01*
X136799446Y-88047488D01*
X136799447Y-88047490D01*
X136885607Y-88162584D01*
X136885615Y-88162592D01*
X137000709Y-88248752D01*
X137000711Y-88248753D01*
X137135418Y-88298996D01*
X137135429Y-88298998D01*
X137194976Y-88305400D01*
X137318488Y-88305400D01*
X137376679Y-88324307D01*
X137412643Y-88373807D01*
X137412643Y-88434993D01*
X137388492Y-88474404D01*
X135562893Y-90300004D01*
X135508376Y-90327781D01*
X135492889Y-90329000D01*
X131078180Y-90329000D01*
X131019989Y-90310093D01*
X130989559Y-90274128D01*
X130935040Y-90164641D01*
X130935039Y-90164640D01*
X130935038Y-90164637D01*
X130805149Y-89992636D01*
X130645866Y-89847430D01*
X130462614Y-89733965D01*
X130397016Y-89708552D01*
X130349587Y-89669901D01*
X130333933Y-89610752D01*
X130356036Y-89553698D01*
X130400637Y-89522602D01*
X130491187Y-89491517D01*
X130491188Y-89491517D01*
X130689770Y-89384049D01*
X130689774Y-89384046D01*
X130714076Y-89365130D01*
X130132085Y-88783139D01*
X130231981Y-88741762D01*
X130352095Y-88649595D01*
X130444262Y-88529481D01*
X130485639Y-88429585D01*
X131066094Y-89010040D01*
X131144387Y-88890205D01*
X131144390Y-88890200D01*
X131235092Y-88683417D01*
X131290524Y-88464527D01*
X131309169Y-88239499D01*
X131290524Y-88014472D01*
X131235092Y-87795582D01*
X131144390Y-87588799D01*
X131144387Y-87588794D01*
X131066094Y-87468958D01*
X130485639Y-88049412D01*
X130444262Y-87949519D01*
X130352095Y-87829405D01*
X130231981Y-87737238D01*
X130132084Y-87695859D01*
X130373343Y-87454600D01*
X136742800Y-87454600D01*
X136742801Y-87454601D01*
X137446800Y-87454601D01*
X137446801Y-87454600D01*
X137446801Y-86954600D01*
X137194976Y-86954600D01*
X137135429Y-86961001D01*
X137135418Y-86961003D01*
X137000711Y-87011246D01*
X137000709Y-87011247D01*
X136885615Y-87097407D01*
X136885607Y-87097415D01*
X136799447Y-87212509D01*
X136799446Y-87212511D01*
X136749203Y-87347218D01*
X136749201Y-87347229D01*
X136742800Y-87406775D01*
X136742800Y-87454600D01*
X130373343Y-87454600D01*
X130714076Y-87113868D01*
X130689774Y-87094953D01*
X130689771Y-87094951D01*
X130491189Y-86987483D01*
X130400636Y-86956397D01*
X130351737Y-86919620D01*
X130333795Y-86861125D01*
X130353661Y-86803254D01*
X130397017Y-86770447D01*
X130462614Y-86745035D01*
X130645866Y-86631570D01*
X130805149Y-86486364D01*
X130935038Y-86314363D01*
X131031111Y-86121424D01*
X131090095Y-85914116D01*
X131109982Y-85699500D01*
X131090095Y-85484884D01*
X131031111Y-85277576D01*
X130935038Y-85084637D01*
X130805149Y-84912636D01*
X130645866Y-84767430D01*
X130462614Y-84653965D01*
X130261633Y-84576105D01*
X130261632Y-84576104D01*
X130261630Y-84576104D01*
X130049768Y-84536500D01*
X129834232Y-84536500D01*
X129622369Y-84576104D01*
X129421385Y-84653965D01*
X129421380Y-84653968D01*
X129238138Y-84767427D01*
X129238136Y-84767428D01*
X129238134Y-84767430D01*
X129078851Y-84912636D01*
X128993903Y-85025125D01*
X128948959Y-85084641D01*
X128852889Y-85277575D01*
X128793905Y-85484882D01*
X128774018Y-85699499D01*
X128793905Y-85914117D01*
X128852889Y-86121424D01*
X128948959Y-86314358D01*
X128948960Y-86314359D01*
X128948962Y-86314363D01*
X129078851Y-86486364D01*
X129238134Y-86631570D01*
X129421386Y-86745035D01*
X129486982Y-86770446D01*
X129534412Y-86809098D01*
X129550066Y-86868247D01*
X129527963Y-86925300D01*
X129483363Y-86956397D01*
X129392810Y-86987483D01*
X129194228Y-87094951D01*
X129194228Y-87094952D01*
X129169922Y-87113868D01*
X129751914Y-87695860D01*
X129652019Y-87737238D01*
X129531905Y-87829405D01*
X129439738Y-87949519D01*
X129398360Y-88049414D01*
X128817904Y-87468958D01*
X128739611Y-87588796D01*
X128739609Y-87588799D01*
X128648907Y-87795582D01*
X128593475Y-88014472D01*
X128574830Y-88239499D01*
X124557300Y-88239499D01*
X124557300Y-87596099D01*
X124576207Y-87537908D01*
X124625707Y-87501944D01*
X124656300Y-87497099D01*
X124678361Y-87497099D01*
X124678364Y-87497099D01*
X124703491Y-87494185D01*
X124806265Y-87448806D01*
X124885706Y-87369365D01*
X124931085Y-87266591D01*
X124934000Y-87241465D01*
X124933999Y-87083882D01*
X124952906Y-87025693D01*
X125002406Y-86989729D01*
X125010945Y-86987371D01*
X125047361Y-86979060D01*
X125085624Y-86960632D01*
X125090731Y-86958516D01*
X125130822Y-86944489D01*
X125166784Y-86921891D01*
X125171624Y-86919216D01*
X125209887Y-86900791D01*
X125243089Y-86874312D01*
X125247607Y-86871107D01*
X125283562Y-86848516D01*
X125411116Y-86720962D01*
X125411115Y-86720961D01*
X126597826Y-85534252D01*
X126597825Y-85534251D01*
X126626825Y-85505253D01*
X126627296Y-85504781D01*
X126629816Y-85502262D01*
X126652408Y-85466304D01*
X126655612Y-85461789D01*
X126682091Y-85428587D01*
X126700516Y-85390324D01*
X126703191Y-85385484D01*
X126725789Y-85349522D01*
X126739816Y-85309431D01*
X126741932Y-85304324D01*
X126760360Y-85266061D01*
X126769810Y-85224654D01*
X126771347Y-85219323D01*
X126779531Y-85195935D01*
X126785368Y-85179255D01*
X126790123Y-85137050D01*
X126791049Y-85131596D01*
X126800500Y-85090194D01*
X126800500Y-84909806D01*
X126800500Y-84909805D01*
X126800500Y-83159500D01*
X128774018Y-83159500D01*
X128793905Y-83374117D01*
X128852889Y-83581424D01*
X128948959Y-83774358D01*
X128948960Y-83774359D01*
X128948962Y-83774363D01*
X129078851Y-83946364D01*
X129238134Y-84091570D01*
X129421386Y-84205035D01*
X129622367Y-84282895D01*
X129834232Y-84322500D01*
X130049768Y-84322500D01*
X130261633Y-84282895D01*
X130462614Y-84205035D01*
X130645866Y-84091570D01*
X130805149Y-83946364D01*
X130935038Y-83774363D01*
X131031111Y-83581424D01*
X131090095Y-83374116D01*
X131109982Y-83159500D01*
X131090095Y-82944884D01*
X131031111Y-82737576D01*
X130935038Y-82544637D01*
X130805149Y-82372636D01*
X130645866Y-82227430D01*
X130462614Y-82113965D01*
X130261633Y-82036105D01*
X130261632Y-82036104D01*
X130261630Y-82036104D01*
X130049768Y-81996500D01*
X129834232Y-81996500D01*
X129622369Y-82036104D01*
X129421385Y-82113965D01*
X129421380Y-82113968D01*
X129238138Y-82227427D01*
X129238136Y-82227428D01*
X129238134Y-82227430D01*
X129117833Y-82337099D01*
X129078852Y-82372635D01*
X128948959Y-82544641D01*
X128852889Y-82737575D01*
X128793905Y-82944882D01*
X128774018Y-83159500D01*
X126800500Y-83159500D01*
X126800500Y-81455046D01*
X126800500Y-81409805D01*
X126791049Y-81368402D01*
X126790123Y-81362949D01*
X126785368Y-81320745D01*
X126771340Y-81280656D01*
X126769807Y-81275334D01*
X126760359Y-81233939D01*
X126741935Y-81195681D01*
X126739814Y-81190560D01*
X126725789Y-81150478D01*
X126703192Y-81114515D01*
X126700509Y-81109659D01*
X126682091Y-81071413D01*
X126655620Y-81038219D01*
X126652405Y-81033689D01*
X126629815Y-80997737D01*
X126502262Y-80870183D01*
X126502262Y-80870184D01*
X125329496Y-79697418D01*
X125301719Y-79642901D01*
X125300500Y-79627414D01*
X125300500Y-78372585D01*
X125319407Y-78314394D01*
X125329497Y-78302581D01*
X125802583Y-77829496D01*
X125857099Y-77801719D01*
X125872586Y-77800500D01*
X126627414Y-77800500D01*
X126685605Y-77819407D01*
X126697418Y-77829496D01*
X127170504Y-78302582D01*
X127198281Y-78357099D01*
X127199500Y-78372586D01*
X127199499Y-80344953D01*
X127199500Y-80344970D01*
X127214630Y-80479249D01*
X127214633Y-80479261D01*
X127274211Y-80649522D01*
X127274211Y-80649523D01*
X127365183Y-80794303D01*
X127370184Y-80802262D01*
X127497738Y-80929816D01*
X127497740Y-80929817D01*
X127497741Y-80929818D01*
X127605833Y-80997737D01*
X127650478Y-81025789D01*
X127686001Y-81038219D01*
X127820738Y-81085366D01*
X127820742Y-81085367D01*
X127820745Y-81085368D01*
X128000000Y-81105565D01*
X128179255Y-81085368D01*
X128349522Y-81025789D01*
X128502262Y-80929816D01*
X128609998Y-80822079D01*
X128664513Y-80794303D01*
X128724945Y-80803874D01*
X128768209Y-80847139D01*
X128779000Y-80892084D01*
X128779000Y-81526860D01*
X128779001Y-81526863D01*
X128781914Y-81551990D01*
X128807256Y-81609385D01*
X128827294Y-81654765D01*
X128906735Y-81734206D01*
X129009509Y-81779585D01*
X129034635Y-81782500D01*
X130849364Y-81782499D01*
X130874491Y-81779585D01*
X130977265Y-81734206D01*
X131056706Y-81654765D01*
X131102085Y-81551991D01*
X131105000Y-81526865D01*
X131104999Y-79712136D01*
X131102085Y-79687009D01*
X131056706Y-79584235D01*
X130977265Y-79504794D01*
X130874491Y-79459415D01*
X130874490Y-79459414D01*
X130874488Y-79459414D01*
X130849368Y-79456500D01*
X129034639Y-79456500D01*
X129034636Y-79456501D01*
X129009509Y-79459414D01*
X128939488Y-79490332D01*
X128878618Y-79496540D01*
X128825725Y-79465784D01*
X128801011Y-79409811D01*
X128800500Y-79399767D01*
X128800500Y-77909808D01*
X128800500Y-77909806D01*
X128791049Y-77868399D01*
X128790123Y-77862951D01*
X128785368Y-77820745D01*
X128771341Y-77780660D01*
X128769808Y-77775335D01*
X128769636Y-77774583D01*
X128760360Y-77733939D01*
X128741936Y-77695680D01*
X128739810Y-77690548D01*
X128725789Y-77650478D01*
X128725787Y-77650475D01*
X128725787Y-77650474D01*
X128703202Y-77614531D01*
X128700514Y-77609668D01*
X128682095Y-77571419D01*
X128682093Y-77571416D01*
X128682092Y-77571415D01*
X128682092Y-77571414D01*
X128655614Y-77538213D01*
X128652406Y-77533691D01*
X128629816Y-77497738D01*
X128578758Y-77446680D01*
X128502262Y-77370183D01*
X127534252Y-76402174D01*
X127534251Y-76402173D01*
X127502262Y-76370184D01*
X127502259Y-76370182D01*
X127502258Y-76370181D01*
X127466306Y-76347591D01*
X127461774Y-76344375D01*
X127428590Y-76317911D01*
X127428589Y-76317910D01*
X127428579Y-76317905D01*
X127390322Y-76299481D01*
X127385477Y-76296803D01*
X127349524Y-76274211D01*
X127309445Y-76260187D01*
X127304314Y-76258061D01*
X127266061Y-76239640D01*
X127224659Y-76230189D01*
X127219326Y-76228653D01*
X127203219Y-76223017D01*
X127179256Y-76214632D01*
X127179249Y-76214630D01*
X127137064Y-76209877D01*
X127131589Y-76208947D01*
X127090195Y-76199500D01*
X127090194Y-76199500D01*
X127044954Y-76199500D01*
X125590195Y-76199500D01*
X125409806Y-76199500D01*
X125371495Y-76208243D01*
X125368411Y-76208947D01*
X125362936Y-76209877D01*
X125320750Y-76214630D01*
X125320744Y-76214632D01*
X125280666Y-76228654D01*
X125275331Y-76230191D01*
X125233936Y-76239640D01*
X125195685Y-76258061D01*
X125190555Y-76260185D01*
X125150480Y-76274209D01*
X125150477Y-76274210D01*
X125114522Y-76296801D01*
X125109663Y-76299486D01*
X125071418Y-76317905D01*
X125071406Y-76317912D01*
X125038213Y-76344382D01*
X125033685Y-76347595D01*
X124997742Y-76370180D01*
X124997739Y-76370182D01*
X124918985Y-76448934D01*
X124918974Y-76448947D01*
X123997737Y-77370183D01*
X123968741Y-77399180D01*
X123870184Y-77497737D01*
X123847592Y-77533691D01*
X123844379Y-77538220D01*
X123817910Y-77571411D01*
X123817906Y-77571416D01*
X123799488Y-77609660D01*
X123796803Y-77614519D01*
X123774213Y-77650472D01*
X123774208Y-77650484D01*
X123760186Y-77690552D01*
X123758062Y-77695681D01*
X123739640Y-77733938D01*
X123730191Y-77775331D01*
X123728654Y-77780666D01*
X123714632Y-77820744D01*
X123714630Y-77820750D01*
X123709877Y-77862936D01*
X123708947Y-77868411D01*
X123699500Y-77909806D01*
X123699500Y-77909808D01*
X123699500Y-77909809D01*
X123699500Y-80090195D01*
X123708947Y-80131589D01*
X123709877Y-80137064D01*
X123714630Y-80179249D01*
X123714632Y-80179256D01*
X123728652Y-80219323D01*
X123730189Y-80224659D01*
X123739640Y-80266061D01*
X123758061Y-80304314D01*
X123760187Y-80309445D01*
X123774211Y-80349524D01*
X123796803Y-80385477D01*
X123799481Y-80390322D01*
X123817909Y-80428587D01*
X123817910Y-80428589D01*
X123817911Y-80428590D01*
X123844375Y-80461774D01*
X123847591Y-80466306D01*
X123870181Y-80502258D01*
X123870181Y-80502259D01*
X123870183Y-80502261D01*
X123870184Y-80502262D01*
X123902173Y-80534251D01*
X123902174Y-80534252D01*
X125170505Y-81802583D01*
X125198281Y-81857098D01*
X125199500Y-81872585D01*
X125199500Y-84627414D01*
X125180593Y-84685605D01*
X125170503Y-84697418D01*
X124904901Y-84963019D01*
X124850385Y-84990796D01*
X124794911Y-84983580D01*
X124703491Y-84943215D01*
X124703488Y-84943214D01*
X124678369Y-84940300D01*
X124678365Y-84940300D01*
X124199500Y-84940300D01*
X124141309Y-84921393D01*
X124105345Y-84871893D01*
X124100500Y-84841300D01*
X124100500Y-81889808D01*
X124100500Y-81889806D01*
X124091049Y-81848399D01*
X124090123Y-81842951D01*
X124085368Y-81800745D01*
X124071341Y-81760660D01*
X124069808Y-81755335D01*
X124064985Y-81734205D01*
X124060360Y-81713939D01*
X124041927Y-81675665D01*
X124039814Y-81670561D01*
X124025789Y-81630478D01*
X124025789Y-81630477D01*
X124025787Y-81630473D01*
X124003202Y-81594532D01*
X124000514Y-81589668D01*
X123982092Y-81551413D01*
X123955618Y-81518215D01*
X123952404Y-81513686D01*
X123929818Y-81477741D01*
X123929814Y-81477736D01*
X123802262Y-81350183D01*
X123802262Y-81350184D01*
X123034252Y-80582173D01*
X123003495Y-80551415D01*
X122975719Y-80496898D01*
X122974500Y-80481413D01*
X122974500Y-79399767D01*
X122974500Y-77832770D01*
X122993406Y-77774583D01*
X123006799Y-77759617D01*
X123027872Y-77740407D01*
X123156366Y-77570255D01*
X123251405Y-77379389D01*
X123309756Y-77174310D01*
X123329429Y-76962000D01*
X123309756Y-76749690D01*
X123251405Y-76544611D01*
X123156366Y-76353745D01*
X123027872Y-76183593D01*
X122973623Y-76134139D01*
X122870307Y-76039952D01*
X122870300Y-76039946D01*
X122689024Y-75927705D01*
X122689022Y-75927704D01*
X122689019Y-75927702D01*
X122689017Y-75927701D01*
X122689013Y-75927699D01*
X122684146Y-75925814D01*
X122636715Y-75887162D01*
X122621062Y-75828013D01*
X122643166Y-75770960D01*
X122694583Y-75737795D01*
X122719910Y-75734500D01*
X129064967Y-75734500D01*
X129123158Y-75753407D01*
X129134971Y-75763496D01*
X133470504Y-80099028D01*
X133498281Y-80153545D01*
X133499500Y-80169032D01*
X133499499Y-83100500D01*
X133480592Y-83158691D01*
X133431092Y-83194655D01*
X133400500Y-83199500D01*
X133305139Y-83199500D01*
X133305135Y-83199501D01*
X133280009Y-83202414D01*
X133177235Y-83247794D01*
X133097794Y-83327235D01*
X133052414Y-83430011D01*
X133049500Y-83455130D01*
X133049500Y-85644860D01*
X133049501Y-85644863D01*
X133052414Y-85669990D01*
X133065444Y-85699499D01*
X133097794Y-85772765D01*
X133177235Y-85852206D01*
X133280009Y-85897585D01*
X133305135Y-85900500D01*
X134794864Y-85900499D01*
X134819991Y-85897585D01*
X134922765Y-85852206D01*
X135002206Y-85772765D01*
X135047585Y-85669991D01*
X135050500Y-85644865D01*
X135050499Y-83455136D01*
X135047585Y-83430009D01*
X135002206Y-83327235D01*
X134922765Y-83247794D01*
X134819991Y-83202415D01*
X134819990Y-83202414D01*
X134819988Y-83202414D01*
X134794869Y-83199500D01*
X134794865Y-83199500D01*
X134699500Y-83199500D01*
X134641309Y-83180593D01*
X134605345Y-83131093D01*
X134600500Y-83100500D01*
X134600500Y-79910233D01*
X134600529Y-79908543D01*
X134602762Y-79843174D01*
X134602759Y-79843165D01*
X134602069Y-79836433D01*
X134602230Y-79836416D01*
X134600500Y-79822001D01*
X134600500Y-76899499D01*
X134619407Y-76841308D01*
X134668907Y-76805344D01*
X134699500Y-76800499D01*
X134794861Y-76800499D01*
X134794864Y-76800499D01*
X134819991Y-76797585D01*
X134922765Y-76752206D01*
X135002206Y-76672765D01*
X135047585Y-76569991D01*
X135050500Y-76544865D01*
X135050499Y-74355136D01*
X135047585Y-74330009D01*
X135002206Y-74227235D01*
X134922765Y-74147794D01*
X134819991Y-74102415D01*
X134819990Y-74102414D01*
X134819988Y-74102414D01*
X134794868Y-74099500D01*
X133305139Y-74099500D01*
X133305136Y-74099501D01*
X133280009Y-74102414D01*
X133177235Y-74147794D01*
X133097794Y-74227235D01*
X133052414Y-74330011D01*
X133049500Y-74355130D01*
X133049500Y-76544860D01*
X133049501Y-76544863D01*
X133052414Y-76569990D01*
X133059058Y-76585037D01*
X133097794Y-76672765D01*
X133177235Y-76752206D01*
X133280009Y-76797585D01*
X133305135Y-76800500D01*
X133400499Y-76800499D01*
X133458689Y-76819406D01*
X133494653Y-76868905D01*
X133499499Y-76899499D01*
X133499499Y-78331966D01*
X133480592Y-78390157D01*
X133431092Y-78426121D01*
X133369906Y-78426121D01*
X133330495Y-78401970D01*
X129730499Y-74801973D01*
X129729324Y-74800758D01*
X129684679Y-74752955D01*
X129646319Y-74729628D01*
X129642126Y-74726774D01*
X129606345Y-74699641D01*
X129606340Y-74699638D01*
X129587654Y-74692269D01*
X129572543Y-74684763D01*
X129555382Y-74674328D01*
X129555379Y-74674327D01*
X129555380Y-74674327D01*
X129529465Y-74667066D01*
X129512137Y-74662210D01*
X129507338Y-74660596D01*
X129465567Y-74644124D01*
X129452816Y-74642813D01*
X129445576Y-74642068D01*
X129429000Y-74638917D01*
X129409667Y-74633500D01*
X129409665Y-74633500D01*
X129364763Y-74633500D01*
X129359698Y-74633240D01*
X129337169Y-74630924D01*
X129315028Y-74628648D01*
X129315026Y-74628648D01*
X129315025Y-74628648D01*
X129295239Y-74632060D01*
X129278417Y-74633500D01*
X116426234Y-74633500D01*
X116424552Y-74633471D01*
X116372282Y-74631685D01*
X116359175Y-74631238D01*
X116359167Y-74631238D01*
X116319040Y-74641017D01*
X116315554Y-74641867D01*
X116310575Y-74642813D01*
X116266081Y-74648929D01*
X116266080Y-74648929D01*
X116247657Y-74656932D01*
X116231659Y-74662312D01*
X116212149Y-74667066D01*
X116212144Y-74667068D01*
X116173009Y-74689072D01*
X116168470Y-74691326D01*
X116127279Y-74709220D01*
X116111698Y-74721895D01*
X116097752Y-74731387D01*
X116080241Y-74741234D01*
X116048484Y-74772988D01*
X116044721Y-74776384D01*
X116009892Y-74804720D01*
X116009891Y-74804721D01*
X115998310Y-74821127D01*
X115987437Y-74834036D01*
X112219504Y-78601970D01*
X112164987Y-78629747D01*
X112104555Y-78620176D01*
X112061290Y-78576911D01*
X112050500Y-78531966D01*
X112050500Y-76899499D01*
X112069407Y-76841308D01*
X112118907Y-76805344D01*
X112149500Y-76800499D01*
X112244861Y-76800499D01*
X112244864Y-76800499D01*
X112269991Y-76797585D01*
X112372765Y-76752206D01*
X112452206Y-76672765D01*
X112497585Y-76569991D01*
X112500500Y-76544865D01*
X112500499Y-74355136D01*
X112497585Y-74330009D01*
X112452206Y-74227235D01*
X112372765Y-74147794D01*
X112269991Y-74102415D01*
X112269990Y-74102414D01*
X112269988Y-74102414D01*
X112244868Y-74099500D01*
X110755139Y-74099500D01*
X110755136Y-74099501D01*
X110730009Y-74102414D01*
X110627235Y-74147794D01*
X110547794Y-74227235D01*
X110502414Y-74330011D01*
X110499500Y-74355130D01*
X110499500Y-76544860D01*
X110499501Y-76544863D01*
X110502414Y-76569990D01*
X110509058Y-76585037D01*
X110547794Y-76672765D01*
X110627235Y-76752206D01*
X110730009Y-76797585D01*
X110755135Y-76800500D01*
X110850500Y-76800499D01*
X110908690Y-76819406D01*
X110944654Y-76868905D01*
X110949500Y-76899499D01*
X110949500Y-80069236D01*
X110949240Y-80074301D01*
X110944648Y-80118972D01*
X110948060Y-80138763D01*
X110949499Y-80155582D01*
X110949500Y-81120834D01*
X110949500Y-83100500D01*
X110930593Y-83158691D01*
X110881093Y-83194655D01*
X110850501Y-83199500D01*
X110755139Y-83199500D01*
X110755135Y-83199501D01*
X110730009Y-83202414D01*
X110627235Y-83247794D01*
X110547794Y-83327235D01*
X110502414Y-83430011D01*
X110499500Y-83455130D01*
X110499500Y-84730966D01*
X110480593Y-84789157D01*
X110470504Y-84800970D01*
X109488971Y-85782501D01*
X109487757Y-85783674D01*
X109439957Y-85828318D01*
X109439955Y-85828321D01*
X109416624Y-85866684D01*
X109413773Y-85870873D01*
X109386639Y-85906657D01*
X109386638Y-85906659D01*
X109379269Y-85925343D01*
X109371765Y-85940452D01*
X109361327Y-85957618D01*
X109349210Y-86000861D01*
X109347594Y-86005666D01*
X109331123Y-86047437D01*
X109331122Y-86047441D01*
X109329068Y-86067417D01*
X109325919Y-86083990D01*
X109320500Y-86103334D01*
X109320500Y-86148236D01*
X109320240Y-86153301D01*
X109315648Y-86197972D01*
X109319060Y-86217763D01*
X109320499Y-86234575D01*
X109320500Y-86248407D01*
X109301597Y-86306599D01*
X109291504Y-86318417D01*
X109241185Y-86368736D01*
X109241181Y-86368741D01*
X109145211Y-86521476D01*
X109145211Y-86521477D01*
X109085633Y-86691738D01*
X109085632Y-86691742D01*
X109065435Y-86871000D01*
X107450500Y-86871000D01*
X107450500Y-85999499D01*
X107469407Y-85941308D01*
X107518907Y-85905344D01*
X107549500Y-85900499D01*
X107744861Y-85900499D01*
X107744864Y-85900499D01*
X107769991Y-85897585D01*
X107872765Y-85852206D01*
X107952206Y-85772765D01*
X107997585Y-85669991D01*
X108000500Y-85644865D01*
X108000499Y-83455136D01*
X107997585Y-83430009D01*
X107952206Y-83327235D01*
X107872765Y-83247794D01*
X107769991Y-83202415D01*
X107769990Y-83202414D01*
X107769988Y-83202414D01*
X107744869Y-83199500D01*
X107744865Y-83199500D01*
X107549499Y-83199500D01*
X107491308Y-83180593D01*
X107455344Y-83131093D01*
X107450499Y-83100500D01*
X107450499Y-76899499D01*
X107469406Y-76841308D01*
X107518906Y-76805344D01*
X107549499Y-76800499D01*
X107744861Y-76800499D01*
X107744864Y-76800499D01*
X107769991Y-76797585D01*
X107872765Y-76752206D01*
X107952206Y-76672765D01*
X107997585Y-76569991D01*
X108000500Y-76544865D01*
X108000499Y-74355136D01*
X107997585Y-74330009D01*
X107952206Y-74227235D01*
X107872765Y-74147794D01*
X107769991Y-74102415D01*
X107769990Y-74102414D01*
X107769988Y-74102414D01*
X107744868Y-74099500D01*
X106255139Y-74099500D01*
X106255136Y-74099501D01*
X106230009Y-74102414D01*
X106127235Y-74147794D01*
X106047794Y-74227235D01*
X106002414Y-74330011D01*
X105999500Y-74355130D01*
X105999500Y-76544860D01*
X105999501Y-76544863D01*
X106002414Y-76569990D01*
X106009058Y-76585037D01*
X106047794Y-76672765D01*
X106127235Y-76752206D01*
X106230009Y-76797585D01*
X106255135Y-76800500D01*
X106450501Y-76800499D01*
X106508690Y-76819406D01*
X106544654Y-76868906D01*
X106549500Y-76899499D01*
X106549500Y-83100500D01*
X106530593Y-83158691D01*
X106481093Y-83194655D01*
X106450500Y-83199500D01*
X106255140Y-83199500D01*
X106255135Y-83199501D01*
X106230009Y-83202414D01*
X106127235Y-83247794D01*
X106047794Y-83327235D01*
X106002414Y-83430011D01*
X105999500Y-83455130D01*
X105999500Y-85644860D01*
X105050500Y-85644860D01*
X105050500Y-72271824D01*
X107361999Y-72271824D01*
X107368401Y-72331370D01*
X107368403Y-72331381D01*
X107418646Y-72466088D01*
X107418647Y-72466090D01*
X107504807Y-72581184D01*
X107504815Y-72581192D01*
X107619909Y-72667352D01*
X107619911Y-72667353D01*
X107754618Y-72717596D01*
X107754629Y-72717598D01*
X107814176Y-72724000D01*
X108461999Y-72724000D01*
X108462000Y-72723999D01*
X108462000Y-71809501D01*
X108569685Y-71858680D01*
X108676237Y-71874000D01*
X108747763Y-71874000D01*
X108854315Y-71858680D01*
X108962000Y-71809501D01*
X108962000Y-72723999D01*
X108962001Y-72724000D01*
X109609824Y-72724000D01*
X109669370Y-72717598D01*
X109669381Y-72717596D01*
X109804088Y-72667353D01*
X109804090Y-72667352D01*
X109919184Y-72581192D01*
X109919192Y-72581184D01*
X110005352Y-72466090D01*
X110005353Y-72466088D01*
X110055596Y-72331381D01*
X110055598Y-72331370D01*
X110062000Y-72271824D01*
X110062000Y-71986191D01*
X110080907Y-71928000D01*
X110130407Y-71892036D01*
X110191593Y-71892036D01*
X110241093Y-71928000D01*
X110249621Y-71942063D01*
X110269630Y-71982248D01*
X110269632Y-71982252D01*
X110269634Y-71982255D01*
X110398128Y-72152407D01*
X110398135Y-72152413D01*
X110555692Y-72296047D01*
X110555699Y-72296053D01*
X110612738Y-72331370D01*
X110736981Y-72408298D01*
X110935802Y-72485321D01*
X111145390Y-72524500D01*
X111358610Y-72524500D01*
X111568198Y-72485321D01*
X111767019Y-72408298D01*
X111948302Y-72296052D01*
X112105872Y-72152407D01*
X112234366Y-71982255D01*
X112284287Y-71881999D01*
X115238773Y-71881999D01*
X115257656Y-72146020D01*
X115257656Y-72146023D01*
X115257657Y-72146026D01*
X115285023Y-72271824D01*
X115313924Y-72404682D01*
X115406426Y-72652690D01*
X115406427Y-72652692D01*
X115533284Y-72885011D01*
X115533283Y-72885011D01*
X115691908Y-73096909D01*
X115691910Y-73096911D01*
X115691913Y-73096915D01*
X115879085Y-73284087D01*
X115879088Y-73284089D01*
X115879090Y-73284091D01*
X116090988Y-73442716D01*
X116323307Y-73569572D01*
X116323311Y-73569574D01*
X116571317Y-73662075D01*
X116571322Y-73662077D01*
X116829974Y-73718343D01*
X117094000Y-73737227D01*
X117358026Y-73718343D01*
X117616678Y-73662077D01*
X117864689Y-73569574D01*
X118097011Y-73442716D01*
X118308915Y-73284087D01*
X118496087Y-73096915D01*
X118654716Y-72885011D01*
X118781574Y-72652689D01*
X118874077Y-72404678D01*
X118930343Y-72146026D01*
X118949227Y-71882000D01*
X118949227Y-71881999D01*
X125398773Y-71881999D01*
X125417656Y-72146020D01*
X125417656Y-72146023D01*
X125417657Y-72146026D01*
X125445023Y-72271824D01*
X125473924Y-72404682D01*
X125566426Y-72652690D01*
X125566427Y-72652692D01*
X125693284Y-72885011D01*
X125693283Y-72885011D01*
X125851908Y-73096909D01*
X125851910Y-73096911D01*
X125851913Y-73096915D01*
X126039085Y-73284087D01*
X126039088Y-73284089D01*
X126039090Y-73284091D01*
X126250988Y-73442716D01*
X126483307Y-73569572D01*
X126483311Y-73569574D01*
X126731317Y-73662075D01*
X126731322Y-73662077D01*
X126989974Y-73718343D01*
X127254000Y-73737227D01*
X127518026Y-73718343D01*
X127776678Y-73662077D01*
X128024689Y-73569574D01*
X128257011Y-73442716D01*
X128468915Y-73284087D01*
X128656087Y-73096915D01*
X128814716Y-72885011D01*
X128941574Y-72652689D01*
X129034077Y-72404678D01*
X129090343Y-72146026D01*
X129109227Y-71882000D01*
X129090343Y-71617974D01*
X129034077Y-71359322D01*
X128941574Y-71111311D01*
X128814716Y-70878989D01*
X128814715Y-70878988D01*
X128814716Y-70878988D01*
X128656091Y-70667090D01*
X128656089Y-70667088D01*
X128656087Y-70667085D01*
X128468915Y-70479913D01*
X128468911Y-70479910D01*
X128468909Y-70479908D01*
X128257011Y-70321283D01*
X128024692Y-70194427D01*
X128024690Y-70194426D01*
X127776681Y-70101924D01*
X127776683Y-70101924D01*
X127678873Y-70080647D01*
X127518026Y-70045657D01*
X127518023Y-70045656D01*
X127518020Y-70045656D01*
X127254000Y-70026773D01*
X126989979Y-70045656D01*
X126731317Y-70101924D01*
X126483309Y-70194426D01*
X126483307Y-70194427D01*
X126250988Y-70321283D01*
X126039090Y-70479908D01*
X125851908Y-70667090D01*
X125693283Y-70878988D01*
X125566427Y-71111307D01*
X125566426Y-71111309D01*
X125473924Y-71359317D01*
X125473922Y-71359322D01*
X125473923Y-71359322D01*
X125425082Y-71583844D01*
X125417656Y-71617979D01*
X125398773Y-71881999D01*
X118949227Y-71881999D01*
X118930343Y-71617974D01*
X118874077Y-71359322D01*
X118781574Y-71111311D01*
X118654716Y-70878989D01*
X118654715Y-70878988D01*
X118654716Y-70878988D01*
X118496091Y-70667090D01*
X118496089Y-70667088D01*
X118496087Y-70667085D01*
X118308915Y-70479913D01*
X118308911Y-70479910D01*
X118308909Y-70479908D01*
X118097011Y-70321283D01*
X117864692Y-70194427D01*
X117864690Y-70194426D01*
X117616681Y-70101924D01*
X117616683Y-70101924D01*
X117518873Y-70080647D01*
X117358026Y-70045657D01*
X117358023Y-70045656D01*
X117358020Y-70045656D01*
X117123395Y-70028875D01*
X117094000Y-70026773D01*
X117093999Y-70026773D01*
X116829979Y-70045656D01*
X116571317Y-70101924D01*
X116323309Y-70194426D01*
X116323307Y-70194427D01*
X116090988Y-70321283D01*
X115879090Y-70479908D01*
X115691908Y-70667090D01*
X115533283Y-70878988D01*
X115406427Y-71111307D01*
X115406426Y-71111309D01*
X115313924Y-71359317D01*
X115313922Y-71359322D01*
X115313923Y-71359322D01*
X115265082Y-71583844D01*
X115257656Y-71617979D01*
X115238773Y-71881999D01*
X112284287Y-71881999D01*
X112329405Y-71791389D01*
X112387756Y-71586310D01*
X112407429Y-71374000D01*
X112387756Y-71161690D01*
X112329405Y-70956611D01*
X112234366Y-70765745D01*
X112105872Y-70595593D01*
X111978978Y-70479913D01*
X111948307Y-70451952D01*
X111948300Y-70451946D01*
X111767024Y-70339705D01*
X111767019Y-70339702D01*
X111617842Y-70281911D01*
X111568198Y-70262679D01*
X111568197Y-70262678D01*
X111568195Y-70262678D01*
X111358610Y-70223500D01*
X111145390Y-70223500D01*
X110935804Y-70262678D01*
X110736980Y-70339702D01*
X110736975Y-70339705D01*
X110555699Y-70451946D01*
X110555692Y-70451952D01*
X110398135Y-70595586D01*
X110398131Y-70595589D01*
X110398128Y-70595593D01*
X110398124Y-70595597D01*
X110398125Y-70595597D01*
X110269635Y-70765743D01*
X110269630Y-70765752D01*
X110249621Y-70805936D01*
X110206758Y-70849599D01*
X110146417Y-70859728D01*
X110091646Y-70832455D01*
X110063366Y-70778197D01*
X110062000Y-70761808D01*
X110062000Y-70476175D01*
X110055598Y-70416629D01*
X110055596Y-70416618D01*
X110005353Y-70281911D01*
X110005352Y-70281909D01*
X109919192Y-70166815D01*
X109919184Y-70166807D01*
X109804090Y-70080647D01*
X109804088Y-70080646D01*
X109669381Y-70030403D01*
X109669370Y-70030401D01*
X109609824Y-70024000D01*
X108962000Y-70024000D01*
X108962000Y-70938498D01*
X108854315Y-70889320D01*
X108747763Y-70874000D01*
X108676237Y-70874000D01*
X108569685Y-70889320D01*
X108462000Y-70938498D01*
X108462000Y-70024000D01*
X107814176Y-70024000D01*
X107754629Y-70030401D01*
X107754618Y-70030403D01*
X107619911Y-70080646D01*
X107619909Y-70080647D01*
X107504815Y-70166807D01*
X107504807Y-70166815D01*
X107418647Y-70281909D01*
X107418646Y-70281911D01*
X107368403Y-70416618D01*
X107368401Y-70416629D01*
X107362000Y-70476175D01*
X107362000Y-71123999D01*
X107362001Y-71124000D01*
X108278314Y-71124000D01*
X108252507Y-71164156D01*
X108212000Y-71302111D01*
X108212000Y-71445889D01*
X108252507Y-71583844D01*
X108278314Y-71624000D01*
X107362000Y-71624000D01*
X107362000Y-72271824D01*
X107361999Y-72271824D01*
X105050500Y-72271824D01*
X105050500Y-69175500D01*
X105069407Y-69117309D01*
X105118907Y-69081345D01*
X105149500Y-69076500D01*
X140300500Y-69076500D01*
X140358691Y-69095407D01*
G37*
G04 #@! TD.AperFunction*
M02*
