G04 #@! TF.GenerationSoftware,KiCad,Pcbnew,7.0.5*
G04 #@! TF.CreationDate,2023-07-10T18:36:48-07:00*
G04 #@! TF.ProjectId,Breakout,42726561-6b6f-4757-942e-6b696361645f,rev?*
G04 #@! TF.SameCoordinates,Original*
G04 #@! TF.FileFunction,Copper,L2,Bot*
G04 #@! TF.FilePolarity,Positive*
%FSLAX46Y46*%
G04 Gerber Fmt 4.6, Leading zero omitted, Abs format (unit mm)*
G04 Created by KiCad (PCBNEW 7.0.5) date 2023-07-10 18:36:48*
%MOMM*%
%LPD*%
G01*
G04 APERTURE LIST*
G04 #@! TA.AperFunction,ComponentPad*
%ADD10R,1.700000X1.700000*%
G04 #@! TD*
G04 #@! TA.AperFunction,ComponentPad*
%ADD11C,1.700000*%
G04 #@! TD*
G04 #@! TA.AperFunction,ComponentPad*
%ADD12O,1.700000X1.700000*%
G04 #@! TD*
G04 #@! TA.AperFunction,ComponentPad*
%ADD13C,3.100000*%
G04 #@! TD*
G04 #@! TA.AperFunction,ComponentPad*
%ADD14R,1.725000X1.725000*%
G04 #@! TD*
G04 #@! TA.AperFunction,ComponentPad*
%ADD15C,1.725000*%
G04 #@! TD*
G04 #@! TA.AperFunction,SMDPad,CuDef*
%ADD16R,0.920000X0.980000*%
G04 #@! TD*
G04 #@! TA.AperFunction,ViaPad*
%ADD17C,1.000000*%
G04 #@! TD*
G04 #@! TA.AperFunction,ViaPad*
%ADD18C,2.000000*%
G04 #@! TD*
G04 #@! TA.AperFunction,ViaPad*
%ADD19C,0.800000*%
G04 #@! TD*
G04 #@! TA.AperFunction,ViaPad*
%ADD20C,0.600000*%
G04 #@! TD*
G04 #@! TA.AperFunction,Conductor*
%ADD21C,0.500000*%
G04 #@! TD*
G04 #@! TA.AperFunction,Conductor*
%ADD22C,0.300000*%
G04 #@! TD*
G04 #@! TA.AperFunction,Conductor*
%ADD23C,0.400000*%
G04 #@! TD*
G04 #@! TA.AperFunction,Conductor*
%ADD24C,1.000000*%
G04 #@! TD*
G04 #@! TA.AperFunction,Conductor*
%ADD25C,0.200000*%
G04 #@! TD*
G04 APERTURE END LIST*
D10*
X126532000Y-121700000D03*
D11*
X123992000Y-121700000D03*
X121452000Y-121700000D03*
X118912000Y-121700000D03*
D10*
X111506000Y-101854000D03*
X133100000Y-107300000D03*
X108712000Y-71374000D03*
D12*
X111252000Y-71374000D03*
D13*
X127254000Y-71882000D03*
X117094000Y-71882000D03*
D11*
X122174000Y-76962000D03*
X119634000Y-76962000D03*
D14*
X129942000Y-80619500D03*
D15*
X129942000Y-83159500D03*
X129942000Y-85699500D03*
X129942000Y-88239500D03*
X129942000Y-90779500D03*
X129942000Y-93319500D03*
X129942000Y-95859500D03*
X129942000Y-98399500D03*
X129942000Y-100939500D03*
X129942000Y-103479500D03*
X129942000Y-106019500D03*
X129942000Y-108559500D03*
X129942000Y-111099500D03*
X129942000Y-113639500D03*
X129942000Y-116179500D03*
X114702000Y-116179500D03*
X114702000Y-113639500D03*
X114702000Y-111099500D03*
X114702000Y-108559500D03*
X114702000Y-106019500D03*
X114702000Y-103479500D03*
X114702000Y-100939500D03*
X114702000Y-98399500D03*
X114702000Y-95859500D03*
X114702000Y-93319500D03*
X114702000Y-90779500D03*
X114702000Y-88239500D03*
X114702000Y-85699500D03*
X114702000Y-83159500D03*
D14*
X114702000Y-80619500D03*
D16*
X123325000Y-103000000D03*
X121775000Y-103000000D03*
D17*
X122620000Y-101850000D03*
X109871000Y-86871000D03*
X120700000Y-107925000D03*
X122587500Y-104512500D03*
X119200000Y-99825000D03*
D18*
X118600000Y-92400000D03*
X126425000Y-92350000D03*
D19*
X119126000Y-101600000D03*
D20*
X123975000Y-112750000D03*
D21*
X109900000Y-86900000D02*
X109871000Y-86871000D01*
X109900000Y-89900000D02*
X109900000Y-86900000D01*
X110800000Y-93600000D02*
X110800000Y-90800000D01*
X110800000Y-90800000D02*
X109900000Y-89900000D01*
X109000000Y-95400000D02*
X110800000Y-93600000D01*
X109000000Y-107937500D02*
X109000000Y-95400000D01*
X114702000Y-113639500D02*
X109000000Y-107937500D01*
D22*
X118912000Y-121700000D02*
X121712000Y-124500000D01*
X128500000Y-124500000D02*
X137200000Y-115800000D01*
X121712000Y-124500000D02*
X128500000Y-124500000D01*
X137200000Y-103117500D02*
X129942000Y-95859500D01*
X137200000Y-115800000D02*
X137200000Y-103117500D01*
X135700000Y-111200000D02*
X135022349Y-111200000D01*
X135400000Y-110000000D02*
X135022346Y-110000000D01*
X127900000Y-123400000D02*
X123152000Y-123400000D01*
X135400000Y-110600000D02*
X136377654Y-110600000D01*
X135022349Y-111800000D02*
X135700000Y-111800000D01*
X135700000Y-113300000D02*
X135700000Y-114394033D01*
X123152000Y-123400000D02*
X121452000Y-121700000D01*
X135022346Y-110600000D02*
X135400000Y-110600000D01*
X136377654Y-111200000D02*
X135700000Y-111200000D01*
X136377650Y-112400000D02*
X135700000Y-112400000D01*
X135700000Y-104157500D02*
X135700000Y-109700000D01*
X135022346Y-113000000D02*
X135400000Y-113000000D01*
X129942000Y-98399500D02*
X135700000Y-104157500D01*
X135700000Y-114394033D02*
X135700000Y-115600000D01*
X135700000Y-112400000D02*
X135022346Y-112400000D01*
X135700000Y-115600000D02*
X127900000Y-123400000D01*
X135700000Y-111800000D02*
X136377650Y-111800000D01*
X136677600Y-112100000D02*
G75*
G03*
X136377650Y-111800000I-300000J0D01*
G01*
X135022346Y-110000046D02*
G75*
G03*
X134722346Y-110300000I-46J-299954D01*
G01*
X136677700Y-110900000D02*
G75*
G03*
X136377654Y-110600000I-300000J0D01*
G01*
X134722300Y-112700000D02*
G75*
G03*
X135022346Y-113000000I300000J0D01*
G01*
X135700000Y-113300000D02*
G75*
G03*
X135400000Y-113000000I-300000J0D01*
G01*
X136377650Y-112400050D02*
G75*
G03*
X136677650Y-112100000I-50J300050D01*
G01*
X135022349Y-111200049D02*
G75*
G03*
X134722349Y-111500000I-49J-299951D01*
G01*
X134722300Y-111500000D02*
G75*
G03*
X135022349Y-111800000I300000J0D01*
G01*
X135022346Y-112400046D02*
G75*
G03*
X134722346Y-112700000I-46J-299954D01*
G01*
X135400000Y-110000000D02*
G75*
G03*
X135700000Y-109700000I0J300000D01*
G01*
X134722300Y-110300000D02*
G75*
G03*
X135022346Y-110600000I300000J0D01*
G01*
X136377654Y-111199954D02*
G75*
G03*
X136677654Y-110900000I46J299954D01*
G01*
D23*
X123992000Y-121700000D02*
X120700000Y-118408000D01*
X121775000Y-102695000D02*
X122620000Y-101850000D01*
X121526472Y-103000000D02*
X121775000Y-103000000D01*
D21*
X120416500Y-107925000D02*
X120700000Y-107925000D01*
D23*
X121075000Y-107550000D02*
X121075000Y-103451472D01*
X120700000Y-118408000D02*
X120700000Y-107925000D01*
X120700000Y-107925000D02*
X121075000Y-107550000D01*
X121775000Y-103000000D02*
X121775000Y-102695000D01*
X121075000Y-103451472D02*
X121526472Y-103000000D01*
D21*
X114702000Y-113639500D02*
X120416500Y-107925000D01*
D24*
X111252000Y-71374000D02*
X114702000Y-74824000D01*
X114702000Y-74824000D02*
X114702000Y-80619500D01*
D23*
X123520000Y-101477207D02*
X123520000Y-102805000D01*
X122992793Y-100950000D02*
X123520000Y-101477207D01*
D24*
X126425000Y-92350000D02*
X126425000Y-91756500D01*
D23*
X126375000Y-92400000D02*
X126425000Y-92350000D01*
X123520000Y-102805000D02*
X123325000Y-103000000D01*
X122587500Y-104512500D02*
X122587500Y-103737500D01*
D24*
X126425000Y-91756500D02*
X129942000Y-88239500D01*
D23*
X126425000Y-92350000D02*
X126275000Y-92500000D01*
X123275000Y-118443000D02*
X126532000Y-121700000D01*
D24*
X118600000Y-92400000D02*
X126375000Y-92400000D01*
X118600000Y-77996000D02*
X119634000Y-76962000D01*
D21*
X119200000Y-99825000D02*
X119200000Y-93000000D01*
D23*
X120325000Y-100950000D02*
X119200000Y-99825000D01*
X119200000Y-93000000D02*
X118600000Y-92400000D01*
X123275000Y-105200000D02*
X123275000Y-118443000D01*
X122992793Y-100950000D02*
X120325000Y-100950000D01*
X122587500Y-104512500D02*
X123275000Y-105200000D01*
D24*
X118600000Y-92400000D02*
X118600000Y-77996000D01*
X118600000Y-83200000D02*
X114742500Y-83200000D01*
X114742500Y-83200000D02*
X114702000Y-83159500D01*
D23*
X122587500Y-103737500D02*
X123325000Y-103000000D01*
D25*
X116332000Y-101600000D02*
X115824000Y-102108000D01*
X119126000Y-101600000D02*
X116332000Y-101600000D01*
X115824000Y-102108000D02*
X111760000Y-102108000D01*
X111760000Y-102108000D02*
X111506000Y-101854000D01*
X123975000Y-112750000D02*
X125751500Y-112750000D01*
X125751500Y-112750000D02*
X129942000Y-108559500D01*
G04 #@! TA.AperFunction,Conductor*
G36*
X140358691Y-69095407D02*
G01*
X140394655Y-69144907D01*
X140399500Y-69175500D01*
X140399500Y-128140500D01*
X140380593Y-128198691D01*
X140331093Y-128234655D01*
X140300500Y-128239500D01*
X105149500Y-128239500D01*
X105091309Y-128220593D01*
X105055345Y-128171093D01*
X105050500Y-128140500D01*
X105050500Y-121822429D01*
X106766500Y-121822429D01*
X106787787Y-121950000D01*
X106806802Y-122063948D01*
X106845395Y-122176365D01*
X106886308Y-122295542D01*
X107002847Y-122510886D01*
X107002849Y-122510889D01*
X107081463Y-122611892D01*
X107153242Y-122704113D01*
X107333390Y-122869951D01*
X107538378Y-123003876D01*
X107762612Y-123102235D01*
X107999978Y-123162344D01*
X108182886Y-123177500D01*
X108182894Y-123177500D01*
X108305106Y-123177500D01*
X108305114Y-123177500D01*
X108488022Y-123162344D01*
X108725388Y-123102235D01*
X108949622Y-123003876D01*
X109154610Y-122869951D01*
X109334758Y-122704113D01*
X109485153Y-122510886D01*
X109601693Y-122295539D01*
X109681198Y-122063948D01*
X109721500Y-121822429D01*
X109721500Y-121577571D01*
X109681198Y-121336052D01*
X109601693Y-121104461D01*
X109594811Y-121091745D01*
X109502732Y-120921597D01*
X109485153Y-120889114D01*
X109334758Y-120695887D01*
X109154610Y-120530049D01*
X108949622Y-120396124D01*
X108725388Y-120297765D01*
X108644894Y-120277381D01*
X108488020Y-120237655D01*
X108305123Y-120222500D01*
X108305114Y-120222500D01*
X108182886Y-120222500D01*
X108182876Y-120222500D01*
X107999979Y-120237655D01*
X107762612Y-120297765D01*
X107628937Y-120356401D01*
X107538378Y-120396124D01*
X107442161Y-120458984D01*
X107333391Y-120530048D01*
X107333389Y-120530049D01*
X107333390Y-120530049D01*
X107174423Y-120676389D01*
X107153239Y-120695890D01*
X107002849Y-120889110D01*
X107002847Y-120889113D01*
X106886308Y-121104457D01*
X106806801Y-121336055D01*
X106766500Y-121577570D01*
X106766500Y-121822429D01*
X105050500Y-121822429D01*
X105050500Y-116179499D01*
X113534018Y-116179499D01*
X113553905Y-116394117D01*
X113612889Y-116601424D01*
X113708959Y-116794358D01*
X113708960Y-116794359D01*
X113708962Y-116794363D01*
X113838851Y-116966364D01*
X113998134Y-117111570D01*
X114181386Y-117225035D01*
X114382367Y-117302895D01*
X114594232Y-117342500D01*
X114809768Y-117342500D01*
X115021633Y-117302895D01*
X115222614Y-117225035D01*
X115405866Y-117111570D01*
X115565149Y-116966364D01*
X115695038Y-116794363D01*
X115791111Y-116601424D01*
X115850095Y-116394116D01*
X115869982Y-116179500D01*
X115850095Y-115964884D01*
X115791111Y-115757576D01*
X115695038Y-115564637D01*
X115565149Y-115392636D01*
X115405866Y-115247430D01*
X115222614Y-115133965D01*
X115021633Y-115056105D01*
X115021632Y-115056104D01*
X115021630Y-115056104D01*
X114809768Y-115016500D01*
X114594232Y-115016500D01*
X114382369Y-115056104D01*
X114181385Y-115133965D01*
X114181380Y-115133968D01*
X113998138Y-115247427D01*
X113998136Y-115247428D01*
X113998134Y-115247430D01*
X113861062Y-115372388D01*
X113838852Y-115392635D01*
X113708959Y-115564641D01*
X113612889Y-115757575D01*
X113553905Y-115964882D01*
X113534018Y-116179499D01*
X105050500Y-116179499D01*
X105050500Y-95418972D01*
X108444648Y-95418972D01*
X108447855Y-95437575D01*
X108448060Y-95438759D01*
X108449500Y-95455582D01*
X108449500Y-107927265D01*
X108449471Y-107928955D01*
X108447238Y-107994323D01*
X108447238Y-107994327D01*
X108457867Y-108037941D01*
X108458814Y-108042923D01*
X108464930Y-108087421D01*
X108464930Y-108087422D01*
X108472931Y-108105841D01*
X108478313Y-108121845D01*
X108483065Y-108141346D01*
X108483068Y-108141354D01*
X108505075Y-108180495D01*
X108507331Y-108185036D01*
X108525220Y-108226221D01*
X108537891Y-108241795D01*
X108547391Y-108255753D01*
X108557232Y-108273257D01*
X108588992Y-108305018D01*
X108592387Y-108308780D01*
X108620722Y-108343608D01*
X108637124Y-108355186D01*
X108650036Y-108366061D01*
X113547089Y-113263114D01*
X113574866Y-113317631D01*
X113572306Y-113360210D01*
X113553905Y-113424882D01*
X113534018Y-113639500D01*
X113553905Y-113854117D01*
X113612889Y-114061424D01*
X113708959Y-114254358D01*
X113708960Y-114254359D01*
X113708962Y-114254363D01*
X113838851Y-114426364D01*
X113998134Y-114571570D01*
X114181386Y-114685035D01*
X114382367Y-114762895D01*
X114594232Y-114802500D01*
X114809768Y-114802500D01*
X115021633Y-114762895D01*
X115222614Y-114685035D01*
X115405866Y-114571570D01*
X115565149Y-114426364D01*
X115695038Y-114254363D01*
X115791111Y-114061424D01*
X115850095Y-113854116D01*
X115869982Y-113639500D01*
X115850095Y-113424884D01*
X115831693Y-113360208D01*
X115833954Y-113299066D01*
X115856908Y-113263115D01*
X120030498Y-109089525D01*
X120085013Y-109061750D01*
X120145445Y-109071321D01*
X120188710Y-109114586D01*
X120199500Y-109159531D01*
X120199500Y-118343542D01*
X120197238Y-118364585D01*
X120195641Y-118371926D01*
X120199374Y-118424118D01*
X120199500Y-118427651D01*
X120199500Y-118443799D01*
X120201798Y-118459788D01*
X120202176Y-118463301D01*
X120205908Y-118515483D01*
X120208533Y-118522520D01*
X120213764Y-118543014D01*
X120214834Y-118550454D01*
X120214835Y-118550458D01*
X120236569Y-118598049D01*
X120237921Y-118601314D01*
X120256202Y-118650327D01*
X120256203Y-118650328D01*
X120256204Y-118650331D01*
X120259918Y-118655293D01*
X120260708Y-118656348D01*
X120271501Y-118674538D01*
X120274623Y-118681373D01*
X120308888Y-118720917D01*
X120311080Y-118723636D01*
X120320779Y-118736593D01*
X120320781Y-118736595D01*
X120332211Y-118748026D01*
X120334610Y-118750603D01*
X120368872Y-118790143D01*
X120368873Y-118790144D01*
X120375183Y-118794199D01*
X120391666Y-118807480D01*
X122106399Y-120522213D01*
X122134176Y-120576730D01*
X122124605Y-120637162D01*
X122081340Y-120680427D01*
X122020908Y-120689998D01*
X121984279Y-120676389D01*
X121967021Y-120665703D01*
X121967019Y-120665702D01*
X121817842Y-120607911D01*
X121768198Y-120588679D01*
X121768197Y-120588678D01*
X121768195Y-120588678D01*
X121558610Y-120549500D01*
X121345390Y-120549500D01*
X121135804Y-120588678D01*
X120936980Y-120665702D01*
X120936975Y-120665705D01*
X120755699Y-120777946D01*
X120755692Y-120777952D01*
X120598135Y-120921586D01*
X120598131Y-120921589D01*
X120598128Y-120921593D01*
X120598124Y-120921597D01*
X120598125Y-120921597D01*
X120469635Y-121091743D01*
X120469630Y-121091752D01*
X120374596Y-121282608D01*
X120316244Y-121487688D01*
X120307915Y-121577571D01*
X120296571Y-121700000D01*
X120316244Y-121912310D01*
X120374595Y-122117389D01*
X120469634Y-122308255D01*
X120573281Y-122445505D01*
X120573283Y-122445507D01*
X120593262Y-122503338D01*
X120575433Y-122561869D01*
X120526607Y-122598741D01*
X120465432Y-122599872D01*
X120424275Y-122575172D01*
X120025468Y-122176365D01*
X119997691Y-122121848D01*
X120000250Y-122079270D01*
X120047756Y-121912310D01*
X120067429Y-121700000D01*
X120047756Y-121487690D01*
X119989405Y-121282611D01*
X119894366Y-121091745D01*
X119765872Y-120921593D01*
X119634878Y-120802175D01*
X119608307Y-120777952D01*
X119608300Y-120777946D01*
X119427024Y-120665705D01*
X119427019Y-120665702D01*
X119277842Y-120607911D01*
X119228198Y-120588679D01*
X119228197Y-120588678D01*
X119228195Y-120588678D01*
X119018610Y-120549500D01*
X118805390Y-120549500D01*
X118595804Y-120588678D01*
X118396980Y-120665702D01*
X118396975Y-120665705D01*
X118215699Y-120777946D01*
X118215692Y-120777952D01*
X118058135Y-120921586D01*
X118058131Y-120921589D01*
X118058128Y-120921593D01*
X118058124Y-120921597D01*
X118058125Y-120921597D01*
X117929635Y-121091743D01*
X117929630Y-121091752D01*
X117834596Y-121282608D01*
X117776244Y-121487688D01*
X117767915Y-121577571D01*
X117756571Y-121700000D01*
X117776244Y-121912310D01*
X117834595Y-122117389D01*
X117929634Y-122308255D01*
X118058128Y-122478407D01*
X118058135Y-122478413D01*
X118215692Y-122622047D01*
X118215699Y-122622053D01*
X118280954Y-122662457D01*
X118396981Y-122734298D01*
X118595802Y-122811321D01*
X118805390Y-122850500D01*
X119018610Y-122850500D01*
X119228198Y-122811321D01*
X119281943Y-122790499D01*
X119343032Y-122787110D01*
X119387708Y-122812811D01*
X121373592Y-124798696D01*
X121377294Y-124802838D01*
X121402121Y-124833970D01*
X121450509Y-124866961D01*
X121452018Y-124868032D01*
X121463391Y-124876425D01*
X121499118Y-124902793D01*
X121499121Y-124902794D01*
X121505677Y-124906259D01*
X121505469Y-124906651D01*
X121507450Y-124907651D01*
X121507643Y-124907253D01*
X121514327Y-124910472D01*
X121570292Y-124927734D01*
X121572043Y-124928310D01*
X121627301Y-124947646D01*
X121634593Y-124949026D01*
X121634510Y-124949460D01*
X121636693Y-124949830D01*
X121636759Y-124949394D01*
X121644098Y-124950500D01*
X121702642Y-124950500D01*
X121704492Y-124950535D01*
X121727542Y-124951396D01*
X121763010Y-124952724D01*
X121763016Y-124952722D01*
X121770385Y-124951893D01*
X121770434Y-124952331D01*
X121784344Y-124950500D01*
X128471913Y-124950500D01*
X128477459Y-124950811D01*
X128517035Y-124955270D01*
X128574584Y-124944380D01*
X128576400Y-124944072D01*
X128634287Y-124935348D01*
X128634290Y-124935346D01*
X128641381Y-124933159D01*
X128641512Y-124933584D01*
X128643613Y-124932892D01*
X128643467Y-124932473D01*
X128650463Y-124930024D01*
X128650472Y-124930023D01*
X128687463Y-124910472D01*
X128702252Y-124902656D01*
X128703906Y-124901821D01*
X128724056Y-124892116D01*
X128756642Y-124876425D01*
X128756646Y-124876421D01*
X128762778Y-124872242D01*
X128763028Y-124872609D01*
X128764832Y-124871329D01*
X128764568Y-124870971D01*
X128770530Y-124866569D01*
X128770538Y-124866566D01*
X128811997Y-124825105D01*
X128813249Y-124823900D01*
X128856194Y-124784055D01*
X128856196Y-124784051D01*
X128860823Y-124778251D01*
X128861168Y-124778526D01*
X128869704Y-124767398D01*
X131814673Y-121822429D01*
X135722500Y-121822429D01*
X135743787Y-121950000D01*
X135762802Y-122063948D01*
X135801395Y-122176365D01*
X135842308Y-122295542D01*
X135958847Y-122510886D01*
X135958849Y-122510889D01*
X136037463Y-122611892D01*
X136109242Y-122704113D01*
X136289390Y-122869951D01*
X136494378Y-123003876D01*
X136718612Y-123102235D01*
X136955978Y-123162344D01*
X137138886Y-123177500D01*
X137138894Y-123177500D01*
X137261106Y-123177500D01*
X137261114Y-123177500D01*
X137444022Y-123162344D01*
X137681388Y-123102235D01*
X137905622Y-123003876D01*
X138110610Y-122869951D01*
X138290758Y-122704113D01*
X138441153Y-122510886D01*
X138557693Y-122295539D01*
X138637198Y-122063948D01*
X138677500Y-121822429D01*
X138677500Y-121577571D01*
X138637198Y-121336052D01*
X138557693Y-121104461D01*
X138550811Y-121091745D01*
X138458732Y-120921597D01*
X138441153Y-120889114D01*
X138290758Y-120695887D01*
X138110610Y-120530049D01*
X137905622Y-120396124D01*
X137681388Y-120297765D01*
X137600894Y-120277381D01*
X137444020Y-120237655D01*
X137261123Y-120222500D01*
X137261114Y-120222500D01*
X137138886Y-120222500D01*
X137138876Y-120222500D01*
X136955979Y-120237655D01*
X136718612Y-120297765D01*
X136584937Y-120356401D01*
X136494378Y-120396124D01*
X136398161Y-120458985D01*
X136289391Y-120530048D01*
X136289389Y-120530049D01*
X136289390Y-120530049D01*
X136130423Y-120676389D01*
X136109239Y-120695890D01*
X135958849Y-120889110D01*
X135958847Y-120889113D01*
X135842308Y-121104457D01*
X135762801Y-121336055D01*
X135722500Y-121577570D01*
X135722500Y-121822429D01*
X131814673Y-121822429D01*
X137498699Y-116138402D01*
X137502830Y-116134710D01*
X137533970Y-116109879D01*
X137566985Y-116061453D01*
X137568036Y-116059974D01*
X137602793Y-116012882D01*
X137602795Y-116012876D01*
X137606263Y-116006316D01*
X137606655Y-116006523D01*
X137607651Y-116004550D01*
X137607252Y-116004358D01*
X137610468Y-115997677D01*
X137610472Y-115997673D01*
X137627734Y-115941704D01*
X137628311Y-115939953D01*
X137647646Y-115884698D01*
X137649026Y-115877407D01*
X137649460Y-115877489D01*
X137649832Y-115875303D01*
X137649394Y-115875237D01*
X137650500Y-115867900D01*
X137650500Y-115809357D01*
X137650535Y-115807507D01*
X137651385Y-115784752D01*
X137652724Y-115748990D01*
X137652722Y-115748982D01*
X137651893Y-115741618D01*
X137652331Y-115741568D01*
X137650500Y-115727657D01*
X137650500Y-103145585D01*
X137650811Y-103140038D01*
X137655270Y-103100465D01*
X137644381Y-103042917D01*
X137644071Y-103041091D01*
X137635348Y-102983215D01*
X137635348Y-102983213D01*
X137635346Y-102983209D01*
X137633160Y-102976122D01*
X137633582Y-102975991D01*
X137632890Y-102973888D01*
X137632474Y-102974034D01*
X137630022Y-102967025D01*
X137602655Y-102915247D01*
X137601848Y-102913650D01*
X137576425Y-102860858D01*
X137576423Y-102860856D01*
X137572247Y-102854730D01*
X137572610Y-102854482D01*
X137571324Y-102852668D01*
X137570970Y-102852930D01*
X137566567Y-102846965D01*
X137566566Y-102846962D01*
X137552757Y-102833153D01*
X137525143Y-102805538D01*
X137523859Y-102804205D01*
X137523814Y-102804157D01*
X137484055Y-102761306D01*
X137484051Y-102761303D01*
X137478259Y-102756685D01*
X137478533Y-102756340D01*
X137467400Y-102747796D01*
X131065585Y-96345982D01*
X131037808Y-96291465D01*
X131040367Y-96248889D01*
X131090095Y-96074116D01*
X131109982Y-95859500D01*
X131090095Y-95644884D01*
X131031111Y-95437576D01*
X130935038Y-95244637D01*
X130805149Y-95072636D01*
X130645866Y-94927430D01*
X130462614Y-94813965D01*
X130261633Y-94736105D01*
X130261632Y-94736104D01*
X130261630Y-94736104D01*
X130049768Y-94696500D01*
X129834232Y-94696500D01*
X129622369Y-94736104D01*
X129421385Y-94813965D01*
X129421380Y-94813968D01*
X129238138Y-94927427D01*
X129238136Y-94927428D01*
X129238134Y-94927430D01*
X129078851Y-95072636D01*
X129037300Y-95127659D01*
X128948959Y-95244641D01*
X128852889Y-95437575D01*
X128793905Y-95644882D01*
X128774018Y-95859500D01*
X128793905Y-96074117D01*
X128852889Y-96281424D01*
X128948959Y-96474358D01*
X128948960Y-96474359D01*
X128948962Y-96474363D01*
X129078851Y-96646364D01*
X129238134Y-96791570D01*
X129421386Y-96905035D01*
X129622367Y-96982895D01*
X129834232Y-97022500D01*
X130049768Y-97022500D01*
X130261633Y-96982895D01*
X130321603Y-96959661D01*
X130382693Y-96956272D01*
X130427369Y-96981973D01*
X130743471Y-97298075D01*
X130771248Y-97352592D01*
X130761677Y-97413024D01*
X130718412Y-97456289D01*
X130657980Y-97465860D01*
X130621350Y-97452250D01*
X130462619Y-97353968D01*
X130462614Y-97353965D01*
X130261630Y-97276104D01*
X130049768Y-97236500D01*
X129834232Y-97236500D01*
X129622369Y-97276104D01*
X129421385Y-97353965D01*
X129421380Y-97353968D01*
X129238138Y-97467427D01*
X129238136Y-97467428D01*
X129238134Y-97467430D01*
X129132638Y-97563603D01*
X129078852Y-97612635D01*
X128948959Y-97784641D01*
X128852889Y-97977575D01*
X128793905Y-98184882D01*
X128774018Y-98399499D01*
X128793905Y-98614117D01*
X128852889Y-98821424D01*
X128948959Y-99014358D01*
X128948960Y-99014359D01*
X128948962Y-99014363D01*
X129078851Y-99186364D01*
X129238134Y-99331570D01*
X129421386Y-99445035D01*
X129622367Y-99522895D01*
X129834232Y-99562500D01*
X130049768Y-99562500D01*
X130261633Y-99522895D01*
X130321603Y-99499661D01*
X130382693Y-99496272D01*
X130427369Y-99521973D01*
X130743471Y-99838075D01*
X130771248Y-99892592D01*
X130761677Y-99953024D01*
X130718412Y-99996289D01*
X130657980Y-100005860D01*
X130621350Y-99992250D01*
X130462619Y-99893968D01*
X130462614Y-99893965D01*
X130261630Y-99816104D01*
X130049768Y-99776500D01*
X129834232Y-99776500D01*
X129622369Y-99816104D01*
X129421385Y-99893965D01*
X129421380Y-99893968D01*
X129238138Y-100007427D01*
X129238136Y-100007428D01*
X129238134Y-100007430D01*
X129132638Y-100103603D01*
X129078852Y-100152635D01*
X128948959Y-100324641D01*
X128852889Y-100517575D01*
X128793905Y-100724882D01*
X128774018Y-100939500D01*
X128793905Y-101154117D01*
X128852889Y-101361424D01*
X128948959Y-101554358D01*
X128948960Y-101554359D01*
X128948962Y-101554363D01*
X129078851Y-101726364D01*
X129238134Y-101871570D01*
X129421386Y-101985035D01*
X129622367Y-102062895D01*
X129834232Y-102102500D01*
X130049768Y-102102500D01*
X130261633Y-102062895D01*
X130462614Y-101985035D01*
X130645866Y-101871570D01*
X130805149Y-101726364D01*
X130935038Y-101554363D01*
X131031111Y-101361424D01*
X131090095Y-101154116D01*
X131109982Y-100939500D01*
X131090095Y-100724884D01*
X131031111Y-100517576D01*
X130935040Y-100324641D01*
X130935041Y-100324641D01*
X130935038Y-100324637D01*
X130884690Y-100257965D01*
X130864712Y-100200137D01*
X130882541Y-100141606D01*
X130931367Y-100104734D01*
X130992542Y-100103603D01*
X131033699Y-100128303D01*
X135220504Y-104315107D01*
X135248281Y-104369624D01*
X135249500Y-104385111D01*
X135249500Y-109450500D01*
X135230593Y-109508691D01*
X135181093Y-109544655D01*
X135150500Y-109549500D01*
X134987272Y-109549500D01*
X134986174Y-109549540D01*
X134948499Y-109549535D01*
X134948487Y-109549536D01*
X134803495Y-109578356D01*
X134666897Y-109634919D01*
X134543962Y-109717044D01*
X134543959Y-109717046D01*
X134439414Y-109821575D01*
X134357274Y-109944491D01*
X134300693Y-110081078D01*
X134300690Y-110081087D01*
X134271846Y-110226079D01*
X134271846Y-110258946D01*
X134271799Y-110259090D01*
X134271800Y-110373920D01*
X134271801Y-110373929D01*
X134293825Y-110484637D01*
X134300648Y-110518933D01*
X134340653Y-110615504D01*
X134357234Y-110655530D01*
X134439377Y-110778449D01*
X134439384Y-110778459D01*
X134490959Y-110830025D01*
X134518741Y-110884539D01*
X134509174Y-110944972D01*
X134490959Y-110970043D01*
X134439423Y-111021571D01*
X134357277Y-111144491D01*
X134357274Y-111144498D01*
X134300699Y-111281065D01*
X134300693Y-111281085D01*
X134271849Y-111426078D01*
X134271849Y-111458943D01*
X134271799Y-111459096D01*
X134271800Y-111573919D01*
X134271801Y-111573928D01*
X134300646Y-111718928D01*
X134300651Y-111718944D01*
X134357232Y-111855527D01*
X134377840Y-111886364D01*
X134439383Y-111978457D01*
X134439384Y-111978458D01*
X134439385Y-111978459D01*
X134490957Y-112030023D01*
X134518739Y-112084537D01*
X134509172Y-112144970D01*
X134490957Y-112170041D01*
X134439414Y-112221575D01*
X134357274Y-112344491D01*
X134300693Y-112481078D01*
X134300690Y-112481087D01*
X134271846Y-112626079D01*
X134271846Y-112658946D01*
X134271799Y-112659090D01*
X134271800Y-112773920D01*
X134271801Y-112773929D01*
X134300646Y-112918925D01*
X134300648Y-112918933D01*
X134329005Y-112987385D01*
X134357234Y-113055530D01*
X134420699Y-113150499D01*
X134439381Y-113178455D01*
X134543935Y-113282992D01*
X134666875Y-113365122D01*
X134666881Y-113365124D01*
X134666882Y-113365125D01*
X134803477Y-113421686D01*
X134803476Y-113421686D01*
X134948483Y-113450509D01*
X134948486Y-113450509D01*
X134948490Y-113450510D01*
X134948492Y-113450509D01*
X134948493Y-113450510D01*
X135022421Y-113450500D01*
X135150500Y-113450500D01*
X135208691Y-113469407D01*
X135244655Y-113518907D01*
X135249500Y-113549500D01*
X135249500Y-115372388D01*
X135230593Y-115430579D01*
X135220504Y-115442392D01*
X128051004Y-122611892D01*
X127996487Y-122639669D01*
X127936055Y-122630098D01*
X127892790Y-122586833D01*
X127882000Y-122541888D01*
X127882000Y-121950001D01*
X127881999Y-121950000D01*
X126965686Y-121950000D01*
X126991493Y-121909844D01*
X127032000Y-121771889D01*
X127032000Y-121628111D01*
X126991493Y-121490156D01*
X126965686Y-121450000D01*
X127881999Y-121450000D01*
X127882000Y-121449999D01*
X127882000Y-120802175D01*
X127875598Y-120742629D01*
X127875596Y-120742618D01*
X127825353Y-120607911D01*
X127825352Y-120607909D01*
X127739192Y-120492815D01*
X127739184Y-120492807D01*
X127624090Y-120406647D01*
X127624088Y-120406646D01*
X127489381Y-120356403D01*
X127489370Y-120356401D01*
X127429824Y-120350000D01*
X126782001Y-120350000D01*
X126782000Y-120350001D01*
X126782000Y-121264498D01*
X126674315Y-121215320D01*
X126567763Y-121200000D01*
X126496237Y-121200000D01*
X126389685Y-121215320D01*
X126282000Y-121264498D01*
X126282000Y-120350001D01*
X126281999Y-120350000D01*
X125634176Y-120350000D01*
X125574629Y-120356401D01*
X125574618Y-120356403D01*
X125439911Y-120406646D01*
X125439909Y-120406647D01*
X125324815Y-120492807D01*
X125324807Y-120492815D01*
X125238647Y-120607909D01*
X125238646Y-120607911D01*
X125188403Y-120742618D01*
X125188401Y-120742629D01*
X125181999Y-120802175D01*
X125181999Y-121087808D01*
X125163091Y-121145999D01*
X125113591Y-121181963D01*
X125052406Y-121181962D01*
X125002906Y-121145998D01*
X124994382Y-121131944D01*
X124974366Y-121091745D01*
X124845872Y-120921593D01*
X124714878Y-120802175D01*
X124688307Y-120777952D01*
X124688300Y-120777946D01*
X124507024Y-120665705D01*
X124507019Y-120665702D01*
X124357842Y-120607911D01*
X124308198Y-120588679D01*
X124308197Y-120588678D01*
X124308195Y-120588678D01*
X124098610Y-120549500D01*
X123885390Y-120549500D01*
X123675802Y-120588678D01*
X123673022Y-120589756D01*
X123671771Y-120589825D01*
X123671397Y-120589932D01*
X123671372Y-120589847D01*
X123611931Y-120593144D01*
X123567258Y-120567444D01*
X121229496Y-118229682D01*
X121201719Y-118175165D01*
X121200500Y-118159678D01*
X121200500Y-116179500D01*
X128774018Y-116179500D01*
X128793905Y-116394117D01*
X128852889Y-116601424D01*
X128948959Y-116794358D01*
X128948960Y-116794359D01*
X128948962Y-116794363D01*
X129078851Y-116966364D01*
X129238134Y-117111570D01*
X129421386Y-117225035D01*
X129622367Y-117302895D01*
X129834232Y-117342500D01*
X130049768Y-117342500D01*
X130261633Y-117302895D01*
X130462614Y-117225035D01*
X130645866Y-117111570D01*
X130805149Y-116966364D01*
X130935038Y-116794363D01*
X131031111Y-116601424D01*
X131090095Y-116394116D01*
X131109982Y-116179500D01*
X131090095Y-115964884D01*
X131031111Y-115757576D01*
X130935038Y-115564637D01*
X130805149Y-115392636D01*
X130645866Y-115247430D01*
X130462614Y-115133965D01*
X130261633Y-115056105D01*
X130261632Y-115056104D01*
X130261630Y-115056104D01*
X130049768Y-115016500D01*
X129834232Y-115016500D01*
X129622369Y-115056104D01*
X129421385Y-115133965D01*
X129421380Y-115133968D01*
X129238138Y-115247427D01*
X129238136Y-115247428D01*
X129238134Y-115247430D01*
X129101062Y-115372388D01*
X129078852Y-115392635D01*
X128948959Y-115564641D01*
X128852889Y-115757575D01*
X128793905Y-115964882D01*
X128774018Y-116179500D01*
X121200500Y-116179500D01*
X121200500Y-113639499D01*
X128774018Y-113639499D01*
X128793905Y-113854117D01*
X128852889Y-114061424D01*
X128948959Y-114254358D01*
X128948960Y-114254359D01*
X128948962Y-114254363D01*
X129078851Y-114426364D01*
X129238134Y-114571570D01*
X129421386Y-114685035D01*
X129622367Y-114762895D01*
X129834232Y-114802500D01*
X130049768Y-114802500D01*
X130261633Y-114762895D01*
X130462614Y-114685035D01*
X130645866Y-114571570D01*
X130805149Y-114426364D01*
X130935038Y-114254363D01*
X131031111Y-114061424D01*
X131090095Y-113854116D01*
X131109982Y-113639500D01*
X131090095Y-113424884D01*
X131031111Y-113217576D01*
X130935038Y-113024637D01*
X130805149Y-112852636D01*
X130645866Y-112707430D01*
X130462614Y-112593965D01*
X130261633Y-112516105D01*
X130261632Y-112516104D01*
X130261630Y-112516104D01*
X130049768Y-112476500D01*
X129834232Y-112476500D01*
X129622369Y-112516104D01*
X129421385Y-112593965D01*
X129421380Y-112593968D01*
X129238138Y-112707427D01*
X129238136Y-112707428D01*
X129238134Y-112707430D01*
X129120072Y-112815058D01*
X129080860Y-112850805D01*
X129078851Y-112852636D01*
X129044041Y-112898732D01*
X128948959Y-113024641D01*
X128852889Y-113217575D01*
X128793905Y-113424882D01*
X128774018Y-113639499D01*
X121200500Y-113639499D01*
X121200500Y-113421686D01*
X121200500Y-112750000D01*
X123369318Y-112750000D01*
X123389955Y-112906758D01*
X123389957Y-112906766D01*
X123450462Y-113052838D01*
X123450462Y-113052839D01*
X123546713Y-113178276D01*
X123546718Y-113178282D01*
X123546722Y-113178285D01*
X123546723Y-113178286D01*
X123546941Y-113178453D01*
X123672159Y-113274536D01*
X123672160Y-113274536D01*
X123672161Y-113274537D01*
X123776199Y-113317631D01*
X123818238Y-113335044D01*
X123935809Y-113350522D01*
X123974999Y-113355682D01*
X123975000Y-113355682D01*
X123975001Y-113355682D01*
X124006352Y-113351554D01*
X124131762Y-113335044D01*
X124277841Y-113274536D01*
X124403059Y-113178453D01*
X124408430Y-113174332D01*
X124409490Y-113175713D01*
X124456584Y-113151719D01*
X124472071Y-113150500D01*
X125814932Y-113150500D01*
X125814933Y-113150500D01*
X125837882Y-113143043D01*
X125852965Y-113139421D01*
X125876804Y-113135646D01*
X125898302Y-113124690D01*
X125912651Y-113118748D01*
X125935590Y-113111296D01*
X125955112Y-113097111D01*
X125968349Y-113089000D01*
X125989842Y-113078050D01*
X126006761Y-113061129D01*
X126006765Y-113061127D01*
X126012406Y-113055485D01*
X126012409Y-113055484D01*
X127968392Y-111099500D01*
X128774018Y-111099500D01*
X128793905Y-111314117D01*
X128852889Y-111521424D01*
X128948959Y-111714358D01*
X128948960Y-111714359D01*
X128948962Y-111714363D01*
X129078851Y-111886364D01*
X129238134Y-112031570D01*
X129421386Y-112145035D01*
X129622367Y-112222895D01*
X129834232Y-112262500D01*
X130049768Y-112262500D01*
X130261633Y-112222895D01*
X130462614Y-112145035D01*
X130645866Y-112031570D01*
X130805149Y-111886364D01*
X130935038Y-111714363D01*
X131031111Y-111521424D01*
X131090095Y-111314116D01*
X131109982Y-111099500D01*
X131090095Y-110884884D01*
X131031111Y-110677576D01*
X130935038Y-110484637D01*
X130805149Y-110312636D01*
X130645866Y-110167430D01*
X130506427Y-110081093D01*
X130462619Y-110053968D01*
X130462614Y-110053965D01*
X130261633Y-109976105D01*
X130261632Y-109976104D01*
X130261630Y-109976104D01*
X130049768Y-109936500D01*
X129834232Y-109936500D01*
X129622369Y-109976104D01*
X129421385Y-110053965D01*
X129421380Y-110053968D01*
X129238138Y-110167427D01*
X129238136Y-110167428D01*
X129238134Y-110167430D01*
X129157774Y-110240688D01*
X129078852Y-110312635D01*
X128948959Y-110484641D01*
X128852889Y-110677575D01*
X128793905Y-110884882D01*
X128774018Y-111099500D01*
X127968392Y-111099500D01*
X129405664Y-109662227D01*
X129460179Y-109634452D01*
X129511428Y-109639918D01*
X129569021Y-109662229D01*
X129622367Y-109682895D01*
X129834232Y-109722500D01*
X130049768Y-109722500D01*
X130261633Y-109682895D01*
X130462614Y-109605035D01*
X130645866Y-109491570D01*
X130805149Y-109346364D01*
X130935038Y-109174363D01*
X131031111Y-108981424D01*
X131090095Y-108774116D01*
X131109982Y-108559500D01*
X131090095Y-108344884D01*
X131047410Y-108194860D01*
X131949500Y-108194860D01*
X131949501Y-108194863D01*
X131952414Y-108219990D01*
X131962042Y-108241795D01*
X131997794Y-108322765D01*
X132077235Y-108402206D01*
X132180009Y-108447585D01*
X132205135Y-108450500D01*
X133994864Y-108450499D01*
X134019991Y-108447585D01*
X134122765Y-108402206D01*
X134202206Y-108322765D01*
X134247585Y-108219991D01*
X134250500Y-108194865D01*
X134250499Y-106405136D01*
X134247585Y-106380009D01*
X134202206Y-106277235D01*
X134122765Y-106197794D01*
X134019991Y-106152415D01*
X134019990Y-106152414D01*
X134019988Y-106152414D01*
X133994868Y-106149500D01*
X132205139Y-106149500D01*
X132205136Y-106149501D01*
X132180009Y-106152414D01*
X132077235Y-106197794D01*
X131997794Y-106277235D01*
X131952414Y-106380011D01*
X131949500Y-106405130D01*
X131949500Y-108194860D01*
X131047410Y-108194860D01*
X131031111Y-108137576D01*
X130935038Y-107944637D01*
X130805149Y-107772636D01*
X130645866Y-107627430D01*
X130462614Y-107513965D01*
X130261633Y-107436105D01*
X130261632Y-107436104D01*
X130261630Y-107436104D01*
X130049768Y-107396500D01*
X129834232Y-107396500D01*
X129622369Y-107436104D01*
X129421385Y-107513965D01*
X129421380Y-107513968D01*
X129238138Y-107627427D01*
X129238136Y-107627428D01*
X129238134Y-107627430D01*
X129078851Y-107772636D01*
X128948962Y-107944637D01*
X128948959Y-107944641D01*
X128852889Y-108137575D01*
X128793905Y-108344882D01*
X128774018Y-108559500D01*
X128793905Y-108774117D01*
X128852889Y-108981423D01*
X128854645Y-108984950D01*
X128863655Y-109045468D01*
X128836026Y-109099079D01*
X125614603Y-112320504D01*
X125560086Y-112348281D01*
X125544599Y-112349500D01*
X124472071Y-112349500D01*
X124413880Y-112330593D01*
X124405312Y-112323276D01*
X124401699Y-112320504D01*
X124277841Y-112225464D01*
X124277840Y-112225463D01*
X124277838Y-112225462D01*
X124131766Y-112164957D01*
X124131758Y-112164955D01*
X123975001Y-112144318D01*
X123974999Y-112144318D01*
X123818241Y-112164955D01*
X123818233Y-112164957D01*
X123672161Y-112225462D01*
X123672160Y-112225462D01*
X123546723Y-112321713D01*
X123546713Y-112321723D01*
X123450462Y-112447160D01*
X123450462Y-112447161D01*
X123389957Y-112593233D01*
X123389955Y-112593241D01*
X123369318Y-112749999D01*
X123369318Y-112750000D01*
X121200500Y-112750000D01*
X121200500Y-108597581D01*
X121219406Y-108539394D01*
X121229490Y-108527587D01*
X121329816Y-108427262D01*
X121425789Y-108274522D01*
X121485368Y-108104255D01*
X121505565Y-107925000D01*
X121498697Y-107864044D01*
X121510971Y-107804103D01*
X121517826Y-107793627D01*
X121518137Y-107793210D01*
X121518796Y-107792331D01*
X121537084Y-107743295D01*
X121538432Y-107740043D01*
X121560165Y-107692457D01*
X121561233Y-107685022D01*
X121566467Y-107664515D01*
X121569091Y-107657483D01*
X121572824Y-107605272D01*
X121573199Y-107601799D01*
X121575500Y-107585799D01*
X121575500Y-107569651D01*
X121575626Y-107566118D01*
X121575765Y-107564160D01*
X121579359Y-107513927D01*
X121577762Y-107506585D01*
X121575500Y-107485542D01*
X121575500Y-106019499D01*
X128774018Y-106019499D01*
X128793905Y-106234117D01*
X128852889Y-106441424D01*
X128948959Y-106634358D01*
X128948960Y-106634359D01*
X128948962Y-106634363D01*
X129078851Y-106806364D01*
X129238134Y-106951570D01*
X129421386Y-107065035D01*
X129622367Y-107142895D01*
X129834232Y-107182500D01*
X130049768Y-107182500D01*
X130261633Y-107142895D01*
X130462614Y-107065035D01*
X130645866Y-106951570D01*
X130805149Y-106806364D01*
X130935038Y-106634363D01*
X131031111Y-106441424D01*
X131090095Y-106234116D01*
X131109982Y-106019500D01*
X131090095Y-105804884D01*
X131031111Y-105597576D01*
X130935038Y-105404637D01*
X130805149Y-105232636D01*
X130645866Y-105087430D01*
X130462614Y-104973965D01*
X130261633Y-104896105D01*
X130261632Y-104896104D01*
X130261630Y-104896104D01*
X130049768Y-104856500D01*
X129834232Y-104856500D01*
X129622369Y-104896104D01*
X129421385Y-104973965D01*
X129421380Y-104973968D01*
X129238138Y-105087427D01*
X129238136Y-105087428D01*
X129238134Y-105087430D01*
X129098008Y-105215171D01*
X129078852Y-105232635D01*
X128948959Y-105404641D01*
X128852889Y-105597575D01*
X128793905Y-105804882D01*
X128774018Y-106019499D01*
X121575500Y-106019499D01*
X121575500Y-103889499D01*
X121594407Y-103831308D01*
X121643907Y-103795344D01*
X121674500Y-103790499D01*
X122279861Y-103790499D01*
X122279864Y-103790499D01*
X122304991Y-103787585D01*
X122351845Y-103766896D01*
X122412715Y-103760688D01*
X122465609Y-103791444D01*
X122471087Y-103798132D01*
X122507807Y-103847184D01*
X122507815Y-103847192D01*
X122622909Y-103933352D01*
X122622911Y-103933353D01*
X122757618Y-103983596D01*
X122757629Y-103983598D01*
X122817176Y-103990000D01*
X123074999Y-103990000D01*
X123075000Y-103989999D01*
X123575000Y-103989999D01*
X123575001Y-103990000D01*
X123832824Y-103990000D01*
X123892370Y-103983598D01*
X123892381Y-103983596D01*
X124027088Y-103933353D01*
X124027090Y-103933352D01*
X124142184Y-103847192D01*
X124142192Y-103847184D01*
X124228352Y-103732090D01*
X124228353Y-103732088D01*
X124278596Y-103597381D01*
X124278598Y-103597370D01*
X124285000Y-103537824D01*
X124285000Y-103479500D01*
X128774018Y-103479500D01*
X128793905Y-103694117D01*
X128852889Y-103901424D01*
X128948959Y-104094358D01*
X128948960Y-104094359D01*
X128948962Y-104094363D01*
X129078851Y-104266364D01*
X129238134Y-104411570D01*
X129421386Y-104525035D01*
X129622367Y-104602895D01*
X129834232Y-104642500D01*
X130049768Y-104642500D01*
X130261633Y-104602895D01*
X130462614Y-104525035D01*
X130645866Y-104411570D01*
X130805149Y-104266364D01*
X130935038Y-104094363D01*
X131031111Y-103901424D01*
X131090095Y-103694116D01*
X131109982Y-103479500D01*
X131090095Y-103264884D01*
X131031111Y-103057576D01*
X130935038Y-102864637D01*
X130805149Y-102692636D01*
X130645866Y-102547430D01*
X130536666Y-102479816D01*
X130462619Y-102433968D01*
X130462614Y-102433965D01*
X130381726Y-102402629D01*
X130261633Y-102356105D01*
X130261632Y-102356104D01*
X130261630Y-102356104D01*
X130049768Y-102316500D01*
X129834232Y-102316500D01*
X129622369Y-102356104D01*
X129421385Y-102433965D01*
X129421380Y-102433968D01*
X129238138Y-102547427D01*
X129238136Y-102547428D01*
X129238134Y-102547430D01*
X129078851Y-102692636D01*
X128981658Y-102821340D01*
X128948959Y-102864641D01*
X128852889Y-103057575D01*
X128793905Y-103264882D01*
X128774018Y-103479500D01*
X124285000Y-103479500D01*
X124285000Y-103250001D01*
X124284999Y-103250000D01*
X123575001Y-103250000D01*
X123575000Y-103250001D01*
X123575000Y-103989999D01*
X123075000Y-103989999D01*
X123075000Y-102849000D01*
X123093907Y-102790809D01*
X123143407Y-102754845D01*
X123174000Y-102750000D01*
X124284999Y-102750000D01*
X124285000Y-102749999D01*
X124285000Y-102462175D01*
X124278598Y-102402629D01*
X124278596Y-102402618D01*
X124228353Y-102267911D01*
X124228352Y-102267909D01*
X124142192Y-102152815D01*
X124142184Y-102152807D01*
X124027090Y-102066647D01*
X124027088Y-102066646D01*
X123892381Y-102016403D01*
X123892370Y-102016401D01*
X123832824Y-102010000D01*
X123518318Y-102010000D01*
X123460127Y-101991093D01*
X123424163Y-101941593D01*
X123419941Y-101899915D01*
X123425565Y-101850003D01*
X123416424Y-101768872D01*
X123405368Y-101670745D01*
X123394292Y-101639093D01*
X123380613Y-101599998D01*
X123345789Y-101500478D01*
X123302213Y-101431128D01*
X123249818Y-101347741D01*
X123249817Y-101347740D01*
X123249816Y-101347738D01*
X123122262Y-101220184D01*
X123122259Y-101220182D01*
X123122258Y-101220181D01*
X122969523Y-101124211D01*
X122799261Y-101064633D01*
X122799257Y-101064632D01*
X122620000Y-101044435D01*
X122440742Y-101064632D01*
X122440738Y-101064633D01*
X122270477Y-101124211D01*
X122270476Y-101124211D01*
X122117741Y-101220181D01*
X121990181Y-101347741D01*
X121894211Y-101500476D01*
X121894211Y-101500477D01*
X121834633Y-101670738D01*
X121834632Y-101670742D01*
X121814435Y-101850000D01*
X121818995Y-101890477D01*
X121806720Y-101950418D01*
X121790621Y-101971563D01*
X121581680Y-102180504D01*
X121527163Y-102208281D01*
X121511676Y-102209500D01*
X121270140Y-102209500D01*
X121270135Y-102209501D01*
X121245009Y-102212414D01*
X121142235Y-102257794D01*
X121062794Y-102337235D01*
X121017414Y-102440011D01*
X121014500Y-102465130D01*
X121014500Y-102763149D01*
X120995593Y-102821340D01*
X120985503Y-102833153D01*
X120766664Y-103051991D01*
X120750194Y-103065265D01*
X120743872Y-103069328D01*
X120743868Y-103069331D01*
X120709606Y-103108873D01*
X120707199Y-103111458D01*
X120695778Y-103122879D01*
X120686089Y-103135820D01*
X120683874Y-103138569D01*
X120649622Y-103178098D01*
X120646500Y-103184935D01*
X120635712Y-103203118D01*
X120631203Y-103209141D01*
X120631202Y-103209143D01*
X120612917Y-103258167D01*
X120611565Y-103261431D01*
X120589836Y-103309012D01*
X120589834Y-103309019D01*
X120588764Y-103316457D01*
X120583536Y-103336943D01*
X120580908Y-103343989D01*
X120577176Y-103396172D01*
X120576798Y-103399684D01*
X120574500Y-103415672D01*
X120574500Y-103431819D01*
X120574374Y-103435352D01*
X120570641Y-103487545D01*
X120572237Y-103494880D01*
X120574500Y-103515928D01*
X120574500Y-107050577D01*
X120555593Y-107108768D01*
X120508198Y-107144021D01*
X120350477Y-107199211D01*
X120350476Y-107199211D01*
X120197741Y-107295181D01*
X120070181Y-107422741D01*
X119974207Y-107575484D01*
X119971795Y-107580493D01*
X119971041Y-107580129D01*
X119951082Y-107611892D01*
X115961060Y-111601913D01*
X115906543Y-111629690D01*
X115846111Y-111620119D01*
X115802846Y-111576854D01*
X115793275Y-111516422D01*
X115795830Y-111504837D01*
X115850095Y-111314116D01*
X115869982Y-111099500D01*
X115850095Y-110884884D01*
X115791111Y-110677576D01*
X115695038Y-110484637D01*
X115565149Y-110312636D01*
X115405866Y-110167430D01*
X115266427Y-110081093D01*
X115222619Y-110053968D01*
X115222614Y-110053965D01*
X115021633Y-109976105D01*
X115021632Y-109976104D01*
X115021630Y-109976104D01*
X114809768Y-109936500D01*
X114594232Y-109936500D01*
X114382369Y-109976104D01*
X114181385Y-110053965D01*
X114181380Y-110053968D01*
X113998138Y-110167427D01*
X113998136Y-110167428D01*
X113998134Y-110167430D01*
X113917774Y-110240688D01*
X113838852Y-110312635D01*
X113708959Y-110484641D01*
X113612889Y-110677575D01*
X113553905Y-110884882D01*
X113534018Y-111099500D01*
X113553905Y-111314117D01*
X113608164Y-111504818D01*
X113605903Y-111565961D01*
X113568134Y-111614098D01*
X113509284Y-111630842D01*
X113451832Y-111609797D01*
X113442939Y-111601914D01*
X111971618Y-110130593D01*
X110400525Y-108559499D01*
X113534018Y-108559499D01*
X113553905Y-108774117D01*
X113612889Y-108981424D01*
X113708959Y-109174358D01*
X113708960Y-109174359D01*
X113708962Y-109174363D01*
X113838851Y-109346364D01*
X113998134Y-109491570D01*
X114181386Y-109605035D01*
X114382367Y-109682895D01*
X114594232Y-109722500D01*
X114809768Y-109722500D01*
X115021633Y-109682895D01*
X115222614Y-109605035D01*
X115405866Y-109491570D01*
X115565149Y-109346364D01*
X115695038Y-109174363D01*
X115791111Y-108981424D01*
X115850095Y-108774116D01*
X115869982Y-108559500D01*
X115850095Y-108344884D01*
X115791111Y-108137576D01*
X115695038Y-107944637D01*
X115565149Y-107772636D01*
X115405866Y-107627430D01*
X115222614Y-107513965D01*
X115021633Y-107436105D01*
X115021632Y-107436104D01*
X115021630Y-107436104D01*
X114809768Y-107396500D01*
X114594232Y-107396500D01*
X114382369Y-107436104D01*
X114181385Y-107513965D01*
X114181380Y-107513968D01*
X113998138Y-107627427D01*
X113998136Y-107627428D01*
X113998134Y-107627430D01*
X113838851Y-107772636D01*
X113708962Y-107944637D01*
X113708959Y-107944641D01*
X113612889Y-108137575D01*
X113553905Y-108344882D01*
X113534018Y-108559499D01*
X110400525Y-108559499D01*
X109579493Y-107738467D01*
X109551718Y-107683953D01*
X109550499Y-107668478D01*
X109550499Y-106019500D01*
X113534018Y-106019500D01*
X113553905Y-106234117D01*
X113612889Y-106441424D01*
X113708959Y-106634358D01*
X113708960Y-106634359D01*
X113708962Y-106634363D01*
X113838851Y-106806364D01*
X113998134Y-106951570D01*
X114181386Y-107065035D01*
X114382367Y-107142895D01*
X114594232Y-107182500D01*
X114809768Y-107182500D01*
X115021633Y-107142895D01*
X115222614Y-107065035D01*
X115405866Y-106951570D01*
X115565149Y-106806364D01*
X115695038Y-106634363D01*
X115791111Y-106441424D01*
X115850095Y-106234116D01*
X115869982Y-106019500D01*
X115850095Y-105804884D01*
X115791111Y-105597576D01*
X115695038Y-105404637D01*
X115565149Y-105232636D01*
X115405866Y-105087430D01*
X115222614Y-104973965D01*
X115021633Y-104896105D01*
X115021632Y-104896104D01*
X115021630Y-104896104D01*
X114809768Y-104856500D01*
X114594232Y-104856500D01*
X114382369Y-104896104D01*
X114181385Y-104973965D01*
X114181380Y-104973968D01*
X113998138Y-105087427D01*
X113998136Y-105087428D01*
X113998134Y-105087430D01*
X113858008Y-105215171D01*
X113838852Y-105232635D01*
X113708959Y-105404641D01*
X113612889Y-105597575D01*
X113553905Y-105804882D01*
X113534018Y-106019500D01*
X109550499Y-106019500D01*
X109550499Y-102748860D01*
X110355500Y-102748860D01*
X110355501Y-102748863D01*
X110358414Y-102773990D01*
X110383756Y-102831384D01*
X110403794Y-102876765D01*
X110483235Y-102956206D01*
X110586009Y-103001585D01*
X110611135Y-103004500D01*
X112400864Y-103004499D01*
X112425991Y-103001585D01*
X112528765Y-102956206D01*
X112608206Y-102876765D01*
X112653585Y-102773991D01*
X112656500Y-102748865D01*
X112656500Y-102607499D01*
X112675407Y-102549309D01*
X112724907Y-102513345D01*
X112755500Y-102508500D01*
X113785291Y-102508500D01*
X113843482Y-102527407D01*
X113879446Y-102576907D01*
X113879446Y-102638093D01*
X113851988Y-102680659D01*
X113838851Y-102692636D01*
X113741658Y-102821340D01*
X113708959Y-102864641D01*
X113612889Y-103057575D01*
X113553905Y-103264882D01*
X113534018Y-103479500D01*
X113553905Y-103694117D01*
X113612889Y-103901424D01*
X113708959Y-104094358D01*
X113708960Y-104094359D01*
X113708962Y-104094363D01*
X113838851Y-104266364D01*
X113998134Y-104411570D01*
X114181386Y-104525035D01*
X114382367Y-104602895D01*
X114594232Y-104642500D01*
X114809768Y-104642500D01*
X115021633Y-104602895D01*
X115222614Y-104525035D01*
X115405866Y-104411570D01*
X115565149Y-104266364D01*
X115695038Y-104094363D01*
X115791111Y-103901424D01*
X115850095Y-103694116D01*
X115869982Y-103479500D01*
X115850095Y-103264884D01*
X115791111Y-103057576D01*
X115695038Y-102864637D01*
X115565149Y-102692636D01*
X115552011Y-102680659D01*
X115521748Y-102627487D01*
X115528518Y-102566677D01*
X115569738Y-102521460D01*
X115618709Y-102508500D01*
X115887432Y-102508500D01*
X115887433Y-102508500D01*
X115910382Y-102501043D01*
X115925465Y-102497421D01*
X115949304Y-102493646D01*
X115970802Y-102482690D01*
X115985151Y-102476748D01*
X116008090Y-102469296D01*
X116027612Y-102455111D01*
X116040849Y-102447000D01*
X116062342Y-102436050D01*
X116079260Y-102419130D01*
X116079272Y-102419121D01*
X116240599Y-102257794D01*
X116468895Y-102029496D01*
X116523412Y-102001719D01*
X116538899Y-102000500D01*
X118499315Y-102000500D01*
X118557506Y-102019407D01*
X118580791Y-102043263D01*
X118597814Y-102067926D01*
X118597816Y-102067928D01*
X118597817Y-102067929D01*
X118725148Y-102180734D01*
X118875775Y-102259790D01*
X119040944Y-102300500D01*
X119040947Y-102300500D01*
X119211053Y-102300500D01*
X119211056Y-102300500D01*
X119376225Y-102259790D01*
X119526852Y-102180734D01*
X119654183Y-102067929D01*
X119750818Y-101927930D01*
X119811140Y-101768872D01*
X119831645Y-101600000D01*
X119811140Y-101431128D01*
X119750818Y-101272070D01*
X119654183Y-101132071D01*
X119526852Y-101019266D01*
X119376225Y-100940210D01*
X119376224Y-100940209D01*
X119376223Y-100940209D01*
X119211058Y-100899500D01*
X119211056Y-100899500D01*
X119040944Y-100899500D01*
X119040941Y-100899500D01*
X118875776Y-100940209D01*
X118725146Y-101019267D01*
X118597814Y-101132073D01*
X118580791Y-101156737D01*
X118532175Y-101193887D01*
X118499315Y-101199500D01*
X116298461Y-101199500D01*
X116298437Y-101199501D01*
X116268563Y-101199501D01*
X116245626Y-101206954D01*
X116230524Y-101210580D01*
X116206693Y-101214354D01*
X116185198Y-101225306D01*
X116170853Y-101231248D01*
X116147910Y-101238703D01*
X116134244Y-101248632D01*
X116128391Y-101252885D01*
X116115148Y-101261000D01*
X116093658Y-101271949D01*
X116057167Y-101308439D01*
X116057168Y-101308440D01*
X115975919Y-101389689D01*
X115921402Y-101417466D01*
X115860970Y-101407895D01*
X115817705Y-101364630D01*
X115808134Y-101304198D01*
X115810689Y-101292612D01*
X115850095Y-101154116D01*
X115869982Y-100939500D01*
X115850095Y-100724884D01*
X115791111Y-100517576D01*
X115695038Y-100324637D01*
X115565149Y-100152636D01*
X115405866Y-100007430D01*
X115222614Y-99893965D01*
X115021633Y-99816105D01*
X115021632Y-99816104D01*
X115021630Y-99816104D01*
X114809768Y-99776500D01*
X114594232Y-99776500D01*
X114382369Y-99816104D01*
X114181385Y-99893965D01*
X114181380Y-99893968D01*
X113998138Y-100007427D01*
X113998136Y-100007428D01*
X113998134Y-100007430D01*
X113892638Y-100103603D01*
X113838852Y-100152635D01*
X113708959Y-100324641D01*
X113612889Y-100517575D01*
X113553905Y-100724882D01*
X113534018Y-100939500D01*
X113553905Y-101154117D01*
X113612889Y-101361424D01*
X113708962Y-101554364D01*
X113710212Y-101556383D01*
X113710449Y-101557350D01*
X113711002Y-101558461D01*
X113710751Y-101558585D01*
X113724771Y-101615811D01*
X113701618Y-101672446D01*
X113649597Y-101704657D01*
X113626041Y-101707500D01*
X112755499Y-101707500D01*
X112697308Y-101688593D01*
X112661344Y-101639093D01*
X112656499Y-101608500D01*
X112656499Y-100959139D01*
X112656499Y-100959136D01*
X112653585Y-100934009D01*
X112608206Y-100831235D01*
X112528765Y-100751794D01*
X112425991Y-100706415D01*
X112425990Y-100706414D01*
X112425988Y-100706414D01*
X112400868Y-100703500D01*
X110611139Y-100703500D01*
X110611136Y-100703501D01*
X110586009Y-100706414D01*
X110483235Y-100751794D01*
X110403794Y-100831235D01*
X110358414Y-100934011D01*
X110355500Y-100959130D01*
X110355500Y-102748860D01*
X109550499Y-102748860D01*
X109550499Y-98399499D01*
X113534018Y-98399499D01*
X113553905Y-98614117D01*
X113612889Y-98821424D01*
X113708959Y-99014358D01*
X113708960Y-99014359D01*
X113708962Y-99014363D01*
X113838851Y-99186364D01*
X113998134Y-99331570D01*
X114181386Y-99445035D01*
X114382367Y-99522895D01*
X114594232Y-99562500D01*
X114809768Y-99562500D01*
X115021633Y-99522895D01*
X115222614Y-99445035D01*
X115405866Y-99331570D01*
X115565149Y-99186364D01*
X115695038Y-99014363D01*
X115791111Y-98821424D01*
X115850095Y-98614116D01*
X115869982Y-98399500D01*
X115850095Y-98184884D01*
X115791111Y-97977576D01*
X115695038Y-97784637D01*
X115565149Y-97612636D01*
X115405866Y-97467430D01*
X115222614Y-97353965D01*
X115021633Y-97276105D01*
X115021632Y-97276104D01*
X115021630Y-97276104D01*
X114809768Y-97236500D01*
X114594232Y-97236500D01*
X114382369Y-97276104D01*
X114181385Y-97353965D01*
X114181380Y-97353968D01*
X113998138Y-97467427D01*
X113998136Y-97467428D01*
X113998134Y-97467430D01*
X113892638Y-97563603D01*
X113838852Y-97612635D01*
X113708959Y-97784641D01*
X113612889Y-97977575D01*
X113553905Y-98184882D01*
X113534018Y-98399499D01*
X109550499Y-98399499D01*
X109550499Y-95859499D01*
X113534018Y-95859499D01*
X113553905Y-96074117D01*
X113612889Y-96281424D01*
X113708959Y-96474358D01*
X113708960Y-96474359D01*
X113708962Y-96474363D01*
X113838851Y-96646364D01*
X113998134Y-96791570D01*
X114181386Y-96905035D01*
X114382367Y-96982895D01*
X114594232Y-97022500D01*
X114809768Y-97022500D01*
X115021633Y-96982895D01*
X115222614Y-96905035D01*
X115405866Y-96791570D01*
X115565149Y-96646364D01*
X115695038Y-96474363D01*
X115791111Y-96281424D01*
X115850095Y-96074116D01*
X115869982Y-95859500D01*
X115850095Y-95644884D01*
X115791111Y-95437576D01*
X115695038Y-95244637D01*
X115565149Y-95072636D01*
X115405866Y-94927430D01*
X115222614Y-94813965D01*
X115021633Y-94736105D01*
X115021632Y-94736104D01*
X115021630Y-94736104D01*
X114809768Y-94696500D01*
X114594232Y-94696500D01*
X114382369Y-94736104D01*
X114181385Y-94813965D01*
X114181380Y-94813968D01*
X113998138Y-94927427D01*
X113998136Y-94927428D01*
X113998134Y-94927430D01*
X113838851Y-95072636D01*
X113797300Y-95127659D01*
X113708959Y-95244641D01*
X113612889Y-95437575D01*
X113553905Y-95644882D01*
X113534018Y-95859499D01*
X109550499Y-95859499D01*
X109550499Y-95669030D01*
X109569406Y-95610840D01*
X109579489Y-95599033D01*
X111182025Y-93996497D01*
X111183205Y-93995357D01*
X111231044Y-93950680D01*
X111254383Y-93912298D01*
X111257229Y-93908118D01*
X111284361Y-93872342D01*
X111291729Y-93853656D01*
X111299234Y-93838545D01*
X111309672Y-93821382D01*
X111321789Y-93778132D01*
X111323402Y-93773337D01*
X111339876Y-93731565D01*
X111341929Y-93711582D01*
X111345082Y-93694998D01*
X111350500Y-93675664D01*
X111350500Y-93630756D01*
X111350760Y-93625691D01*
X111351540Y-93618095D01*
X111355351Y-93581029D01*
X111351939Y-93561238D01*
X111350500Y-93544419D01*
X111350500Y-93319500D01*
X113534018Y-93319500D01*
X113553905Y-93534117D01*
X113612889Y-93741424D01*
X113708959Y-93934358D01*
X113708960Y-93934359D01*
X113708962Y-93934363D01*
X113838851Y-94106364D01*
X113998134Y-94251570D01*
X114181386Y-94365035D01*
X114382367Y-94442895D01*
X114594232Y-94482500D01*
X114809768Y-94482500D01*
X115021633Y-94442895D01*
X115222614Y-94365035D01*
X115405866Y-94251570D01*
X115565149Y-94106364D01*
X115695038Y-93934363D01*
X115791111Y-93741424D01*
X115850095Y-93534116D01*
X115869982Y-93319500D01*
X128774018Y-93319500D01*
X128778881Y-93371975D01*
X128793905Y-93534117D01*
X128852889Y-93741424D01*
X128948959Y-93934358D01*
X128948960Y-93934359D01*
X128948962Y-93934363D01*
X129078851Y-94106364D01*
X129238134Y-94251570D01*
X129421386Y-94365035D01*
X129622367Y-94442895D01*
X129834232Y-94482500D01*
X130049768Y-94482500D01*
X130261633Y-94442895D01*
X130462614Y-94365035D01*
X130645866Y-94251570D01*
X130805149Y-94106364D01*
X130935038Y-93934363D01*
X131031111Y-93741424D01*
X131090095Y-93534116D01*
X131109982Y-93319500D01*
X131090095Y-93104884D01*
X131031111Y-92897576D01*
X130935038Y-92704637D01*
X130805149Y-92532636D01*
X130645866Y-92387430D01*
X130599028Y-92358429D01*
X135722500Y-92358429D01*
X135762801Y-92599944D01*
X135842308Y-92831542D01*
X135878044Y-92897576D01*
X135958847Y-93046886D01*
X136109242Y-93240113D01*
X136289390Y-93405951D01*
X136494378Y-93539876D01*
X136718612Y-93638235D01*
X136955978Y-93698344D01*
X137138886Y-93713500D01*
X137138894Y-93713500D01*
X137261106Y-93713500D01*
X137261114Y-93713500D01*
X137444022Y-93698344D01*
X137681388Y-93638235D01*
X137905622Y-93539876D01*
X138110610Y-93405951D01*
X138290758Y-93240113D01*
X138441153Y-93046886D01*
X138557693Y-92831539D01*
X138637198Y-92599948D01*
X138677500Y-92358429D01*
X138677500Y-92113571D01*
X138637198Y-91872052D01*
X138557693Y-91640461D01*
X138441153Y-91425114D01*
X138417218Y-91394363D01*
X138290760Y-91231890D01*
X138290758Y-91231887D01*
X138110610Y-91066049D01*
X137905622Y-90932124D01*
X137681388Y-90833765D01*
X137581784Y-90808542D01*
X137444020Y-90773655D01*
X137261123Y-90758500D01*
X137261114Y-90758500D01*
X137138886Y-90758500D01*
X137138876Y-90758500D01*
X136955979Y-90773655D01*
X136718612Y-90833765D01*
X136494380Y-90932123D01*
X136289391Y-91066048D01*
X136109239Y-91231890D01*
X135958849Y-91425110D01*
X135958847Y-91425113D01*
X135842308Y-91640457D01*
X135762801Y-91872055D01*
X135722500Y-92113570D01*
X135722500Y-92358429D01*
X130599028Y-92358429D01*
X130462614Y-92273965D01*
X130261633Y-92196105D01*
X130261632Y-92196104D01*
X130261630Y-92196104D01*
X130049768Y-92156500D01*
X129834232Y-92156500D01*
X129622369Y-92196104D01*
X129421385Y-92273965D01*
X129421380Y-92273968D01*
X129238138Y-92387427D01*
X129238136Y-92387428D01*
X129238134Y-92387430D01*
X129078851Y-92532636D01*
X128948962Y-92704637D01*
X128948959Y-92704641D01*
X128852889Y-92897575D01*
X128793905Y-93104882D01*
X128781374Y-93240113D01*
X128774018Y-93319500D01*
X115869982Y-93319500D01*
X115850095Y-93104884D01*
X115791111Y-92897576D01*
X115695038Y-92704637D01*
X115565149Y-92532636D01*
X115405866Y-92387430D01*
X115222614Y-92273965D01*
X115021633Y-92196105D01*
X115021632Y-92196104D01*
X115021630Y-92196104D01*
X114809768Y-92156500D01*
X114594232Y-92156500D01*
X114382369Y-92196104D01*
X114181385Y-92273965D01*
X114181380Y-92273968D01*
X113998138Y-92387427D01*
X113998136Y-92387428D01*
X113998134Y-92387430D01*
X113838851Y-92532636D01*
X113708962Y-92704637D01*
X113708959Y-92704641D01*
X113612889Y-92897575D01*
X113553905Y-93104882D01*
X113534018Y-93319500D01*
X111350500Y-93319500D01*
X111350500Y-92196104D01*
X111350500Y-90810174D01*
X111350526Y-90808612D01*
X111351521Y-90779500D01*
X113534018Y-90779500D01*
X113553905Y-90994117D01*
X113612889Y-91201424D01*
X113708959Y-91394358D01*
X113708960Y-91394359D01*
X113708962Y-91394363D01*
X113838851Y-91566364D01*
X113998134Y-91711570D01*
X114181386Y-91825035D01*
X114382367Y-91902895D01*
X114594232Y-91942500D01*
X114809768Y-91942500D01*
X115021633Y-91902895D01*
X115222614Y-91825035D01*
X115405866Y-91711570D01*
X115565149Y-91566364D01*
X115695038Y-91394363D01*
X115791111Y-91201424D01*
X115850095Y-90994116D01*
X115869982Y-90779500D01*
X115850095Y-90564884D01*
X115791111Y-90357576D01*
X115695038Y-90164637D01*
X115565149Y-89992636D01*
X115405866Y-89847430D01*
X115222614Y-89733965D01*
X115021633Y-89656105D01*
X115021632Y-89656104D01*
X115021630Y-89656104D01*
X114809768Y-89616500D01*
X114594232Y-89616500D01*
X114382369Y-89656104D01*
X114181385Y-89733965D01*
X114181380Y-89733968D01*
X113998138Y-89847427D01*
X113998136Y-89847428D01*
X113998134Y-89847430D01*
X113838851Y-89992636D01*
X113795591Y-90049922D01*
X113708959Y-90164641D01*
X113612889Y-90357575D01*
X113553905Y-90564882D01*
X113534018Y-90779500D01*
X111351521Y-90779500D01*
X111352762Y-90743174D01*
X111342127Y-90699537D01*
X111341185Y-90694578D01*
X111335070Y-90650080D01*
X111327066Y-90631654D01*
X111321687Y-90615660D01*
X111316933Y-90596148D01*
X111294923Y-90557004D01*
X111292676Y-90552480D01*
X111284752Y-90534238D01*
X111274783Y-90511285D01*
X111274777Y-90511276D01*
X111262109Y-90495706D01*
X111252606Y-90481744D01*
X111242766Y-90464243D01*
X111242765Y-90464241D01*
X111211011Y-90432487D01*
X111207614Y-90428722D01*
X111179278Y-90393892D01*
X111179276Y-90393891D01*
X111179275Y-90393889D01*
X111162869Y-90382308D01*
X111149957Y-90371433D01*
X110828444Y-90049920D01*
X110479494Y-89700969D01*
X110451718Y-89646454D01*
X110450499Y-89630979D01*
X110450499Y-88239499D01*
X113534018Y-88239499D01*
X113553905Y-88454117D01*
X113612889Y-88661424D01*
X113708959Y-88854358D01*
X113708960Y-88854359D01*
X113708962Y-88854363D01*
X113838851Y-89026364D01*
X113998134Y-89171570D01*
X114181386Y-89285035D01*
X114382367Y-89362895D01*
X114594232Y-89402500D01*
X114809768Y-89402500D01*
X115021633Y-89362895D01*
X115222614Y-89285035D01*
X115405866Y-89171570D01*
X115565149Y-89026364D01*
X115695038Y-88854363D01*
X115791111Y-88661424D01*
X115850095Y-88454116D01*
X115869982Y-88239500D01*
X115869982Y-88239499D01*
X128574830Y-88239499D01*
X128593475Y-88464527D01*
X128648907Y-88683417D01*
X128739609Y-88890198D01*
X128817905Y-89010039D01*
X129398359Y-88429584D01*
X129439738Y-88529481D01*
X129531905Y-88649595D01*
X129652019Y-88741762D01*
X129751912Y-88783139D01*
X129169922Y-89365130D01*
X129194225Y-89384046D01*
X129194228Y-89384048D01*
X129392812Y-89491517D01*
X129483362Y-89522602D01*
X129532261Y-89559379D01*
X129550204Y-89617874D01*
X129530338Y-89675744D01*
X129486982Y-89708552D01*
X129421391Y-89733962D01*
X129421380Y-89733968D01*
X129238138Y-89847427D01*
X129238136Y-89847428D01*
X129238134Y-89847430D01*
X129078851Y-89992636D01*
X129035591Y-90049922D01*
X128948959Y-90164641D01*
X128852889Y-90357575D01*
X128793905Y-90564882D01*
X128774018Y-90779500D01*
X128793905Y-90994117D01*
X128852889Y-91201424D01*
X128948959Y-91394358D01*
X128948960Y-91394359D01*
X128948962Y-91394363D01*
X129078851Y-91566364D01*
X129238134Y-91711570D01*
X129421386Y-91825035D01*
X129622367Y-91902895D01*
X129834232Y-91942500D01*
X130049768Y-91942500D01*
X130261633Y-91902895D01*
X130462614Y-91825035D01*
X130645866Y-91711570D01*
X130805149Y-91566364D01*
X130935038Y-91394363D01*
X131031111Y-91201424D01*
X131090095Y-90994116D01*
X131109982Y-90779500D01*
X131090095Y-90564884D01*
X131031111Y-90357576D01*
X130935038Y-90164637D01*
X130805149Y-89992636D01*
X130645866Y-89847430D01*
X130462614Y-89733965D01*
X130397016Y-89708552D01*
X130349587Y-89669901D01*
X130333933Y-89610752D01*
X130356036Y-89553698D01*
X130400637Y-89522602D01*
X130491187Y-89491517D01*
X130491188Y-89491517D01*
X130689770Y-89384049D01*
X130689774Y-89384046D01*
X130714076Y-89365130D01*
X130132085Y-88783139D01*
X130231981Y-88741762D01*
X130352095Y-88649595D01*
X130444262Y-88529481D01*
X130485639Y-88429585D01*
X131066094Y-89010040D01*
X131144387Y-88890205D01*
X131144390Y-88890200D01*
X131235092Y-88683417D01*
X131290524Y-88464527D01*
X131309169Y-88239499D01*
X131290524Y-88014472D01*
X131235092Y-87795582D01*
X131144390Y-87588799D01*
X131144387Y-87588794D01*
X131066094Y-87468958D01*
X130485639Y-88049412D01*
X130444262Y-87949519D01*
X130352095Y-87829405D01*
X130231981Y-87737238D01*
X130132084Y-87695859D01*
X130714076Y-87113868D01*
X130689774Y-87094953D01*
X130689771Y-87094951D01*
X130491189Y-86987483D01*
X130400636Y-86956397D01*
X130351737Y-86919620D01*
X130333795Y-86861125D01*
X130353661Y-86803254D01*
X130397017Y-86770447D01*
X130462614Y-86745035D01*
X130645866Y-86631570D01*
X130805149Y-86486364D01*
X130935038Y-86314363D01*
X131031111Y-86121424D01*
X131090095Y-85914116D01*
X131109982Y-85699500D01*
X131090095Y-85484884D01*
X131031111Y-85277576D01*
X130935038Y-85084637D01*
X130805149Y-84912636D01*
X130645866Y-84767430D01*
X130462614Y-84653965D01*
X130261633Y-84576105D01*
X130261632Y-84576104D01*
X130261630Y-84576104D01*
X130049768Y-84536500D01*
X129834232Y-84536500D01*
X129622369Y-84576104D01*
X129421385Y-84653965D01*
X129421380Y-84653968D01*
X129238138Y-84767427D01*
X129238136Y-84767428D01*
X129238134Y-84767430D01*
X129098008Y-84895171D01*
X129078852Y-84912635D01*
X128948959Y-85084641D01*
X128852889Y-85277575D01*
X128793905Y-85484882D01*
X128774018Y-85699499D01*
X128793905Y-85914117D01*
X128852889Y-86121424D01*
X128948959Y-86314358D01*
X128948960Y-86314359D01*
X128948962Y-86314363D01*
X129078851Y-86486364D01*
X129238134Y-86631570D01*
X129421386Y-86745035D01*
X129486982Y-86770446D01*
X129534412Y-86809098D01*
X129550066Y-86868247D01*
X129527963Y-86925300D01*
X129483363Y-86956397D01*
X129392810Y-86987483D01*
X129194228Y-87094951D01*
X129194228Y-87094952D01*
X129169922Y-87113868D01*
X129751914Y-87695860D01*
X129652019Y-87737238D01*
X129531905Y-87829405D01*
X129439738Y-87949519D01*
X129398360Y-88049414D01*
X128817904Y-87468958D01*
X128739611Y-87588796D01*
X128739609Y-87588799D01*
X128648907Y-87795582D01*
X128593475Y-88014472D01*
X128574830Y-88239499D01*
X115869982Y-88239499D01*
X115850095Y-88024884D01*
X115791111Y-87817576D01*
X115695038Y-87624637D01*
X115565149Y-87452636D01*
X115405866Y-87307430D01*
X115222614Y-87193965D01*
X115021633Y-87116105D01*
X115021632Y-87116104D01*
X115021630Y-87116104D01*
X114809768Y-87076500D01*
X114594232Y-87076500D01*
X114382369Y-87116104D01*
X114181385Y-87193965D01*
X114181380Y-87193968D01*
X113998138Y-87307427D01*
X113998136Y-87307428D01*
X113998134Y-87307430D01*
X113925920Y-87373262D01*
X113838852Y-87452635D01*
X113708959Y-87624641D01*
X113612889Y-87817575D01*
X113553905Y-88024882D01*
X113534018Y-88239499D01*
X110450499Y-88239499D01*
X110450499Y-87464584D01*
X110469406Y-87406394D01*
X110479493Y-87394583D01*
X110500816Y-87373262D01*
X110596789Y-87220522D01*
X110656368Y-87050255D01*
X110676565Y-86871000D01*
X110656368Y-86691745D01*
X110596789Y-86521478D01*
X110574725Y-86486364D01*
X110500818Y-86368741D01*
X110500817Y-86368740D01*
X110500816Y-86368738D01*
X110373262Y-86241184D01*
X110373259Y-86241182D01*
X110373258Y-86241181D01*
X110220523Y-86145211D01*
X110050261Y-86085633D01*
X110050257Y-86085632D01*
X109871000Y-86065435D01*
X109691742Y-86085632D01*
X109691738Y-86085633D01*
X109521477Y-86145211D01*
X109521476Y-86145211D01*
X109368741Y-86241181D01*
X109241181Y-86368741D01*
X109145211Y-86521476D01*
X109145211Y-86521477D01*
X109085633Y-86691738D01*
X109085632Y-86691742D01*
X109065435Y-86871000D01*
X109085632Y-87050257D01*
X109085633Y-87050261D01*
X109145211Y-87220522D01*
X109145211Y-87220523D01*
X109241181Y-87373258D01*
X109241184Y-87373262D01*
X109320505Y-87452583D01*
X109348281Y-87507098D01*
X109349500Y-87522585D01*
X109349500Y-89889765D01*
X109349471Y-89891447D01*
X109347238Y-89956826D01*
X109355964Y-89992635D01*
X109357867Y-90000441D01*
X109358814Y-90005423D01*
X109364930Y-90049921D01*
X109364930Y-90049922D01*
X109372931Y-90068341D01*
X109378313Y-90084345D01*
X109383065Y-90103846D01*
X109383068Y-90103854D01*
X109405075Y-90142995D01*
X109407331Y-90147536D01*
X109425220Y-90188721D01*
X109437891Y-90204295D01*
X109447391Y-90218253D01*
X109457232Y-90235757D01*
X109488992Y-90267518D01*
X109492387Y-90271280D01*
X109520722Y-90306108D01*
X109537124Y-90317686D01*
X109550036Y-90328561D01*
X110220504Y-90999028D01*
X110248281Y-91053545D01*
X110249500Y-91069032D01*
X110249500Y-93330966D01*
X110230593Y-93389157D01*
X110220504Y-93400970D01*
X108617972Y-95003500D01*
X108616758Y-95004673D01*
X108568957Y-95049318D01*
X108568955Y-95049321D01*
X108545624Y-95087684D01*
X108542773Y-95091873D01*
X108515639Y-95127657D01*
X108515638Y-95127659D01*
X108508269Y-95146343D01*
X108500765Y-95161452D01*
X108490327Y-95178618D01*
X108478210Y-95221861D01*
X108476594Y-95226666D01*
X108460123Y-95268437D01*
X108460122Y-95268441D01*
X108458068Y-95288417D01*
X108454919Y-95304990D01*
X108449500Y-95324334D01*
X108449500Y-95369236D01*
X108449240Y-95374301D01*
X108444648Y-95418972D01*
X105050500Y-95418972D01*
X105050500Y-92358429D01*
X106766500Y-92358429D01*
X106806801Y-92599944D01*
X106886308Y-92831542D01*
X106922044Y-92897576D01*
X107002847Y-93046886D01*
X107153242Y-93240113D01*
X107333390Y-93405951D01*
X107538378Y-93539876D01*
X107762612Y-93638235D01*
X107999978Y-93698344D01*
X108182886Y-93713500D01*
X108182894Y-93713500D01*
X108305106Y-93713500D01*
X108305114Y-93713500D01*
X108488022Y-93698344D01*
X108725388Y-93638235D01*
X108949622Y-93539876D01*
X109154610Y-93405951D01*
X109334758Y-93240113D01*
X109485153Y-93046886D01*
X109601693Y-92831539D01*
X109681198Y-92599948D01*
X109721500Y-92358429D01*
X109721500Y-92113571D01*
X109681198Y-91872052D01*
X109601693Y-91640461D01*
X109485153Y-91425114D01*
X109461218Y-91394363D01*
X109334760Y-91231890D01*
X109334758Y-91231887D01*
X109154610Y-91066049D01*
X108949622Y-90932124D01*
X108725388Y-90833765D01*
X108625784Y-90808542D01*
X108488020Y-90773655D01*
X108305123Y-90758500D01*
X108305114Y-90758500D01*
X108182886Y-90758500D01*
X108182876Y-90758500D01*
X107999979Y-90773655D01*
X107762612Y-90833765D01*
X107538380Y-90932123D01*
X107333391Y-91066048D01*
X107153239Y-91231890D01*
X107002849Y-91425110D01*
X107002847Y-91425113D01*
X106886308Y-91640457D01*
X106806801Y-91872055D01*
X106766500Y-92113570D01*
X106766500Y-92358429D01*
X105050500Y-92358429D01*
X105050500Y-72271824D01*
X107361999Y-72271824D01*
X107368401Y-72331370D01*
X107368403Y-72331381D01*
X107418646Y-72466088D01*
X107418647Y-72466090D01*
X107504807Y-72581184D01*
X107504815Y-72581192D01*
X107619909Y-72667352D01*
X107619911Y-72667353D01*
X107754618Y-72717596D01*
X107754629Y-72717598D01*
X107814176Y-72724000D01*
X108461999Y-72724000D01*
X108462000Y-72723999D01*
X108462000Y-71809501D01*
X108569685Y-71858680D01*
X108676237Y-71874000D01*
X108747763Y-71874000D01*
X108854315Y-71858680D01*
X108962000Y-71809501D01*
X108962000Y-72723999D01*
X108962001Y-72724000D01*
X109609824Y-72724000D01*
X109669370Y-72717598D01*
X109669381Y-72717596D01*
X109804088Y-72667353D01*
X109804090Y-72667352D01*
X109919184Y-72581192D01*
X109919192Y-72581184D01*
X110005352Y-72466090D01*
X110005353Y-72466088D01*
X110055596Y-72331381D01*
X110055598Y-72331370D01*
X110062000Y-72271824D01*
X110062000Y-71986191D01*
X110080907Y-71928000D01*
X110130407Y-71892036D01*
X110191593Y-71892036D01*
X110241093Y-71928000D01*
X110249621Y-71942063D01*
X110269630Y-71982248D01*
X110269632Y-71982252D01*
X110269634Y-71982255D01*
X110398128Y-72152407D01*
X110398135Y-72152413D01*
X110555692Y-72296047D01*
X110555699Y-72296053D01*
X110612738Y-72331370D01*
X110736981Y-72408298D01*
X110935802Y-72485321D01*
X111145390Y-72524500D01*
X111229414Y-72524500D01*
X111287605Y-72543407D01*
X111299418Y-72553496D01*
X113872503Y-75126582D01*
X113900280Y-75181099D01*
X113901499Y-75196586D01*
X113901500Y-79357500D01*
X113882593Y-79415691D01*
X113833093Y-79451655D01*
X113802509Y-79456500D01*
X113794643Y-79456500D01*
X113794635Y-79456501D01*
X113769509Y-79459414D01*
X113666735Y-79504794D01*
X113587294Y-79584235D01*
X113541914Y-79687011D01*
X113539000Y-79712130D01*
X113539000Y-81526860D01*
X113539001Y-81526863D01*
X113541914Y-81551990D01*
X113567256Y-81609385D01*
X113587294Y-81654765D01*
X113666735Y-81734206D01*
X113769509Y-81779585D01*
X113794635Y-81782500D01*
X113992820Y-81782499D01*
X114051008Y-81801406D01*
X114086972Y-81850906D01*
X114086973Y-81912091D01*
X114051009Y-81961591D01*
X114039938Y-81968566D01*
X113954233Y-82014948D01*
X113954228Y-82014952D01*
X113929922Y-82033868D01*
X114511914Y-82615860D01*
X114412019Y-82657238D01*
X114291905Y-82749405D01*
X114199738Y-82869519D01*
X114158360Y-82969413D01*
X113577905Y-82388957D01*
X113577904Y-82388958D01*
X113499611Y-82508796D01*
X113499609Y-82508799D01*
X113408907Y-82715582D01*
X113353475Y-82934472D01*
X113334830Y-83159499D01*
X113353475Y-83384527D01*
X113408907Y-83603417D01*
X113499609Y-83810198D01*
X113577905Y-83930039D01*
X114158360Y-83349584D01*
X114199738Y-83449481D01*
X114291905Y-83569595D01*
X114412019Y-83661762D01*
X114511912Y-83703139D01*
X113929922Y-84285130D01*
X113954225Y-84304046D01*
X113954228Y-84304048D01*
X114152812Y-84411517D01*
X114243362Y-84442602D01*
X114292261Y-84479379D01*
X114310204Y-84537874D01*
X114290338Y-84595744D01*
X114246982Y-84628552D01*
X114181391Y-84653962D01*
X114181380Y-84653968D01*
X113998138Y-84767427D01*
X113998136Y-84767428D01*
X113998134Y-84767430D01*
X113858008Y-84895171D01*
X113838852Y-84912635D01*
X113708959Y-85084641D01*
X113612889Y-85277575D01*
X113553905Y-85484882D01*
X113534018Y-85699500D01*
X113553905Y-85914117D01*
X113612889Y-86121424D01*
X113708959Y-86314358D01*
X113708960Y-86314359D01*
X113708962Y-86314363D01*
X113838851Y-86486364D01*
X113998134Y-86631570D01*
X114181386Y-86745035D01*
X114382367Y-86822895D01*
X114594232Y-86862500D01*
X114809768Y-86862500D01*
X115021633Y-86822895D01*
X115222614Y-86745035D01*
X115405866Y-86631570D01*
X115565149Y-86486364D01*
X115695038Y-86314363D01*
X115791111Y-86121424D01*
X115850095Y-85914116D01*
X115869982Y-85699500D01*
X115850095Y-85484884D01*
X115791111Y-85277576D01*
X115695038Y-85084637D01*
X115565149Y-84912636D01*
X115405866Y-84767430D01*
X115222614Y-84653965D01*
X115157016Y-84628552D01*
X115109587Y-84589901D01*
X115093933Y-84530752D01*
X115116036Y-84473698D01*
X115160637Y-84442602D01*
X115251187Y-84411517D01*
X115251188Y-84411517D01*
X115449770Y-84304049D01*
X115449774Y-84304046D01*
X115474076Y-84285130D01*
X114892085Y-83703139D01*
X114991981Y-83661762D01*
X115112095Y-83569595D01*
X115204262Y-83449481D01*
X115245639Y-83349585D01*
X115826094Y-83930040D01*
X115904387Y-83810205D01*
X115904390Y-83810200D01*
X115995092Y-83603417D01*
X116050524Y-83384527D01*
X116069169Y-83159500D01*
X128774018Y-83159500D01*
X128793905Y-83374117D01*
X128852889Y-83581424D01*
X128948959Y-83774358D01*
X128948960Y-83774359D01*
X128948962Y-83774363D01*
X129078851Y-83946364D01*
X129238134Y-84091570D01*
X129421386Y-84205035D01*
X129622367Y-84282895D01*
X129834232Y-84322500D01*
X130049768Y-84322500D01*
X130261633Y-84282895D01*
X130462614Y-84205035D01*
X130645866Y-84091570D01*
X130805149Y-83946364D01*
X130935038Y-83774363D01*
X131031111Y-83581424D01*
X131090095Y-83374116D01*
X131109982Y-83159500D01*
X131090095Y-82944884D01*
X131031111Y-82737576D01*
X130935038Y-82544637D01*
X130805149Y-82372636D01*
X130645866Y-82227430D01*
X130462614Y-82113965D01*
X130261633Y-82036105D01*
X130261632Y-82036104D01*
X130261630Y-82036104D01*
X130049768Y-81996500D01*
X129834232Y-81996500D01*
X129622369Y-82036104D01*
X129421385Y-82113965D01*
X129421380Y-82113968D01*
X129238138Y-82227427D01*
X129238136Y-82227428D01*
X129238134Y-82227430D01*
X129098008Y-82355171D01*
X129078852Y-82372635D01*
X128948959Y-82544641D01*
X128852889Y-82737575D01*
X128793905Y-82944882D01*
X128774018Y-83159500D01*
X116069169Y-83159500D01*
X116050524Y-82934472D01*
X115995092Y-82715582D01*
X115904390Y-82508799D01*
X115904387Y-82508794D01*
X115826094Y-82388958D01*
X115245639Y-82969412D01*
X115204262Y-82869519D01*
X115112095Y-82749405D01*
X114991981Y-82657238D01*
X114892084Y-82615859D01*
X115474076Y-82033868D01*
X115449774Y-82014953D01*
X115449771Y-82014951D01*
X115364061Y-81968567D01*
X115321883Y-81924242D01*
X115313813Y-81863592D01*
X115342934Y-81809781D01*
X115398123Y-81783364D01*
X115411178Y-81782499D01*
X115609364Y-81782499D01*
X115634491Y-81779585D01*
X115737265Y-81734206D01*
X115816706Y-81654765D01*
X115862085Y-81551991D01*
X115865000Y-81526865D01*
X115865000Y-81526860D01*
X128779000Y-81526860D01*
X128779001Y-81526863D01*
X128781914Y-81551990D01*
X128807256Y-81609385D01*
X128827294Y-81654765D01*
X128906735Y-81734206D01*
X129009509Y-81779585D01*
X129034635Y-81782500D01*
X130849364Y-81782499D01*
X130874491Y-81779585D01*
X130977265Y-81734206D01*
X131056706Y-81654765D01*
X131102085Y-81551991D01*
X131105000Y-81526865D01*
X131104999Y-79712136D01*
X131102085Y-79687009D01*
X131056706Y-79584235D01*
X130977265Y-79504794D01*
X130874491Y-79459415D01*
X130874490Y-79459414D01*
X130874488Y-79459414D01*
X130849368Y-79456500D01*
X129034639Y-79456500D01*
X129034636Y-79456501D01*
X129009509Y-79459414D01*
X128906735Y-79504794D01*
X128827294Y-79584235D01*
X128781914Y-79687011D01*
X128779000Y-79712130D01*
X128779000Y-81526860D01*
X115865000Y-81526860D01*
X115864999Y-79712136D01*
X115862085Y-79687009D01*
X115816706Y-79584235D01*
X115737265Y-79504794D01*
X115634491Y-79459415D01*
X115634490Y-79459414D01*
X115634488Y-79459414D01*
X115609369Y-79456500D01*
X115609365Y-79456500D01*
X115601500Y-79456500D01*
X115543309Y-79437593D01*
X115507345Y-79388093D01*
X115502500Y-79357500D01*
X115502500Y-76962003D01*
X118278843Y-76962003D01*
X118299429Y-77197313D01*
X118360569Y-77425489D01*
X118460399Y-77639577D01*
X118519072Y-77723372D01*
X119150922Y-77091521D01*
X119174507Y-77171844D01*
X119252239Y-77292798D01*
X119360900Y-77386952D01*
X119491685Y-77446680D01*
X119501466Y-77448086D01*
X118872626Y-78076926D01*
X118956422Y-78135600D01*
X119170510Y-78235430D01*
X119398686Y-78296570D01*
X119633997Y-78317157D01*
X119634003Y-78317157D01*
X119869313Y-78296570D01*
X120097489Y-78235430D01*
X120311577Y-78135600D01*
X120395372Y-78076925D01*
X119766533Y-77448086D01*
X119776315Y-77446680D01*
X119907100Y-77386952D01*
X120015761Y-77292798D01*
X120093493Y-77171844D01*
X120117076Y-77091523D01*
X120748925Y-77723372D01*
X120807600Y-77639577D01*
X120907431Y-77425488D01*
X120913958Y-77401130D01*
X120947281Y-77349815D01*
X121004402Y-77327888D01*
X121063503Y-77343723D01*
X121098206Y-77382624D01*
X121191630Y-77570248D01*
X121191632Y-77570252D01*
X121191634Y-77570255D01*
X121320128Y-77740407D01*
X121320135Y-77740413D01*
X121477692Y-77884047D01*
X121477699Y-77884053D01*
X121581389Y-77948255D01*
X121658981Y-77996298D01*
X121857802Y-78073321D01*
X122067390Y-78112500D01*
X122280610Y-78112500D01*
X122490198Y-78073321D01*
X122689019Y-77996298D01*
X122870302Y-77884052D01*
X123027872Y-77740407D01*
X123156366Y-77570255D01*
X123251405Y-77379389D01*
X123309756Y-77174310D01*
X123329429Y-76962000D01*
X123309756Y-76749690D01*
X123251405Y-76544611D01*
X123156366Y-76353745D01*
X123027872Y-76183593D01*
X122973623Y-76134139D01*
X122870307Y-76039952D01*
X122870300Y-76039946D01*
X122689024Y-75927705D01*
X122689019Y-75927702D01*
X122490195Y-75850678D01*
X122280610Y-75811500D01*
X122067390Y-75811500D01*
X121857804Y-75850678D01*
X121658980Y-75927702D01*
X121658975Y-75927705D01*
X121477699Y-76039946D01*
X121477692Y-76039952D01*
X121320135Y-76183586D01*
X121320131Y-76183589D01*
X121320128Y-76183593D01*
X121320124Y-76183597D01*
X121320125Y-76183597D01*
X121191635Y-76353743D01*
X121191630Y-76353752D01*
X121098206Y-76541375D01*
X121055343Y-76585037D01*
X120995002Y-76595167D01*
X120940231Y-76567895D01*
X120913958Y-76522869D01*
X120907430Y-76498506D01*
X120907429Y-76498505D01*
X120807605Y-76284432D01*
X120807602Y-76284426D01*
X120748926Y-76200626D01*
X120117076Y-76832475D01*
X120093493Y-76752156D01*
X120015761Y-76631202D01*
X119907100Y-76537048D01*
X119776315Y-76477320D01*
X119766530Y-76475913D01*
X120395372Y-75847072D01*
X120311577Y-75788399D01*
X120097489Y-75688569D01*
X119869313Y-75627429D01*
X119634003Y-75606843D01*
X119633997Y-75606843D01*
X119398686Y-75627429D01*
X119170505Y-75688570D01*
X118956430Y-75788394D01*
X118956411Y-75788406D01*
X118872626Y-75847072D01*
X119501467Y-76475913D01*
X119491685Y-76477320D01*
X119360900Y-76537048D01*
X119252239Y-76631202D01*
X119174507Y-76752156D01*
X119150922Y-76832476D01*
X118519072Y-76200626D01*
X118460406Y-76284411D01*
X118460394Y-76284430D01*
X118360570Y-76498505D01*
X118299429Y-76726686D01*
X118278843Y-76961996D01*
X118278843Y-76962003D01*
X115502500Y-76962003D01*
X115502500Y-74733808D01*
X115502500Y-74733806D01*
X115493049Y-74692399D01*
X115492123Y-74686951D01*
X115487368Y-74644745D01*
X115473341Y-74604660D01*
X115471808Y-74599335D01*
X115462361Y-74557943D01*
X115462360Y-74557942D01*
X115462360Y-74557939D01*
X115443936Y-74519680D01*
X115441810Y-74514548D01*
X115427789Y-74474478D01*
X115425892Y-74471458D01*
X115405202Y-74438529D01*
X115402515Y-74433668D01*
X115384094Y-74395418D01*
X115384094Y-74395417D01*
X115357616Y-74362214D01*
X115354408Y-74357692D01*
X115331816Y-74321738D01*
X115331814Y-74321736D01*
X115204262Y-74194183D01*
X115204262Y-74194184D01*
X112892077Y-71881999D01*
X115238773Y-71881999D01*
X115257656Y-72146020D01*
X115257656Y-72146023D01*
X115257657Y-72146026D01*
X115285023Y-72271824D01*
X115313924Y-72404682D01*
X115406426Y-72652690D01*
X115406427Y-72652692D01*
X115533284Y-72885011D01*
X115533283Y-72885011D01*
X115691908Y-73096909D01*
X115691910Y-73096911D01*
X115691913Y-73096915D01*
X115879085Y-73284087D01*
X115879088Y-73284089D01*
X115879090Y-73284091D01*
X116090988Y-73442716D01*
X116323307Y-73569572D01*
X116323311Y-73569574D01*
X116571317Y-73662075D01*
X116571322Y-73662077D01*
X116829974Y-73718343D01*
X117094000Y-73737227D01*
X117358026Y-73718343D01*
X117616678Y-73662077D01*
X117864689Y-73569574D01*
X118097011Y-73442716D01*
X118308915Y-73284087D01*
X118496087Y-73096915D01*
X118654716Y-72885011D01*
X118781574Y-72652689D01*
X118874077Y-72404678D01*
X118930343Y-72146026D01*
X118949227Y-71882000D01*
X118949227Y-71881999D01*
X125398773Y-71881999D01*
X125417656Y-72146020D01*
X125417656Y-72146023D01*
X125417657Y-72146026D01*
X125445023Y-72271824D01*
X125473924Y-72404682D01*
X125566426Y-72652690D01*
X125566427Y-72652692D01*
X125693284Y-72885011D01*
X125693283Y-72885011D01*
X125851908Y-73096909D01*
X125851910Y-73096911D01*
X125851913Y-73096915D01*
X126039085Y-73284087D01*
X126039088Y-73284089D01*
X126039090Y-73284091D01*
X126250988Y-73442716D01*
X126483307Y-73569572D01*
X126483311Y-73569574D01*
X126731317Y-73662075D01*
X126731322Y-73662077D01*
X126989974Y-73718343D01*
X127254000Y-73737227D01*
X127518026Y-73718343D01*
X127776678Y-73662077D01*
X128024689Y-73569574D01*
X128257011Y-73442716D01*
X128468915Y-73284087D01*
X128656087Y-73096915D01*
X128814716Y-72885011D01*
X128941574Y-72652689D01*
X129034077Y-72404678D01*
X129090343Y-72146026D01*
X129109227Y-71882000D01*
X129090343Y-71617974D01*
X129034077Y-71359322D01*
X128941574Y-71111311D01*
X128814716Y-70878989D01*
X128814715Y-70878988D01*
X128814716Y-70878988D01*
X128656091Y-70667090D01*
X128656089Y-70667088D01*
X128656087Y-70667085D01*
X128468915Y-70479913D01*
X128468911Y-70479910D01*
X128468909Y-70479908D01*
X128257011Y-70321283D01*
X128024692Y-70194427D01*
X128024690Y-70194426D01*
X127776681Y-70101924D01*
X127776683Y-70101924D01*
X127678873Y-70080647D01*
X127518026Y-70045657D01*
X127518023Y-70045656D01*
X127518020Y-70045656D01*
X127254000Y-70026773D01*
X126989979Y-70045656D01*
X126731317Y-70101924D01*
X126483309Y-70194426D01*
X126483307Y-70194427D01*
X126250988Y-70321283D01*
X126039090Y-70479908D01*
X125851908Y-70667090D01*
X125693283Y-70878988D01*
X125566427Y-71111307D01*
X125566426Y-71111309D01*
X125473924Y-71359317D01*
X125473922Y-71359322D01*
X125473923Y-71359322D01*
X125425082Y-71583844D01*
X125417656Y-71617979D01*
X125398773Y-71881999D01*
X118949227Y-71881999D01*
X118930343Y-71617974D01*
X118874077Y-71359322D01*
X118781574Y-71111311D01*
X118654716Y-70878989D01*
X118654715Y-70878988D01*
X118654716Y-70878988D01*
X118496091Y-70667090D01*
X118496089Y-70667088D01*
X118496087Y-70667085D01*
X118308915Y-70479913D01*
X118308911Y-70479910D01*
X118308909Y-70479908D01*
X118097011Y-70321283D01*
X117864692Y-70194427D01*
X117864690Y-70194426D01*
X117616681Y-70101924D01*
X117616683Y-70101924D01*
X117518873Y-70080647D01*
X117358026Y-70045657D01*
X117358023Y-70045656D01*
X117358020Y-70045656D01*
X117123395Y-70028875D01*
X117094000Y-70026773D01*
X117093999Y-70026773D01*
X116829979Y-70045656D01*
X116571317Y-70101924D01*
X116323309Y-70194426D01*
X116323307Y-70194427D01*
X116090988Y-70321283D01*
X115879090Y-70479908D01*
X115691908Y-70667090D01*
X115533283Y-70878988D01*
X115406427Y-71111307D01*
X115406426Y-71111309D01*
X115313924Y-71359317D01*
X115313922Y-71359322D01*
X115313923Y-71359322D01*
X115265082Y-71583844D01*
X115257656Y-71617979D01*
X115238773Y-71881999D01*
X112892077Y-71881999D01*
X112435089Y-71425011D01*
X112407312Y-71370494D01*
X112406515Y-71364141D01*
X112387756Y-71161690D01*
X112329405Y-70956611D01*
X112234366Y-70765745D01*
X112105872Y-70595593D01*
X111978978Y-70479913D01*
X111948307Y-70451952D01*
X111948300Y-70451946D01*
X111767024Y-70339705D01*
X111767019Y-70339702D01*
X111617842Y-70281911D01*
X111568198Y-70262679D01*
X111568197Y-70262678D01*
X111568195Y-70262678D01*
X111358610Y-70223500D01*
X111145390Y-70223500D01*
X110935804Y-70262678D01*
X110736980Y-70339702D01*
X110736975Y-70339705D01*
X110555699Y-70451946D01*
X110555692Y-70451952D01*
X110398135Y-70595586D01*
X110398131Y-70595589D01*
X110398128Y-70595593D01*
X110398124Y-70595597D01*
X110398125Y-70595597D01*
X110269635Y-70765743D01*
X110269630Y-70765752D01*
X110249621Y-70805936D01*
X110206758Y-70849599D01*
X110146417Y-70859728D01*
X110091646Y-70832455D01*
X110063366Y-70778197D01*
X110062000Y-70761808D01*
X110062000Y-70476175D01*
X110055598Y-70416629D01*
X110055596Y-70416618D01*
X110005353Y-70281911D01*
X110005352Y-70281909D01*
X109919192Y-70166815D01*
X109919184Y-70166807D01*
X109804090Y-70080647D01*
X109804088Y-70080646D01*
X109669381Y-70030403D01*
X109669370Y-70030401D01*
X109609824Y-70024000D01*
X108962000Y-70024000D01*
X108962000Y-70938498D01*
X108854315Y-70889320D01*
X108747763Y-70874000D01*
X108676237Y-70874000D01*
X108569685Y-70889320D01*
X108462000Y-70938498D01*
X108462000Y-70024000D01*
X107814176Y-70024000D01*
X107754629Y-70030401D01*
X107754618Y-70030403D01*
X107619911Y-70080646D01*
X107619909Y-70080647D01*
X107504815Y-70166807D01*
X107504807Y-70166815D01*
X107418647Y-70281909D01*
X107418646Y-70281911D01*
X107368403Y-70416618D01*
X107368401Y-70416629D01*
X107362000Y-70476175D01*
X107362000Y-71123999D01*
X107362001Y-71124000D01*
X108278314Y-71124000D01*
X108252507Y-71164156D01*
X108212000Y-71302111D01*
X108212000Y-71445889D01*
X108252507Y-71583844D01*
X108278314Y-71624000D01*
X107362000Y-71624000D01*
X107362000Y-72271824D01*
X107361999Y-72271824D01*
X105050500Y-72271824D01*
X105050500Y-69175500D01*
X105069407Y-69117309D01*
X105118907Y-69081345D01*
X105149500Y-69076500D01*
X140300500Y-69076500D01*
X140358691Y-69095407D01*
G37*
G04 #@! TD.AperFunction*
M02*
