M48
; DRILL file {KiCad 7.0.5} date Mon Jul 10 18:37:52 2023
; FORMAT={-:-/ absolute / metric / decimal}
; #@! TF.CreationDate,2023-07-10T18:37:52-07:00
; #@! TF.GenerationSoftware,Kicad,Pcbnew,7.0.5
; #@! TF.FileFunction,Plated,1,2,PTH
FMAT,2
METRIC
; #@! TA.AperFunction,Plated,PTH,ViaDrill
T1C0.300
; #@! TA.AperFunction,Plated,PTH,ViaDrill
T2C0.400
; #@! TA.AperFunction,Plated,PTH,ViaDrill
T3C0.500
; #@! TA.AperFunction,Plated,PTH,ViaDrill
T4C1.000
; #@! TA.AperFunction,Plated,PTH,ComponentDrill
T5C1.000
; #@! TA.AperFunction,Plated,PTH,ComponentDrill
T6C1.150
; #@! TA.AperFunction,Plated,PTH,ComponentDrill
T7C2.100
%
G90
G05
T1
X123.975Y-112.75
T2
X119.126Y-101.6
T3
X109.871Y-86.871
X119.2Y-99.825
X120.7Y-107.925
X122.587Y-104.512
X122.62Y-101.85
T4
X118.6Y-92.4
X126.425Y-92.35
T5
X108.712Y-71.374
X111.252Y-71.374
X111.506Y-101.854
X118.912Y-121.7
X119.634Y-76.962
X121.452Y-121.7
X122.174Y-76.962
X123.992Y-121.7
X126.532Y-121.7
X133.1Y-107.3
T6
X114.702Y-80.62
X114.702Y-83.159
X114.702Y-85.7
X114.702Y-88.239
X114.702Y-90.779
X114.702Y-93.319
X114.702Y-95.859
X114.702Y-98.399
X114.702Y-100.939
X114.702Y-103.48
X114.702Y-106.019
X114.702Y-108.559
X114.702Y-111.099
X114.702Y-113.639
X114.702Y-116.179
X129.942Y-80.62
X129.942Y-83.159
X129.942Y-85.7
X129.942Y-88.239
X129.942Y-90.779
X129.942Y-93.319
X129.942Y-95.859
X129.942Y-98.399
X129.942Y-100.939
X129.942Y-103.48
X129.942Y-106.019
X129.942Y-108.559
X129.942Y-111.099
X129.942Y-113.639
X129.942Y-116.179
T7
X117.094Y-71.882
X127.254Y-71.882
T0
M30
