G04 #@! TF.GenerationSoftware,KiCad,Pcbnew,7.0.5*
G04 #@! TF.CreationDate,2023-07-10T18:36:48-07:00*
G04 #@! TF.ProjectId,Breakout,42726561-6b6f-4757-942e-6b696361645f,rev?*
G04 #@! TF.SameCoordinates,Original*
G04 #@! TF.FileFunction,Paste,Top*
G04 #@! TF.FilePolarity,Positive*
%FSLAX46Y46*%
G04 Gerber Fmt 4.6, Leading zero omitted, Abs format (unit mm)*
G04 Created by KiCad (PCBNEW 7.0.5) date 2023-07-10 18:36:48*
%MOMM*%
%LPD*%
G01*
G04 APERTURE LIST*
G04 Aperture macros list*
%AMRoundRect*
0 Rectangle with rounded corners*
0 $1 Rounding radius*
0 $2 $3 $4 $5 $6 $7 $8 $9 X,Y pos of 4 corners*
0 Add a 4 corners polygon primitive as box body*
4,1,4,$2,$3,$4,$5,$6,$7,$8,$9,$2,$3,0*
0 Add four circle primitives for the rounded corners*
1,1,$1+$1,$2,$3*
1,1,$1+$1,$4,$5*
1,1,$1+$1,$6,$7*
1,1,$1+$1,$8,$9*
0 Add four rect primitives between the rounded corners*
20,1,$1+$1,$2,$3,$4,$5,0*
20,1,$1+$1,$4,$5,$6,$7,0*
20,1,$1+$1,$6,$7,$8,$9,0*
20,1,$1+$1,$8,$9,$2,$3,0*%
G04 Aperture macros list end*
%ADD10RoundRect,0.048800X0.256200X-0.871200X0.256200X0.871200X-0.256200X0.871200X-0.256200X-0.871200X0*%
%ADD11R,0.758800X0.350799*%
%ADD12R,0.920000X0.980000*%
%ADD13R,2.667000X1.955800*%
%ADD14R,1.106399X0.466400*%
%ADD15R,1.400000X2.100000*%
%ADD16R,0.980000X0.920000*%
%ADD17R,0.972299X0.558000*%
%ADD18RoundRect,0.020500X-0.184500X0.764500X-0.184500X-0.764500X0.184500X-0.764500X0.184500X0.764500X0*%
%ADD19R,1.092200X2.108200*%
G04 APERTURE END LIST*
D10*
X122620000Y-100060000D03*
X123890000Y-100060000D03*
X125160000Y-100060000D03*
X126430000Y-100060000D03*
X126430000Y-94990000D03*
X125160000Y-94990000D03*
X123890000Y-94990000D03*
X122620000Y-94990000D03*
D11*
X107020600Y-87884000D03*
X107979400Y-87884000D03*
D12*
X119875000Y-106300000D03*
X118325000Y-106300000D03*
D13*
X123300000Y-91781300D03*
X123300000Y-86218700D03*
D14*
X119890600Y-104449999D03*
X119890600Y-103150001D03*
X117909400Y-103800000D03*
D15*
X111500000Y-84550000D03*
X111500000Y-75450000D03*
X107000000Y-75450000D03*
X107000000Y-84550000D03*
D16*
X122225000Y-107600000D03*
X122225000Y-106050000D03*
D17*
X120712451Y-96475001D03*
X120712451Y-95525000D03*
X120712451Y-94574999D03*
X117987549Y-94574999D03*
X117987549Y-95525000D03*
X117987549Y-96475001D03*
D12*
X119575000Y-98425000D03*
X118025000Y-98425000D03*
D15*
X134050000Y-75450000D03*
X134050000Y-84550000D03*
X138550000Y-84550000D03*
X138550000Y-75450000D03*
D18*
X127850000Y-105030000D03*
X127200000Y-105030000D03*
X126550000Y-105030000D03*
X125900000Y-105030000D03*
X125250000Y-105030000D03*
X124600000Y-105030000D03*
X123950000Y-105030000D03*
X123950000Y-110770000D03*
X124600000Y-110770000D03*
X125250000Y-110770000D03*
X125900000Y-110770000D03*
X126550000Y-110770000D03*
X127200000Y-110770000D03*
X127850000Y-110770000D03*
D19*
X126300000Y-115047400D03*
X126300000Y-118552600D03*
D11*
X138581000Y-87630000D03*
X137622200Y-87630000D03*
M02*
