%TF.GenerationSoftware,KiCad,Pcbnew,7.0.5*%
%TF.CreationDate,2023-07-10T18:38:20-07:00*%
%TF.ProjectId,Breakout,42726561-6b6f-4757-942e-6b696361645f,rev?*%
%TF.SameCoordinates,Original*%
%TF.FileFunction,Drillmap*%
%TF.FilePolarity,Positive*%
%FSLAX45Y45*%
G04 Gerber Fmt 4.5, Leading zero omitted, Abs format (unit mm)*
G04 Created by KiCad (PCBNEW 7.0.5) date 2023-07-10 18:38:20*
%MOMM*%
%LPD*%
G01*
G04 APERTURE LIST*
%ADD10C,0.100000*%
%ADD11C,0.200000*%
%ADD12C,0.270000*%
G04 APERTURE END LIST*
D10*
X10485000Y-6887600D02*
X14060000Y-6887600D01*
X14060000Y-12844000D01*
X10485000Y-12844000D01*
X10485000Y-6887600D01*
D11*
D12*
X10689400Y-9088600D02*
X10959400Y-9358600D01*
X10959400Y-9088600D02*
X10689400Y-9358600D01*
X10689400Y-12035000D02*
X10959400Y-12305000D01*
X10959400Y-12035000D02*
X10689400Y-12305000D01*
X13585000Y-9088600D02*
X13855000Y-9358600D01*
X13855000Y-9088600D02*
X13585000Y-9358600D01*
X13585000Y-12035000D02*
X13855000Y-12305000D01*
X13855000Y-12035000D02*
X13585000Y-12305000D01*
D11*
X10740777Y-13160484D02*
X10740777Y-12960484D01*
X10740777Y-12960484D02*
X10788396Y-12960484D01*
X10788396Y-12960484D02*
X10816967Y-12970008D01*
X10816967Y-12970008D02*
X10836015Y-12989055D01*
X10836015Y-12989055D02*
X10845539Y-13008103D01*
X10845539Y-13008103D02*
X10855063Y-13046198D01*
X10855063Y-13046198D02*
X10855063Y-13074769D01*
X10855063Y-13074769D02*
X10845539Y-13112865D01*
X10845539Y-13112865D02*
X10836015Y-13131912D01*
X10836015Y-13131912D02*
X10816967Y-13150960D01*
X10816967Y-13150960D02*
X10788396Y-13160484D01*
X10788396Y-13160484D02*
X10740777Y-13160484D01*
X10940777Y-13160484D02*
X10940777Y-13027150D01*
X10940777Y-13065246D02*
X10950301Y-13046198D01*
X10950301Y-13046198D02*
X10959824Y-13036674D01*
X10959824Y-13036674D02*
X10978872Y-13027150D01*
X10978872Y-13027150D02*
X10997920Y-13027150D01*
X11064586Y-13160484D02*
X11064586Y-13027150D01*
X11064586Y-12960484D02*
X11055063Y-12970008D01*
X11055063Y-12970008D02*
X11064586Y-12979531D01*
X11064586Y-12979531D02*
X11074110Y-12970008D01*
X11074110Y-12970008D02*
X11064586Y-12960484D01*
X11064586Y-12960484D02*
X11064586Y-12979531D01*
X11188396Y-13160484D02*
X11169348Y-13150960D01*
X11169348Y-13150960D02*
X11159824Y-13131912D01*
X11159824Y-13131912D02*
X11159824Y-12960484D01*
X11293158Y-13160484D02*
X11274110Y-13150960D01*
X11274110Y-13150960D02*
X11264586Y-13131912D01*
X11264586Y-13131912D02*
X11264586Y-12960484D01*
X11521729Y-13160484D02*
X11521729Y-12960484D01*
X11521729Y-12960484D02*
X11588396Y-13103341D01*
X11588396Y-13103341D02*
X11655062Y-12960484D01*
X11655062Y-12960484D02*
X11655062Y-13160484D01*
X11836015Y-13160484D02*
X11836015Y-13055722D01*
X11836015Y-13055722D02*
X11826491Y-13036674D01*
X11826491Y-13036674D02*
X11807443Y-13027150D01*
X11807443Y-13027150D02*
X11769348Y-13027150D01*
X11769348Y-13027150D02*
X11750301Y-13036674D01*
X11836015Y-13150960D02*
X11816967Y-13160484D01*
X11816967Y-13160484D02*
X11769348Y-13160484D01*
X11769348Y-13160484D02*
X11750301Y-13150960D01*
X11750301Y-13150960D02*
X11740777Y-13131912D01*
X11740777Y-13131912D02*
X11740777Y-13112865D01*
X11740777Y-13112865D02*
X11750301Y-13093817D01*
X11750301Y-13093817D02*
X11769348Y-13084293D01*
X11769348Y-13084293D02*
X11816967Y-13084293D01*
X11816967Y-13084293D02*
X11836015Y-13074769D01*
X11931253Y-13027150D02*
X11931253Y-13227150D01*
X11931253Y-13036674D02*
X11950301Y-13027150D01*
X11950301Y-13027150D02*
X11988396Y-13027150D01*
X11988396Y-13027150D02*
X12007443Y-13036674D01*
X12007443Y-13036674D02*
X12016967Y-13046198D01*
X12016967Y-13046198D02*
X12026491Y-13065246D01*
X12026491Y-13065246D02*
X12026491Y-13122388D01*
X12026491Y-13122388D02*
X12016967Y-13141436D01*
X12016967Y-13141436D02*
X12007443Y-13150960D01*
X12007443Y-13150960D02*
X11988396Y-13160484D01*
X11988396Y-13160484D02*
X11950301Y-13160484D01*
X11950301Y-13160484D02*
X11931253Y-13150960D01*
X12112205Y-13141436D02*
X12121729Y-13150960D01*
X12121729Y-13150960D02*
X12112205Y-13160484D01*
X12112205Y-13160484D02*
X12102682Y-13150960D01*
X12102682Y-13150960D02*
X12112205Y-13141436D01*
X12112205Y-13141436D02*
X12112205Y-13160484D01*
X12112205Y-13036674D02*
X12121729Y-13046198D01*
X12121729Y-13046198D02*
X12112205Y-13055722D01*
X12112205Y-13055722D02*
X12102682Y-13046198D01*
X12102682Y-13046198D02*
X12112205Y-13036674D01*
X12112205Y-13036674D02*
X12112205Y-13055722D01*
X10280000Y-13389000D02*
X10480000Y-13589000D01*
X10480000Y-13389000D02*
X10280000Y-13589000D01*
X10731253Y-13399531D02*
X10740777Y-13390008D01*
X10740777Y-13390008D02*
X10759824Y-13380484D01*
X10759824Y-13380484D02*
X10807444Y-13380484D01*
X10807444Y-13380484D02*
X10826491Y-13390008D01*
X10826491Y-13390008D02*
X10836015Y-13399531D01*
X10836015Y-13399531D02*
X10845539Y-13418579D01*
X10845539Y-13418579D02*
X10845539Y-13437627D01*
X10845539Y-13437627D02*
X10836015Y-13466198D01*
X10836015Y-13466198D02*
X10721729Y-13580484D01*
X10721729Y-13580484D02*
X10845539Y-13580484D01*
X10931253Y-13561436D02*
X10940777Y-13570960D01*
X10940777Y-13570960D02*
X10931253Y-13580484D01*
X10931253Y-13580484D02*
X10921729Y-13570960D01*
X10921729Y-13570960D02*
X10931253Y-13561436D01*
X10931253Y-13561436D02*
X10931253Y-13580484D01*
X11007444Y-13380484D02*
X11140777Y-13380484D01*
X11140777Y-13380484D02*
X11055063Y-13580484D01*
X11255062Y-13380484D02*
X11274110Y-13380484D01*
X11274110Y-13380484D02*
X11293158Y-13390008D01*
X11293158Y-13390008D02*
X11302682Y-13399531D01*
X11302682Y-13399531D02*
X11312205Y-13418579D01*
X11312205Y-13418579D02*
X11321729Y-13456674D01*
X11321729Y-13456674D02*
X11321729Y-13504293D01*
X11321729Y-13504293D02*
X11312205Y-13542388D01*
X11312205Y-13542388D02*
X11302682Y-13561436D01*
X11302682Y-13561436D02*
X11293158Y-13570960D01*
X11293158Y-13570960D02*
X11274110Y-13580484D01*
X11274110Y-13580484D02*
X11255062Y-13580484D01*
X11255062Y-13580484D02*
X11236015Y-13570960D01*
X11236015Y-13570960D02*
X11226491Y-13561436D01*
X11226491Y-13561436D02*
X11216967Y-13542388D01*
X11216967Y-13542388D02*
X11207443Y-13504293D01*
X11207443Y-13504293D02*
X11207443Y-13456674D01*
X11207443Y-13456674D02*
X11216967Y-13418579D01*
X11216967Y-13418579D02*
X11226491Y-13399531D01*
X11226491Y-13399531D02*
X11236015Y-13390008D01*
X11236015Y-13390008D02*
X11255062Y-13380484D01*
X11445539Y-13380484D02*
X11464586Y-13380484D01*
X11464586Y-13380484D02*
X11483634Y-13390008D01*
X11483634Y-13390008D02*
X11493158Y-13399531D01*
X11493158Y-13399531D02*
X11502682Y-13418579D01*
X11502682Y-13418579D02*
X11512205Y-13456674D01*
X11512205Y-13456674D02*
X11512205Y-13504293D01*
X11512205Y-13504293D02*
X11502682Y-13542388D01*
X11502682Y-13542388D02*
X11493158Y-13561436D01*
X11493158Y-13561436D02*
X11483634Y-13570960D01*
X11483634Y-13570960D02*
X11464586Y-13580484D01*
X11464586Y-13580484D02*
X11445539Y-13580484D01*
X11445539Y-13580484D02*
X11426491Y-13570960D01*
X11426491Y-13570960D02*
X11416967Y-13561436D01*
X11416967Y-13561436D02*
X11407443Y-13542388D01*
X11407443Y-13542388D02*
X11397920Y-13504293D01*
X11397920Y-13504293D02*
X11397920Y-13456674D01*
X11397920Y-13456674D02*
X11407443Y-13418579D01*
X11407443Y-13418579D02*
X11416967Y-13399531D01*
X11416967Y-13399531D02*
X11426491Y-13390008D01*
X11426491Y-13390008D02*
X11445539Y-13380484D01*
X11597920Y-13580484D02*
X11597920Y-13447150D01*
X11597920Y-13466198D02*
X11607443Y-13456674D01*
X11607443Y-13456674D02*
X11626491Y-13447150D01*
X11626491Y-13447150D02*
X11655063Y-13447150D01*
X11655063Y-13447150D02*
X11674110Y-13456674D01*
X11674110Y-13456674D02*
X11683634Y-13475722D01*
X11683634Y-13475722D02*
X11683634Y-13580484D01*
X11683634Y-13475722D02*
X11693158Y-13456674D01*
X11693158Y-13456674D02*
X11712205Y-13447150D01*
X11712205Y-13447150D02*
X11740777Y-13447150D01*
X11740777Y-13447150D02*
X11759824Y-13456674D01*
X11759824Y-13456674D02*
X11769348Y-13475722D01*
X11769348Y-13475722D02*
X11769348Y-13580484D01*
X11864586Y-13580484D02*
X11864586Y-13447150D01*
X11864586Y-13466198D02*
X11874110Y-13456674D01*
X11874110Y-13456674D02*
X11893158Y-13447150D01*
X11893158Y-13447150D02*
X11921729Y-13447150D01*
X11921729Y-13447150D02*
X11940777Y-13456674D01*
X11940777Y-13456674D02*
X11950301Y-13475722D01*
X11950301Y-13475722D02*
X11950301Y-13580484D01*
X11950301Y-13475722D02*
X11959824Y-13456674D01*
X11959824Y-13456674D02*
X11978872Y-13447150D01*
X11978872Y-13447150D02*
X12007443Y-13447150D01*
X12007443Y-13447150D02*
X12026491Y-13456674D01*
X12026491Y-13456674D02*
X12036015Y-13475722D01*
X12036015Y-13475722D02*
X12036015Y-13580484D01*
X12426491Y-13370960D02*
X12255063Y-13628103D01*
X12683634Y-13380484D02*
X12702682Y-13380484D01*
X12702682Y-13380484D02*
X12721729Y-13390008D01*
X12721729Y-13390008D02*
X12731253Y-13399531D01*
X12731253Y-13399531D02*
X12740777Y-13418579D01*
X12740777Y-13418579D02*
X12750301Y-13456674D01*
X12750301Y-13456674D02*
X12750301Y-13504293D01*
X12750301Y-13504293D02*
X12740777Y-13542388D01*
X12740777Y-13542388D02*
X12731253Y-13561436D01*
X12731253Y-13561436D02*
X12721729Y-13570960D01*
X12721729Y-13570960D02*
X12702682Y-13580484D01*
X12702682Y-13580484D02*
X12683634Y-13580484D01*
X12683634Y-13580484D02*
X12664586Y-13570960D01*
X12664586Y-13570960D02*
X12655063Y-13561436D01*
X12655063Y-13561436D02*
X12645539Y-13542388D01*
X12645539Y-13542388D02*
X12636015Y-13504293D01*
X12636015Y-13504293D02*
X12636015Y-13456674D01*
X12636015Y-13456674D02*
X12645539Y-13418579D01*
X12645539Y-13418579D02*
X12655063Y-13399531D01*
X12655063Y-13399531D02*
X12664586Y-13390008D01*
X12664586Y-13390008D02*
X12683634Y-13380484D01*
X12836015Y-13561436D02*
X12845539Y-13570960D01*
X12845539Y-13570960D02*
X12836015Y-13580484D01*
X12836015Y-13580484D02*
X12826491Y-13570960D01*
X12826491Y-13570960D02*
X12836015Y-13561436D01*
X12836015Y-13561436D02*
X12836015Y-13580484D01*
X13036015Y-13580484D02*
X12921729Y-13580484D01*
X12978872Y-13580484D02*
X12978872Y-13380484D01*
X12978872Y-13380484D02*
X12959825Y-13409055D01*
X12959825Y-13409055D02*
X12940777Y-13428103D01*
X12940777Y-13428103D02*
X12921729Y-13437627D01*
X13159825Y-13380484D02*
X13178872Y-13380484D01*
X13178872Y-13380484D02*
X13197920Y-13390008D01*
X13197920Y-13390008D02*
X13207444Y-13399531D01*
X13207444Y-13399531D02*
X13216967Y-13418579D01*
X13216967Y-13418579D02*
X13226491Y-13456674D01*
X13226491Y-13456674D02*
X13226491Y-13504293D01*
X13226491Y-13504293D02*
X13216967Y-13542388D01*
X13216967Y-13542388D02*
X13207444Y-13561436D01*
X13207444Y-13561436D02*
X13197920Y-13570960D01*
X13197920Y-13570960D02*
X13178872Y-13580484D01*
X13178872Y-13580484D02*
X13159825Y-13580484D01*
X13159825Y-13580484D02*
X13140777Y-13570960D01*
X13140777Y-13570960D02*
X13131253Y-13561436D01*
X13131253Y-13561436D02*
X13121729Y-13542388D01*
X13121729Y-13542388D02*
X13112206Y-13504293D01*
X13112206Y-13504293D02*
X13112206Y-13456674D01*
X13112206Y-13456674D02*
X13121729Y-13418579D01*
X13121729Y-13418579D02*
X13131253Y-13399531D01*
X13131253Y-13399531D02*
X13140777Y-13390008D01*
X13140777Y-13390008D02*
X13159825Y-13380484D01*
X13397920Y-13380484D02*
X13359825Y-13380484D01*
X13359825Y-13380484D02*
X13340777Y-13390008D01*
X13340777Y-13390008D02*
X13331253Y-13399531D01*
X13331253Y-13399531D02*
X13312206Y-13428103D01*
X13312206Y-13428103D02*
X13302682Y-13466198D01*
X13302682Y-13466198D02*
X13302682Y-13542388D01*
X13302682Y-13542388D02*
X13312206Y-13561436D01*
X13312206Y-13561436D02*
X13321729Y-13570960D01*
X13321729Y-13570960D02*
X13340777Y-13580484D01*
X13340777Y-13580484D02*
X13378872Y-13580484D01*
X13378872Y-13580484D02*
X13397920Y-13570960D01*
X13397920Y-13570960D02*
X13407444Y-13561436D01*
X13407444Y-13561436D02*
X13416967Y-13542388D01*
X13416967Y-13542388D02*
X13416967Y-13494769D01*
X13416967Y-13494769D02*
X13407444Y-13475722D01*
X13407444Y-13475722D02*
X13397920Y-13466198D01*
X13397920Y-13466198D02*
X13378872Y-13456674D01*
X13378872Y-13456674D02*
X13340777Y-13456674D01*
X13340777Y-13456674D02*
X13321729Y-13466198D01*
X13321729Y-13466198D02*
X13312206Y-13475722D01*
X13312206Y-13475722D02*
X13302682Y-13494769D01*
X13483634Y-13380484D02*
X13607444Y-13380484D01*
X13607444Y-13380484D02*
X13540777Y-13456674D01*
X13540777Y-13456674D02*
X13569348Y-13456674D01*
X13569348Y-13456674D02*
X13588396Y-13466198D01*
X13588396Y-13466198D02*
X13597920Y-13475722D01*
X13597920Y-13475722D02*
X13607444Y-13494769D01*
X13607444Y-13494769D02*
X13607444Y-13542388D01*
X13607444Y-13542388D02*
X13597920Y-13561436D01*
X13597920Y-13561436D02*
X13588396Y-13570960D01*
X13588396Y-13570960D02*
X13569348Y-13580484D01*
X13569348Y-13580484D02*
X13512206Y-13580484D01*
X13512206Y-13580484D02*
X13493158Y-13570960D01*
X13493158Y-13570960D02*
X13483634Y-13561436D01*
X13683634Y-13380484D02*
X13683634Y-13418579D01*
X13759825Y-13380484D02*
X13759825Y-13418579D01*
X14055063Y-13656674D02*
X14045539Y-13647150D01*
X14045539Y-13647150D02*
X14026491Y-13618579D01*
X14026491Y-13618579D02*
X14016968Y-13599531D01*
X14016968Y-13599531D02*
X14007444Y-13570960D01*
X14007444Y-13570960D02*
X13997920Y-13523341D01*
X13997920Y-13523341D02*
X13997920Y-13485246D01*
X13997920Y-13485246D02*
X14007444Y-13437627D01*
X14007444Y-13437627D02*
X14016968Y-13409055D01*
X14016968Y-13409055D02*
X14026491Y-13390008D01*
X14026491Y-13390008D02*
X14045539Y-13361436D01*
X14045539Y-13361436D02*
X14055063Y-13351912D01*
X14216968Y-13447150D02*
X14216968Y-13580484D01*
X14169348Y-13370960D02*
X14121729Y-13513817D01*
X14121729Y-13513817D02*
X14245539Y-13513817D01*
X14474110Y-13580484D02*
X14474110Y-13380484D01*
X14559825Y-13580484D02*
X14559825Y-13475722D01*
X14559825Y-13475722D02*
X14550301Y-13456674D01*
X14550301Y-13456674D02*
X14531253Y-13447150D01*
X14531253Y-13447150D02*
X14502682Y-13447150D01*
X14502682Y-13447150D02*
X14483634Y-13456674D01*
X14483634Y-13456674D02*
X14474110Y-13466198D01*
X14683634Y-13580484D02*
X14664587Y-13570960D01*
X14664587Y-13570960D02*
X14655063Y-13561436D01*
X14655063Y-13561436D02*
X14645539Y-13542388D01*
X14645539Y-13542388D02*
X14645539Y-13485246D01*
X14645539Y-13485246D02*
X14655063Y-13466198D01*
X14655063Y-13466198D02*
X14664587Y-13456674D01*
X14664587Y-13456674D02*
X14683634Y-13447150D01*
X14683634Y-13447150D02*
X14712206Y-13447150D01*
X14712206Y-13447150D02*
X14731253Y-13456674D01*
X14731253Y-13456674D02*
X14740777Y-13466198D01*
X14740777Y-13466198D02*
X14750301Y-13485246D01*
X14750301Y-13485246D02*
X14750301Y-13542388D01*
X14750301Y-13542388D02*
X14740777Y-13561436D01*
X14740777Y-13561436D02*
X14731253Y-13570960D01*
X14731253Y-13570960D02*
X14712206Y-13580484D01*
X14712206Y-13580484D02*
X14683634Y-13580484D01*
X14864587Y-13580484D02*
X14845539Y-13570960D01*
X14845539Y-13570960D02*
X14836015Y-13551912D01*
X14836015Y-13551912D02*
X14836015Y-13380484D01*
X15016968Y-13570960D02*
X14997920Y-13580484D01*
X14997920Y-13580484D02*
X14959825Y-13580484D01*
X14959825Y-13580484D02*
X14940777Y-13570960D01*
X14940777Y-13570960D02*
X14931253Y-13551912D01*
X14931253Y-13551912D02*
X14931253Y-13475722D01*
X14931253Y-13475722D02*
X14940777Y-13456674D01*
X14940777Y-13456674D02*
X14959825Y-13447150D01*
X14959825Y-13447150D02*
X14997920Y-13447150D01*
X14997920Y-13447150D02*
X15016968Y-13456674D01*
X15016968Y-13456674D02*
X15026491Y-13475722D01*
X15026491Y-13475722D02*
X15026491Y-13494769D01*
X15026491Y-13494769D02*
X14931253Y-13513817D01*
X15102682Y-13570960D02*
X15121730Y-13580484D01*
X15121730Y-13580484D02*
X15159825Y-13580484D01*
X15159825Y-13580484D02*
X15178872Y-13570960D01*
X15178872Y-13570960D02*
X15188396Y-13551912D01*
X15188396Y-13551912D02*
X15188396Y-13542388D01*
X15188396Y-13542388D02*
X15178872Y-13523341D01*
X15178872Y-13523341D02*
X15159825Y-13513817D01*
X15159825Y-13513817D02*
X15131253Y-13513817D01*
X15131253Y-13513817D02*
X15112206Y-13504293D01*
X15112206Y-13504293D02*
X15102682Y-13485246D01*
X15102682Y-13485246D02*
X15102682Y-13475722D01*
X15102682Y-13475722D02*
X15112206Y-13456674D01*
X15112206Y-13456674D02*
X15131253Y-13447150D01*
X15131253Y-13447150D02*
X15159825Y-13447150D01*
X15159825Y-13447150D02*
X15178872Y-13456674D01*
X15255063Y-13656674D02*
X15264587Y-13647150D01*
X15264587Y-13647150D02*
X15283634Y-13618579D01*
X15283634Y-13618579D02*
X15293158Y-13599531D01*
X15293158Y-13599531D02*
X15302682Y-13570960D01*
X15302682Y-13570960D02*
X15312206Y-13523341D01*
X15312206Y-13523341D02*
X15312206Y-13485246D01*
X15312206Y-13485246D02*
X15302682Y-13437627D01*
X15302682Y-13437627D02*
X15293158Y-13409055D01*
X15293158Y-13409055D02*
X15283634Y-13390008D01*
X15283634Y-13390008D02*
X15264587Y-13361436D01*
X15264587Y-13361436D02*
X15255063Y-13351912D01*
X15616968Y-13656674D02*
X15607444Y-13647150D01*
X15607444Y-13647150D02*
X15588396Y-13618579D01*
X15588396Y-13618579D02*
X15578872Y-13599531D01*
X15578872Y-13599531D02*
X15569349Y-13570960D01*
X15569349Y-13570960D02*
X15559825Y-13523341D01*
X15559825Y-13523341D02*
X15559825Y-13485246D01*
X15559825Y-13485246D02*
X15569349Y-13437627D01*
X15569349Y-13437627D02*
X15578872Y-13409055D01*
X15578872Y-13409055D02*
X15588396Y-13390008D01*
X15588396Y-13390008D02*
X15607444Y-13361436D01*
X15607444Y-13361436D02*
X15616968Y-13351912D01*
X15693158Y-13447150D02*
X15693158Y-13580484D01*
X15693158Y-13466198D02*
X15702682Y-13456674D01*
X15702682Y-13456674D02*
X15721730Y-13447150D01*
X15721730Y-13447150D02*
X15750301Y-13447150D01*
X15750301Y-13447150D02*
X15769349Y-13456674D01*
X15769349Y-13456674D02*
X15778872Y-13475722D01*
X15778872Y-13475722D02*
X15778872Y-13580484D01*
X15902682Y-13580484D02*
X15883634Y-13570960D01*
X15883634Y-13570960D02*
X15874111Y-13561436D01*
X15874111Y-13561436D02*
X15864587Y-13542388D01*
X15864587Y-13542388D02*
X15864587Y-13485246D01*
X15864587Y-13485246D02*
X15874111Y-13466198D01*
X15874111Y-13466198D02*
X15883634Y-13456674D01*
X15883634Y-13456674D02*
X15902682Y-13447150D01*
X15902682Y-13447150D02*
X15931253Y-13447150D01*
X15931253Y-13447150D02*
X15950301Y-13456674D01*
X15950301Y-13456674D02*
X15959825Y-13466198D01*
X15959825Y-13466198D02*
X15969349Y-13485246D01*
X15969349Y-13485246D02*
X15969349Y-13542388D01*
X15969349Y-13542388D02*
X15959825Y-13561436D01*
X15959825Y-13561436D02*
X15950301Y-13570960D01*
X15950301Y-13570960D02*
X15931253Y-13580484D01*
X15931253Y-13580484D02*
X15902682Y-13580484D01*
X16026492Y-13447150D02*
X16102682Y-13447150D01*
X16055063Y-13380484D02*
X16055063Y-13551912D01*
X16055063Y-13551912D02*
X16064587Y-13570960D01*
X16064587Y-13570960D02*
X16083634Y-13580484D01*
X16083634Y-13580484D02*
X16102682Y-13580484D01*
X16321730Y-13447150D02*
X16321730Y-13647150D01*
X16321730Y-13456674D02*
X16340777Y-13447150D01*
X16340777Y-13447150D02*
X16378873Y-13447150D01*
X16378873Y-13447150D02*
X16397920Y-13456674D01*
X16397920Y-13456674D02*
X16407444Y-13466198D01*
X16407444Y-13466198D02*
X16416968Y-13485246D01*
X16416968Y-13485246D02*
X16416968Y-13542388D01*
X16416968Y-13542388D02*
X16407444Y-13561436D01*
X16407444Y-13561436D02*
X16397920Y-13570960D01*
X16397920Y-13570960D02*
X16378873Y-13580484D01*
X16378873Y-13580484D02*
X16340777Y-13580484D01*
X16340777Y-13580484D02*
X16321730Y-13570960D01*
X16531253Y-13580484D02*
X16512206Y-13570960D01*
X16512206Y-13570960D02*
X16502682Y-13551912D01*
X16502682Y-13551912D02*
X16502682Y-13380484D01*
X16693158Y-13580484D02*
X16693158Y-13475722D01*
X16693158Y-13475722D02*
X16683634Y-13456674D01*
X16683634Y-13456674D02*
X16664587Y-13447150D01*
X16664587Y-13447150D02*
X16626492Y-13447150D01*
X16626492Y-13447150D02*
X16607444Y-13456674D01*
X16693158Y-13570960D02*
X16674111Y-13580484D01*
X16674111Y-13580484D02*
X16626492Y-13580484D01*
X16626492Y-13580484D02*
X16607444Y-13570960D01*
X16607444Y-13570960D02*
X16597920Y-13551912D01*
X16597920Y-13551912D02*
X16597920Y-13532865D01*
X16597920Y-13532865D02*
X16607444Y-13513817D01*
X16607444Y-13513817D02*
X16626492Y-13504293D01*
X16626492Y-13504293D02*
X16674111Y-13504293D01*
X16674111Y-13504293D02*
X16693158Y-13494769D01*
X16759825Y-13447150D02*
X16836015Y-13447150D01*
X16788396Y-13380484D02*
X16788396Y-13551912D01*
X16788396Y-13551912D02*
X16797920Y-13570960D01*
X16797920Y-13570960D02*
X16816968Y-13580484D01*
X16816968Y-13580484D02*
X16836015Y-13580484D01*
X16978873Y-13570960D02*
X16959825Y-13580484D01*
X16959825Y-13580484D02*
X16921730Y-13580484D01*
X16921730Y-13580484D02*
X16902682Y-13570960D01*
X16902682Y-13570960D02*
X16893158Y-13551912D01*
X16893158Y-13551912D02*
X16893158Y-13475722D01*
X16893158Y-13475722D02*
X16902682Y-13456674D01*
X16902682Y-13456674D02*
X16921730Y-13447150D01*
X16921730Y-13447150D02*
X16959825Y-13447150D01*
X16959825Y-13447150D02*
X16978873Y-13456674D01*
X16978873Y-13456674D02*
X16988396Y-13475722D01*
X16988396Y-13475722D02*
X16988396Y-13494769D01*
X16988396Y-13494769D02*
X16893158Y-13513817D01*
X17159825Y-13580484D02*
X17159825Y-13380484D01*
X17159825Y-13570960D02*
X17140777Y-13580484D01*
X17140777Y-13580484D02*
X17102682Y-13580484D01*
X17102682Y-13580484D02*
X17083635Y-13570960D01*
X17083635Y-13570960D02*
X17074111Y-13561436D01*
X17074111Y-13561436D02*
X17064587Y-13542388D01*
X17064587Y-13542388D02*
X17064587Y-13485246D01*
X17064587Y-13485246D02*
X17074111Y-13466198D01*
X17074111Y-13466198D02*
X17083635Y-13456674D01*
X17083635Y-13456674D02*
X17102682Y-13447150D01*
X17102682Y-13447150D02*
X17140777Y-13447150D01*
X17140777Y-13447150D02*
X17159825Y-13456674D01*
X17236016Y-13656674D02*
X17245539Y-13647150D01*
X17245539Y-13647150D02*
X17264587Y-13618579D01*
X17264587Y-13618579D02*
X17274111Y-13599531D01*
X17274111Y-13599531D02*
X17283635Y-13570960D01*
X17283635Y-13570960D02*
X17293158Y-13523341D01*
X17293158Y-13523341D02*
X17293158Y-13485246D01*
X17293158Y-13485246D02*
X17283635Y-13437627D01*
X17283635Y-13437627D02*
X17274111Y-13409055D01*
X17274111Y-13409055D02*
X17264587Y-13390008D01*
X17264587Y-13390008D02*
X17245539Y-13361436D01*
X17245539Y-13361436D02*
X17236016Y-13351912D01*
M02*
