G04 #@! TF.GenerationSoftware,KiCad,Pcbnew,7.0.5*
G04 #@! TF.CreationDate,2023-07-10T18:36:48-07:00*
G04 #@! TF.ProjectId,Breakout,42726561-6b6f-4757-942e-6b696361645f,rev?*
G04 #@! TF.SameCoordinates,Original*
G04 #@! TF.FileFunction,Soldermask,Bot*
G04 #@! TF.FilePolarity,Negative*
%FSLAX46Y46*%
G04 Gerber Fmt 4.6, Leading zero omitted, Abs format (unit mm)*
G04 Created by KiCad (PCBNEW 7.0.5) date 2023-07-10 18:36:48*
%MOMM*%
%LPD*%
G01*
G04 APERTURE LIST*
%ADD10C,2.700000*%
%ADD11R,1.700000X1.700000*%
%ADD12C,1.700000*%
%ADD13O,1.700000X1.700000*%
%ADD14C,3.100000*%
%ADD15R,1.725000X1.725000*%
%ADD16C,1.725000*%
%ADD17R,0.920000X0.980000*%
G04 APERTURE END LIST*
D10*
X137200000Y-121700000D03*
X137200000Y-92236000D03*
X108244000Y-121700000D03*
X108244000Y-92236000D03*
D11*
X126532000Y-121700000D03*
D12*
X123992000Y-121700000D03*
X121452000Y-121700000D03*
X118912000Y-121700000D03*
D11*
X111506000Y-101854000D03*
X133100000Y-107300000D03*
X108712000Y-71374000D03*
D13*
X111252000Y-71374000D03*
D14*
X127254000Y-71882000D03*
X117094000Y-71882000D03*
D12*
X122174000Y-76962000D03*
X119634000Y-76962000D03*
D15*
X129942000Y-80619500D03*
D16*
X129942000Y-83159500D03*
X129942000Y-85699500D03*
X129942000Y-88239500D03*
X129942000Y-90779500D03*
X129942000Y-93319500D03*
X129942000Y-95859500D03*
X129942000Y-98399500D03*
X129942000Y-100939500D03*
X129942000Y-103479500D03*
X129942000Y-106019500D03*
X129942000Y-108559500D03*
X129942000Y-111099500D03*
X129942000Y-113639500D03*
X129942000Y-116179500D03*
X114702000Y-116179500D03*
X114702000Y-113639500D03*
X114702000Y-111099500D03*
X114702000Y-108559500D03*
X114702000Y-106019500D03*
X114702000Y-103479500D03*
X114702000Y-100939500D03*
X114702000Y-98399500D03*
X114702000Y-95859500D03*
X114702000Y-93319500D03*
X114702000Y-90779500D03*
X114702000Y-88239500D03*
X114702000Y-85699500D03*
X114702000Y-83159500D03*
D15*
X114702000Y-80619500D03*
D17*
X123325000Y-103000000D03*
X121775000Y-103000000D03*
M02*
