%TF.GenerationSoftware,KiCad,Pcbnew,7.0.5*%
%TF.CreationDate,2023-07-10T18:38:20-07:00*%
%TF.ProjectId,Breakout,42726561-6b6f-4757-942e-6b696361645f,rev?*%
%TF.SameCoordinates,Original*%
%TF.FileFunction,Drillmap*%
%TF.FilePolarity,Positive*%
%FSLAX45Y45*%
G04 Gerber Fmt 4.5, Leading zero omitted, Abs format (unit mm)*
G04 Created by KiCad (PCBNEW 7.0.5) date 2023-07-10 18:38:20*
%MOMM*%
%LPD*%
G01*
G04 APERTURE LIST*
%ADD10C,0.100000*%
%ADD11C,0.200000*%
%ADD12C,0.030000*%
%ADD13C,0.040000*%
%ADD14C,0.050000*%
%ADD15C,0.115000*%
%ADD16C,0.210000*%
G04 APERTURE END LIST*
D10*
X10485000Y-6887600D02*
X14060000Y-6887600D01*
X14060000Y-12844000D01*
X10485000Y-12844000D01*
X10485000Y-6887600D01*
D11*
D12*
X12382500Y-11260000D02*
X12412500Y-11290000D01*
X12412500Y-11260000D02*
X12382500Y-11290000D01*
D13*
X11932600Y-10160000D02*
G75*
G03*
X11932600Y-10160000I-20000J0D01*
G01*
D14*
X10987100Y-8662100D02*
X10987100Y-8712100D01*
X10962100Y-8687100D02*
X11012100Y-8687100D01*
X11920000Y-9957500D02*
X11920000Y-10007500D01*
X11895000Y-9982500D02*
X11945000Y-9982500D01*
X12070000Y-10767500D02*
X12070000Y-10817500D01*
X12045000Y-10792500D02*
X12095000Y-10792500D01*
X12258750Y-10426250D02*
X12258750Y-10476250D01*
X12233750Y-10451250D02*
X12283750Y-10451250D01*
X12262000Y-10160000D02*
X12262000Y-10210000D01*
X12237000Y-10185000D02*
X12287000Y-10185000D01*
D10*
X11895356Y-9275356D02*
X11895356Y-9204644D01*
X11824644Y-9204644D01*
X11824644Y-9275356D01*
X11895356Y-9275356D01*
X12677856Y-9270356D02*
X12677856Y-9199644D01*
X12607144Y-9199644D01*
X12607144Y-9270356D01*
X12677856Y-9270356D01*
X10871200Y-7187400D02*
X10921200Y-7137400D01*
X10871200Y-7087400D01*
X10821200Y-7137400D01*
X10871200Y-7187400D01*
X11125200Y-7187400D02*
X11175200Y-7137400D01*
X11125200Y-7087400D01*
X11075200Y-7137400D01*
X11125200Y-7187400D01*
X11150600Y-10235400D02*
X11200600Y-10185400D01*
X11150600Y-10135400D01*
X11100600Y-10185400D01*
X11150600Y-10235400D01*
X11891200Y-12220000D02*
X11941200Y-12170000D01*
X11891200Y-12120000D01*
X11841200Y-12170000D01*
X11891200Y-12220000D01*
X11963400Y-7746200D02*
X12013400Y-7696200D01*
X11963400Y-7646200D01*
X11913400Y-7696200D01*
X11963400Y-7746200D01*
X12145200Y-12220000D02*
X12195200Y-12170000D01*
X12145200Y-12120000D01*
X12095200Y-12170000D01*
X12145200Y-12220000D01*
X12217400Y-7746200D02*
X12267400Y-7696200D01*
X12217400Y-7646200D01*
X12167400Y-7696200D01*
X12217400Y-7746200D01*
X12399200Y-12220000D02*
X12449200Y-12170000D01*
X12399200Y-12120000D01*
X12349200Y-12170000D01*
X12399200Y-12220000D01*
X12653200Y-12220000D02*
X12703200Y-12170000D01*
X12653200Y-12120000D01*
X12603200Y-12170000D01*
X12653200Y-12220000D01*
X13310000Y-10780000D02*
X13360000Y-10730000D01*
X13310000Y-10680000D01*
X13260000Y-10730000D01*
X13310000Y-10780000D01*
D15*
X11412700Y-8004450D02*
X11527700Y-8119450D01*
X11527700Y-8004450D02*
X11412700Y-8119450D01*
X11527700Y-8061950D02*
G75*
G03*
X11527700Y-8061950I-57500J0D01*
G01*
X11412700Y-8258450D02*
X11527700Y-8373450D01*
X11527700Y-8258450D02*
X11412700Y-8373450D01*
X11527700Y-8315950D02*
G75*
G03*
X11527700Y-8315950I-57500J0D01*
G01*
X11412700Y-8512450D02*
X11527700Y-8627450D01*
X11527700Y-8512450D02*
X11412700Y-8627450D01*
X11527700Y-8569950D02*
G75*
G03*
X11527700Y-8569950I-57500J0D01*
G01*
X11412700Y-8766450D02*
X11527700Y-8881450D01*
X11527700Y-8766450D02*
X11412700Y-8881450D01*
X11527700Y-8823950D02*
G75*
G03*
X11527700Y-8823950I-57500J0D01*
G01*
X11412700Y-9020450D02*
X11527700Y-9135450D01*
X11527700Y-9020450D02*
X11412700Y-9135450D01*
X11527700Y-9077950D02*
G75*
G03*
X11527700Y-9077950I-57500J0D01*
G01*
X11412700Y-9274450D02*
X11527700Y-9389450D01*
X11527700Y-9274450D02*
X11412700Y-9389450D01*
X11527700Y-9331950D02*
G75*
G03*
X11527700Y-9331950I-57500J0D01*
G01*
X11412700Y-9528450D02*
X11527700Y-9643450D01*
X11527700Y-9528450D02*
X11412700Y-9643450D01*
X11527700Y-9585950D02*
G75*
G03*
X11527700Y-9585950I-57500J0D01*
G01*
X11412700Y-9782450D02*
X11527700Y-9897450D01*
X11527700Y-9782450D02*
X11412700Y-9897450D01*
X11527700Y-9839950D02*
G75*
G03*
X11527700Y-9839950I-57500J0D01*
G01*
X11412700Y-10036450D02*
X11527700Y-10151450D01*
X11527700Y-10036450D02*
X11412700Y-10151450D01*
X11527700Y-10093950D02*
G75*
G03*
X11527700Y-10093950I-57500J0D01*
G01*
X11412700Y-10290450D02*
X11527700Y-10405450D01*
X11527700Y-10290450D02*
X11412700Y-10405450D01*
X11527700Y-10347950D02*
G75*
G03*
X11527700Y-10347950I-57500J0D01*
G01*
X11412700Y-10544450D02*
X11527700Y-10659450D01*
X11527700Y-10544450D02*
X11412700Y-10659450D01*
X11527700Y-10601950D02*
G75*
G03*
X11527700Y-10601950I-57500J0D01*
G01*
X11412700Y-10798450D02*
X11527700Y-10913450D01*
X11527700Y-10798450D02*
X11412700Y-10913450D01*
X11527700Y-10855950D02*
G75*
G03*
X11527700Y-10855950I-57500J0D01*
G01*
X11412700Y-11052450D02*
X11527700Y-11167450D01*
X11527700Y-11052450D02*
X11412700Y-11167450D01*
X11527700Y-11109950D02*
G75*
G03*
X11527700Y-11109950I-57500J0D01*
G01*
X11412700Y-11306450D02*
X11527700Y-11421450D01*
X11527700Y-11306450D02*
X11412700Y-11421450D01*
X11527700Y-11363950D02*
G75*
G03*
X11527700Y-11363950I-57500J0D01*
G01*
X11412700Y-11560450D02*
X11527700Y-11675450D01*
X11527700Y-11560450D02*
X11412700Y-11675450D01*
X11527700Y-11617950D02*
G75*
G03*
X11527700Y-11617950I-57500J0D01*
G01*
X12936700Y-8004450D02*
X13051700Y-8119450D01*
X13051700Y-8004450D02*
X12936700Y-8119450D01*
X13051700Y-8061950D02*
G75*
G03*
X13051700Y-8061950I-57500J0D01*
G01*
X12936700Y-8258450D02*
X13051700Y-8373450D01*
X13051700Y-8258450D02*
X12936700Y-8373450D01*
X13051700Y-8315950D02*
G75*
G03*
X13051700Y-8315950I-57500J0D01*
G01*
X12936700Y-8512450D02*
X13051700Y-8627450D01*
X13051700Y-8512450D02*
X12936700Y-8627450D01*
X13051700Y-8569950D02*
G75*
G03*
X13051700Y-8569950I-57500J0D01*
G01*
X12936700Y-8766450D02*
X13051700Y-8881450D01*
X13051700Y-8766450D02*
X12936700Y-8881450D01*
X13051700Y-8823950D02*
G75*
G03*
X13051700Y-8823950I-57500J0D01*
G01*
X12936700Y-9020450D02*
X13051700Y-9135450D01*
X13051700Y-9020450D02*
X12936700Y-9135450D01*
X13051700Y-9077950D02*
G75*
G03*
X13051700Y-9077950I-57500J0D01*
G01*
X12936700Y-9274450D02*
X13051700Y-9389450D01*
X13051700Y-9274450D02*
X12936700Y-9389450D01*
X13051700Y-9331950D02*
G75*
G03*
X13051700Y-9331950I-57500J0D01*
G01*
X12936700Y-9528450D02*
X13051700Y-9643450D01*
X13051700Y-9528450D02*
X12936700Y-9643450D01*
X13051700Y-9585950D02*
G75*
G03*
X13051700Y-9585950I-57500J0D01*
G01*
X12936700Y-9782450D02*
X13051700Y-9897450D01*
X13051700Y-9782450D02*
X12936700Y-9897450D01*
X13051700Y-9839950D02*
G75*
G03*
X13051700Y-9839950I-57500J0D01*
G01*
X12936700Y-10036450D02*
X13051700Y-10151450D01*
X13051700Y-10036450D02*
X12936700Y-10151450D01*
X13051700Y-10093950D02*
G75*
G03*
X13051700Y-10093950I-57500J0D01*
G01*
X12936700Y-10290450D02*
X13051700Y-10405450D01*
X13051700Y-10290450D02*
X12936700Y-10405450D01*
X13051700Y-10347950D02*
G75*
G03*
X13051700Y-10347950I-57500J0D01*
G01*
X12936700Y-10544450D02*
X13051700Y-10659450D01*
X13051700Y-10544450D02*
X12936700Y-10659450D01*
X13051700Y-10601950D02*
G75*
G03*
X13051700Y-10601950I-57500J0D01*
G01*
X12936700Y-10798450D02*
X13051700Y-10913450D01*
X13051700Y-10798450D02*
X12936700Y-10913450D01*
X13051700Y-10855950D02*
G75*
G03*
X13051700Y-10855950I-57500J0D01*
G01*
X12936700Y-11052450D02*
X13051700Y-11167450D01*
X13051700Y-11052450D02*
X12936700Y-11167450D01*
X13051700Y-11109950D02*
G75*
G03*
X13051700Y-11109950I-57500J0D01*
G01*
X12936700Y-11306450D02*
X13051700Y-11421450D01*
X13051700Y-11306450D02*
X12936700Y-11421450D01*
X13051700Y-11363950D02*
G75*
G03*
X13051700Y-11363950I-57500J0D01*
G01*
X12936700Y-11560450D02*
X13051700Y-11675450D01*
X13051700Y-11560450D02*
X12936700Y-11675450D01*
X13051700Y-11617950D02*
G75*
G03*
X13051700Y-11617950I-57500J0D01*
G01*
D16*
X11604400Y-7083200D02*
X11814400Y-7293200D01*
X11814400Y-7083200D02*
X11604400Y-7293200D01*
X11709400Y-7083200D02*
X11709400Y-7293200D01*
X11604400Y-7188200D02*
X11814400Y-7188200D01*
X12620400Y-7083200D02*
X12830400Y-7293200D01*
X12830400Y-7083200D02*
X12620400Y-7293200D01*
X12725400Y-7083200D02*
X12725400Y-7293200D01*
X12620400Y-7188200D02*
X12830400Y-7188200D01*
D11*
X10740777Y-13160484D02*
X10740777Y-12960484D01*
X10740777Y-12960484D02*
X10788396Y-12960484D01*
X10788396Y-12960484D02*
X10816967Y-12970008D01*
X10816967Y-12970008D02*
X10836015Y-12989055D01*
X10836015Y-12989055D02*
X10845539Y-13008103D01*
X10845539Y-13008103D02*
X10855063Y-13046198D01*
X10855063Y-13046198D02*
X10855063Y-13074769D01*
X10855063Y-13074769D02*
X10845539Y-13112865D01*
X10845539Y-13112865D02*
X10836015Y-13131912D01*
X10836015Y-13131912D02*
X10816967Y-13150960D01*
X10816967Y-13150960D02*
X10788396Y-13160484D01*
X10788396Y-13160484D02*
X10740777Y-13160484D01*
X10940777Y-13160484D02*
X10940777Y-13027150D01*
X10940777Y-13065246D02*
X10950301Y-13046198D01*
X10950301Y-13046198D02*
X10959824Y-13036674D01*
X10959824Y-13036674D02*
X10978872Y-13027150D01*
X10978872Y-13027150D02*
X10997920Y-13027150D01*
X11064586Y-13160484D02*
X11064586Y-13027150D01*
X11064586Y-12960484D02*
X11055063Y-12970008D01*
X11055063Y-12970008D02*
X11064586Y-12979531D01*
X11064586Y-12979531D02*
X11074110Y-12970008D01*
X11074110Y-12970008D02*
X11064586Y-12960484D01*
X11064586Y-12960484D02*
X11064586Y-12979531D01*
X11188396Y-13160484D02*
X11169348Y-13150960D01*
X11169348Y-13150960D02*
X11159824Y-13131912D01*
X11159824Y-13131912D02*
X11159824Y-12960484D01*
X11293158Y-13160484D02*
X11274110Y-13150960D01*
X11274110Y-13150960D02*
X11264586Y-13131912D01*
X11264586Y-13131912D02*
X11264586Y-12960484D01*
X11521729Y-13160484D02*
X11521729Y-12960484D01*
X11521729Y-12960484D02*
X11588396Y-13103341D01*
X11588396Y-13103341D02*
X11655062Y-12960484D01*
X11655062Y-12960484D02*
X11655062Y-13160484D01*
X11836015Y-13160484D02*
X11836015Y-13055722D01*
X11836015Y-13055722D02*
X11826491Y-13036674D01*
X11826491Y-13036674D02*
X11807443Y-13027150D01*
X11807443Y-13027150D02*
X11769348Y-13027150D01*
X11769348Y-13027150D02*
X11750301Y-13036674D01*
X11836015Y-13150960D02*
X11816967Y-13160484D01*
X11816967Y-13160484D02*
X11769348Y-13160484D01*
X11769348Y-13160484D02*
X11750301Y-13150960D01*
X11750301Y-13150960D02*
X11740777Y-13131912D01*
X11740777Y-13131912D02*
X11740777Y-13112865D01*
X11740777Y-13112865D02*
X11750301Y-13093817D01*
X11750301Y-13093817D02*
X11769348Y-13084293D01*
X11769348Y-13084293D02*
X11816967Y-13084293D01*
X11816967Y-13084293D02*
X11836015Y-13074769D01*
X11931253Y-13027150D02*
X11931253Y-13227150D01*
X11931253Y-13036674D02*
X11950301Y-13027150D01*
X11950301Y-13027150D02*
X11988396Y-13027150D01*
X11988396Y-13027150D02*
X12007443Y-13036674D01*
X12007443Y-13036674D02*
X12016967Y-13046198D01*
X12016967Y-13046198D02*
X12026491Y-13065246D01*
X12026491Y-13065246D02*
X12026491Y-13122388D01*
X12026491Y-13122388D02*
X12016967Y-13141436D01*
X12016967Y-13141436D02*
X12007443Y-13150960D01*
X12007443Y-13150960D02*
X11988396Y-13160484D01*
X11988396Y-13160484D02*
X11950301Y-13160484D01*
X11950301Y-13160484D02*
X11931253Y-13150960D01*
X12112205Y-13141436D02*
X12121729Y-13150960D01*
X12121729Y-13150960D02*
X12112205Y-13160484D01*
X12112205Y-13160484D02*
X12102682Y-13150960D01*
X12102682Y-13150960D02*
X12112205Y-13141436D01*
X12112205Y-13141436D02*
X12112205Y-13160484D01*
X12112205Y-13036674D02*
X12121729Y-13046198D01*
X12121729Y-13046198D02*
X12112205Y-13055722D01*
X12112205Y-13055722D02*
X12102682Y-13046198D01*
X12102682Y-13046198D02*
X12112205Y-13036674D01*
X12112205Y-13036674D02*
X12112205Y-13055722D01*
D12*
X10450000Y-13474000D02*
X10480000Y-13504000D01*
X10480000Y-13474000D02*
X10450000Y-13504000D01*
D11*
X10778872Y-13380484D02*
X10797920Y-13380484D01*
X10797920Y-13380484D02*
X10816967Y-13390008D01*
X10816967Y-13390008D02*
X10826491Y-13399531D01*
X10826491Y-13399531D02*
X10836015Y-13418579D01*
X10836015Y-13418579D02*
X10845539Y-13456674D01*
X10845539Y-13456674D02*
X10845539Y-13504293D01*
X10845539Y-13504293D02*
X10836015Y-13542388D01*
X10836015Y-13542388D02*
X10826491Y-13561436D01*
X10826491Y-13561436D02*
X10816967Y-13570960D01*
X10816967Y-13570960D02*
X10797920Y-13580484D01*
X10797920Y-13580484D02*
X10778872Y-13580484D01*
X10778872Y-13580484D02*
X10759824Y-13570960D01*
X10759824Y-13570960D02*
X10750301Y-13561436D01*
X10750301Y-13561436D02*
X10740777Y-13542388D01*
X10740777Y-13542388D02*
X10731253Y-13504293D01*
X10731253Y-13504293D02*
X10731253Y-13456674D01*
X10731253Y-13456674D02*
X10740777Y-13418579D01*
X10740777Y-13418579D02*
X10750301Y-13399531D01*
X10750301Y-13399531D02*
X10759824Y-13390008D01*
X10759824Y-13390008D02*
X10778872Y-13380484D01*
X10931253Y-13561436D02*
X10940777Y-13570960D01*
X10940777Y-13570960D02*
X10931253Y-13580484D01*
X10931253Y-13580484D02*
X10921729Y-13570960D01*
X10921729Y-13570960D02*
X10931253Y-13561436D01*
X10931253Y-13561436D02*
X10931253Y-13580484D01*
X11007444Y-13380484D02*
X11131253Y-13380484D01*
X11131253Y-13380484D02*
X11064586Y-13456674D01*
X11064586Y-13456674D02*
X11093158Y-13456674D01*
X11093158Y-13456674D02*
X11112205Y-13466198D01*
X11112205Y-13466198D02*
X11121729Y-13475722D01*
X11121729Y-13475722D02*
X11131253Y-13494769D01*
X11131253Y-13494769D02*
X11131253Y-13542388D01*
X11131253Y-13542388D02*
X11121729Y-13561436D01*
X11121729Y-13561436D02*
X11112205Y-13570960D01*
X11112205Y-13570960D02*
X11093158Y-13580484D01*
X11093158Y-13580484D02*
X11036015Y-13580484D01*
X11036015Y-13580484D02*
X11016967Y-13570960D01*
X11016967Y-13570960D02*
X11007444Y-13561436D01*
X11255062Y-13380484D02*
X11274110Y-13380484D01*
X11274110Y-13380484D02*
X11293158Y-13390008D01*
X11293158Y-13390008D02*
X11302682Y-13399531D01*
X11302682Y-13399531D02*
X11312205Y-13418579D01*
X11312205Y-13418579D02*
X11321729Y-13456674D01*
X11321729Y-13456674D02*
X11321729Y-13504293D01*
X11321729Y-13504293D02*
X11312205Y-13542388D01*
X11312205Y-13542388D02*
X11302682Y-13561436D01*
X11302682Y-13561436D02*
X11293158Y-13570960D01*
X11293158Y-13570960D02*
X11274110Y-13580484D01*
X11274110Y-13580484D02*
X11255062Y-13580484D01*
X11255062Y-13580484D02*
X11236015Y-13570960D01*
X11236015Y-13570960D02*
X11226491Y-13561436D01*
X11226491Y-13561436D02*
X11216967Y-13542388D01*
X11216967Y-13542388D02*
X11207443Y-13504293D01*
X11207443Y-13504293D02*
X11207443Y-13456674D01*
X11207443Y-13456674D02*
X11216967Y-13418579D01*
X11216967Y-13418579D02*
X11226491Y-13399531D01*
X11226491Y-13399531D02*
X11236015Y-13390008D01*
X11236015Y-13390008D02*
X11255062Y-13380484D01*
X11445539Y-13380484D02*
X11464586Y-13380484D01*
X11464586Y-13380484D02*
X11483634Y-13390008D01*
X11483634Y-13390008D02*
X11493158Y-13399531D01*
X11493158Y-13399531D02*
X11502682Y-13418579D01*
X11502682Y-13418579D02*
X11512205Y-13456674D01*
X11512205Y-13456674D02*
X11512205Y-13504293D01*
X11512205Y-13504293D02*
X11502682Y-13542388D01*
X11502682Y-13542388D02*
X11493158Y-13561436D01*
X11493158Y-13561436D02*
X11483634Y-13570960D01*
X11483634Y-13570960D02*
X11464586Y-13580484D01*
X11464586Y-13580484D02*
X11445539Y-13580484D01*
X11445539Y-13580484D02*
X11426491Y-13570960D01*
X11426491Y-13570960D02*
X11416967Y-13561436D01*
X11416967Y-13561436D02*
X11407443Y-13542388D01*
X11407443Y-13542388D02*
X11397920Y-13504293D01*
X11397920Y-13504293D02*
X11397920Y-13456674D01*
X11397920Y-13456674D02*
X11407443Y-13418579D01*
X11407443Y-13418579D02*
X11416967Y-13399531D01*
X11416967Y-13399531D02*
X11426491Y-13390008D01*
X11426491Y-13390008D02*
X11445539Y-13380484D01*
X11597920Y-13580484D02*
X11597920Y-13447150D01*
X11597920Y-13466198D02*
X11607443Y-13456674D01*
X11607443Y-13456674D02*
X11626491Y-13447150D01*
X11626491Y-13447150D02*
X11655063Y-13447150D01*
X11655063Y-13447150D02*
X11674110Y-13456674D01*
X11674110Y-13456674D02*
X11683634Y-13475722D01*
X11683634Y-13475722D02*
X11683634Y-13580484D01*
X11683634Y-13475722D02*
X11693158Y-13456674D01*
X11693158Y-13456674D02*
X11712205Y-13447150D01*
X11712205Y-13447150D02*
X11740777Y-13447150D01*
X11740777Y-13447150D02*
X11759824Y-13456674D01*
X11759824Y-13456674D02*
X11769348Y-13475722D01*
X11769348Y-13475722D02*
X11769348Y-13580484D01*
X11864586Y-13580484D02*
X11864586Y-13447150D01*
X11864586Y-13466198D02*
X11874110Y-13456674D01*
X11874110Y-13456674D02*
X11893158Y-13447150D01*
X11893158Y-13447150D02*
X11921729Y-13447150D01*
X11921729Y-13447150D02*
X11940777Y-13456674D01*
X11940777Y-13456674D02*
X11950301Y-13475722D01*
X11950301Y-13475722D02*
X11950301Y-13580484D01*
X11950301Y-13475722D02*
X11959824Y-13456674D01*
X11959824Y-13456674D02*
X11978872Y-13447150D01*
X11978872Y-13447150D02*
X12007443Y-13447150D01*
X12007443Y-13447150D02*
X12026491Y-13456674D01*
X12026491Y-13456674D02*
X12036015Y-13475722D01*
X12036015Y-13475722D02*
X12036015Y-13580484D01*
X12426491Y-13370960D02*
X12255063Y-13628103D01*
X12683634Y-13380484D02*
X12702682Y-13380484D01*
X12702682Y-13380484D02*
X12721729Y-13390008D01*
X12721729Y-13390008D02*
X12731253Y-13399531D01*
X12731253Y-13399531D02*
X12740777Y-13418579D01*
X12740777Y-13418579D02*
X12750301Y-13456674D01*
X12750301Y-13456674D02*
X12750301Y-13504293D01*
X12750301Y-13504293D02*
X12740777Y-13542388D01*
X12740777Y-13542388D02*
X12731253Y-13561436D01*
X12731253Y-13561436D02*
X12721729Y-13570960D01*
X12721729Y-13570960D02*
X12702682Y-13580484D01*
X12702682Y-13580484D02*
X12683634Y-13580484D01*
X12683634Y-13580484D02*
X12664586Y-13570960D01*
X12664586Y-13570960D02*
X12655063Y-13561436D01*
X12655063Y-13561436D02*
X12645539Y-13542388D01*
X12645539Y-13542388D02*
X12636015Y-13504293D01*
X12636015Y-13504293D02*
X12636015Y-13456674D01*
X12636015Y-13456674D02*
X12645539Y-13418579D01*
X12645539Y-13418579D02*
X12655063Y-13399531D01*
X12655063Y-13399531D02*
X12664586Y-13390008D01*
X12664586Y-13390008D02*
X12683634Y-13380484D01*
X12836015Y-13561436D02*
X12845539Y-13570960D01*
X12845539Y-13570960D02*
X12836015Y-13580484D01*
X12836015Y-13580484D02*
X12826491Y-13570960D01*
X12826491Y-13570960D02*
X12836015Y-13561436D01*
X12836015Y-13561436D02*
X12836015Y-13580484D01*
X12969348Y-13380484D02*
X12988396Y-13380484D01*
X12988396Y-13380484D02*
X13007444Y-13390008D01*
X13007444Y-13390008D02*
X13016967Y-13399531D01*
X13016967Y-13399531D02*
X13026491Y-13418579D01*
X13026491Y-13418579D02*
X13036015Y-13456674D01*
X13036015Y-13456674D02*
X13036015Y-13504293D01*
X13036015Y-13504293D02*
X13026491Y-13542388D01*
X13026491Y-13542388D02*
X13016967Y-13561436D01*
X13016967Y-13561436D02*
X13007444Y-13570960D01*
X13007444Y-13570960D02*
X12988396Y-13580484D01*
X12988396Y-13580484D02*
X12969348Y-13580484D01*
X12969348Y-13580484D02*
X12950301Y-13570960D01*
X12950301Y-13570960D02*
X12940777Y-13561436D01*
X12940777Y-13561436D02*
X12931253Y-13542388D01*
X12931253Y-13542388D02*
X12921729Y-13504293D01*
X12921729Y-13504293D02*
X12921729Y-13456674D01*
X12921729Y-13456674D02*
X12931253Y-13418579D01*
X12931253Y-13418579D02*
X12940777Y-13399531D01*
X12940777Y-13399531D02*
X12950301Y-13390008D01*
X12950301Y-13390008D02*
X12969348Y-13380484D01*
X13226491Y-13580484D02*
X13112206Y-13580484D01*
X13169348Y-13580484D02*
X13169348Y-13380484D01*
X13169348Y-13380484D02*
X13150301Y-13409055D01*
X13150301Y-13409055D02*
X13131253Y-13428103D01*
X13131253Y-13428103D02*
X13112206Y-13437627D01*
X13416967Y-13580484D02*
X13302682Y-13580484D01*
X13359825Y-13580484D02*
X13359825Y-13380484D01*
X13359825Y-13380484D02*
X13340777Y-13409055D01*
X13340777Y-13409055D02*
X13321729Y-13428103D01*
X13321729Y-13428103D02*
X13302682Y-13437627D01*
X13531253Y-13466198D02*
X13512206Y-13456674D01*
X13512206Y-13456674D02*
X13502682Y-13447150D01*
X13502682Y-13447150D02*
X13493158Y-13428103D01*
X13493158Y-13428103D02*
X13493158Y-13418579D01*
X13493158Y-13418579D02*
X13502682Y-13399531D01*
X13502682Y-13399531D02*
X13512206Y-13390008D01*
X13512206Y-13390008D02*
X13531253Y-13380484D01*
X13531253Y-13380484D02*
X13569348Y-13380484D01*
X13569348Y-13380484D02*
X13588396Y-13390008D01*
X13588396Y-13390008D02*
X13597920Y-13399531D01*
X13597920Y-13399531D02*
X13607444Y-13418579D01*
X13607444Y-13418579D02*
X13607444Y-13428103D01*
X13607444Y-13428103D02*
X13597920Y-13447150D01*
X13597920Y-13447150D02*
X13588396Y-13456674D01*
X13588396Y-13456674D02*
X13569348Y-13466198D01*
X13569348Y-13466198D02*
X13531253Y-13466198D01*
X13531253Y-13466198D02*
X13512206Y-13475722D01*
X13512206Y-13475722D02*
X13502682Y-13485246D01*
X13502682Y-13485246D02*
X13493158Y-13504293D01*
X13493158Y-13504293D02*
X13493158Y-13542388D01*
X13493158Y-13542388D02*
X13502682Y-13561436D01*
X13502682Y-13561436D02*
X13512206Y-13570960D01*
X13512206Y-13570960D02*
X13531253Y-13580484D01*
X13531253Y-13580484D02*
X13569348Y-13580484D01*
X13569348Y-13580484D02*
X13588396Y-13570960D01*
X13588396Y-13570960D02*
X13597920Y-13561436D01*
X13597920Y-13561436D02*
X13607444Y-13542388D01*
X13607444Y-13542388D02*
X13607444Y-13504293D01*
X13607444Y-13504293D02*
X13597920Y-13485246D01*
X13597920Y-13485246D02*
X13588396Y-13475722D01*
X13588396Y-13475722D02*
X13569348Y-13466198D01*
X13683634Y-13380484D02*
X13683634Y-13418579D01*
X13759825Y-13380484D02*
X13759825Y-13418579D01*
X14055063Y-13656674D02*
X14045539Y-13647150D01*
X14045539Y-13647150D02*
X14026491Y-13618579D01*
X14026491Y-13618579D02*
X14016968Y-13599531D01*
X14016968Y-13599531D02*
X14007444Y-13570960D01*
X14007444Y-13570960D02*
X13997920Y-13523341D01*
X13997920Y-13523341D02*
X13997920Y-13485246D01*
X13997920Y-13485246D02*
X14007444Y-13437627D01*
X14007444Y-13437627D02*
X14016968Y-13409055D01*
X14016968Y-13409055D02*
X14026491Y-13390008D01*
X14026491Y-13390008D02*
X14045539Y-13361436D01*
X14045539Y-13361436D02*
X14055063Y-13351912D01*
X14236015Y-13580484D02*
X14121729Y-13580484D01*
X14178872Y-13580484D02*
X14178872Y-13380484D01*
X14178872Y-13380484D02*
X14159825Y-13409055D01*
X14159825Y-13409055D02*
X14140777Y-13428103D01*
X14140777Y-13428103D02*
X14121729Y-13437627D01*
X14474110Y-13580484D02*
X14474110Y-13380484D01*
X14559825Y-13580484D02*
X14559825Y-13475722D01*
X14559825Y-13475722D02*
X14550301Y-13456674D01*
X14550301Y-13456674D02*
X14531253Y-13447150D01*
X14531253Y-13447150D02*
X14502682Y-13447150D01*
X14502682Y-13447150D02*
X14483634Y-13456674D01*
X14483634Y-13456674D02*
X14474110Y-13466198D01*
X14683634Y-13580484D02*
X14664587Y-13570960D01*
X14664587Y-13570960D02*
X14655063Y-13561436D01*
X14655063Y-13561436D02*
X14645539Y-13542388D01*
X14645539Y-13542388D02*
X14645539Y-13485246D01*
X14645539Y-13485246D02*
X14655063Y-13466198D01*
X14655063Y-13466198D02*
X14664587Y-13456674D01*
X14664587Y-13456674D02*
X14683634Y-13447150D01*
X14683634Y-13447150D02*
X14712206Y-13447150D01*
X14712206Y-13447150D02*
X14731253Y-13456674D01*
X14731253Y-13456674D02*
X14740777Y-13466198D01*
X14740777Y-13466198D02*
X14750301Y-13485246D01*
X14750301Y-13485246D02*
X14750301Y-13542388D01*
X14750301Y-13542388D02*
X14740777Y-13561436D01*
X14740777Y-13561436D02*
X14731253Y-13570960D01*
X14731253Y-13570960D02*
X14712206Y-13580484D01*
X14712206Y-13580484D02*
X14683634Y-13580484D01*
X14864587Y-13580484D02*
X14845539Y-13570960D01*
X14845539Y-13570960D02*
X14836015Y-13551912D01*
X14836015Y-13551912D02*
X14836015Y-13380484D01*
X15016968Y-13570960D02*
X14997920Y-13580484D01*
X14997920Y-13580484D02*
X14959825Y-13580484D01*
X14959825Y-13580484D02*
X14940777Y-13570960D01*
X14940777Y-13570960D02*
X14931253Y-13551912D01*
X14931253Y-13551912D02*
X14931253Y-13475722D01*
X14931253Y-13475722D02*
X14940777Y-13456674D01*
X14940777Y-13456674D02*
X14959825Y-13447150D01*
X14959825Y-13447150D02*
X14997920Y-13447150D01*
X14997920Y-13447150D02*
X15016968Y-13456674D01*
X15016968Y-13456674D02*
X15026491Y-13475722D01*
X15026491Y-13475722D02*
X15026491Y-13494769D01*
X15026491Y-13494769D02*
X14931253Y-13513817D01*
X15093158Y-13656674D02*
X15102682Y-13647150D01*
X15102682Y-13647150D02*
X15121730Y-13618579D01*
X15121730Y-13618579D02*
X15131253Y-13599531D01*
X15131253Y-13599531D02*
X15140777Y-13570960D01*
X15140777Y-13570960D02*
X15150301Y-13523341D01*
X15150301Y-13523341D02*
X15150301Y-13485246D01*
X15150301Y-13485246D02*
X15140777Y-13437627D01*
X15140777Y-13437627D02*
X15131253Y-13409055D01*
X15131253Y-13409055D02*
X15121730Y-13390008D01*
X15121730Y-13390008D02*
X15102682Y-13361436D01*
X15102682Y-13361436D02*
X15093158Y-13351912D01*
D13*
X10480000Y-13753000D02*
G75*
G03*
X10480000Y-13753000I-20000J0D01*
G01*
D11*
X10778872Y-13644484D02*
X10797920Y-13644484D01*
X10797920Y-13644484D02*
X10816967Y-13654008D01*
X10816967Y-13654008D02*
X10826491Y-13663531D01*
X10826491Y-13663531D02*
X10836015Y-13682579D01*
X10836015Y-13682579D02*
X10845539Y-13720674D01*
X10845539Y-13720674D02*
X10845539Y-13768293D01*
X10845539Y-13768293D02*
X10836015Y-13806388D01*
X10836015Y-13806388D02*
X10826491Y-13825436D01*
X10826491Y-13825436D02*
X10816967Y-13834960D01*
X10816967Y-13834960D02*
X10797920Y-13844484D01*
X10797920Y-13844484D02*
X10778872Y-13844484D01*
X10778872Y-13844484D02*
X10759824Y-13834960D01*
X10759824Y-13834960D02*
X10750301Y-13825436D01*
X10750301Y-13825436D02*
X10740777Y-13806388D01*
X10740777Y-13806388D02*
X10731253Y-13768293D01*
X10731253Y-13768293D02*
X10731253Y-13720674D01*
X10731253Y-13720674D02*
X10740777Y-13682579D01*
X10740777Y-13682579D02*
X10750301Y-13663531D01*
X10750301Y-13663531D02*
X10759824Y-13654008D01*
X10759824Y-13654008D02*
X10778872Y-13644484D01*
X10931253Y-13825436D02*
X10940777Y-13834960D01*
X10940777Y-13834960D02*
X10931253Y-13844484D01*
X10931253Y-13844484D02*
X10921729Y-13834960D01*
X10921729Y-13834960D02*
X10931253Y-13825436D01*
X10931253Y-13825436D02*
X10931253Y-13844484D01*
X11112205Y-13711150D02*
X11112205Y-13844484D01*
X11064586Y-13634960D02*
X11016967Y-13777817D01*
X11016967Y-13777817D02*
X11140777Y-13777817D01*
X11255062Y-13644484D02*
X11274110Y-13644484D01*
X11274110Y-13644484D02*
X11293158Y-13654008D01*
X11293158Y-13654008D02*
X11302682Y-13663531D01*
X11302682Y-13663531D02*
X11312205Y-13682579D01*
X11312205Y-13682579D02*
X11321729Y-13720674D01*
X11321729Y-13720674D02*
X11321729Y-13768293D01*
X11321729Y-13768293D02*
X11312205Y-13806388D01*
X11312205Y-13806388D02*
X11302682Y-13825436D01*
X11302682Y-13825436D02*
X11293158Y-13834960D01*
X11293158Y-13834960D02*
X11274110Y-13844484D01*
X11274110Y-13844484D02*
X11255062Y-13844484D01*
X11255062Y-13844484D02*
X11236015Y-13834960D01*
X11236015Y-13834960D02*
X11226491Y-13825436D01*
X11226491Y-13825436D02*
X11216967Y-13806388D01*
X11216967Y-13806388D02*
X11207443Y-13768293D01*
X11207443Y-13768293D02*
X11207443Y-13720674D01*
X11207443Y-13720674D02*
X11216967Y-13682579D01*
X11216967Y-13682579D02*
X11226491Y-13663531D01*
X11226491Y-13663531D02*
X11236015Y-13654008D01*
X11236015Y-13654008D02*
X11255062Y-13644484D01*
X11445539Y-13644484D02*
X11464586Y-13644484D01*
X11464586Y-13644484D02*
X11483634Y-13654008D01*
X11483634Y-13654008D02*
X11493158Y-13663531D01*
X11493158Y-13663531D02*
X11502682Y-13682579D01*
X11502682Y-13682579D02*
X11512205Y-13720674D01*
X11512205Y-13720674D02*
X11512205Y-13768293D01*
X11512205Y-13768293D02*
X11502682Y-13806388D01*
X11502682Y-13806388D02*
X11493158Y-13825436D01*
X11493158Y-13825436D02*
X11483634Y-13834960D01*
X11483634Y-13834960D02*
X11464586Y-13844484D01*
X11464586Y-13844484D02*
X11445539Y-13844484D01*
X11445539Y-13844484D02*
X11426491Y-13834960D01*
X11426491Y-13834960D02*
X11416967Y-13825436D01*
X11416967Y-13825436D02*
X11407443Y-13806388D01*
X11407443Y-13806388D02*
X11397920Y-13768293D01*
X11397920Y-13768293D02*
X11397920Y-13720674D01*
X11397920Y-13720674D02*
X11407443Y-13682579D01*
X11407443Y-13682579D02*
X11416967Y-13663531D01*
X11416967Y-13663531D02*
X11426491Y-13654008D01*
X11426491Y-13654008D02*
X11445539Y-13644484D01*
X11597920Y-13844484D02*
X11597920Y-13711150D01*
X11597920Y-13730198D02*
X11607443Y-13720674D01*
X11607443Y-13720674D02*
X11626491Y-13711150D01*
X11626491Y-13711150D02*
X11655063Y-13711150D01*
X11655063Y-13711150D02*
X11674110Y-13720674D01*
X11674110Y-13720674D02*
X11683634Y-13739722D01*
X11683634Y-13739722D02*
X11683634Y-13844484D01*
X11683634Y-13739722D02*
X11693158Y-13720674D01*
X11693158Y-13720674D02*
X11712205Y-13711150D01*
X11712205Y-13711150D02*
X11740777Y-13711150D01*
X11740777Y-13711150D02*
X11759824Y-13720674D01*
X11759824Y-13720674D02*
X11769348Y-13739722D01*
X11769348Y-13739722D02*
X11769348Y-13844484D01*
X11864586Y-13844484D02*
X11864586Y-13711150D01*
X11864586Y-13730198D02*
X11874110Y-13720674D01*
X11874110Y-13720674D02*
X11893158Y-13711150D01*
X11893158Y-13711150D02*
X11921729Y-13711150D01*
X11921729Y-13711150D02*
X11940777Y-13720674D01*
X11940777Y-13720674D02*
X11950301Y-13739722D01*
X11950301Y-13739722D02*
X11950301Y-13844484D01*
X11950301Y-13739722D02*
X11959824Y-13720674D01*
X11959824Y-13720674D02*
X11978872Y-13711150D01*
X11978872Y-13711150D02*
X12007443Y-13711150D01*
X12007443Y-13711150D02*
X12026491Y-13720674D01*
X12026491Y-13720674D02*
X12036015Y-13739722D01*
X12036015Y-13739722D02*
X12036015Y-13844484D01*
X12426491Y-13634960D02*
X12255063Y-13892103D01*
X12683634Y-13644484D02*
X12702682Y-13644484D01*
X12702682Y-13644484D02*
X12721729Y-13654008D01*
X12721729Y-13654008D02*
X12731253Y-13663531D01*
X12731253Y-13663531D02*
X12740777Y-13682579D01*
X12740777Y-13682579D02*
X12750301Y-13720674D01*
X12750301Y-13720674D02*
X12750301Y-13768293D01*
X12750301Y-13768293D02*
X12740777Y-13806388D01*
X12740777Y-13806388D02*
X12731253Y-13825436D01*
X12731253Y-13825436D02*
X12721729Y-13834960D01*
X12721729Y-13834960D02*
X12702682Y-13844484D01*
X12702682Y-13844484D02*
X12683634Y-13844484D01*
X12683634Y-13844484D02*
X12664586Y-13834960D01*
X12664586Y-13834960D02*
X12655063Y-13825436D01*
X12655063Y-13825436D02*
X12645539Y-13806388D01*
X12645539Y-13806388D02*
X12636015Y-13768293D01*
X12636015Y-13768293D02*
X12636015Y-13720674D01*
X12636015Y-13720674D02*
X12645539Y-13682579D01*
X12645539Y-13682579D02*
X12655063Y-13663531D01*
X12655063Y-13663531D02*
X12664586Y-13654008D01*
X12664586Y-13654008D02*
X12683634Y-13644484D01*
X12836015Y-13825436D02*
X12845539Y-13834960D01*
X12845539Y-13834960D02*
X12836015Y-13844484D01*
X12836015Y-13844484D02*
X12826491Y-13834960D01*
X12826491Y-13834960D02*
X12836015Y-13825436D01*
X12836015Y-13825436D02*
X12836015Y-13844484D01*
X12969348Y-13644484D02*
X12988396Y-13644484D01*
X12988396Y-13644484D02*
X13007444Y-13654008D01*
X13007444Y-13654008D02*
X13016967Y-13663531D01*
X13016967Y-13663531D02*
X13026491Y-13682579D01*
X13026491Y-13682579D02*
X13036015Y-13720674D01*
X13036015Y-13720674D02*
X13036015Y-13768293D01*
X13036015Y-13768293D02*
X13026491Y-13806388D01*
X13026491Y-13806388D02*
X13016967Y-13825436D01*
X13016967Y-13825436D02*
X13007444Y-13834960D01*
X13007444Y-13834960D02*
X12988396Y-13844484D01*
X12988396Y-13844484D02*
X12969348Y-13844484D01*
X12969348Y-13844484D02*
X12950301Y-13834960D01*
X12950301Y-13834960D02*
X12940777Y-13825436D01*
X12940777Y-13825436D02*
X12931253Y-13806388D01*
X12931253Y-13806388D02*
X12921729Y-13768293D01*
X12921729Y-13768293D02*
X12921729Y-13720674D01*
X12921729Y-13720674D02*
X12931253Y-13682579D01*
X12931253Y-13682579D02*
X12940777Y-13663531D01*
X12940777Y-13663531D02*
X12950301Y-13654008D01*
X12950301Y-13654008D02*
X12969348Y-13644484D01*
X13226491Y-13844484D02*
X13112206Y-13844484D01*
X13169348Y-13844484D02*
X13169348Y-13644484D01*
X13169348Y-13644484D02*
X13150301Y-13673055D01*
X13150301Y-13673055D02*
X13131253Y-13692103D01*
X13131253Y-13692103D02*
X13112206Y-13701627D01*
X13407444Y-13644484D02*
X13312206Y-13644484D01*
X13312206Y-13644484D02*
X13302682Y-13739722D01*
X13302682Y-13739722D02*
X13312206Y-13730198D01*
X13312206Y-13730198D02*
X13331253Y-13720674D01*
X13331253Y-13720674D02*
X13378872Y-13720674D01*
X13378872Y-13720674D02*
X13397920Y-13730198D01*
X13397920Y-13730198D02*
X13407444Y-13739722D01*
X13407444Y-13739722D02*
X13416967Y-13758769D01*
X13416967Y-13758769D02*
X13416967Y-13806388D01*
X13416967Y-13806388D02*
X13407444Y-13825436D01*
X13407444Y-13825436D02*
X13397920Y-13834960D01*
X13397920Y-13834960D02*
X13378872Y-13844484D01*
X13378872Y-13844484D02*
X13331253Y-13844484D01*
X13331253Y-13844484D02*
X13312206Y-13834960D01*
X13312206Y-13834960D02*
X13302682Y-13825436D01*
X13483634Y-13644484D02*
X13616967Y-13644484D01*
X13616967Y-13644484D02*
X13531253Y-13844484D01*
X13683634Y-13644484D02*
X13683634Y-13682579D01*
X13759825Y-13644484D02*
X13759825Y-13682579D01*
X14055063Y-13920674D02*
X14045539Y-13911150D01*
X14045539Y-13911150D02*
X14026491Y-13882579D01*
X14026491Y-13882579D02*
X14016968Y-13863531D01*
X14016968Y-13863531D02*
X14007444Y-13834960D01*
X14007444Y-13834960D02*
X13997920Y-13787341D01*
X13997920Y-13787341D02*
X13997920Y-13749246D01*
X13997920Y-13749246D02*
X14007444Y-13701627D01*
X14007444Y-13701627D02*
X14016968Y-13673055D01*
X14016968Y-13673055D02*
X14026491Y-13654008D01*
X14026491Y-13654008D02*
X14045539Y-13625436D01*
X14045539Y-13625436D02*
X14055063Y-13615912D01*
X14236015Y-13844484D02*
X14121729Y-13844484D01*
X14178872Y-13844484D02*
X14178872Y-13644484D01*
X14178872Y-13644484D02*
X14159825Y-13673055D01*
X14159825Y-13673055D02*
X14140777Y-13692103D01*
X14140777Y-13692103D02*
X14121729Y-13701627D01*
X14474110Y-13844484D02*
X14474110Y-13644484D01*
X14559825Y-13844484D02*
X14559825Y-13739722D01*
X14559825Y-13739722D02*
X14550301Y-13720674D01*
X14550301Y-13720674D02*
X14531253Y-13711150D01*
X14531253Y-13711150D02*
X14502682Y-13711150D01*
X14502682Y-13711150D02*
X14483634Y-13720674D01*
X14483634Y-13720674D02*
X14474110Y-13730198D01*
X14683634Y-13844484D02*
X14664587Y-13834960D01*
X14664587Y-13834960D02*
X14655063Y-13825436D01*
X14655063Y-13825436D02*
X14645539Y-13806388D01*
X14645539Y-13806388D02*
X14645539Y-13749246D01*
X14645539Y-13749246D02*
X14655063Y-13730198D01*
X14655063Y-13730198D02*
X14664587Y-13720674D01*
X14664587Y-13720674D02*
X14683634Y-13711150D01*
X14683634Y-13711150D02*
X14712206Y-13711150D01*
X14712206Y-13711150D02*
X14731253Y-13720674D01*
X14731253Y-13720674D02*
X14740777Y-13730198D01*
X14740777Y-13730198D02*
X14750301Y-13749246D01*
X14750301Y-13749246D02*
X14750301Y-13806388D01*
X14750301Y-13806388D02*
X14740777Y-13825436D01*
X14740777Y-13825436D02*
X14731253Y-13834960D01*
X14731253Y-13834960D02*
X14712206Y-13844484D01*
X14712206Y-13844484D02*
X14683634Y-13844484D01*
X14864587Y-13844484D02*
X14845539Y-13834960D01*
X14845539Y-13834960D02*
X14836015Y-13815912D01*
X14836015Y-13815912D02*
X14836015Y-13644484D01*
X15016968Y-13834960D02*
X14997920Y-13844484D01*
X14997920Y-13844484D02*
X14959825Y-13844484D01*
X14959825Y-13844484D02*
X14940777Y-13834960D01*
X14940777Y-13834960D02*
X14931253Y-13815912D01*
X14931253Y-13815912D02*
X14931253Y-13739722D01*
X14931253Y-13739722D02*
X14940777Y-13720674D01*
X14940777Y-13720674D02*
X14959825Y-13711150D01*
X14959825Y-13711150D02*
X14997920Y-13711150D01*
X14997920Y-13711150D02*
X15016968Y-13720674D01*
X15016968Y-13720674D02*
X15026491Y-13739722D01*
X15026491Y-13739722D02*
X15026491Y-13758769D01*
X15026491Y-13758769D02*
X14931253Y-13777817D01*
X15093158Y-13920674D02*
X15102682Y-13911150D01*
X15102682Y-13911150D02*
X15121730Y-13882579D01*
X15121730Y-13882579D02*
X15131253Y-13863531D01*
X15131253Y-13863531D02*
X15140777Y-13834960D01*
X15140777Y-13834960D02*
X15150301Y-13787341D01*
X15150301Y-13787341D02*
X15150301Y-13749246D01*
X15150301Y-13749246D02*
X15140777Y-13701627D01*
X15140777Y-13701627D02*
X15131253Y-13673055D01*
X15131253Y-13673055D02*
X15121730Y-13654008D01*
X15121730Y-13654008D02*
X15102682Y-13625436D01*
X15102682Y-13625436D02*
X15093158Y-13615912D01*
D14*
X10455000Y-13992000D02*
X10455000Y-14042000D01*
X10430000Y-14017000D02*
X10480000Y-14017000D01*
D11*
X10778872Y-13908484D02*
X10797920Y-13908484D01*
X10797920Y-13908484D02*
X10816967Y-13918008D01*
X10816967Y-13918008D02*
X10826491Y-13927531D01*
X10826491Y-13927531D02*
X10836015Y-13946579D01*
X10836015Y-13946579D02*
X10845539Y-13984674D01*
X10845539Y-13984674D02*
X10845539Y-14032293D01*
X10845539Y-14032293D02*
X10836015Y-14070388D01*
X10836015Y-14070388D02*
X10826491Y-14089436D01*
X10826491Y-14089436D02*
X10816967Y-14098960D01*
X10816967Y-14098960D02*
X10797920Y-14108484D01*
X10797920Y-14108484D02*
X10778872Y-14108484D01*
X10778872Y-14108484D02*
X10759824Y-14098960D01*
X10759824Y-14098960D02*
X10750301Y-14089436D01*
X10750301Y-14089436D02*
X10740777Y-14070388D01*
X10740777Y-14070388D02*
X10731253Y-14032293D01*
X10731253Y-14032293D02*
X10731253Y-13984674D01*
X10731253Y-13984674D02*
X10740777Y-13946579D01*
X10740777Y-13946579D02*
X10750301Y-13927531D01*
X10750301Y-13927531D02*
X10759824Y-13918008D01*
X10759824Y-13918008D02*
X10778872Y-13908484D01*
X10931253Y-14089436D02*
X10940777Y-14098960D01*
X10940777Y-14098960D02*
X10931253Y-14108484D01*
X10931253Y-14108484D02*
X10921729Y-14098960D01*
X10921729Y-14098960D02*
X10931253Y-14089436D01*
X10931253Y-14089436D02*
X10931253Y-14108484D01*
X11121729Y-13908484D02*
X11026491Y-13908484D01*
X11026491Y-13908484D02*
X11016967Y-14003722D01*
X11016967Y-14003722D02*
X11026491Y-13994198D01*
X11026491Y-13994198D02*
X11045539Y-13984674D01*
X11045539Y-13984674D02*
X11093158Y-13984674D01*
X11093158Y-13984674D02*
X11112205Y-13994198D01*
X11112205Y-13994198D02*
X11121729Y-14003722D01*
X11121729Y-14003722D02*
X11131253Y-14022769D01*
X11131253Y-14022769D02*
X11131253Y-14070388D01*
X11131253Y-14070388D02*
X11121729Y-14089436D01*
X11121729Y-14089436D02*
X11112205Y-14098960D01*
X11112205Y-14098960D02*
X11093158Y-14108484D01*
X11093158Y-14108484D02*
X11045539Y-14108484D01*
X11045539Y-14108484D02*
X11026491Y-14098960D01*
X11026491Y-14098960D02*
X11016967Y-14089436D01*
X11255062Y-13908484D02*
X11274110Y-13908484D01*
X11274110Y-13908484D02*
X11293158Y-13918008D01*
X11293158Y-13918008D02*
X11302682Y-13927531D01*
X11302682Y-13927531D02*
X11312205Y-13946579D01*
X11312205Y-13946579D02*
X11321729Y-13984674D01*
X11321729Y-13984674D02*
X11321729Y-14032293D01*
X11321729Y-14032293D02*
X11312205Y-14070388D01*
X11312205Y-14070388D02*
X11302682Y-14089436D01*
X11302682Y-14089436D02*
X11293158Y-14098960D01*
X11293158Y-14098960D02*
X11274110Y-14108484D01*
X11274110Y-14108484D02*
X11255062Y-14108484D01*
X11255062Y-14108484D02*
X11236015Y-14098960D01*
X11236015Y-14098960D02*
X11226491Y-14089436D01*
X11226491Y-14089436D02*
X11216967Y-14070388D01*
X11216967Y-14070388D02*
X11207443Y-14032293D01*
X11207443Y-14032293D02*
X11207443Y-13984674D01*
X11207443Y-13984674D02*
X11216967Y-13946579D01*
X11216967Y-13946579D02*
X11226491Y-13927531D01*
X11226491Y-13927531D02*
X11236015Y-13918008D01*
X11236015Y-13918008D02*
X11255062Y-13908484D01*
X11445539Y-13908484D02*
X11464586Y-13908484D01*
X11464586Y-13908484D02*
X11483634Y-13918008D01*
X11483634Y-13918008D02*
X11493158Y-13927531D01*
X11493158Y-13927531D02*
X11502682Y-13946579D01*
X11502682Y-13946579D02*
X11512205Y-13984674D01*
X11512205Y-13984674D02*
X11512205Y-14032293D01*
X11512205Y-14032293D02*
X11502682Y-14070388D01*
X11502682Y-14070388D02*
X11493158Y-14089436D01*
X11493158Y-14089436D02*
X11483634Y-14098960D01*
X11483634Y-14098960D02*
X11464586Y-14108484D01*
X11464586Y-14108484D02*
X11445539Y-14108484D01*
X11445539Y-14108484D02*
X11426491Y-14098960D01*
X11426491Y-14098960D02*
X11416967Y-14089436D01*
X11416967Y-14089436D02*
X11407443Y-14070388D01*
X11407443Y-14070388D02*
X11397920Y-14032293D01*
X11397920Y-14032293D02*
X11397920Y-13984674D01*
X11397920Y-13984674D02*
X11407443Y-13946579D01*
X11407443Y-13946579D02*
X11416967Y-13927531D01*
X11416967Y-13927531D02*
X11426491Y-13918008D01*
X11426491Y-13918008D02*
X11445539Y-13908484D01*
X11597920Y-14108484D02*
X11597920Y-13975150D01*
X11597920Y-13994198D02*
X11607443Y-13984674D01*
X11607443Y-13984674D02*
X11626491Y-13975150D01*
X11626491Y-13975150D02*
X11655063Y-13975150D01*
X11655063Y-13975150D02*
X11674110Y-13984674D01*
X11674110Y-13984674D02*
X11683634Y-14003722D01*
X11683634Y-14003722D02*
X11683634Y-14108484D01*
X11683634Y-14003722D02*
X11693158Y-13984674D01*
X11693158Y-13984674D02*
X11712205Y-13975150D01*
X11712205Y-13975150D02*
X11740777Y-13975150D01*
X11740777Y-13975150D02*
X11759824Y-13984674D01*
X11759824Y-13984674D02*
X11769348Y-14003722D01*
X11769348Y-14003722D02*
X11769348Y-14108484D01*
X11864586Y-14108484D02*
X11864586Y-13975150D01*
X11864586Y-13994198D02*
X11874110Y-13984674D01*
X11874110Y-13984674D02*
X11893158Y-13975150D01*
X11893158Y-13975150D02*
X11921729Y-13975150D01*
X11921729Y-13975150D02*
X11940777Y-13984674D01*
X11940777Y-13984674D02*
X11950301Y-14003722D01*
X11950301Y-14003722D02*
X11950301Y-14108484D01*
X11950301Y-14003722D02*
X11959824Y-13984674D01*
X11959824Y-13984674D02*
X11978872Y-13975150D01*
X11978872Y-13975150D02*
X12007443Y-13975150D01*
X12007443Y-13975150D02*
X12026491Y-13984674D01*
X12026491Y-13984674D02*
X12036015Y-14003722D01*
X12036015Y-14003722D02*
X12036015Y-14108484D01*
X12426491Y-13898960D02*
X12255063Y-14156103D01*
X12683634Y-13908484D02*
X12702682Y-13908484D01*
X12702682Y-13908484D02*
X12721729Y-13918008D01*
X12721729Y-13918008D02*
X12731253Y-13927531D01*
X12731253Y-13927531D02*
X12740777Y-13946579D01*
X12740777Y-13946579D02*
X12750301Y-13984674D01*
X12750301Y-13984674D02*
X12750301Y-14032293D01*
X12750301Y-14032293D02*
X12740777Y-14070388D01*
X12740777Y-14070388D02*
X12731253Y-14089436D01*
X12731253Y-14089436D02*
X12721729Y-14098960D01*
X12721729Y-14098960D02*
X12702682Y-14108484D01*
X12702682Y-14108484D02*
X12683634Y-14108484D01*
X12683634Y-14108484D02*
X12664586Y-14098960D01*
X12664586Y-14098960D02*
X12655063Y-14089436D01*
X12655063Y-14089436D02*
X12645539Y-14070388D01*
X12645539Y-14070388D02*
X12636015Y-14032293D01*
X12636015Y-14032293D02*
X12636015Y-13984674D01*
X12636015Y-13984674D02*
X12645539Y-13946579D01*
X12645539Y-13946579D02*
X12655063Y-13927531D01*
X12655063Y-13927531D02*
X12664586Y-13918008D01*
X12664586Y-13918008D02*
X12683634Y-13908484D01*
X12836015Y-14089436D02*
X12845539Y-14098960D01*
X12845539Y-14098960D02*
X12836015Y-14108484D01*
X12836015Y-14108484D02*
X12826491Y-14098960D01*
X12826491Y-14098960D02*
X12836015Y-14089436D01*
X12836015Y-14089436D02*
X12836015Y-14108484D01*
X12969348Y-13908484D02*
X12988396Y-13908484D01*
X12988396Y-13908484D02*
X13007444Y-13918008D01*
X13007444Y-13918008D02*
X13016967Y-13927531D01*
X13016967Y-13927531D02*
X13026491Y-13946579D01*
X13026491Y-13946579D02*
X13036015Y-13984674D01*
X13036015Y-13984674D02*
X13036015Y-14032293D01*
X13036015Y-14032293D02*
X13026491Y-14070388D01*
X13026491Y-14070388D02*
X13016967Y-14089436D01*
X13016967Y-14089436D02*
X13007444Y-14098960D01*
X13007444Y-14098960D02*
X12988396Y-14108484D01*
X12988396Y-14108484D02*
X12969348Y-14108484D01*
X12969348Y-14108484D02*
X12950301Y-14098960D01*
X12950301Y-14098960D02*
X12940777Y-14089436D01*
X12940777Y-14089436D02*
X12931253Y-14070388D01*
X12931253Y-14070388D02*
X12921729Y-14032293D01*
X12921729Y-14032293D02*
X12921729Y-13984674D01*
X12921729Y-13984674D02*
X12931253Y-13946579D01*
X12931253Y-13946579D02*
X12940777Y-13927531D01*
X12940777Y-13927531D02*
X12950301Y-13918008D01*
X12950301Y-13918008D02*
X12969348Y-13908484D01*
X13226491Y-14108484D02*
X13112206Y-14108484D01*
X13169348Y-14108484D02*
X13169348Y-13908484D01*
X13169348Y-13908484D02*
X13150301Y-13937055D01*
X13150301Y-13937055D02*
X13131253Y-13956103D01*
X13131253Y-13956103D02*
X13112206Y-13965627D01*
X13321729Y-14108484D02*
X13359825Y-14108484D01*
X13359825Y-14108484D02*
X13378872Y-14098960D01*
X13378872Y-14098960D02*
X13388396Y-14089436D01*
X13388396Y-14089436D02*
X13407444Y-14060865D01*
X13407444Y-14060865D02*
X13416967Y-14022769D01*
X13416967Y-14022769D02*
X13416967Y-13946579D01*
X13416967Y-13946579D02*
X13407444Y-13927531D01*
X13407444Y-13927531D02*
X13397920Y-13918008D01*
X13397920Y-13918008D02*
X13378872Y-13908484D01*
X13378872Y-13908484D02*
X13340777Y-13908484D01*
X13340777Y-13908484D02*
X13321729Y-13918008D01*
X13321729Y-13918008D02*
X13312206Y-13927531D01*
X13312206Y-13927531D02*
X13302682Y-13946579D01*
X13302682Y-13946579D02*
X13302682Y-13994198D01*
X13302682Y-13994198D02*
X13312206Y-14013246D01*
X13312206Y-14013246D02*
X13321729Y-14022769D01*
X13321729Y-14022769D02*
X13340777Y-14032293D01*
X13340777Y-14032293D02*
X13378872Y-14032293D01*
X13378872Y-14032293D02*
X13397920Y-14022769D01*
X13397920Y-14022769D02*
X13407444Y-14013246D01*
X13407444Y-14013246D02*
X13416967Y-13994198D01*
X13483634Y-13908484D02*
X13616967Y-13908484D01*
X13616967Y-13908484D02*
X13531253Y-14108484D01*
X13683634Y-13908484D02*
X13683634Y-13946579D01*
X13759825Y-13908484D02*
X13759825Y-13946579D01*
X14055063Y-14184674D02*
X14045539Y-14175150D01*
X14045539Y-14175150D02*
X14026491Y-14146579D01*
X14026491Y-14146579D02*
X14016968Y-14127531D01*
X14016968Y-14127531D02*
X14007444Y-14098960D01*
X14007444Y-14098960D02*
X13997920Y-14051341D01*
X13997920Y-14051341D02*
X13997920Y-14013246D01*
X13997920Y-14013246D02*
X14007444Y-13965627D01*
X14007444Y-13965627D02*
X14016968Y-13937055D01*
X14016968Y-13937055D02*
X14026491Y-13918008D01*
X14026491Y-13918008D02*
X14045539Y-13889436D01*
X14045539Y-13889436D02*
X14055063Y-13879912D01*
X14226491Y-13908484D02*
X14131253Y-13908484D01*
X14131253Y-13908484D02*
X14121729Y-14003722D01*
X14121729Y-14003722D02*
X14131253Y-13994198D01*
X14131253Y-13994198D02*
X14150301Y-13984674D01*
X14150301Y-13984674D02*
X14197920Y-13984674D01*
X14197920Y-13984674D02*
X14216968Y-13994198D01*
X14216968Y-13994198D02*
X14226491Y-14003722D01*
X14226491Y-14003722D02*
X14236015Y-14022769D01*
X14236015Y-14022769D02*
X14236015Y-14070388D01*
X14236015Y-14070388D02*
X14226491Y-14089436D01*
X14226491Y-14089436D02*
X14216968Y-14098960D01*
X14216968Y-14098960D02*
X14197920Y-14108484D01*
X14197920Y-14108484D02*
X14150301Y-14108484D01*
X14150301Y-14108484D02*
X14131253Y-14098960D01*
X14131253Y-14098960D02*
X14121729Y-14089436D01*
X14474110Y-14108484D02*
X14474110Y-13908484D01*
X14559825Y-14108484D02*
X14559825Y-14003722D01*
X14559825Y-14003722D02*
X14550301Y-13984674D01*
X14550301Y-13984674D02*
X14531253Y-13975150D01*
X14531253Y-13975150D02*
X14502682Y-13975150D01*
X14502682Y-13975150D02*
X14483634Y-13984674D01*
X14483634Y-13984674D02*
X14474110Y-13994198D01*
X14683634Y-14108484D02*
X14664587Y-14098960D01*
X14664587Y-14098960D02*
X14655063Y-14089436D01*
X14655063Y-14089436D02*
X14645539Y-14070388D01*
X14645539Y-14070388D02*
X14645539Y-14013246D01*
X14645539Y-14013246D02*
X14655063Y-13994198D01*
X14655063Y-13994198D02*
X14664587Y-13984674D01*
X14664587Y-13984674D02*
X14683634Y-13975150D01*
X14683634Y-13975150D02*
X14712206Y-13975150D01*
X14712206Y-13975150D02*
X14731253Y-13984674D01*
X14731253Y-13984674D02*
X14740777Y-13994198D01*
X14740777Y-13994198D02*
X14750301Y-14013246D01*
X14750301Y-14013246D02*
X14750301Y-14070388D01*
X14750301Y-14070388D02*
X14740777Y-14089436D01*
X14740777Y-14089436D02*
X14731253Y-14098960D01*
X14731253Y-14098960D02*
X14712206Y-14108484D01*
X14712206Y-14108484D02*
X14683634Y-14108484D01*
X14864587Y-14108484D02*
X14845539Y-14098960D01*
X14845539Y-14098960D02*
X14836015Y-14079912D01*
X14836015Y-14079912D02*
X14836015Y-13908484D01*
X15016968Y-14098960D02*
X14997920Y-14108484D01*
X14997920Y-14108484D02*
X14959825Y-14108484D01*
X14959825Y-14108484D02*
X14940777Y-14098960D01*
X14940777Y-14098960D02*
X14931253Y-14079912D01*
X14931253Y-14079912D02*
X14931253Y-14003722D01*
X14931253Y-14003722D02*
X14940777Y-13984674D01*
X14940777Y-13984674D02*
X14959825Y-13975150D01*
X14959825Y-13975150D02*
X14997920Y-13975150D01*
X14997920Y-13975150D02*
X15016968Y-13984674D01*
X15016968Y-13984674D02*
X15026491Y-14003722D01*
X15026491Y-14003722D02*
X15026491Y-14022769D01*
X15026491Y-14022769D02*
X14931253Y-14041817D01*
X15102682Y-14098960D02*
X15121730Y-14108484D01*
X15121730Y-14108484D02*
X15159825Y-14108484D01*
X15159825Y-14108484D02*
X15178872Y-14098960D01*
X15178872Y-14098960D02*
X15188396Y-14079912D01*
X15188396Y-14079912D02*
X15188396Y-14070388D01*
X15188396Y-14070388D02*
X15178872Y-14051341D01*
X15178872Y-14051341D02*
X15159825Y-14041817D01*
X15159825Y-14041817D02*
X15131253Y-14041817D01*
X15131253Y-14041817D02*
X15112206Y-14032293D01*
X15112206Y-14032293D02*
X15102682Y-14013246D01*
X15102682Y-14013246D02*
X15102682Y-14003722D01*
X15102682Y-14003722D02*
X15112206Y-13984674D01*
X15112206Y-13984674D02*
X15131253Y-13975150D01*
X15131253Y-13975150D02*
X15159825Y-13975150D01*
X15159825Y-13975150D02*
X15178872Y-13984674D01*
X15255063Y-14184674D02*
X15264587Y-14175150D01*
X15264587Y-14175150D02*
X15283634Y-14146579D01*
X15283634Y-14146579D02*
X15293158Y-14127531D01*
X15293158Y-14127531D02*
X15302682Y-14098960D01*
X15302682Y-14098960D02*
X15312206Y-14051341D01*
X15312206Y-14051341D02*
X15312206Y-14013246D01*
X15312206Y-14013246D02*
X15302682Y-13965627D01*
X15302682Y-13965627D02*
X15293158Y-13937055D01*
X15293158Y-13937055D02*
X15283634Y-13918008D01*
X15283634Y-13918008D02*
X15264587Y-13889436D01*
X15264587Y-13889436D02*
X15255063Y-13879912D01*
D10*
X10465356Y-14316356D02*
X10465356Y-14245644D01*
X10394644Y-14245644D01*
X10394644Y-14316356D01*
X10465356Y-14316356D01*
D11*
X10845539Y-14372484D02*
X10731253Y-14372484D01*
X10788396Y-14372484D02*
X10788396Y-14172484D01*
X10788396Y-14172484D02*
X10769348Y-14201055D01*
X10769348Y-14201055D02*
X10750301Y-14220103D01*
X10750301Y-14220103D02*
X10731253Y-14229627D01*
X10931253Y-14353436D02*
X10940777Y-14362960D01*
X10940777Y-14362960D02*
X10931253Y-14372484D01*
X10931253Y-14372484D02*
X10921729Y-14362960D01*
X10921729Y-14362960D02*
X10931253Y-14353436D01*
X10931253Y-14353436D02*
X10931253Y-14372484D01*
X11064586Y-14172484D02*
X11083634Y-14172484D01*
X11083634Y-14172484D02*
X11102682Y-14182008D01*
X11102682Y-14182008D02*
X11112205Y-14191531D01*
X11112205Y-14191531D02*
X11121729Y-14210579D01*
X11121729Y-14210579D02*
X11131253Y-14248674D01*
X11131253Y-14248674D02*
X11131253Y-14296293D01*
X11131253Y-14296293D02*
X11121729Y-14334388D01*
X11121729Y-14334388D02*
X11112205Y-14353436D01*
X11112205Y-14353436D02*
X11102682Y-14362960D01*
X11102682Y-14362960D02*
X11083634Y-14372484D01*
X11083634Y-14372484D02*
X11064586Y-14372484D01*
X11064586Y-14372484D02*
X11045539Y-14362960D01*
X11045539Y-14362960D02*
X11036015Y-14353436D01*
X11036015Y-14353436D02*
X11026491Y-14334388D01*
X11026491Y-14334388D02*
X11016967Y-14296293D01*
X11016967Y-14296293D02*
X11016967Y-14248674D01*
X11016967Y-14248674D02*
X11026491Y-14210579D01*
X11026491Y-14210579D02*
X11036015Y-14191531D01*
X11036015Y-14191531D02*
X11045539Y-14182008D01*
X11045539Y-14182008D02*
X11064586Y-14172484D01*
X11255062Y-14172484D02*
X11274110Y-14172484D01*
X11274110Y-14172484D02*
X11293158Y-14182008D01*
X11293158Y-14182008D02*
X11302682Y-14191531D01*
X11302682Y-14191531D02*
X11312205Y-14210579D01*
X11312205Y-14210579D02*
X11321729Y-14248674D01*
X11321729Y-14248674D02*
X11321729Y-14296293D01*
X11321729Y-14296293D02*
X11312205Y-14334388D01*
X11312205Y-14334388D02*
X11302682Y-14353436D01*
X11302682Y-14353436D02*
X11293158Y-14362960D01*
X11293158Y-14362960D02*
X11274110Y-14372484D01*
X11274110Y-14372484D02*
X11255062Y-14372484D01*
X11255062Y-14372484D02*
X11236015Y-14362960D01*
X11236015Y-14362960D02*
X11226491Y-14353436D01*
X11226491Y-14353436D02*
X11216967Y-14334388D01*
X11216967Y-14334388D02*
X11207443Y-14296293D01*
X11207443Y-14296293D02*
X11207443Y-14248674D01*
X11207443Y-14248674D02*
X11216967Y-14210579D01*
X11216967Y-14210579D02*
X11226491Y-14191531D01*
X11226491Y-14191531D02*
X11236015Y-14182008D01*
X11236015Y-14182008D02*
X11255062Y-14172484D01*
X11445539Y-14172484D02*
X11464586Y-14172484D01*
X11464586Y-14172484D02*
X11483634Y-14182008D01*
X11483634Y-14182008D02*
X11493158Y-14191531D01*
X11493158Y-14191531D02*
X11502682Y-14210579D01*
X11502682Y-14210579D02*
X11512205Y-14248674D01*
X11512205Y-14248674D02*
X11512205Y-14296293D01*
X11512205Y-14296293D02*
X11502682Y-14334388D01*
X11502682Y-14334388D02*
X11493158Y-14353436D01*
X11493158Y-14353436D02*
X11483634Y-14362960D01*
X11483634Y-14362960D02*
X11464586Y-14372484D01*
X11464586Y-14372484D02*
X11445539Y-14372484D01*
X11445539Y-14372484D02*
X11426491Y-14362960D01*
X11426491Y-14362960D02*
X11416967Y-14353436D01*
X11416967Y-14353436D02*
X11407443Y-14334388D01*
X11407443Y-14334388D02*
X11397920Y-14296293D01*
X11397920Y-14296293D02*
X11397920Y-14248674D01*
X11397920Y-14248674D02*
X11407443Y-14210579D01*
X11407443Y-14210579D02*
X11416967Y-14191531D01*
X11416967Y-14191531D02*
X11426491Y-14182008D01*
X11426491Y-14182008D02*
X11445539Y-14172484D01*
X11597920Y-14372484D02*
X11597920Y-14239150D01*
X11597920Y-14258198D02*
X11607443Y-14248674D01*
X11607443Y-14248674D02*
X11626491Y-14239150D01*
X11626491Y-14239150D02*
X11655063Y-14239150D01*
X11655063Y-14239150D02*
X11674110Y-14248674D01*
X11674110Y-14248674D02*
X11683634Y-14267722D01*
X11683634Y-14267722D02*
X11683634Y-14372484D01*
X11683634Y-14267722D02*
X11693158Y-14248674D01*
X11693158Y-14248674D02*
X11712205Y-14239150D01*
X11712205Y-14239150D02*
X11740777Y-14239150D01*
X11740777Y-14239150D02*
X11759824Y-14248674D01*
X11759824Y-14248674D02*
X11769348Y-14267722D01*
X11769348Y-14267722D02*
X11769348Y-14372484D01*
X11864586Y-14372484D02*
X11864586Y-14239150D01*
X11864586Y-14258198D02*
X11874110Y-14248674D01*
X11874110Y-14248674D02*
X11893158Y-14239150D01*
X11893158Y-14239150D02*
X11921729Y-14239150D01*
X11921729Y-14239150D02*
X11940777Y-14248674D01*
X11940777Y-14248674D02*
X11950301Y-14267722D01*
X11950301Y-14267722D02*
X11950301Y-14372484D01*
X11950301Y-14267722D02*
X11959824Y-14248674D01*
X11959824Y-14248674D02*
X11978872Y-14239150D01*
X11978872Y-14239150D02*
X12007443Y-14239150D01*
X12007443Y-14239150D02*
X12026491Y-14248674D01*
X12026491Y-14248674D02*
X12036015Y-14267722D01*
X12036015Y-14267722D02*
X12036015Y-14372484D01*
X12426491Y-14162960D02*
X12255063Y-14420103D01*
X12683634Y-14172484D02*
X12702682Y-14172484D01*
X12702682Y-14172484D02*
X12721729Y-14182008D01*
X12721729Y-14182008D02*
X12731253Y-14191531D01*
X12731253Y-14191531D02*
X12740777Y-14210579D01*
X12740777Y-14210579D02*
X12750301Y-14248674D01*
X12750301Y-14248674D02*
X12750301Y-14296293D01*
X12750301Y-14296293D02*
X12740777Y-14334388D01*
X12740777Y-14334388D02*
X12731253Y-14353436D01*
X12731253Y-14353436D02*
X12721729Y-14362960D01*
X12721729Y-14362960D02*
X12702682Y-14372484D01*
X12702682Y-14372484D02*
X12683634Y-14372484D01*
X12683634Y-14372484D02*
X12664586Y-14362960D01*
X12664586Y-14362960D02*
X12655063Y-14353436D01*
X12655063Y-14353436D02*
X12645539Y-14334388D01*
X12645539Y-14334388D02*
X12636015Y-14296293D01*
X12636015Y-14296293D02*
X12636015Y-14248674D01*
X12636015Y-14248674D02*
X12645539Y-14210579D01*
X12645539Y-14210579D02*
X12655063Y-14191531D01*
X12655063Y-14191531D02*
X12664586Y-14182008D01*
X12664586Y-14182008D02*
X12683634Y-14172484D01*
X12836015Y-14353436D02*
X12845539Y-14362960D01*
X12845539Y-14362960D02*
X12836015Y-14372484D01*
X12836015Y-14372484D02*
X12826491Y-14362960D01*
X12826491Y-14362960D02*
X12836015Y-14353436D01*
X12836015Y-14353436D02*
X12836015Y-14372484D01*
X12969348Y-14172484D02*
X12988396Y-14172484D01*
X12988396Y-14172484D02*
X13007444Y-14182008D01*
X13007444Y-14182008D02*
X13016967Y-14191531D01*
X13016967Y-14191531D02*
X13026491Y-14210579D01*
X13026491Y-14210579D02*
X13036015Y-14248674D01*
X13036015Y-14248674D02*
X13036015Y-14296293D01*
X13036015Y-14296293D02*
X13026491Y-14334388D01*
X13026491Y-14334388D02*
X13016967Y-14353436D01*
X13016967Y-14353436D02*
X13007444Y-14362960D01*
X13007444Y-14362960D02*
X12988396Y-14372484D01*
X12988396Y-14372484D02*
X12969348Y-14372484D01*
X12969348Y-14372484D02*
X12950301Y-14362960D01*
X12950301Y-14362960D02*
X12940777Y-14353436D01*
X12940777Y-14353436D02*
X12931253Y-14334388D01*
X12931253Y-14334388D02*
X12921729Y-14296293D01*
X12921729Y-14296293D02*
X12921729Y-14248674D01*
X12921729Y-14248674D02*
X12931253Y-14210579D01*
X12931253Y-14210579D02*
X12940777Y-14191531D01*
X12940777Y-14191531D02*
X12950301Y-14182008D01*
X12950301Y-14182008D02*
X12969348Y-14172484D01*
X13102682Y-14172484D02*
X13226491Y-14172484D01*
X13226491Y-14172484D02*
X13159825Y-14248674D01*
X13159825Y-14248674D02*
X13188396Y-14248674D01*
X13188396Y-14248674D02*
X13207444Y-14258198D01*
X13207444Y-14258198D02*
X13216967Y-14267722D01*
X13216967Y-14267722D02*
X13226491Y-14286769D01*
X13226491Y-14286769D02*
X13226491Y-14334388D01*
X13226491Y-14334388D02*
X13216967Y-14353436D01*
X13216967Y-14353436D02*
X13207444Y-14362960D01*
X13207444Y-14362960D02*
X13188396Y-14372484D01*
X13188396Y-14372484D02*
X13131253Y-14372484D01*
X13131253Y-14372484D02*
X13112206Y-14362960D01*
X13112206Y-14362960D02*
X13102682Y-14353436D01*
X13321729Y-14372484D02*
X13359825Y-14372484D01*
X13359825Y-14372484D02*
X13378872Y-14362960D01*
X13378872Y-14362960D02*
X13388396Y-14353436D01*
X13388396Y-14353436D02*
X13407444Y-14324865D01*
X13407444Y-14324865D02*
X13416967Y-14286769D01*
X13416967Y-14286769D02*
X13416967Y-14210579D01*
X13416967Y-14210579D02*
X13407444Y-14191531D01*
X13407444Y-14191531D02*
X13397920Y-14182008D01*
X13397920Y-14182008D02*
X13378872Y-14172484D01*
X13378872Y-14172484D02*
X13340777Y-14172484D01*
X13340777Y-14172484D02*
X13321729Y-14182008D01*
X13321729Y-14182008D02*
X13312206Y-14191531D01*
X13312206Y-14191531D02*
X13302682Y-14210579D01*
X13302682Y-14210579D02*
X13302682Y-14258198D01*
X13302682Y-14258198D02*
X13312206Y-14277246D01*
X13312206Y-14277246D02*
X13321729Y-14286769D01*
X13321729Y-14286769D02*
X13340777Y-14296293D01*
X13340777Y-14296293D02*
X13378872Y-14296293D01*
X13378872Y-14296293D02*
X13397920Y-14286769D01*
X13397920Y-14286769D02*
X13407444Y-14277246D01*
X13407444Y-14277246D02*
X13416967Y-14258198D01*
X13588396Y-14239150D02*
X13588396Y-14372484D01*
X13540777Y-14162960D02*
X13493158Y-14305817D01*
X13493158Y-14305817D02*
X13616967Y-14305817D01*
X13683634Y-14172484D02*
X13683634Y-14210579D01*
X13759825Y-14172484D02*
X13759825Y-14210579D01*
X14055063Y-14448674D02*
X14045539Y-14439150D01*
X14045539Y-14439150D02*
X14026491Y-14410579D01*
X14026491Y-14410579D02*
X14016968Y-14391531D01*
X14016968Y-14391531D02*
X14007444Y-14362960D01*
X14007444Y-14362960D02*
X13997920Y-14315341D01*
X13997920Y-14315341D02*
X13997920Y-14277246D01*
X13997920Y-14277246D02*
X14007444Y-14229627D01*
X14007444Y-14229627D02*
X14016968Y-14201055D01*
X14016968Y-14201055D02*
X14026491Y-14182008D01*
X14026491Y-14182008D02*
X14045539Y-14153436D01*
X14045539Y-14153436D02*
X14055063Y-14143912D01*
X14121729Y-14191531D02*
X14131253Y-14182008D01*
X14131253Y-14182008D02*
X14150301Y-14172484D01*
X14150301Y-14172484D02*
X14197920Y-14172484D01*
X14197920Y-14172484D02*
X14216968Y-14182008D01*
X14216968Y-14182008D02*
X14226491Y-14191531D01*
X14226491Y-14191531D02*
X14236015Y-14210579D01*
X14236015Y-14210579D02*
X14236015Y-14229627D01*
X14236015Y-14229627D02*
X14226491Y-14258198D01*
X14226491Y-14258198D02*
X14112206Y-14372484D01*
X14112206Y-14372484D02*
X14236015Y-14372484D01*
X14474110Y-14372484D02*
X14474110Y-14172484D01*
X14559825Y-14372484D02*
X14559825Y-14267722D01*
X14559825Y-14267722D02*
X14550301Y-14248674D01*
X14550301Y-14248674D02*
X14531253Y-14239150D01*
X14531253Y-14239150D02*
X14502682Y-14239150D01*
X14502682Y-14239150D02*
X14483634Y-14248674D01*
X14483634Y-14248674D02*
X14474110Y-14258198D01*
X14683634Y-14372484D02*
X14664587Y-14362960D01*
X14664587Y-14362960D02*
X14655063Y-14353436D01*
X14655063Y-14353436D02*
X14645539Y-14334388D01*
X14645539Y-14334388D02*
X14645539Y-14277246D01*
X14645539Y-14277246D02*
X14655063Y-14258198D01*
X14655063Y-14258198D02*
X14664587Y-14248674D01*
X14664587Y-14248674D02*
X14683634Y-14239150D01*
X14683634Y-14239150D02*
X14712206Y-14239150D01*
X14712206Y-14239150D02*
X14731253Y-14248674D01*
X14731253Y-14248674D02*
X14740777Y-14258198D01*
X14740777Y-14258198D02*
X14750301Y-14277246D01*
X14750301Y-14277246D02*
X14750301Y-14334388D01*
X14750301Y-14334388D02*
X14740777Y-14353436D01*
X14740777Y-14353436D02*
X14731253Y-14362960D01*
X14731253Y-14362960D02*
X14712206Y-14372484D01*
X14712206Y-14372484D02*
X14683634Y-14372484D01*
X14864587Y-14372484D02*
X14845539Y-14362960D01*
X14845539Y-14362960D02*
X14836015Y-14343912D01*
X14836015Y-14343912D02*
X14836015Y-14172484D01*
X15016968Y-14362960D02*
X14997920Y-14372484D01*
X14997920Y-14372484D02*
X14959825Y-14372484D01*
X14959825Y-14372484D02*
X14940777Y-14362960D01*
X14940777Y-14362960D02*
X14931253Y-14343912D01*
X14931253Y-14343912D02*
X14931253Y-14267722D01*
X14931253Y-14267722D02*
X14940777Y-14248674D01*
X14940777Y-14248674D02*
X14959825Y-14239150D01*
X14959825Y-14239150D02*
X14997920Y-14239150D01*
X14997920Y-14239150D02*
X15016968Y-14248674D01*
X15016968Y-14248674D02*
X15026491Y-14267722D01*
X15026491Y-14267722D02*
X15026491Y-14286769D01*
X15026491Y-14286769D02*
X14931253Y-14305817D01*
X15102682Y-14362960D02*
X15121730Y-14372484D01*
X15121730Y-14372484D02*
X15159825Y-14372484D01*
X15159825Y-14372484D02*
X15178872Y-14362960D01*
X15178872Y-14362960D02*
X15188396Y-14343912D01*
X15188396Y-14343912D02*
X15188396Y-14334388D01*
X15188396Y-14334388D02*
X15178872Y-14315341D01*
X15178872Y-14315341D02*
X15159825Y-14305817D01*
X15159825Y-14305817D02*
X15131253Y-14305817D01*
X15131253Y-14305817D02*
X15112206Y-14296293D01*
X15112206Y-14296293D02*
X15102682Y-14277246D01*
X15102682Y-14277246D02*
X15102682Y-14267722D01*
X15102682Y-14267722D02*
X15112206Y-14248674D01*
X15112206Y-14248674D02*
X15131253Y-14239150D01*
X15131253Y-14239150D02*
X15159825Y-14239150D01*
X15159825Y-14239150D02*
X15178872Y-14248674D01*
X15255063Y-14448674D02*
X15264587Y-14439150D01*
X15264587Y-14439150D02*
X15283634Y-14410579D01*
X15283634Y-14410579D02*
X15293158Y-14391531D01*
X15293158Y-14391531D02*
X15302682Y-14362960D01*
X15302682Y-14362960D02*
X15312206Y-14315341D01*
X15312206Y-14315341D02*
X15312206Y-14277246D01*
X15312206Y-14277246D02*
X15302682Y-14229627D01*
X15302682Y-14229627D02*
X15293158Y-14201055D01*
X15293158Y-14201055D02*
X15283634Y-14182008D01*
X15283634Y-14182008D02*
X15264587Y-14153436D01*
X15264587Y-14153436D02*
X15255063Y-14143912D01*
D10*
X10430000Y-14595000D02*
X10480000Y-14545000D01*
X10430000Y-14495000D01*
X10380000Y-14545000D01*
X10430000Y-14595000D01*
D11*
X10845539Y-14636484D02*
X10731253Y-14636484D01*
X10788396Y-14636484D02*
X10788396Y-14436484D01*
X10788396Y-14436484D02*
X10769348Y-14465055D01*
X10769348Y-14465055D02*
X10750301Y-14484103D01*
X10750301Y-14484103D02*
X10731253Y-14493627D01*
X10931253Y-14617436D02*
X10940777Y-14626960D01*
X10940777Y-14626960D02*
X10931253Y-14636484D01*
X10931253Y-14636484D02*
X10921729Y-14626960D01*
X10921729Y-14626960D02*
X10931253Y-14617436D01*
X10931253Y-14617436D02*
X10931253Y-14636484D01*
X11064586Y-14436484D02*
X11083634Y-14436484D01*
X11083634Y-14436484D02*
X11102682Y-14446008D01*
X11102682Y-14446008D02*
X11112205Y-14455531D01*
X11112205Y-14455531D02*
X11121729Y-14474579D01*
X11121729Y-14474579D02*
X11131253Y-14512674D01*
X11131253Y-14512674D02*
X11131253Y-14560293D01*
X11131253Y-14560293D02*
X11121729Y-14598388D01*
X11121729Y-14598388D02*
X11112205Y-14617436D01*
X11112205Y-14617436D02*
X11102682Y-14626960D01*
X11102682Y-14626960D02*
X11083634Y-14636484D01*
X11083634Y-14636484D02*
X11064586Y-14636484D01*
X11064586Y-14636484D02*
X11045539Y-14626960D01*
X11045539Y-14626960D02*
X11036015Y-14617436D01*
X11036015Y-14617436D02*
X11026491Y-14598388D01*
X11026491Y-14598388D02*
X11016967Y-14560293D01*
X11016967Y-14560293D02*
X11016967Y-14512674D01*
X11016967Y-14512674D02*
X11026491Y-14474579D01*
X11026491Y-14474579D02*
X11036015Y-14455531D01*
X11036015Y-14455531D02*
X11045539Y-14446008D01*
X11045539Y-14446008D02*
X11064586Y-14436484D01*
X11255062Y-14436484D02*
X11274110Y-14436484D01*
X11274110Y-14436484D02*
X11293158Y-14446008D01*
X11293158Y-14446008D02*
X11302682Y-14455531D01*
X11302682Y-14455531D02*
X11312205Y-14474579D01*
X11312205Y-14474579D02*
X11321729Y-14512674D01*
X11321729Y-14512674D02*
X11321729Y-14560293D01*
X11321729Y-14560293D02*
X11312205Y-14598388D01*
X11312205Y-14598388D02*
X11302682Y-14617436D01*
X11302682Y-14617436D02*
X11293158Y-14626960D01*
X11293158Y-14626960D02*
X11274110Y-14636484D01*
X11274110Y-14636484D02*
X11255062Y-14636484D01*
X11255062Y-14636484D02*
X11236015Y-14626960D01*
X11236015Y-14626960D02*
X11226491Y-14617436D01*
X11226491Y-14617436D02*
X11216967Y-14598388D01*
X11216967Y-14598388D02*
X11207443Y-14560293D01*
X11207443Y-14560293D02*
X11207443Y-14512674D01*
X11207443Y-14512674D02*
X11216967Y-14474579D01*
X11216967Y-14474579D02*
X11226491Y-14455531D01*
X11226491Y-14455531D02*
X11236015Y-14446008D01*
X11236015Y-14446008D02*
X11255062Y-14436484D01*
X11445539Y-14436484D02*
X11464586Y-14436484D01*
X11464586Y-14436484D02*
X11483634Y-14446008D01*
X11483634Y-14446008D02*
X11493158Y-14455531D01*
X11493158Y-14455531D02*
X11502682Y-14474579D01*
X11502682Y-14474579D02*
X11512205Y-14512674D01*
X11512205Y-14512674D02*
X11512205Y-14560293D01*
X11512205Y-14560293D02*
X11502682Y-14598388D01*
X11502682Y-14598388D02*
X11493158Y-14617436D01*
X11493158Y-14617436D02*
X11483634Y-14626960D01*
X11483634Y-14626960D02*
X11464586Y-14636484D01*
X11464586Y-14636484D02*
X11445539Y-14636484D01*
X11445539Y-14636484D02*
X11426491Y-14626960D01*
X11426491Y-14626960D02*
X11416967Y-14617436D01*
X11416967Y-14617436D02*
X11407443Y-14598388D01*
X11407443Y-14598388D02*
X11397920Y-14560293D01*
X11397920Y-14560293D02*
X11397920Y-14512674D01*
X11397920Y-14512674D02*
X11407443Y-14474579D01*
X11407443Y-14474579D02*
X11416967Y-14455531D01*
X11416967Y-14455531D02*
X11426491Y-14446008D01*
X11426491Y-14446008D02*
X11445539Y-14436484D01*
X11597920Y-14636484D02*
X11597920Y-14503150D01*
X11597920Y-14522198D02*
X11607443Y-14512674D01*
X11607443Y-14512674D02*
X11626491Y-14503150D01*
X11626491Y-14503150D02*
X11655063Y-14503150D01*
X11655063Y-14503150D02*
X11674110Y-14512674D01*
X11674110Y-14512674D02*
X11683634Y-14531722D01*
X11683634Y-14531722D02*
X11683634Y-14636484D01*
X11683634Y-14531722D02*
X11693158Y-14512674D01*
X11693158Y-14512674D02*
X11712205Y-14503150D01*
X11712205Y-14503150D02*
X11740777Y-14503150D01*
X11740777Y-14503150D02*
X11759824Y-14512674D01*
X11759824Y-14512674D02*
X11769348Y-14531722D01*
X11769348Y-14531722D02*
X11769348Y-14636484D01*
X11864586Y-14636484D02*
X11864586Y-14503150D01*
X11864586Y-14522198D02*
X11874110Y-14512674D01*
X11874110Y-14512674D02*
X11893158Y-14503150D01*
X11893158Y-14503150D02*
X11921729Y-14503150D01*
X11921729Y-14503150D02*
X11940777Y-14512674D01*
X11940777Y-14512674D02*
X11950301Y-14531722D01*
X11950301Y-14531722D02*
X11950301Y-14636484D01*
X11950301Y-14531722D02*
X11959824Y-14512674D01*
X11959824Y-14512674D02*
X11978872Y-14503150D01*
X11978872Y-14503150D02*
X12007443Y-14503150D01*
X12007443Y-14503150D02*
X12026491Y-14512674D01*
X12026491Y-14512674D02*
X12036015Y-14531722D01*
X12036015Y-14531722D02*
X12036015Y-14636484D01*
X12426491Y-14426960D02*
X12255063Y-14684103D01*
X12683634Y-14436484D02*
X12702682Y-14436484D01*
X12702682Y-14436484D02*
X12721729Y-14446008D01*
X12721729Y-14446008D02*
X12731253Y-14455531D01*
X12731253Y-14455531D02*
X12740777Y-14474579D01*
X12740777Y-14474579D02*
X12750301Y-14512674D01*
X12750301Y-14512674D02*
X12750301Y-14560293D01*
X12750301Y-14560293D02*
X12740777Y-14598388D01*
X12740777Y-14598388D02*
X12731253Y-14617436D01*
X12731253Y-14617436D02*
X12721729Y-14626960D01*
X12721729Y-14626960D02*
X12702682Y-14636484D01*
X12702682Y-14636484D02*
X12683634Y-14636484D01*
X12683634Y-14636484D02*
X12664586Y-14626960D01*
X12664586Y-14626960D02*
X12655063Y-14617436D01*
X12655063Y-14617436D02*
X12645539Y-14598388D01*
X12645539Y-14598388D02*
X12636015Y-14560293D01*
X12636015Y-14560293D02*
X12636015Y-14512674D01*
X12636015Y-14512674D02*
X12645539Y-14474579D01*
X12645539Y-14474579D02*
X12655063Y-14455531D01*
X12655063Y-14455531D02*
X12664586Y-14446008D01*
X12664586Y-14446008D02*
X12683634Y-14436484D01*
X12836015Y-14617436D02*
X12845539Y-14626960D01*
X12845539Y-14626960D02*
X12836015Y-14636484D01*
X12836015Y-14636484D02*
X12826491Y-14626960D01*
X12826491Y-14626960D02*
X12836015Y-14617436D01*
X12836015Y-14617436D02*
X12836015Y-14636484D01*
X12969348Y-14436484D02*
X12988396Y-14436484D01*
X12988396Y-14436484D02*
X13007444Y-14446008D01*
X13007444Y-14446008D02*
X13016967Y-14455531D01*
X13016967Y-14455531D02*
X13026491Y-14474579D01*
X13026491Y-14474579D02*
X13036015Y-14512674D01*
X13036015Y-14512674D02*
X13036015Y-14560293D01*
X13036015Y-14560293D02*
X13026491Y-14598388D01*
X13026491Y-14598388D02*
X13016967Y-14617436D01*
X13016967Y-14617436D02*
X13007444Y-14626960D01*
X13007444Y-14626960D02*
X12988396Y-14636484D01*
X12988396Y-14636484D02*
X12969348Y-14636484D01*
X12969348Y-14636484D02*
X12950301Y-14626960D01*
X12950301Y-14626960D02*
X12940777Y-14617436D01*
X12940777Y-14617436D02*
X12931253Y-14598388D01*
X12931253Y-14598388D02*
X12921729Y-14560293D01*
X12921729Y-14560293D02*
X12921729Y-14512674D01*
X12921729Y-14512674D02*
X12931253Y-14474579D01*
X12931253Y-14474579D02*
X12940777Y-14455531D01*
X12940777Y-14455531D02*
X12950301Y-14446008D01*
X12950301Y-14446008D02*
X12969348Y-14436484D01*
X13102682Y-14436484D02*
X13226491Y-14436484D01*
X13226491Y-14436484D02*
X13159825Y-14512674D01*
X13159825Y-14512674D02*
X13188396Y-14512674D01*
X13188396Y-14512674D02*
X13207444Y-14522198D01*
X13207444Y-14522198D02*
X13216967Y-14531722D01*
X13216967Y-14531722D02*
X13226491Y-14550769D01*
X13226491Y-14550769D02*
X13226491Y-14598388D01*
X13226491Y-14598388D02*
X13216967Y-14617436D01*
X13216967Y-14617436D02*
X13207444Y-14626960D01*
X13207444Y-14626960D02*
X13188396Y-14636484D01*
X13188396Y-14636484D02*
X13131253Y-14636484D01*
X13131253Y-14636484D02*
X13112206Y-14626960D01*
X13112206Y-14626960D02*
X13102682Y-14617436D01*
X13321729Y-14636484D02*
X13359825Y-14636484D01*
X13359825Y-14636484D02*
X13378872Y-14626960D01*
X13378872Y-14626960D02*
X13388396Y-14617436D01*
X13388396Y-14617436D02*
X13407444Y-14588865D01*
X13407444Y-14588865D02*
X13416967Y-14550769D01*
X13416967Y-14550769D02*
X13416967Y-14474579D01*
X13416967Y-14474579D02*
X13407444Y-14455531D01*
X13407444Y-14455531D02*
X13397920Y-14446008D01*
X13397920Y-14446008D02*
X13378872Y-14436484D01*
X13378872Y-14436484D02*
X13340777Y-14436484D01*
X13340777Y-14436484D02*
X13321729Y-14446008D01*
X13321729Y-14446008D02*
X13312206Y-14455531D01*
X13312206Y-14455531D02*
X13302682Y-14474579D01*
X13302682Y-14474579D02*
X13302682Y-14522198D01*
X13302682Y-14522198D02*
X13312206Y-14541246D01*
X13312206Y-14541246D02*
X13321729Y-14550769D01*
X13321729Y-14550769D02*
X13340777Y-14560293D01*
X13340777Y-14560293D02*
X13378872Y-14560293D01*
X13378872Y-14560293D02*
X13397920Y-14550769D01*
X13397920Y-14550769D02*
X13407444Y-14541246D01*
X13407444Y-14541246D02*
X13416967Y-14522198D01*
X13588396Y-14503150D02*
X13588396Y-14636484D01*
X13540777Y-14426960D02*
X13493158Y-14569817D01*
X13493158Y-14569817D02*
X13616967Y-14569817D01*
X13683634Y-14436484D02*
X13683634Y-14474579D01*
X13759825Y-14436484D02*
X13759825Y-14474579D01*
X14055063Y-14712674D02*
X14045539Y-14703150D01*
X14045539Y-14703150D02*
X14026491Y-14674579D01*
X14026491Y-14674579D02*
X14016968Y-14655531D01*
X14016968Y-14655531D02*
X14007444Y-14626960D01*
X14007444Y-14626960D02*
X13997920Y-14579341D01*
X13997920Y-14579341D02*
X13997920Y-14541246D01*
X13997920Y-14541246D02*
X14007444Y-14493627D01*
X14007444Y-14493627D02*
X14016968Y-14465055D01*
X14016968Y-14465055D02*
X14026491Y-14446008D01*
X14026491Y-14446008D02*
X14045539Y-14417436D01*
X14045539Y-14417436D02*
X14055063Y-14407912D01*
X14236015Y-14636484D02*
X14121729Y-14636484D01*
X14178872Y-14636484D02*
X14178872Y-14436484D01*
X14178872Y-14436484D02*
X14159825Y-14465055D01*
X14159825Y-14465055D02*
X14140777Y-14484103D01*
X14140777Y-14484103D02*
X14121729Y-14493627D01*
X14359825Y-14436484D02*
X14378872Y-14436484D01*
X14378872Y-14436484D02*
X14397920Y-14446008D01*
X14397920Y-14446008D02*
X14407444Y-14455531D01*
X14407444Y-14455531D02*
X14416968Y-14474579D01*
X14416968Y-14474579D02*
X14426491Y-14512674D01*
X14426491Y-14512674D02*
X14426491Y-14560293D01*
X14426491Y-14560293D02*
X14416968Y-14598388D01*
X14416968Y-14598388D02*
X14407444Y-14617436D01*
X14407444Y-14617436D02*
X14397920Y-14626960D01*
X14397920Y-14626960D02*
X14378872Y-14636484D01*
X14378872Y-14636484D02*
X14359825Y-14636484D01*
X14359825Y-14636484D02*
X14340777Y-14626960D01*
X14340777Y-14626960D02*
X14331253Y-14617436D01*
X14331253Y-14617436D02*
X14321729Y-14598388D01*
X14321729Y-14598388D02*
X14312206Y-14560293D01*
X14312206Y-14560293D02*
X14312206Y-14512674D01*
X14312206Y-14512674D02*
X14321729Y-14474579D01*
X14321729Y-14474579D02*
X14331253Y-14455531D01*
X14331253Y-14455531D02*
X14340777Y-14446008D01*
X14340777Y-14446008D02*
X14359825Y-14436484D01*
X14664587Y-14636484D02*
X14664587Y-14436484D01*
X14750301Y-14636484D02*
X14750301Y-14531722D01*
X14750301Y-14531722D02*
X14740777Y-14512674D01*
X14740777Y-14512674D02*
X14721730Y-14503150D01*
X14721730Y-14503150D02*
X14693158Y-14503150D01*
X14693158Y-14503150D02*
X14674110Y-14512674D01*
X14674110Y-14512674D02*
X14664587Y-14522198D01*
X14874110Y-14636484D02*
X14855063Y-14626960D01*
X14855063Y-14626960D02*
X14845539Y-14617436D01*
X14845539Y-14617436D02*
X14836015Y-14598388D01*
X14836015Y-14598388D02*
X14836015Y-14541246D01*
X14836015Y-14541246D02*
X14845539Y-14522198D01*
X14845539Y-14522198D02*
X14855063Y-14512674D01*
X14855063Y-14512674D02*
X14874110Y-14503150D01*
X14874110Y-14503150D02*
X14902682Y-14503150D01*
X14902682Y-14503150D02*
X14921730Y-14512674D01*
X14921730Y-14512674D02*
X14931253Y-14522198D01*
X14931253Y-14522198D02*
X14940777Y-14541246D01*
X14940777Y-14541246D02*
X14940777Y-14598388D01*
X14940777Y-14598388D02*
X14931253Y-14617436D01*
X14931253Y-14617436D02*
X14921730Y-14626960D01*
X14921730Y-14626960D02*
X14902682Y-14636484D01*
X14902682Y-14636484D02*
X14874110Y-14636484D01*
X15055063Y-14636484D02*
X15036015Y-14626960D01*
X15036015Y-14626960D02*
X15026491Y-14607912D01*
X15026491Y-14607912D02*
X15026491Y-14436484D01*
X15207444Y-14626960D02*
X15188396Y-14636484D01*
X15188396Y-14636484D02*
X15150301Y-14636484D01*
X15150301Y-14636484D02*
X15131253Y-14626960D01*
X15131253Y-14626960D02*
X15121730Y-14607912D01*
X15121730Y-14607912D02*
X15121730Y-14531722D01*
X15121730Y-14531722D02*
X15131253Y-14512674D01*
X15131253Y-14512674D02*
X15150301Y-14503150D01*
X15150301Y-14503150D02*
X15188396Y-14503150D01*
X15188396Y-14503150D02*
X15207444Y-14512674D01*
X15207444Y-14512674D02*
X15216968Y-14531722D01*
X15216968Y-14531722D02*
X15216968Y-14550769D01*
X15216968Y-14550769D02*
X15121730Y-14569817D01*
X15293158Y-14626960D02*
X15312206Y-14636484D01*
X15312206Y-14636484D02*
X15350301Y-14636484D01*
X15350301Y-14636484D02*
X15369349Y-14626960D01*
X15369349Y-14626960D02*
X15378872Y-14607912D01*
X15378872Y-14607912D02*
X15378872Y-14598388D01*
X15378872Y-14598388D02*
X15369349Y-14579341D01*
X15369349Y-14579341D02*
X15350301Y-14569817D01*
X15350301Y-14569817D02*
X15321730Y-14569817D01*
X15321730Y-14569817D02*
X15302682Y-14560293D01*
X15302682Y-14560293D02*
X15293158Y-14541246D01*
X15293158Y-14541246D02*
X15293158Y-14531722D01*
X15293158Y-14531722D02*
X15302682Y-14512674D01*
X15302682Y-14512674D02*
X15321730Y-14503150D01*
X15321730Y-14503150D02*
X15350301Y-14503150D01*
X15350301Y-14503150D02*
X15369349Y-14512674D01*
X15445539Y-14712674D02*
X15455063Y-14703150D01*
X15455063Y-14703150D02*
X15474111Y-14674579D01*
X15474111Y-14674579D02*
X15483634Y-14655531D01*
X15483634Y-14655531D02*
X15493158Y-14626960D01*
X15493158Y-14626960D02*
X15502682Y-14579341D01*
X15502682Y-14579341D02*
X15502682Y-14541246D01*
X15502682Y-14541246D02*
X15493158Y-14493627D01*
X15493158Y-14493627D02*
X15483634Y-14465055D01*
X15483634Y-14465055D02*
X15474111Y-14446008D01*
X15474111Y-14446008D02*
X15455063Y-14417436D01*
X15455063Y-14417436D02*
X15445539Y-14407912D01*
D15*
X10365000Y-14751500D02*
X10480000Y-14866500D01*
X10480000Y-14751500D02*
X10365000Y-14866500D01*
X10480000Y-14809000D02*
G75*
G03*
X10480000Y-14809000I-57500J0D01*
G01*
D11*
X10845539Y-14900484D02*
X10731253Y-14900484D01*
X10788396Y-14900484D02*
X10788396Y-14700484D01*
X10788396Y-14700484D02*
X10769348Y-14729055D01*
X10769348Y-14729055D02*
X10750301Y-14748103D01*
X10750301Y-14748103D02*
X10731253Y-14757627D01*
X10931253Y-14881436D02*
X10940777Y-14890960D01*
X10940777Y-14890960D02*
X10931253Y-14900484D01*
X10931253Y-14900484D02*
X10921729Y-14890960D01*
X10921729Y-14890960D02*
X10931253Y-14881436D01*
X10931253Y-14881436D02*
X10931253Y-14900484D01*
X11131253Y-14900484D02*
X11016967Y-14900484D01*
X11074110Y-14900484D02*
X11074110Y-14700484D01*
X11074110Y-14700484D02*
X11055063Y-14729055D01*
X11055063Y-14729055D02*
X11036015Y-14748103D01*
X11036015Y-14748103D02*
X11016967Y-14757627D01*
X11312205Y-14700484D02*
X11216967Y-14700484D01*
X11216967Y-14700484D02*
X11207443Y-14795722D01*
X11207443Y-14795722D02*
X11216967Y-14786198D01*
X11216967Y-14786198D02*
X11236015Y-14776674D01*
X11236015Y-14776674D02*
X11283634Y-14776674D01*
X11283634Y-14776674D02*
X11302682Y-14786198D01*
X11302682Y-14786198D02*
X11312205Y-14795722D01*
X11312205Y-14795722D02*
X11321729Y-14814769D01*
X11321729Y-14814769D02*
X11321729Y-14862388D01*
X11321729Y-14862388D02*
X11312205Y-14881436D01*
X11312205Y-14881436D02*
X11302682Y-14890960D01*
X11302682Y-14890960D02*
X11283634Y-14900484D01*
X11283634Y-14900484D02*
X11236015Y-14900484D01*
X11236015Y-14900484D02*
X11216967Y-14890960D01*
X11216967Y-14890960D02*
X11207443Y-14881436D01*
X11445539Y-14700484D02*
X11464586Y-14700484D01*
X11464586Y-14700484D02*
X11483634Y-14710008D01*
X11483634Y-14710008D02*
X11493158Y-14719531D01*
X11493158Y-14719531D02*
X11502682Y-14738579D01*
X11502682Y-14738579D02*
X11512205Y-14776674D01*
X11512205Y-14776674D02*
X11512205Y-14824293D01*
X11512205Y-14824293D02*
X11502682Y-14862388D01*
X11502682Y-14862388D02*
X11493158Y-14881436D01*
X11493158Y-14881436D02*
X11483634Y-14890960D01*
X11483634Y-14890960D02*
X11464586Y-14900484D01*
X11464586Y-14900484D02*
X11445539Y-14900484D01*
X11445539Y-14900484D02*
X11426491Y-14890960D01*
X11426491Y-14890960D02*
X11416967Y-14881436D01*
X11416967Y-14881436D02*
X11407443Y-14862388D01*
X11407443Y-14862388D02*
X11397920Y-14824293D01*
X11397920Y-14824293D02*
X11397920Y-14776674D01*
X11397920Y-14776674D02*
X11407443Y-14738579D01*
X11407443Y-14738579D02*
X11416967Y-14719531D01*
X11416967Y-14719531D02*
X11426491Y-14710008D01*
X11426491Y-14710008D02*
X11445539Y-14700484D01*
X11597920Y-14900484D02*
X11597920Y-14767150D01*
X11597920Y-14786198D02*
X11607443Y-14776674D01*
X11607443Y-14776674D02*
X11626491Y-14767150D01*
X11626491Y-14767150D02*
X11655063Y-14767150D01*
X11655063Y-14767150D02*
X11674110Y-14776674D01*
X11674110Y-14776674D02*
X11683634Y-14795722D01*
X11683634Y-14795722D02*
X11683634Y-14900484D01*
X11683634Y-14795722D02*
X11693158Y-14776674D01*
X11693158Y-14776674D02*
X11712205Y-14767150D01*
X11712205Y-14767150D02*
X11740777Y-14767150D01*
X11740777Y-14767150D02*
X11759824Y-14776674D01*
X11759824Y-14776674D02*
X11769348Y-14795722D01*
X11769348Y-14795722D02*
X11769348Y-14900484D01*
X11864586Y-14900484D02*
X11864586Y-14767150D01*
X11864586Y-14786198D02*
X11874110Y-14776674D01*
X11874110Y-14776674D02*
X11893158Y-14767150D01*
X11893158Y-14767150D02*
X11921729Y-14767150D01*
X11921729Y-14767150D02*
X11940777Y-14776674D01*
X11940777Y-14776674D02*
X11950301Y-14795722D01*
X11950301Y-14795722D02*
X11950301Y-14900484D01*
X11950301Y-14795722D02*
X11959824Y-14776674D01*
X11959824Y-14776674D02*
X11978872Y-14767150D01*
X11978872Y-14767150D02*
X12007443Y-14767150D01*
X12007443Y-14767150D02*
X12026491Y-14776674D01*
X12026491Y-14776674D02*
X12036015Y-14795722D01*
X12036015Y-14795722D02*
X12036015Y-14900484D01*
X12426491Y-14690960D02*
X12255063Y-14948103D01*
X12683634Y-14700484D02*
X12702682Y-14700484D01*
X12702682Y-14700484D02*
X12721729Y-14710008D01*
X12721729Y-14710008D02*
X12731253Y-14719531D01*
X12731253Y-14719531D02*
X12740777Y-14738579D01*
X12740777Y-14738579D02*
X12750301Y-14776674D01*
X12750301Y-14776674D02*
X12750301Y-14824293D01*
X12750301Y-14824293D02*
X12740777Y-14862388D01*
X12740777Y-14862388D02*
X12731253Y-14881436D01*
X12731253Y-14881436D02*
X12721729Y-14890960D01*
X12721729Y-14890960D02*
X12702682Y-14900484D01*
X12702682Y-14900484D02*
X12683634Y-14900484D01*
X12683634Y-14900484D02*
X12664586Y-14890960D01*
X12664586Y-14890960D02*
X12655063Y-14881436D01*
X12655063Y-14881436D02*
X12645539Y-14862388D01*
X12645539Y-14862388D02*
X12636015Y-14824293D01*
X12636015Y-14824293D02*
X12636015Y-14776674D01*
X12636015Y-14776674D02*
X12645539Y-14738579D01*
X12645539Y-14738579D02*
X12655063Y-14719531D01*
X12655063Y-14719531D02*
X12664586Y-14710008D01*
X12664586Y-14710008D02*
X12683634Y-14700484D01*
X12836015Y-14881436D02*
X12845539Y-14890960D01*
X12845539Y-14890960D02*
X12836015Y-14900484D01*
X12836015Y-14900484D02*
X12826491Y-14890960D01*
X12826491Y-14890960D02*
X12836015Y-14881436D01*
X12836015Y-14881436D02*
X12836015Y-14900484D01*
X12969348Y-14700484D02*
X12988396Y-14700484D01*
X12988396Y-14700484D02*
X13007444Y-14710008D01*
X13007444Y-14710008D02*
X13016967Y-14719531D01*
X13016967Y-14719531D02*
X13026491Y-14738579D01*
X13026491Y-14738579D02*
X13036015Y-14776674D01*
X13036015Y-14776674D02*
X13036015Y-14824293D01*
X13036015Y-14824293D02*
X13026491Y-14862388D01*
X13026491Y-14862388D02*
X13016967Y-14881436D01*
X13016967Y-14881436D02*
X13007444Y-14890960D01*
X13007444Y-14890960D02*
X12988396Y-14900484D01*
X12988396Y-14900484D02*
X12969348Y-14900484D01*
X12969348Y-14900484D02*
X12950301Y-14890960D01*
X12950301Y-14890960D02*
X12940777Y-14881436D01*
X12940777Y-14881436D02*
X12931253Y-14862388D01*
X12931253Y-14862388D02*
X12921729Y-14824293D01*
X12921729Y-14824293D02*
X12921729Y-14776674D01*
X12921729Y-14776674D02*
X12931253Y-14738579D01*
X12931253Y-14738579D02*
X12940777Y-14719531D01*
X12940777Y-14719531D02*
X12950301Y-14710008D01*
X12950301Y-14710008D02*
X12969348Y-14700484D01*
X13207444Y-14767150D02*
X13207444Y-14900484D01*
X13159825Y-14690960D02*
X13112206Y-14833817D01*
X13112206Y-14833817D02*
X13236015Y-14833817D01*
X13407444Y-14700484D02*
X13312206Y-14700484D01*
X13312206Y-14700484D02*
X13302682Y-14795722D01*
X13302682Y-14795722D02*
X13312206Y-14786198D01*
X13312206Y-14786198D02*
X13331253Y-14776674D01*
X13331253Y-14776674D02*
X13378872Y-14776674D01*
X13378872Y-14776674D02*
X13397920Y-14786198D01*
X13397920Y-14786198D02*
X13407444Y-14795722D01*
X13407444Y-14795722D02*
X13416967Y-14814769D01*
X13416967Y-14814769D02*
X13416967Y-14862388D01*
X13416967Y-14862388D02*
X13407444Y-14881436D01*
X13407444Y-14881436D02*
X13397920Y-14890960D01*
X13397920Y-14890960D02*
X13378872Y-14900484D01*
X13378872Y-14900484D02*
X13331253Y-14900484D01*
X13331253Y-14900484D02*
X13312206Y-14890960D01*
X13312206Y-14890960D02*
X13302682Y-14881436D01*
X13483634Y-14700484D02*
X13607444Y-14700484D01*
X13607444Y-14700484D02*
X13540777Y-14776674D01*
X13540777Y-14776674D02*
X13569348Y-14776674D01*
X13569348Y-14776674D02*
X13588396Y-14786198D01*
X13588396Y-14786198D02*
X13597920Y-14795722D01*
X13597920Y-14795722D02*
X13607444Y-14814769D01*
X13607444Y-14814769D02*
X13607444Y-14862388D01*
X13607444Y-14862388D02*
X13597920Y-14881436D01*
X13597920Y-14881436D02*
X13588396Y-14890960D01*
X13588396Y-14890960D02*
X13569348Y-14900484D01*
X13569348Y-14900484D02*
X13512206Y-14900484D01*
X13512206Y-14900484D02*
X13493158Y-14890960D01*
X13493158Y-14890960D02*
X13483634Y-14881436D01*
X13683634Y-14700484D02*
X13683634Y-14738579D01*
X13759825Y-14700484D02*
X13759825Y-14738579D01*
X14055063Y-14976674D02*
X14045539Y-14967150D01*
X14045539Y-14967150D02*
X14026491Y-14938579D01*
X14026491Y-14938579D02*
X14016968Y-14919531D01*
X14016968Y-14919531D02*
X14007444Y-14890960D01*
X14007444Y-14890960D02*
X13997920Y-14843341D01*
X13997920Y-14843341D02*
X13997920Y-14805246D01*
X13997920Y-14805246D02*
X14007444Y-14757627D01*
X14007444Y-14757627D02*
X14016968Y-14729055D01*
X14016968Y-14729055D02*
X14026491Y-14710008D01*
X14026491Y-14710008D02*
X14045539Y-14681436D01*
X14045539Y-14681436D02*
X14055063Y-14671912D01*
X14112206Y-14700484D02*
X14236015Y-14700484D01*
X14236015Y-14700484D02*
X14169348Y-14776674D01*
X14169348Y-14776674D02*
X14197920Y-14776674D01*
X14197920Y-14776674D02*
X14216968Y-14786198D01*
X14216968Y-14786198D02*
X14226491Y-14795722D01*
X14226491Y-14795722D02*
X14236015Y-14814769D01*
X14236015Y-14814769D02*
X14236015Y-14862388D01*
X14236015Y-14862388D02*
X14226491Y-14881436D01*
X14226491Y-14881436D02*
X14216968Y-14890960D01*
X14216968Y-14890960D02*
X14197920Y-14900484D01*
X14197920Y-14900484D02*
X14140777Y-14900484D01*
X14140777Y-14900484D02*
X14121729Y-14890960D01*
X14121729Y-14890960D02*
X14112206Y-14881436D01*
X14359825Y-14700484D02*
X14378872Y-14700484D01*
X14378872Y-14700484D02*
X14397920Y-14710008D01*
X14397920Y-14710008D02*
X14407444Y-14719531D01*
X14407444Y-14719531D02*
X14416968Y-14738579D01*
X14416968Y-14738579D02*
X14426491Y-14776674D01*
X14426491Y-14776674D02*
X14426491Y-14824293D01*
X14426491Y-14824293D02*
X14416968Y-14862388D01*
X14416968Y-14862388D02*
X14407444Y-14881436D01*
X14407444Y-14881436D02*
X14397920Y-14890960D01*
X14397920Y-14890960D02*
X14378872Y-14900484D01*
X14378872Y-14900484D02*
X14359825Y-14900484D01*
X14359825Y-14900484D02*
X14340777Y-14890960D01*
X14340777Y-14890960D02*
X14331253Y-14881436D01*
X14331253Y-14881436D02*
X14321729Y-14862388D01*
X14321729Y-14862388D02*
X14312206Y-14824293D01*
X14312206Y-14824293D02*
X14312206Y-14776674D01*
X14312206Y-14776674D02*
X14321729Y-14738579D01*
X14321729Y-14738579D02*
X14331253Y-14719531D01*
X14331253Y-14719531D02*
X14340777Y-14710008D01*
X14340777Y-14710008D02*
X14359825Y-14700484D01*
X14664587Y-14900484D02*
X14664587Y-14700484D01*
X14750301Y-14900484D02*
X14750301Y-14795722D01*
X14750301Y-14795722D02*
X14740777Y-14776674D01*
X14740777Y-14776674D02*
X14721730Y-14767150D01*
X14721730Y-14767150D02*
X14693158Y-14767150D01*
X14693158Y-14767150D02*
X14674110Y-14776674D01*
X14674110Y-14776674D02*
X14664587Y-14786198D01*
X14874110Y-14900484D02*
X14855063Y-14890960D01*
X14855063Y-14890960D02*
X14845539Y-14881436D01*
X14845539Y-14881436D02*
X14836015Y-14862388D01*
X14836015Y-14862388D02*
X14836015Y-14805246D01*
X14836015Y-14805246D02*
X14845539Y-14786198D01*
X14845539Y-14786198D02*
X14855063Y-14776674D01*
X14855063Y-14776674D02*
X14874110Y-14767150D01*
X14874110Y-14767150D02*
X14902682Y-14767150D01*
X14902682Y-14767150D02*
X14921730Y-14776674D01*
X14921730Y-14776674D02*
X14931253Y-14786198D01*
X14931253Y-14786198D02*
X14940777Y-14805246D01*
X14940777Y-14805246D02*
X14940777Y-14862388D01*
X14940777Y-14862388D02*
X14931253Y-14881436D01*
X14931253Y-14881436D02*
X14921730Y-14890960D01*
X14921730Y-14890960D02*
X14902682Y-14900484D01*
X14902682Y-14900484D02*
X14874110Y-14900484D01*
X15055063Y-14900484D02*
X15036015Y-14890960D01*
X15036015Y-14890960D02*
X15026491Y-14871912D01*
X15026491Y-14871912D02*
X15026491Y-14700484D01*
X15207444Y-14890960D02*
X15188396Y-14900484D01*
X15188396Y-14900484D02*
X15150301Y-14900484D01*
X15150301Y-14900484D02*
X15131253Y-14890960D01*
X15131253Y-14890960D02*
X15121730Y-14871912D01*
X15121730Y-14871912D02*
X15121730Y-14795722D01*
X15121730Y-14795722D02*
X15131253Y-14776674D01*
X15131253Y-14776674D02*
X15150301Y-14767150D01*
X15150301Y-14767150D02*
X15188396Y-14767150D01*
X15188396Y-14767150D02*
X15207444Y-14776674D01*
X15207444Y-14776674D02*
X15216968Y-14795722D01*
X15216968Y-14795722D02*
X15216968Y-14814769D01*
X15216968Y-14814769D02*
X15121730Y-14833817D01*
X15293158Y-14890960D02*
X15312206Y-14900484D01*
X15312206Y-14900484D02*
X15350301Y-14900484D01*
X15350301Y-14900484D02*
X15369349Y-14890960D01*
X15369349Y-14890960D02*
X15378872Y-14871912D01*
X15378872Y-14871912D02*
X15378872Y-14862388D01*
X15378872Y-14862388D02*
X15369349Y-14843341D01*
X15369349Y-14843341D02*
X15350301Y-14833817D01*
X15350301Y-14833817D02*
X15321730Y-14833817D01*
X15321730Y-14833817D02*
X15302682Y-14824293D01*
X15302682Y-14824293D02*
X15293158Y-14805246D01*
X15293158Y-14805246D02*
X15293158Y-14795722D01*
X15293158Y-14795722D02*
X15302682Y-14776674D01*
X15302682Y-14776674D02*
X15321730Y-14767150D01*
X15321730Y-14767150D02*
X15350301Y-14767150D01*
X15350301Y-14767150D02*
X15369349Y-14776674D01*
X15445539Y-14976674D02*
X15455063Y-14967150D01*
X15455063Y-14967150D02*
X15474111Y-14938579D01*
X15474111Y-14938579D02*
X15483634Y-14919531D01*
X15483634Y-14919531D02*
X15493158Y-14890960D01*
X15493158Y-14890960D02*
X15502682Y-14843341D01*
X15502682Y-14843341D02*
X15502682Y-14805246D01*
X15502682Y-14805246D02*
X15493158Y-14757627D01*
X15493158Y-14757627D02*
X15483634Y-14729055D01*
X15483634Y-14729055D02*
X15474111Y-14710008D01*
X15474111Y-14710008D02*
X15455063Y-14681436D01*
X15455063Y-14681436D02*
X15445539Y-14671912D01*
X10280000Y-14973000D02*
X10480000Y-15173000D01*
X10480000Y-14973000D02*
X10280000Y-15173000D01*
X10380000Y-14973000D02*
X10380000Y-15173000D01*
X10280000Y-15073000D02*
X10480000Y-15073000D01*
X10731253Y-14983531D02*
X10740777Y-14974008D01*
X10740777Y-14974008D02*
X10759824Y-14964484D01*
X10759824Y-14964484D02*
X10807444Y-14964484D01*
X10807444Y-14964484D02*
X10826491Y-14974008D01*
X10826491Y-14974008D02*
X10836015Y-14983531D01*
X10836015Y-14983531D02*
X10845539Y-15002579D01*
X10845539Y-15002579D02*
X10845539Y-15021627D01*
X10845539Y-15021627D02*
X10836015Y-15050198D01*
X10836015Y-15050198D02*
X10721729Y-15164484D01*
X10721729Y-15164484D02*
X10845539Y-15164484D01*
X10931253Y-15145436D02*
X10940777Y-15154960D01*
X10940777Y-15154960D02*
X10931253Y-15164484D01*
X10931253Y-15164484D02*
X10921729Y-15154960D01*
X10921729Y-15154960D02*
X10931253Y-15145436D01*
X10931253Y-15145436D02*
X10931253Y-15164484D01*
X11131253Y-15164484D02*
X11016967Y-15164484D01*
X11074110Y-15164484D02*
X11074110Y-14964484D01*
X11074110Y-14964484D02*
X11055063Y-14993055D01*
X11055063Y-14993055D02*
X11036015Y-15012103D01*
X11036015Y-15012103D02*
X11016967Y-15021627D01*
X11255062Y-14964484D02*
X11274110Y-14964484D01*
X11274110Y-14964484D02*
X11293158Y-14974008D01*
X11293158Y-14974008D02*
X11302682Y-14983531D01*
X11302682Y-14983531D02*
X11312205Y-15002579D01*
X11312205Y-15002579D02*
X11321729Y-15040674D01*
X11321729Y-15040674D02*
X11321729Y-15088293D01*
X11321729Y-15088293D02*
X11312205Y-15126388D01*
X11312205Y-15126388D02*
X11302682Y-15145436D01*
X11302682Y-15145436D02*
X11293158Y-15154960D01*
X11293158Y-15154960D02*
X11274110Y-15164484D01*
X11274110Y-15164484D02*
X11255062Y-15164484D01*
X11255062Y-15164484D02*
X11236015Y-15154960D01*
X11236015Y-15154960D02*
X11226491Y-15145436D01*
X11226491Y-15145436D02*
X11216967Y-15126388D01*
X11216967Y-15126388D02*
X11207443Y-15088293D01*
X11207443Y-15088293D02*
X11207443Y-15040674D01*
X11207443Y-15040674D02*
X11216967Y-15002579D01*
X11216967Y-15002579D02*
X11226491Y-14983531D01*
X11226491Y-14983531D02*
X11236015Y-14974008D01*
X11236015Y-14974008D02*
X11255062Y-14964484D01*
X11445539Y-14964484D02*
X11464586Y-14964484D01*
X11464586Y-14964484D02*
X11483634Y-14974008D01*
X11483634Y-14974008D02*
X11493158Y-14983531D01*
X11493158Y-14983531D02*
X11502682Y-15002579D01*
X11502682Y-15002579D02*
X11512205Y-15040674D01*
X11512205Y-15040674D02*
X11512205Y-15088293D01*
X11512205Y-15088293D02*
X11502682Y-15126388D01*
X11502682Y-15126388D02*
X11493158Y-15145436D01*
X11493158Y-15145436D02*
X11483634Y-15154960D01*
X11483634Y-15154960D02*
X11464586Y-15164484D01*
X11464586Y-15164484D02*
X11445539Y-15164484D01*
X11445539Y-15164484D02*
X11426491Y-15154960D01*
X11426491Y-15154960D02*
X11416967Y-15145436D01*
X11416967Y-15145436D02*
X11407443Y-15126388D01*
X11407443Y-15126388D02*
X11397920Y-15088293D01*
X11397920Y-15088293D02*
X11397920Y-15040674D01*
X11397920Y-15040674D02*
X11407443Y-15002579D01*
X11407443Y-15002579D02*
X11416967Y-14983531D01*
X11416967Y-14983531D02*
X11426491Y-14974008D01*
X11426491Y-14974008D02*
X11445539Y-14964484D01*
X11597920Y-15164484D02*
X11597920Y-15031150D01*
X11597920Y-15050198D02*
X11607443Y-15040674D01*
X11607443Y-15040674D02*
X11626491Y-15031150D01*
X11626491Y-15031150D02*
X11655063Y-15031150D01*
X11655063Y-15031150D02*
X11674110Y-15040674D01*
X11674110Y-15040674D02*
X11683634Y-15059722D01*
X11683634Y-15059722D02*
X11683634Y-15164484D01*
X11683634Y-15059722D02*
X11693158Y-15040674D01*
X11693158Y-15040674D02*
X11712205Y-15031150D01*
X11712205Y-15031150D02*
X11740777Y-15031150D01*
X11740777Y-15031150D02*
X11759824Y-15040674D01*
X11759824Y-15040674D02*
X11769348Y-15059722D01*
X11769348Y-15059722D02*
X11769348Y-15164484D01*
X11864586Y-15164484D02*
X11864586Y-15031150D01*
X11864586Y-15050198D02*
X11874110Y-15040674D01*
X11874110Y-15040674D02*
X11893158Y-15031150D01*
X11893158Y-15031150D02*
X11921729Y-15031150D01*
X11921729Y-15031150D02*
X11940777Y-15040674D01*
X11940777Y-15040674D02*
X11950301Y-15059722D01*
X11950301Y-15059722D02*
X11950301Y-15164484D01*
X11950301Y-15059722D02*
X11959824Y-15040674D01*
X11959824Y-15040674D02*
X11978872Y-15031150D01*
X11978872Y-15031150D02*
X12007443Y-15031150D01*
X12007443Y-15031150D02*
X12026491Y-15040674D01*
X12026491Y-15040674D02*
X12036015Y-15059722D01*
X12036015Y-15059722D02*
X12036015Y-15164484D01*
X12426491Y-14954960D02*
X12255063Y-15212103D01*
X12683634Y-14964484D02*
X12702682Y-14964484D01*
X12702682Y-14964484D02*
X12721729Y-14974008D01*
X12721729Y-14974008D02*
X12731253Y-14983531D01*
X12731253Y-14983531D02*
X12740777Y-15002579D01*
X12740777Y-15002579D02*
X12750301Y-15040674D01*
X12750301Y-15040674D02*
X12750301Y-15088293D01*
X12750301Y-15088293D02*
X12740777Y-15126388D01*
X12740777Y-15126388D02*
X12731253Y-15145436D01*
X12731253Y-15145436D02*
X12721729Y-15154960D01*
X12721729Y-15154960D02*
X12702682Y-15164484D01*
X12702682Y-15164484D02*
X12683634Y-15164484D01*
X12683634Y-15164484D02*
X12664586Y-15154960D01*
X12664586Y-15154960D02*
X12655063Y-15145436D01*
X12655063Y-15145436D02*
X12645539Y-15126388D01*
X12645539Y-15126388D02*
X12636015Y-15088293D01*
X12636015Y-15088293D02*
X12636015Y-15040674D01*
X12636015Y-15040674D02*
X12645539Y-15002579D01*
X12645539Y-15002579D02*
X12655063Y-14983531D01*
X12655063Y-14983531D02*
X12664586Y-14974008D01*
X12664586Y-14974008D02*
X12683634Y-14964484D01*
X12836015Y-15145436D02*
X12845539Y-15154960D01*
X12845539Y-15154960D02*
X12836015Y-15164484D01*
X12836015Y-15164484D02*
X12826491Y-15154960D01*
X12826491Y-15154960D02*
X12836015Y-15145436D01*
X12836015Y-15145436D02*
X12836015Y-15164484D01*
X12969348Y-14964484D02*
X12988396Y-14964484D01*
X12988396Y-14964484D02*
X13007444Y-14974008D01*
X13007444Y-14974008D02*
X13016967Y-14983531D01*
X13016967Y-14983531D02*
X13026491Y-15002579D01*
X13026491Y-15002579D02*
X13036015Y-15040674D01*
X13036015Y-15040674D02*
X13036015Y-15088293D01*
X13036015Y-15088293D02*
X13026491Y-15126388D01*
X13026491Y-15126388D02*
X13016967Y-15145436D01*
X13016967Y-15145436D02*
X13007444Y-15154960D01*
X13007444Y-15154960D02*
X12988396Y-15164484D01*
X12988396Y-15164484D02*
X12969348Y-15164484D01*
X12969348Y-15164484D02*
X12950301Y-15154960D01*
X12950301Y-15154960D02*
X12940777Y-15145436D01*
X12940777Y-15145436D02*
X12931253Y-15126388D01*
X12931253Y-15126388D02*
X12921729Y-15088293D01*
X12921729Y-15088293D02*
X12921729Y-15040674D01*
X12921729Y-15040674D02*
X12931253Y-15002579D01*
X12931253Y-15002579D02*
X12940777Y-14983531D01*
X12940777Y-14983531D02*
X12950301Y-14974008D01*
X12950301Y-14974008D02*
X12969348Y-14964484D01*
X13150301Y-15050198D02*
X13131253Y-15040674D01*
X13131253Y-15040674D02*
X13121729Y-15031150D01*
X13121729Y-15031150D02*
X13112206Y-15012103D01*
X13112206Y-15012103D02*
X13112206Y-15002579D01*
X13112206Y-15002579D02*
X13121729Y-14983531D01*
X13121729Y-14983531D02*
X13131253Y-14974008D01*
X13131253Y-14974008D02*
X13150301Y-14964484D01*
X13150301Y-14964484D02*
X13188396Y-14964484D01*
X13188396Y-14964484D02*
X13207444Y-14974008D01*
X13207444Y-14974008D02*
X13216967Y-14983531D01*
X13216967Y-14983531D02*
X13226491Y-15002579D01*
X13226491Y-15002579D02*
X13226491Y-15012103D01*
X13226491Y-15012103D02*
X13216967Y-15031150D01*
X13216967Y-15031150D02*
X13207444Y-15040674D01*
X13207444Y-15040674D02*
X13188396Y-15050198D01*
X13188396Y-15050198D02*
X13150301Y-15050198D01*
X13150301Y-15050198D02*
X13131253Y-15059722D01*
X13131253Y-15059722D02*
X13121729Y-15069246D01*
X13121729Y-15069246D02*
X13112206Y-15088293D01*
X13112206Y-15088293D02*
X13112206Y-15126388D01*
X13112206Y-15126388D02*
X13121729Y-15145436D01*
X13121729Y-15145436D02*
X13131253Y-15154960D01*
X13131253Y-15154960D02*
X13150301Y-15164484D01*
X13150301Y-15164484D02*
X13188396Y-15164484D01*
X13188396Y-15164484D02*
X13207444Y-15154960D01*
X13207444Y-15154960D02*
X13216967Y-15145436D01*
X13216967Y-15145436D02*
X13226491Y-15126388D01*
X13226491Y-15126388D02*
X13226491Y-15088293D01*
X13226491Y-15088293D02*
X13216967Y-15069246D01*
X13216967Y-15069246D02*
X13207444Y-15059722D01*
X13207444Y-15059722D02*
X13188396Y-15050198D01*
X13302682Y-14983531D02*
X13312206Y-14974008D01*
X13312206Y-14974008D02*
X13331253Y-14964484D01*
X13331253Y-14964484D02*
X13378872Y-14964484D01*
X13378872Y-14964484D02*
X13397920Y-14974008D01*
X13397920Y-14974008D02*
X13407444Y-14983531D01*
X13407444Y-14983531D02*
X13416967Y-15002579D01*
X13416967Y-15002579D02*
X13416967Y-15021627D01*
X13416967Y-15021627D02*
X13407444Y-15050198D01*
X13407444Y-15050198D02*
X13293158Y-15164484D01*
X13293158Y-15164484D02*
X13416967Y-15164484D01*
X13483634Y-14964484D02*
X13616967Y-14964484D01*
X13616967Y-14964484D02*
X13531253Y-15164484D01*
X13683634Y-14964484D02*
X13683634Y-15002579D01*
X13759825Y-14964484D02*
X13759825Y-15002579D01*
X14055063Y-15240674D02*
X14045539Y-15231150D01*
X14045539Y-15231150D02*
X14026491Y-15202579D01*
X14026491Y-15202579D02*
X14016968Y-15183531D01*
X14016968Y-15183531D02*
X14007444Y-15154960D01*
X14007444Y-15154960D02*
X13997920Y-15107341D01*
X13997920Y-15107341D02*
X13997920Y-15069246D01*
X13997920Y-15069246D02*
X14007444Y-15021627D01*
X14007444Y-15021627D02*
X14016968Y-14993055D01*
X14016968Y-14993055D02*
X14026491Y-14974008D01*
X14026491Y-14974008D02*
X14045539Y-14945436D01*
X14045539Y-14945436D02*
X14055063Y-14935912D01*
X14121729Y-14983531D02*
X14131253Y-14974008D01*
X14131253Y-14974008D02*
X14150301Y-14964484D01*
X14150301Y-14964484D02*
X14197920Y-14964484D01*
X14197920Y-14964484D02*
X14216968Y-14974008D01*
X14216968Y-14974008D02*
X14226491Y-14983531D01*
X14226491Y-14983531D02*
X14236015Y-15002579D01*
X14236015Y-15002579D02*
X14236015Y-15021627D01*
X14236015Y-15021627D02*
X14226491Y-15050198D01*
X14226491Y-15050198D02*
X14112206Y-15164484D01*
X14112206Y-15164484D02*
X14236015Y-15164484D01*
X14474110Y-15164484D02*
X14474110Y-14964484D01*
X14559825Y-15164484D02*
X14559825Y-15059722D01*
X14559825Y-15059722D02*
X14550301Y-15040674D01*
X14550301Y-15040674D02*
X14531253Y-15031150D01*
X14531253Y-15031150D02*
X14502682Y-15031150D01*
X14502682Y-15031150D02*
X14483634Y-15040674D01*
X14483634Y-15040674D02*
X14474110Y-15050198D01*
X14683634Y-15164484D02*
X14664587Y-15154960D01*
X14664587Y-15154960D02*
X14655063Y-15145436D01*
X14655063Y-15145436D02*
X14645539Y-15126388D01*
X14645539Y-15126388D02*
X14645539Y-15069246D01*
X14645539Y-15069246D02*
X14655063Y-15050198D01*
X14655063Y-15050198D02*
X14664587Y-15040674D01*
X14664587Y-15040674D02*
X14683634Y-15031150D01*
X14683634Y-15031150D02*
X14712206Y-15031150D01*
X14712206Y-15031150D02*
X14731253Y-15040674D01*
X14731253Y-15040674D02*
X14740777Y-15050198D01*
X14740777Y-15050198D02*
X14750301Y-15069246D01*
X14750301Y-15069246D02*
X14750301Y-15126388D01*
X14750301Y-15126388D02*
X14740777Y-15145436D01*
X14740777Y-15145436D02*
X14731253Y-15154960D01*
X14731253Y-15154960D02*
X14712206Y-15164484D01*
X14712206Y-15164484D02*
X14683634Y-15164484D01*
X14864587Y-15164484D02*
X14845539Y-15154960D01*
X14845539Y-15154960D02*
X14836015Y-15135912D01*
X14836015Y-15135912D02*
X14836015Y-14964484D01*
X15016968Y-15154960D02*
X14997920Y-15164484D01*
X14997920Y-15164484D02*
X14959825Y-15164484D01*
X14959825Y-15164484D02*
X14940777Y-15154960D01*
X14940777Y-15154960D02*
X14931253Y-15135912D01*
X14931253Y-15135912D02*
X14931253Y-15059722D01*
X14931253Y-15059722D02*
X14940777Y-15040674D01*
X14940777Y-15040674D02*
X14959825Y-15031150D01*
X14959825Y-15031150D02*
X14997920Y-15031150D01*
X14997920Y-15031150D02*
X15016968Y-15040674D01*
X15016968Y-15040674D02*
X15026491Y-15059722D01*
X15026491Y-15059722D02*
X15026491Y-15078769D01*
X15026491Y-15078769D02*
X14931253Y-15097817D01*
X15102682Y-15154960D02*
X15121730Y-15164484D01*
X15121730Y-15164484D02*
X15159825Y-15164484D01*
X15159825Y-15164484D02*
X15178872Y-15154960D01*
X15178872Y-15154960D02*
X15188396Y-15135912D01*
X15188396Y-15135912D02*
X15188396Y-15126388D01*
X15188396Y-15126388D02*
X15178872Y-15107341D01*
X15178872Y-15107341D02*
X15159825Y-15097817D01*
X15159825Y-15097817D02*
X15131253Y-15097817D01*
X15131253Y-15097817D02*
X15112206Y-15088293D01*
X15112206Y-15088293D02*
X15102682Y-15069246D01*
X15102682Y-15069246D02*
X15102682Y-15059722D01*
X15102682Y-15059722D02*
X15112206Y-15040674D01*
X15112206Y-15040674D02*
X15131253Y-15031150D01*
X15131253Y-15031150D02*
X15159825Y-15031150D01*
X15159825Y-15031150D02*
X15178872Y-15040674D01*
X15255063Y-15240674D02*
X15264587Y-15231150D01*
X15264587Y-15231150D02*
X15283634Y-15202579D01*
X15283634Y-15202579D02*
X15293158Y-15183531D01*
X15293158Y-15183531D02*
X15302682Y-15154960D01*
X15302682Y-15154960D02*
X15312206Y-15107341D01*
X15312206Y-15107341D02*
X15312206Y-15069246D01*
X15312206Y-15069246D02*
X15302682Y-15021627D01*
X15302682Y-15021627D02*
X15293158Y-14993055D01*
X15293158Y-14993055D02*
X15283634Y-14974008D01*
X15283634Y-14974008D02*
X15264587Y-14945436D01*
X15264587Y-14945436D02*
X15255063Y-14935912D01*
M02*
